<?xml version="1.0" encoding="utf-8"?>
<!-- Generator: Adobe Illustrator 21.0.2, SVG Export Plug-In . SVG Version: 6.00 Build 0)  -->
<svg version="1.1" id="Layer_1" xmlns="http://www.w3.org/2000/svg" xmlns:xlink="http://www.w3.org/1999/xlink" x="0px" y="0px"
	 viewBox="0 0 603.3 603.3" style="enable-background:new 0 0 603.3 603.3;" xml:space="preserve">
<style type="text/css">
	.st0{fill:#3B3F4F;}
</style>
<title>calendar icon</title>
<metadata><?xpacket begin="﻿" id="W5M0MpCehiHzreSzNTczkc9d"?>
<x:xmpmeta xmlns:x="adobe:ns:meta/" x:xmptk="Adobe XMP Core 5.6-c137 79.159768, 2016/08/11-13:24:42        ">
   <rdf:RDF xmlns:rdf="http://www.w3.org/1999/02/22-rdf-syntax-ns#">
      <rdf:Description rdf:about=""
            xmlns:dc="http://purl.org/dc/elements/1.1/">
         <dc:title>
            <rdf:Alt>
               <rdf:li xml:lang="x-default">calendar icon</rdf:li>
            </rdf:Alt>
         </dc:title>
      </rdf:Description>
   </rdf:RDF>
</x:xmpmeta>
                                                                                                    
                                                                                                    
                                                                                                    
                                                                                                    
                                                                                                    
                                                                                                    
                                                                                                    
                                                                                                    
                                                                                                    
                                                                                                    
                                                                                                    
                                                                                                    
                                                                                                    
                                                                                                    
                                                                                                    
                                                                                                    
                                                                                                    
                                                                                                    
                                                                                                    
                                                                                                    
                           
<?xpacket end="w"?></metadata>
<path class="st0" d="M15,544.1V100.7C25.1,72.5,45.3,61,74.8,62.5c21.5,1.1,43,0.2,65.7,0.2c0-10.8,0.5-20-0.1-29.2
	c-0.7-10.8,3.1-18.8,12.2-24.5h10.2c9.8,4.8,14,12.4,13.1,23.6c-0.7,9.6-0.2,19.2-0.2,29.5h108.5c0-9.8,0.6-19.1-0.2-28.2
	C283.3,23.2,286.5,15,295.3,9H308c19.9,13.7,6.2,35.5,12.6,53h106.9c0-10.3,0.6-20-0.2-29.5c-1-11.1,3.2-18.7,13.2-23.4h10.2
	c9.2,5.6,12.8,13.8,12.2,24.5c-0.5,9.5-0.1,19-0.1,29.2c22.9,0,43.8,1,64.5-0.2c29.9-1.7,50.7,9.5,61,38.3v443.4
	c-6.5,19-19.2,31.8-38.3,38.2H53.2C34.1,576,21.5,563.1,15,544.1z M140.5,98.3c-24.6,0-47,0-69.5,0c-17.8,0-20.3,2.6-20.3,20.8
	c0,135.4,0,270.9,0,406.3c0,19,2.3,21.3,21.1,21.3c153.3,0,306.5,0,459.8,0c18.7,0,21.1-2.4,21.1-21.4c0-135.4,0-270.9,0-406.3
	c0-3,1.1-6.7-0.3-8.8c-3.1-4.4-7.3-11.2-11.2-11.3c-25.7-1-51.5-0.5-78.3-0.5c0,11.5,0.1,21.7,0,31.8c-0.2,14.1-6.5,21.6-17.7,21.7
	c-11.6,0.1-17.4-6.9-17.5-21.4c-0.1-10.5,0-20.9,0-31.6H319c0,11.5,0.2,22.4,0,33.3c-0.3,13.4-6.6,20-18,19.6
	c-10.7-0.3-16.3-6.9-16.6-19.7c-0.2-10.9,0-21.9,0-32.9H176.9c-0.4,1.1-0.7,2.2-1,3.3c-0.1,8.9-0.1,17.8-0.2,26.7
	c-0.1,15.5-5.8,22.7-17.7,22.6c-11.5-0.1-17.4-7.8-17.6-23.1C140.4,119.1,140.5,109.4,140.5,98.3z"/>
<path class="st0" d="M398,404.5h58.9c3,0,5.4,2.4,5.4,5.4v40.4c0,3-2.4,5.4-5.4,5.4H398c-3,0-5.4-2.4-5.4-5.4v-40.4
	C392.6,406.9,395,404.5,398,404.5z"/>
<path class="st0" d="M146.6,404.3h58.8c3,0,5.4,2.4,5.4,5.4v40.9c0,3-2.4,5.4-5.4,5.4h-58.8c-3,0-5.4-2.4-5.4-5.4v-40.9
	C141.2,406.7,143.7,404.3,146.6,404.3z"/>
<path class="st0" d="M272.7,404.6h57.9c3,0,5.4,2.4,5.4,5.4v40.9c0,3-2.4,5.4-5.4,5.4h-57.9c-3,0-5.4-2.4-5.4-5.4V410
	C267.3,407,269.7,404.6,272.7,404.6z"/>
<path class="st0" d="M397.9,315h58.6c3,0,5.4,2.4,5.4,5.4v40.3c0,3-2.4,5.4-5.4,5.4h-58.6c-3,0-5.4-2.4-5.4-5.4v-40.3
	C392.6,317.4,395,315,397.9,315z"/>
<path class="st0" d="M146.7,314.7h58.4c3,0,5.4,2.4,5.4,5.4v40.3c0,3-2.4,5.4-5.4,5.4h-58.4c-3,0-5.4-2.4-5.4-5.4v-40.3
	C141.3,317.1,143.7,314.7,146.7,314.7z"/>
<path class="st0" d="M397.7,225.2h58.8c3,0,5.4,2.4,5.4,5.4V271c0,3-2.4,5.4-5.4,5.4h-58.8c-3,0-5.4-2.4-5.4-5.4v-40.5
	C392.3,227.6,394.8,225.2,397.7,225.2z"/>
<path class="st0" d="M146.7,225.2h58.7c3,0,5.4,2.4,5.4,5.4V271c0,3-2.4,5.4-5.4,5.4h-58.7c-3,0-5.4-2.4-5.4-5.4v-40.4
	C141.4,227.6,143.8,225.2,146.7,225.2z"/>
<path class="st0" d="M272.5,314.9h58.4c3,0,5.4,2.4,5.4,5.4v40.5c0,3-2.4,5.4-5.4,5.4h-58.4c-3,0-5.4-2.4-5.4-5.4v-40.5
	C267.1,317.4,269.5,314.9,272.5,314.9z"/>
<path class="st0" d="M272.6,225.2H331c3,0,5.4,2.4,5.4,5.4v40.3c0,3-2.4,5.4-5.4,5.4h-58.3c-3,0-5.4-2.4-5.4-5.4v-40.3
	C267.2,227.6,269.7,225.2,272.6,225.2z"/>
</svg>
