<svg xmlns="http://www.w3.org/2000/svg" xmlns:xlink="http://www.w3.org/1999/xlink" viewBox="0 0 681 336"><defs><style>.cls-1,.cls-3{fill:none;}.cls-2{clip-path:url(#clip-path);}.cls-3{stroke:#231f20;stroke-miterlimit:10;stroke-width:2px;}.cls-4{fill:#231f20;}</style><clipPath id="clip-path"><path class="cls-1" d="M263,84.8V198.22H418.51V84.8c0-46.09-35-83.8-77.77-83.8S263,38.71,263,84.8"/></clipPath></defs><title>Stacked Logo</title><g id="Layer_2" data-name="Layer 2"><g id="Stacked_Logo" data-name="Stacked Logo"><g id="Stacked_Logo-2" data-name="Stacked Logo"><g id="Logo"><g class="cls-2"><line class="cls-3" x1="418.51" y1="87.19" x2="349.03" y2="198.11"/><line class="cls-3" x1="378.97" y1="11.9" x2="343.35" y2="198.22"/><line class="cls-3" x1="262.98" y1="87.72" x2="332.19" y2="198.22"/><line class="cls-3" x1="302.28" y1="11.19" x2="338.04" y2="198.22"/><line class="cls-3" x1="327.01" y1="198.22" x2="262.93" y2="112.58"/><line class="cls-3" x1="340.63" y1="198.22" x2="366.66" y2="5.82"/></g><path class="cls-3" d="M418.51,84.8c0-46.08-35-83.8-77.77-83.8S263,38.72,263,84.8V198.22H418.51Z"/></g><g id="Wordmark"><g id="Village_Theater" data-name="Village Theater"><polygon class="cls-4" points="0 290.69 19.26 290.69 19.26 291.56 12.34 291.56 26.18 327.71 39.83 291.56 33.04 291.56 33.04 290.69 46.5 290.69 46.5 291.56 40.89 291.56 24.12 336 22.56 336 5.61 291.56 0 291.56 0 290.69"/><polygon class="cls-4" points="52.79 334.19 59.71 334.19 59.71 291.56 52.79 291.56 52.79 290.69 72.86 290.69 72.86 291.56 65.94 291.56 65.94 334.19 72.86 334.19 72.86 335.06 52.79 335.06 52.79 334.19"/><path class="cls-4" d="M81.77,334.19h6.92V291.56H81.77v-.88h20.07v.88H94.92v42.63H106a11,11,0,0,0,8.6-3.43,21,21,0,0,0,4.55-9.35h.69v13.65H81.77Z"/><path class="cls-4" d="M129.45,334.19h6.92V291.56h-6.92v-.88h20.07v.88H142.6v42.63h11.1a11,11,0,0,0,8.6-3.43,21,21,0,0,0,4.55-9.35h.69v13.65H129.45Z"/><path class="cls-4" d="M175.21,334.19h5.48l16.83-44.63H199L216,334.19h5.54v.87H202.32v-.87h6.92l-6.55-17.33H188.24l-6.55,17.33h6.92v.87h-13.4Zm20.25-36.34L188.61,316h13.71Z"/><path class="cls-4" d="M272.81,319.17h-5v14.15h-.75a5.65,5.65,0,0,0-1.12-.93,2.81,2.81,0,0,0-1.37-.26,4.89,4.89,0,0,0-2.28.6l-2.68,1.34a23.49,23.49,0,0,1-3.58,1.34,18.45,18.45,0,0,1-5,.59,19.73,19.73,0,0,1-7.85-1.47,21.24,21.24,0,0,1-6.61-4.64,26.83,26.83,0,0,1-5.17-7.36,21.4,21.4,0,0,1-2.06-9.53,23.26,23.26,0,0,1,.81-6.39,23.64,23.64,0,0,1,2-4.95,20.53,20.53,0,0,1,2.36-3.56c.81-1,1.49-1.7,2-2.24a23.32,23.32,0,0,1,6.42-4.55,18.69,18.69,0,0,1,8.22-1.75,17.34,17.34,0,0,1,3.9.37,19.79,19.79,0,0,1,2.65.85l2,.84a5.28,5.28,0,0,0,2,.37,3.44,3.44,0,0,0,1.78-.34,4.6,4.6,0,0,0,1-1h.93v12.47h-.68a25.6,25.6,0,0,0-1-3.8,14.28,14.28,0,0,0-2.24-4.18,12.56,12.56,0,0,0-4.06-3.36,13.35,13.35,0,0,0-6.45-1.37,13,13,0,0,0-7.51,2,13.4,13.4,0,0,0-4.42,5.17,22.87,22.87,0,0,0-2.12,7.26,61.82,61.82,0,0,0-.53,8.17c0,1.87.08,3.74.25,5.61a35.59,35.59,0,0,0,.84,5.3,20.79,20.79,0,0,0,1.65,4.61,11.74,11.74,0,0,0,2.74,3.61,10.94,10.94,0,0,0,3.87,2.34,16.83,16.83,0,0,0,5.17.65,11.81,11.81,0,0,0,3.86-.65,10.49,10.49,0,0,0,3.46-2,10.14,10.14,0,0,0,2.5-3.34,11,11,0,0,0,1-4.77v-5.23h-8v-.87h19Z"/><path class="cls-4" d="M281,334.19H288V291.56H281v-.88h35.66v10.79H316a32.73,32.73,0,0,0-1.75-4.27,11.67,11.67,0,0,0-2.25-3.12,8.31,8.31,0,0,0-3.11-1.9,13.38,13.38,0,0,0-4.37-.62H294.19v19.26h4.05a14,14,0,0,0,3.49-.38,5.22,5.22,0,0,0,2.46-1.4,8.24,8.24,0,0,0,1.75-2.8,35,35,0,0,0,1.4-4.59H308V321h-.68c-.29-1.21-.59-2.37-.9-3.49a11,11,0,0,0-1.31-3,6.19,6.19,0,0,0-2.25-2.09,7.42,7.42,0,0,0-3.64-.78h-5.05v22.5H306a10.38,10.38,0,0,0,5.7-1.46,13.5,13.5,0,0,0,3.71-3.49A15.29,15.29,0,0,0,317.5,325a21.38,21.38,0,0,0,.87-3.62h.69v13.65H281Z"/><path class="cls-4" d="M356,334.19h6.92V291.56h-3.61a19.84,19.84,0,0,0-2.81.22,8.07,8.07,0,0,0-3.15,1.21,10.71,10.71,0,0,0-3.05,3.15,20.17,20.17,0,0,0-2.52,5.95h-.69V290.68H385v11.41h-.69a20.44,20.44,0,0,0-2.52-5.95,10.86,10.86,0,0,0-3.06-3.15,7.91,7.91,0,0,0-3.14-1.21,19.84,19.84,0,0,0-2.81-.22h-3.61v42.63h6.91v.87H356Z"/><polygon class="cls-4" points="394.23 334.19 401.15 334.19 401.15 291.56 394.23 291.56 394.23 290.69 414.3 290.69 414.3 291.56 407.38 291.56 407.38 311.94 428.14 311.94 428.14 291.56 421.22 291.56 421.22 290.69 441.29 290.69 441.29 291.56 434.37 291.56 434.37 334.19 441.29 334.19 441.29 335.06 421.22 335.06 421.22 334.19 428.14 334.19 428.14 312.81 407.38 312.81 407.38 334.19 414.3 334.19 414.3 335.06 394.23 335.06 394.23 334.19"/><path class="cls-4" d="M450,334.19h6.92V291.56H450v-.88h35.65v10.79H485a30.16,30.16,0,0,0-1.75-4.27,11.65,11.65,0,0,0-2.24-3.12,8.28,8.28,0,0,0-3.12-1.9,13.27,13.27,0,0,0-4.36-.62H463.16v19.26h4a14,14,0,0,0,3.5-.38,5.27,5.27,0,0,0,2.46-1.4,8.4,8.4,0,0,0,1.75-2.8,35.14,35.14,0,0,0,1.39-4.59H477V321h-.69c-.28-1.21-.58-2.37-.89-3.49a11.32,11.32,0,0,0-1.31-3,6.19,6.19,0,0,0-2.25-2.09,7.48,7.48,0,0,0-3.65-.78h-5v22.5h11.78a10.41,10.41,0,0,0,5.71-1.46,13.65,13.65,0,0,0,3.71-3.49,15.25,15.25,0,0,0,2.11-4.21,22.58,22.58,0,0,0,.88-3.62H488v13.65H450Z"/><path class="cls-4" d="M497,334.19h5.48l16.83-44.63h1.5l17,44.63h5.55v.87h-19.2v-.87H531l-6.54-17.33H510l-6.55,17.33h6.92v.87H497Zm20.25-36.34L510.35,316h13.71Z"/><path class="cls-4" d="M554.78,334.19h6.92V291.56h-3.61a19.84,19.84,0,0,0-2.81.22,8,8,0,0,0-3.14,1.21,10.86,10.86,0,0,0-3.06,3.15,20.44,20.44,0,0,0-2.52,5.95h-.69V290.68h37.9v11.41h-.69a20.44,20.44,0,0,0-2.52-5.95A10.86,10.86,0,0,0,577.5,293a7.91,7.91,0,0,0-3.14-1.21,19.84,19.84,0,0,0-2.81-.22h-3.61v42.63h6.91v.87H554.78Z"/><path class="cls-4" d="M593,334.19h6.92V291.56H593v-.88h11.84c.5,0,1,0,1.5,0s1,0,1.5-.09,1,0,1.49,0l1.5,0a45.9,45.9,0,0,1,6.48.4,10.9,10.9,0,0,1,5.24,2.34,9.6,9.6,0,0,1,3.08,3.8,10.28,10.28,0,0,1,.91,4,11.48,11.48,0,0,1-.34,2.4,8.4,8.4,0,0,1-1.5,3,11.25,11.25,0,0,1-3.34,2.81,15,15,0,0,1-5.79,1.71v.12c.66.09,1.56.24,2.71.47a16.75,16.75,0,0,1,3.49,1.15,13.44,13.44,0,0,1,3.27,2.16,7.3,7.3,0,0,1,2.12,3.46,15.35,15.35,0,0,1,.53,2.83c.1,1.06.19,2.15.25,3.27s.12,2.21.19,3.24a15,15,0,0,0,.34,2.62,9.53,9.53,0,0,0,1.18,2.93,2.84,2.84,0,0,0,2.62,1.31,4.91,4.91,0,0,0,1.68-.31,4.13,4.13,0,0,0,1.56-1l.56.69c-.2.16-.45.34-.71.53a5.45,5.45,0,0,1-1,.53,8,8,0,0,1-1.53.4,12.59,12.59,0,0,1-2.21.16,12,12,0,0,1-4.15-.62,6.23,6.23,0,0,1-2.65-1.84,7.82,7.82,0,0,1-1.46-3,24.57,24.57,0,0,1-.66-4.15l-.43-5.67a11.75,11.75,0,0,0-1.25-4.86,6.74,6.74,0,0,0-2.34-2.56,6.66,6.66,0,0,0-2.77-1,22,22,0,0,0-2.49-.16h-6.24v22.5h6.92v.87H593Zm13.15-23.37h5.74a11,11,0,0,0,3.18-.44,5.57,5.57,0,0,0,2.46-1.53,7.25,7.25,0,0,0,1.59-3,16.87,16.87,0,0,0,.56-4.73,13.47,13.47,0,0,0-.84-5.21,7.07,7.07,0,0,0-2.18-3,7.31,7.31,0,0,0-3-1.31,18.38,18.38,0,0,0-3.28-.31c-.75,0-1.51,0-2.27,0a15,15,0,0,0-2,.15Z"/><path class="cls-4" d="M643,334.19h6.92V291.56H643v-.88h35.65v10.79H678a32.73,32.73,0,0,0-1.75-4.27,11.65,11.65,0,0,0-2.24-3.12,8.35,8.35,0,0,0-3.12-1.9,13.31,13.31,0,0,0-4.36-.62H656.13v19.26h4a13.93,13.93,0,0,0,3.49-.38,5.22,5.22,0,0,0,2.46-1.4,8.24,8.24,0,0,0,1.75-2.8,33.51,33.51,0,0,0,1.4-4.59H670V321h-.69c-.29-1.21-.59-2.37-.9-3.49a10.71,10.71,0,0,0-1.31-3,6.12,6.12,0,0,0-2.25-2.09,7.42,7.42,0,0,0-3.64-.78h-5v22.5h11.78a10.38,10.38,0,0,0,5.7-1.46,13.5,13.5,0,0,0,3.71-3.49,15.29,15.29,0,0,0,2.12-4.21,21.38,21.38,0,0,0,.87-3.62H681v13.65H643Z"/></g><g id="Highliand_Park" data-name="Highliand Park"><path class="cls-4" d="M123,234.33a.63.63,0,0,1,.62-.61h2.13a.61.61,0,0,1,.62.61v9.06H138.3v-9.06a.61.61,0,0,1,.61-.61h2.14a.63.63,0,0,1,.62.61v21.5a.63.63,0,0,1-.62.61h-2.14a.61.61,0,0,1-.61-.61v-9.39H126.41v9.39a.61.61,0,0,1-.62.61h-2.13a.63.63,0,0,1-.62-.61Z"/><rect class="cls-4" x="162.86" y="233.72" width="3.38" height="22.72" rx="0.62" ry="0.62"/><path class="cls-4" d="M197.48,233.39a11.79,11.79,0,0,1,7.88,3,.62.62,0,0,1,0,.91c-.49.52-1,1-1.46,1.52-.26.3-.53.27-.85,0a8.59,8.59,0,0,0-5.52-2.21,8.42,8.42,0,0,0,0,16.84,11.4,11.4,0,0,0,4.87-1.1v-3.63h-3.18a.58.58,0,0,1-.61-.59v-1.88a.6.6,0,0,1,.61-.62h5.91a.62.62,0,0,1,.59.62c0,2.6,0,5.26,0,7.85a.8.8,0,0,1-.27.53,16.2,16.2,0,0,1-8,2.14,11.69,11.69,0,1,1,0-23.38"/><path class="cls-4" d="M225.79,234.33a.63.63,0,0,1,.61-.61h2.14a.61.61,0,0,1,.62.61v9.06H241v-9.06a.61.61,0,0,1,.62-.61h2.14a.63.63,0,0,1,.61.61v21.5a.63.63,0,0,1-.61.61h-2.14a.61.61,0,0,1-.62-.61v-9.39H229.16v9.39a.61.61,0,0,1-.62.61H226.4a.63.63,0,0,1-.61-.61Z"/><path class="cls-4" d="M265.61,234.33a.61.61,0,0,1,.62-.61h2.13a.63.63,0,0,1,.62.61v19.09h8.8a.62.62,0,0,1,.62.62v1.79a.61.61,0,0,1-.62.61H266.23a.61.61,0,0,1-.62-.61Z"/><path class="cls-4" d="M294.67,255.6l10-21.85a.78.78,0,0,1,.55-.36h.33a.78.78,0,0,1,.55.36L316,255.6a.57.57,0,0,1-.55.84h-2.05a.75.75,0,0,1-.74-.49l-2-4.44H300c-.65,1.49-1.33,3-2,4.44a.81.81,0,0,1-.74.49h-2a.57.57,0,0,1-.55-.84m14.71-6.89-4-8.89h-.16l-4,8.89Z"/><path class="cls-4" d="M334.11,234a.61.61,0,0,1,.61-.58h.81l14.09,16.29h0V234.33a.61.61,0,0,1,.61-.61h2.08a.64.64,0,0,1,.62.61v21.85a.62.62,0,0,1-.62.59h-.84L337.42,240h0v15.8a.62.62,0,0,1-.62.62h-2a.63.63,0,0,1-.61-.62Z"/><path class="cls-4" d="M374.17,234.33a.61.61,0,0,1,.58-.61h7.46a11.36,11.36,0,1,1,0,22.72h-7.46a.61.61,0,0,1-.58-.61Zm7.59,19a8.28,8.28,0,0,0,0-16.56h-4.29v16.56Z"/><path class="cls-4" d="M435.24,234.33a.61.61,0,0,1,.62-.61h7.4a7.24,7.24,0,1,1,0,14.48h-4.7v7.62a.65.65,0,0,1-.63.62h-2.1a.62.62,0,0,1-.62-.62ZM443.06,245a4.14,4.14,0,0,0,4.13-4.16,4,4,0,0,0-4.13-3.89h-4.47V245Z"/><path class="cls-4" d="M465.27,255.6l10-21.85a.78.78,0,0,1,.55-.36h.33a.75.75,0,0,1,.54.36l9.91,21.85a.57.57,0,0,1-.55.84H484a.76.76,0,0,1-.75-.49l-2-4.44H470.59c-.65,1.49-1.33,3-2,4.44a.81.81,0,0,1-.75.49h-2a.57.57,0,0,1-.55-.84m14.7-6.89-4-8.89h-.16l-4,8.89Z"/><path class="cls-4" d="M504.71,234.33a.61.61,0,0,1,.62-.61h8.82a7,7,0,0,1,7.08,6.95,7.21,7.21,0,0,1-4.81,6.59l4.45,8.24a.61.61,0,0,1-.55.94h-2.53a.6.6,0,0,1-.52-.29l-4.32-8.6h-4.9v8.28a.63.63,0,0,1-.62.61h-2.1a.61.61,0,0,1-.62-.61Zm9.18,10.43a4,4,0,0,0,4-4,4,4,0,0,0-4-3.86h-5.77v7.89Z"/><path class="cls-4" d="M541.2,234.5a.77.77,0,0,1,.78-.78h1.88a.79.79,0,0,1,.78.78v9l9.15-9.44a.82.82,0,0,1,.62-.33h2.43a.67.67,0,0,1,.46,1.17l-9.38,9.54,9.92,10.94a.68.68,0,0,1-.58,1.07h-2.59a.74.74,0,0,1-.59-.22l-9.44-10.65v10.09a.79.79,0,0,1-.78.78H542a.77.77,0,0,1-.78-.78Z"/></g></g></g></g></g></svg>