<?xml version="1.0" encoding="utf-8"?>
<!-- Generator: Adobe Illustrator 21.0.2, SVG Export Plug-In . SVG Version: 6.00 Build 0)  -->
<svg version="1.1" id="Layer_1" xmlns="http://www.w3.org/2000/svg" xmlns:xlink="http://www.w3.org/1999/xlink" x="0px" y="0px"
	 viewBox="0 0 342 414" style="enable-background:new 0 0 342 414;" xml:space="preserve">
<metadata><?xpacket begin="﻿" id="W5M0MpCehiHzreSzNTczkc9d"?>
<x:xmpmeta xmlns:x="adobe:ns:meta/" x:xmptk="Adobe XMP Core 5.6-c137 79.159768, 2016/08/11-13:24:42        ">
   <rdf:RDF xmlns:rdf="http://www.w3.org/1999/02/22-rdf-syntax-ns#">
      <rdf:Description rdf:about=""/>
   </rdf:RDF>
</x:xmpmeta>
                                                                                                    
                                                                                                    
                                                                                                    
                                                                                                    
                                                                                                    
                                                                                                    
                                                                                                    
                                                                                                    
                                                                                                    
                                                                                                    
                                                                                                    
                                                                                                    
                                                                                                    
                                                                                                    
                                                                                                    
                                                                                                    
                                                                                                    
                                                                                                    
                                                                                                    
                                                                                                    
                           
<?xpacket end="w"?></metadata>
<style type="text/css">
	.st0{fill:#3F414F;}
</style>
<g>
	<path class="st0" d="M18.1,235v-36l126.1,201.3h-2.4L18.1,235z M18.1,245.7l115.8,154.7H18.1V245.7z M160,400.4h-5.9L18.1,183.1
		v-4.7c0-59.3,29.1-111.4,72.7-140.5L160,400.4z M168.6,400L98.4,33.1C120,20.5,144.8,13.3,171,13.3c17,0,33.4,3.1,48.7,8.6
		L168.6,400z M178.9,371.5l47-347.2c6.1,2.5,12,5.5,17.7,8.8L178.9,371.5z M197.8,400.4l126.1-201.3v201.3H197.8z M323.9,183.1
		L187.8,400.4H182L251.3,38c43.6,29.1,72.7,81.2,72.7,140.5V183.1z M9.6,178.4v229.2h4.2v1.2h315.8v-1.2h2.8V178.4
		C332.4,82.7,260,4.9,171,4.9C82,4.9,9.6,82.7,9.6,178.4"/>
</g>
</svg>
