<?xml version="1.0" encoding="UTF-8"?>
<svg width="24px" height="24px" viewBox="0 0 24 24" version="1.1" xmlns="http://www.w3.org/2000/svg" xmlns:xlink="http://www.w3.org/1999/xlink">
    <!-- Generator: Sketch 48.2 (47327) - http://www.bohemiancoding.com/sketch -->
    <title>Icon/Movie</title>
    <desc>Created with Sketch.</desc>
    <defs>
        <path d="M18.5555556,2 L18.5555556,4.22222222 L16.3333333,4.22222222 L16.3333333,2 L7.44444444,2 L7.44444444,4.22222222 L5.22222222,4.22222222 L5.22222222,2 L3,2 L3,22 L5.22222222,22 L5.22222222,19.7777778 L7.44444444,19.7777778 L7.44444444,22 L16.3333333,22 L16.3333333,19.7777778 L18.5555556,19.7777778 L18.5555556,22 L20.7777778,22 L20.7777778,2 L18.5555556,2 Z M7.44444444,17.5555556 L5.22222222,17.5555556 L5.22222222,15.3333333 L7.44444444,15.3333333 L7.44444444,17.5555556 Z M7.44444444,13.1111111 L5.22222222,13.1111111 L5.22222222,10.8888889 L7.44444444,10.8888889 L7.44444444,13.1111111 Z M7.44444444,8.66666667 L5.22222222,8.66666667 L5.22222222,6.44444444 L7.44444444,6.44444444 L7.44444444,8.66666667 Z M18.5555556,17.5555556 L16.3333333,17.5555556 L16.3333333,15.3333333 L18.5555556,15.3333333 L18.5555556,17.5555556 Z M18.5555556,13.1111111 L16.3333333,13.1111111 L16.3333333,10.8888889 L18.5555556,10.8888889 L18.5555556,13.1111111 Z M18.5555556,8.66666667 L16.3333333,8.66666667 L16.3333333,6.44444444 L18.5555556,6.44444444 L18.5555556,8.66666667 Z" id="path-1"></path>
    </defs>
    <g id="Symbols" stroke="none" stroke-width="1" fill="none" fill-rule="evenodd">
        <g id="Icon/Movie">
            <rect id="24pt-Bounding-Box" x="0" y="0" width="24" height="24"></rect>
            <mask id="mask-2" fill="white">
                <use xlink:href="#path-1"></use>
            </mask>
            <use id="Movie" fill="#000000" fill-rule="nonzero" xlink:href="#path-1"></use>
            <g id="Color/Primary" mask="url(#mask-2)" fill="#9BC1BF">
                <rect id="Base" x="0" y="0" width="24" height="24"></rect>
            </g>
        </g>
    </g>
</svg>