<?xml version="1.0" encoding="UTF-8"?>
<svg width="24px" height="24px" viewBox="0 0 24 24" version="1.1" xmlns="http://www.w3.org/2000/svg" xmlns:xlink="http://www.w3.org/1999/xlink">
    <!-- Generator: Sketch 48.2 (47327) - http://www.bohemiancoding.com/sketch -->
    <title>Icon/Social/Instagram</title>
    <desc>Created with Sketch.</desc>
    <defs>
        <path d="M7.86957,2.12765 C6.24169,2.2011 4.83072,2.59912 3.6914,3.73363 C2.5481,4.8741 2.15506,6.2905 2.08143,7.90145 C2.035658,8.90693 1.767993,16.5031 2.544123,18.49525 C3.067513,19.83919 4.098373,20.87246 5.454613,21.39753 C6.087457,21.64369 6.809853,21.81044 7.869573,21.85908 C16.730393,22.26008 20.014973,22.04171 21.400073,18.49525 C21.645847,17.86397 21.815004,17.14237 21.861771,16.08528 C22.266751,7.20174 21.796098,5.27618 20.251801,3.73368 C19.026911,2.51182 17.586091,1.68005 7.869501,2.1277 M7.951094,20.0724 C6.980932,20.02872 6.454554,19.86693 6.103304,19.73095 C5.21971,19.38752 4.556024,18.72647 4.214724,17.84804 C3.623671,16.33436 3.819694,9.14515 3.872431,7.98185 C3.924173,6.84237 4.155022,5.80116 4.959011,4.99718 C5.954049,4.0046 7.239641,3.51824 15.993011,3.91329 C17.135311,3.9649 18.179111,4.19518 18.985091,4.99718 C19.980129,5.98975 20.473671,7.28506 20.071671,16.00488 C20.027889,16.97264 19.865698,17.49771 19.729378,17.84809 C18.828868,20.15582 16.757198,20.47642 7.951078,20.07245 M16.089498,6.69455 C16.089498,7.35164 16.623833,7.88564 17.283548,7.88564 C17.943258,7.88564 18.478588,7.35164 18.478588,6.69455 C18.478588,6.03747 17.943257,5.50346 17.283548,5.50346 C16.623837,5.50346 16.089498,6.03747 16.089498,6.69455 M6.862508,11.99291 C6.862508,14.80785 9.150098,17.08978 11.972028,17.08978 C14.793958,17.08978 17.081548,14.80785 17.081548,11.99291 C17.081548,9.17797 14.793958,6.89704 11.972028,6.89704 C9.150098,6.89704 6.862508,9.17797 6.862508,11.99291 M8.655568,11.99291 C8.655568,10.16658 10.140168,8.68466 11.972028,8.68466 C13.803898,8.68466 15.288488,10.16658 15.288488,11.99291 C15.288488,13.82024 13.803888,15.30215 11.972028,15.30215 C10.140168,15.30215 8.655568,13.82024 8.655568,11.99291" id="path-1"></path>
    </defs>
    <g id="Symbols" stroke="none" stroke-width="1" fill="none" fill-rule="evenodd">
        <g id="Icon/Social/Instagram">
            <rect id="24pt-Bounding-Box" x="0" y="0" width="24" height="24"></rect>
            <mask id="mask-2" fill="white">
                <use xlink:href="#path-1"></use>
            </mask>
            <g id="Instagram"></g>
            <g id="Color/Primary" mask="url(#mask-2)" fill="#9BC1BF">
                <rect id="Base" x="0" y="0" width="24" height="24"></rect>
            </g>
        </g>
    </g>
</svg>