<?xml version="1.0" encoding="UTF-8"?>
<svg width="50px" height="50px" viewBox="0 0 50 50" version="1.1" xmlns="http://www.w3.org/2000/svg" xmlns:xlink="http://www.w3.org/1999/xlink">
    <!-- Generator: Sketch 49.1 (51147) - http://www.bohemiancoding.com/sketch -->
    <title>Atom/Icon/Social/Facebook</title>
    <desc>Created with Sketch.</desc>
    <defs>
        <path d="M47.2330729,0 C47.9926253,0 48.6436605,0.271264648 49.1861979,0.813802083 C49.7287354,1.35633952 50,2.00737467 50,2.76692708 L50,47.2330729 C50,47.9926253 49.7287354,48.6436605 49.1861979,49.1861979 C48.6436605,49.7287354 47.9926253,50 47.2330729,50 L34.5052083,50 L34.5052083,30.6315104 L40.9830729,30.6315104 L41.9596354,23.0794271 L34.5052083,23.0794271 L34.5052083,18.2617187 C34.5052083,17.0464349 34.7601971,16.1349857 35.2701823,15.5273438 C35.7801675,14.9197018 36.7729961,14.6158854 38.2486979,14.6158854 L42.2200521,14.5833333 L42.2200521,7.84505208 C40.8528577,7.64973861 38.9214535,7.55208333 36.4257813,7.55208333 C33.4743776,7.55208333 31.1143752,8.42013021 29.3457031,10.15625 C27.5770311,11.8923698 26.6927083,14.3446022 26.6927083,17.5130208 L26.6927083,23.0794271 L20.1822917,23.0794271 L20.1822917,30.6315104 L26.6927083,30.6315104 L26.6927083,50 L2.76692708,50 C2.00737467,50 1.35633952,49.7287354 0.813802083,49.1861979 C0.271264648,48.6436605 0,47.9926253 0,47.2330729 L0,2.76692708 C0,2.00737467 0.271264648,1.35633952 0.813802083,0.813802083 C1.35633952,0.271264648 2.00737467,0 2.76692708,0 L47.2330729,0 Z" id="path-1"></path>
    </defs>
    <g id="Symbols" stroke="none" stroke-width="1" fill="none" fill-rule="evenodd">
        <g id="Molecule/Nav/Desktop/Closed" transform="translate(-1065.000000, -10.000000)">
            <g id="Group-2">
                <g id="Atom/Icon/Social/Facebook" transform="translate(1065.000000, 10.000000)">
                    <g>
                        <mask id="mask-2" fill="white">
                            <use xlink:href="#path-1"></use>
                        </mask>
                        <use id="Facebook" fill="#080708" xlink:href="#path-1"></use>
                        <g id="Atom/Color/Brand/Primary" mask="url(#mask-2)" fill="#E7D24F">
                            <rect id="Color" x="0" y="0" width="50" height="50"></rect>
                        </g>
                    </g>
                </g>
            </g>
        </g>
    </g>
</svg>