<?xml version="1.0" encoding="UTF-8"?>
<svg width="18px" height="14px" viewBox="0 0 18 14" version="1.1" xmlns="http://www.w3.org/2000/svg" xmlns:xlink="http://www.w3.org/1999/xlink">
    <!-- Generator: Sketch 49.1 (51147) - http://www.bohemiancoding.com/sketch -->
    <title>Core Icons/view-module</title>
    <desc>Created with Sketch.</desc>
    <defs>
        <path d="M5.14285714,11.1875 L5.14285714,13.0625 C5.14285714,13.322918 5.04910808,13.5442699 4.86160714,13.7265625 C4.67410621,13.9088551 4.44642991,14 4.17857143,14 L0.964285714,14 C0.696427232,14 0.468750937,13.9088551 0.28125,13.7265625 C0.0937490625,13.5442699 0,13.322918 0,13.0625 L0,11.1875 C0,10.927082 0.0937490625,10.7057301 0.28125,10.5234375 C0.468750937,10.3411449 0.696427232,10.25 0.964285714,10.25 L4.17857143,10.25 C4.44642991,10.25 4.67410621,10.3411449 4.86160714,10.5234375 C5.04910808,10.7057301 5.14285714,10.927082 5.14285714,11.1875 Z M5.14285714,6.1875 L5.14285714,8.0625 C5.14285714,8.32291797 5.04910808,8.54426992 4.86160714,8.7265625 C4.67410621,8.90885508 4.44642991,9 4.17857143,9 L0.964285714,9 C0.696427232,9 0.468750937,8.90885508 0.28125,8.7265625 C0.0937490625,8.54426992 0,8.32291797 0,8.0625 L0,6.1875 C0,5.92708203 0.0937490625,5.70573008 0.28125,5.5234375 C0.468750937,5.34114492 0.696427232,5.25 0.964285714,5.25 L4.17857143,5.25 C4.44642991,5.25 4.67410621,5.34114492 4.86160714,5.5234375 C5.04910808,5.70573008 5.14285714,5.92708203 5.14285714,6.1875 Z M11.5714286,11.1875 L11.5714286,13.0625 C11.5714286,13.322918 11.4776795,13.5442699 11.2901786,13.7265625 C11.1026776,13.9088551 10.8750013,14 10.6071429,14 L7.39285714,14 C7.12499866,14 6.89732237,13.9088551 6.70982143,13.7265625 C6.52232049,13.5442699 6.42857143,13.322918 6.42857143,13.0625 L6.42857143,11.1875 C6.42857143,10.927082 6.52232049,10.7057301 6.70982143,10.5234375 C6.89732237,10.3411449 7.12499866,10.25 7.39285714,10.25 L10.6071429,10.25 C10.8750013,10.25 11.1026776,10.3411449 11.2901786,10.5234375 C11.4776795,10.7057301 11.5714286,10.927082 11.5714286,11.1875 Z M5.14285714,1.1875 L5.14285714,3.0625 C5.14285714,3.32291797 5.04910808,3.54426992 4.86160714,3.7265625 C4.67410621,3.90885508 4.44642991,4 4.17857143,4 L0.964285714,4 C0.696427232,4 0.468750937,3.90885508 0.28125,3.7265625 C0.0937490625,3.54426992 0,3.32291797 0,3.0625 L0,1.1875 C0,0.927082031 0.0937490625,0.705730078 0.28125,0.5234375 C0.468750937,0.341144922 0.696427232,0.25 0.964285714,0.25 L4.17857143,0.25 C4.44642991,0.25 4.67410621,0.341144922 4.86160714,0.5234375 C5.04910808,0.705730078 5.14285714,0.927082031 5.14285714,1.1875 Z M11.5714286,6.1875 L11.5714286,8.0625 C11.5714286,8.32291797 11.4776795,8.54426992 11.2901786,8.7265625 C11.1026776,8.90885508 10.8750013,9 10.6071429,9 L7.39285714,9 C7.12499866,9 6.89732237,8.90885508 6.70982143,8.7265625 C6.52232049,8.54426992 6.42857143,8.32291797 6.42857143,8.0625 L6.42857143,6.1875 C6.42857143,5.92708203 6.52232049,5.70573008 6.70982143,5.5234375 C6.89732237,5.34114492 7.12499866,5.25 7.39285714,5.25 L10.6071429,5.25 C10.8750013,5.25 11.1026776,5.34114492 11.2901786,5.5234375 C11.4776795,5.70573008 11.5714286,5.92708203 11.5714286,6.1875 Z M18,11.1875 L18,13.0625 C18,13.322918 17.9062509,13.5442699 17.71875,13.7265625 C17.5312491,13.9088551 17.3035728,14 17.0357143,14 L13.8214286,14 C13.5535701,14 13.3258938,13.9088551 13.1383929,13.7265625 C12.9508919,13.5442699 12.8571429,13.322918 12.8571429,13.0625 L12.8571429,11.1875 C12.8571429,10.927082 12.9508919,10.7057301 13.1383929,10.5234375 C13.3258938,10.3411449 13.5535701,10.25 13.8214286,10.25 L17.0357143,10.25 C17.3035728,10.25 17.5312491,10.3411449 17.71875,10.5234375 C17.9062509,10.7057301 18,10.927082 18,11.1875 Z M11.5714286,1.1875 L11.5714286,3.0625 C11.5714286,3.32291797 11.4776795,3.54426992 11.2901786,3.7265625 C11.1026776,3.90885508 10.8750013,4 10.6071429,4 L7.39285714,4 C7.12499866,4 6.89732237,3.90885508 6.70982143,3.7265625 C6.52232049,3.54426992 6.42857143,3.32291797 6.42857143,3.0625 L6.42857143,1.1875 C6.42857143,0.927082031 6.52232049,0.705730078 6.70982143,0.5234375 C6.89732237,0.341144922 7.12499866,0.25 7.39285714,0.25 L10.6071429,0.25 C10.8750013,0.25 11.1026776,0.341144922 11.2901786,0.5234375 C11.4776795,0.705730078 11.5714286,0.927082031 11.5714286,1.1875 Z M18,6.1875 L18,8.0625 C18,8.32291797 17.9062509,8.54426992 17.71875,8.7265625 C17.5312491,8.90885508 17.3035728,9 17.0357143,9 L13.8214286,9 C13.5535701,9 13.3258938,8.90885508 13.1383929,8.7265625 C12.9508919,8.54426992 12.8571429,8.32291797 12.8571429,8.0625 L12.8571429,6.1875 C12.8571429,5.92708203 12.9508919,5.70573008 13.1383929,5.5234375 C13.3258938,5.34114492 13.5535701,5.25 13.8214286,5.25 L17.0357143,5.25 C17.3035728,5.25 17.5312491,5.34114492 17.71875,5.5234375 C17.9062509,5.70573008 18,5.92708203 18,6.1875 Z M18,1.1875 L18,3.0625 C18,3.32291797 17.9062509,3.54426992 17.71875,3.7265625 C17.5312491,3.90885508 17.3035728,4 17.0357143,4 L13.8214286,4 C13.5535701,4 13.3258938,3.90885508 13.1383929,3.7265625 C12.9508919,3.54426992 12.8571429,3.32291797 12.8571429,3.0625 L12.8571429,1.1875 C12.8571429,0.927082031 12.9508919,0.705730078 13.1383929,0.5234375 C13.3258938,0.341144922 13.5535701,0.25 13.8214286,0.25 L17.0357143,0.25 C17.3035728,0.25 17.5312491,0.341144922 17.71875,0.5234375 C17.9062509,0.705730078 18,0.927082031 18,1.1875 Z" id="path-1"></path>
    </defs>
    <g id="Symbols" stroke="none" stroke-width="1" fill="none" fill-rule="evenodd">
        <g id="Toggles/Desktop" transform="translate(-754.000000, -22.000000)">
            <g id="Toggles">
                <g id="Atom/Button/Primary/Static" transform="translate(640.000000, 0.000000)">
                    <g id="Atom/Icon/Detail-View" transform="translate(114.000000, 22.000000)">
                        <g>
                            <mask id="mask-2" fill="white">
                                <use xlink:href="#path-1"></use>
                            </mask>
                            <g id="Grid-Icon"></g>
                            <g id="Atom/Color/Brand/Secondary" mask="url(#mask-2)" fill="#0D0D0D">
                                <rect id="Color" x="0" y="0" width="18" height="14"></rect>
                            </g>
                        </g>
                    </g>
                </g>
            </g>
        </g>
    </g>
</svg>