<?xml version="1.0" encoding="UTF-8"?>
<svg width="50px" height="50px" viewBox="0 0 50 50" version="1.1" xmlns="http://www.w3.org/2000/svg" xmlns:xlink="http://www.w3.org/1999/xlink">
    <!-- Generator: Sketch 49.1 (51147) - http://www.bohemiancoding.com/sketch -->
    <title>Atom/Icon/Social/Instagram</title>
    <desc>Created with Sketch.</desc>
    <defs>
        <path d="M30.8919271,30.8919271 C32.5195394,29.2643148 33.3333333,27.3003587 33.3333333,25 C33.3333333,22.6996413 32.5195394,20.7356852 30.8919271,19.1080729 C29.2643148,17.4804606 27.3003587,16.6666667 25,16.6666667 C22.6996413,16.6666667 20.7356852,17.4804606 19.1080729,19.1080729 C17.4804606,20.7356852 16.6666667,22.6996413 16.6666667,25 C16.6666667,27.3003587 17.4804606,29.2643148 19.1080729,30.8919271 C20.7356852,32.5195394 22.6996413,33.3333333 25,33.3333333 C27.3003587,33.3333333 29.2643148,32.5195394 30.8919271,30.8919271 Z M34.0820312,15.9179687 C36.5777035,18.413641 37.8255208,21.4409544 37.8255208,25 C37.8255208,28.5590456 36.5777035,31.586359 34.0820312,34.0820313 C31.586359,36.5777035 28.5590456,37.8255208 25,37.8255208 C21.4409544,37.8255208 18.413641,36.5777035 15.9179687,34.0820313 C13.4222965,31.586359 12.1744792,28.5590456 12.1744792,25 C12.1744792,21.4409544 13.4222965,18.413641 15.9179687,15.9179687 C18.413641,13.4222965 21.4409544,12.1744792 25,12.1744792 C28.5590456,12.1744792 31.586359,13.4222965 34.0820312,15.9179687 Z M40.4622396,9.53776042 C41.04818,10.1237008 41.3411458,10.8289889 41.3411458,11.6536458 C41.3411458,12.4783027 41.04818,13.1835908 40.4622396,13.7695313 C39.8762992,14.3554717 39.1710111,14.6484375 38.3463542,14.6484375 C37.5216973,14.6484375 36.8164092,14.3554717 36.2304687,13.7695313 C35.6445283,13.1835908 35.3515625,12.4783027 35.3515625,11.6536458 C35.3515625,10.8289889 35.6445283,10.1237008 36.2304687,9.53776042 C36.8164092,8.95181999 37.5216973,8.65885417 38.3463542,8.65885417 C39.1710111,8.65885417 39.8762992,8.95181999 40.4622396,9.53776042 Z M27.4739583,4.4921875 L25,4.4921875 C24.8480895,4.4921875 24.0180197,4.48676221 22.5097656,4.47591146 C21.0015116,4.46506071 19.8567747,4.46506071 19.0755208,4.47591146 C18.2942669,4.48676221 17.2471854,4.51931396 15.9342448,4.57356771 C14.6213042,4.62782145 13.5036938,4.73632731 12.5813802,4.89908854 C11.6590666,5.06184977 10.8832497,5.26258561 10.2539062,5.50130208 C9.16883138,5.93533203 8.21397982,6.56466602 7.38932292,7.38932292 C6.56466602,8.21397982 5.93533203,9.16883138 5.50130208,10.2539062 C5.26258561,10.8832497 5.06184977,11.6590666 4.89908854,12.5813802 C4.73632731,13.5036938 4.62782145,14.6213042 4.57356771,15.9342448 C4.51931396,17.2471854 4.48676221,18.2942669 4.47591146,19.0755208 C4.46506071,19.8567747 4.46506071,21.0015116 4.47591146,22.5097656 C4.48676221,24.0180197 4.4921875,24.8480895 4.4921875,25 C4.4921875,25.1519105 4.48676221,25.9819803 4.47591146,27.4902344 C4.46506071,28.9984884 4.46506071,30.1432253 4.47591146,30.9244792 C4.48676221,31.7057331 4.51931396,32.7528146 4.57356771,34.0657552 C4.62782145,35.3786958 4.73632731,36.4963062 4.89908854,37.4186198 C5.06184977,38.3409334 5.26258561,39.1167503 5.50130208,39.7460938 C5.93533203,40.8311686 6.56466602,41.7860202 7.38932292,42.6106771 C8.21397982,43.435334 9.16883138,44.064668 10.2539062,44.4986979 C10.8832497,44.7374144 11.6590666,44.9381502 12.5813802,45.1009115 C13.5036938,45.2636727 14.6213042,45.3721785 15.9342448,45.4264323 C17.2471854,45.480686 18.2942669,45.5132378 19.0755208,45.5240885 C19.8567747,45.5349393 21.0015116,45.5349393 22.5097656,45.5240885 C24.0180197,45.5132378 24.8480895,45.5078125 25,45.5078125 C25.1519105,45.5078125 25.9819803,45.5132378 27.4902344,45.5240885 C28.9984884,45.5349393 30.1432253,45.5349393 30.9244792,45.5240885 C31.7057331,45.5132378 32.7528146,45.480686 34.0657552,45.4264323 C35.3786958,45.3721785 36.4963062,45.2636727 37.4186198,45.1009115 C38.3409334,44.9381502 39.1167503,44.7374144 39.7460938,44.4986979 C40.8311686,44.064668 41.7860202,43.435334 42.6106771,42.6106771 C43.435334,41.7860202 44.064668,40.8311686 44.4986979,39.7460938 C44.7374144,39.1167503 44.9381502,38.3409334 45.1009115,37.4186198 C45.2636727,36.4963062 45.3721785,35.3786958 45.4264323,34.0657552 C45.480686,32.7528146 45.5132378,31.7057331 45.5240885,30.9244792 C45.5349393,30.1432253 45.5349393,28.9984884 45.5240885,27.4902344 C45.5132378,25.9819803 45.5078125,25.1519105 45.5078125,25 C45.5078125,24.8480895 45.5132378,24.0180197 45.5240885,22.5097656 C45.5349393,21.0015116 45.5349393,19.8567747 45.5240885,19.0755208 C45.5132378,18.2942669 45.480686,17.2471854 45.4264323,15.9342448 C45.3721785,14.6213042 45.2636727,13.5036938 45.1009115,12.5813802 C44.9381502,11.6590666 44.7374144,10.8832497 44.4986979,10.2539062 C44.064668,9.16883138 43.435334,8.21397982 42.6106771,7.38932292 C41.7860202,6.56466602 40.8311686,5.93533203 39.7460938,5.50130208 C39.1167503,5.26258561 38.3409334,5.06184977 37.4186198,4.89908854 C36.4963062,4.73632731 35.3786958,4.62782145 34.0657552,4.57356771 C32.7528146,4.51931396 31.7057331,4.48676221 30.9244792,4.47591146 C30.1432253,4.46506071 28.9930632,4.470486 27.4739583,4.4921875 Z M49.8372396,14.6809896 C49.9457471,16.5907214 50,20.0303571 50,25 C50,29.9696429 49.9457471,33.4092786 49.8372396,35.3190104 C49.6202246,39.8329219 48.274752,43.3268105 45.8007813,45.8007812 C43.3268105,48.274752 39.8329219,49.6202246 35.3190104,49.8372396 C33.4092786,49.9457471 29.9696429,50 25,50 C20.0303571,50 16.5907214,49.9457471 14.6809896,49.8372396 C10.1670781,49.6202246 6.67318945,48.274752 4.19921875,45.8007812 C1.72524805,43.3268105 0.379775391,39.8329219 0.162760417,35.3190104 C0.0542529297,33.4092786 0,29.9696429 0,25 C0,20.0303571 0.0542529297,16.5907214 0.162760417,14.6809896 C0.379775391,10.1670781 1.72524805,6.67318945 4.19921875,4.19921875 C6.67318945,1.72524805 10.1670781,0.379775391 14.6809896,0.162760417 C16.5907214,0.0542529297 20.0303571,0 25,0 C29.9696429,0 33.4092786,0.0542529297 35.3190104,0.162760417 C39.8329219,0.379775391 43.3268105,1.72524805 45.8007813,4.19921875 C48.274752,6.67318945 49.6202246,10.1670781 49.8372396,14.6809896 Z" id="path-1"></path>
    </defs>
    <g id="Symbols" stroke="none" stroke-width="1" fill="none" fill-rule="evenodd">
        <g id="Molecule/Nav/Desktop/Closed" transform="translate(-1135.000000, -10.000000)">
            <g id="Group-2">
                <g id="Atom/Icon/Social/Instagram" transform="translate(1135.000000, 10.000000)">
                    <g>
                        <mask id="mask-2" fill="white">
                            <use xlink:href="#path-1"></use>
                        </mask>
                        <use id="Instagram" fill="#080708" xlink:href="#path-1"></use>
                        <g id="Atom/Color/Brand/Primary" mask="url(#mask-2)" fill="#E7D24F">
                            <rect id="Color" x="0" y="0" width="50" height="50"></rect>
                        </g>
                    </g>
                </g>
            </g>
        </g>
    </g>
</svg>