<?xml version="1.0" encoding="UTF-8"?>
<svg width="18px" height="14px" viewBox="0 0 18 14" version="1.1" xmlns="http://www.w3.org/2000/svg" xmlns:xlink="http://www.w3.org/1999/xlink">
    <!-- Generator: Sketch 49.1 (51147) - http://www.bohemiancoding.com/sketch -->
    <title>Core Icons/view-list</title>
    <desc>Created with Sketch.</desc>
    <defs>
        <path d="M2.57142857,11.4502165 L2.57142857,13.2683983 C2.57142857,13.3504694 2.53962085,13.4214914 2.47600446,13.4814665 C2.41238807,13.5414415 2.33705401,13.5714286 2.25,13.5714286 L0.321428571,13.5714286 C0.234374565,13.5714286 0.159040497,13.5414415 0.0954241071,13.4814665 C0.0318077176,13.4214914 0,13.3504694 0,13.2683983 L0,11.4502165 C0,11.3681453 0.0318077176,11.2971233 0.0954241071,11.2371483 C0.159040497,11.1771732 0.234374565,11.1471861 0.321428571,11.1471861 L2.25,11.1471861 C2.33705401,11.1471861 2.41238807,11.1771732 2.47600446,11.2371483 C2.53962085,11.2971233 2.57142857,11.3681453 2.57142857,11.4502165 Z M2.57142857,7.81385281 L2.57142857,9.63203463 C2.57142857,9.71410575 2.53962085,9.78512777 2.47600446,9.84510281 C2.41238807,9.90507786 2.33705401,9.93506494 2.25,9.93506494 L0.321428571,9.93506494 C0.234374565,9.93506494 0.159040497,9.90507786 0.0954241071,9.84510281 C0.0318077176,9.78512777 0,9.71410575 0,9.63203463 L0,7.81385281 C0,7.7317817 0.0318077176,7.66075968 0.0954241071,7.60078463 C0.159040497,7.54080958 0.234374565,7.51082251 0.321428571,7.51082251 L2.25,7.51082251 C2.33705401,7.51082251 2.41238807,7.54080958 2.47600446,7.60078463 C2.53962085,7.66075968 2.57142857,7.7317817 2.57142857,7.81385281 Z M2.57142857,4.17748918 L2.57142857,5.995671 C2.57142857,6.07774211 2.53962085,6.14876413 2.47600446,6.20873918 C2.41238807,6.26871422 2.33705401,6.2987013 2.25,6.2987013 L0.321428571,6.2987013 C0.234374565,6.2987013 0.159040497,6.26871422 0.0954241071,6.20873918 C0.0318077176,6.14876413 0,6.07774211 0,5.995671 L0,4.17748918 C0,4.09541806 0.0318077176,4.02439604 0.0954241071,3.964421 C0.159040497,3.90444595 0.234374565,3.87445887 0.321428571,3.87445887 L2.25,3.87445887 C2.33705401,3.87445887 2.41238807,3.90444595 2.47600446,3.964421 C2.53962085,4.02439604 2.57142857,4.09541806 2.57142857,4.17748918 Z M18,11.4502165 L18,13.2683983 C18,13.3504694 17.9681923,13.4214914 17.9045759,13.4814665 C17.8409595,13.5414415 17.7656254,13.5714286 17.6785714,13.5714286 L4.17857143,13.5714286 C4.09151742,13.5714286 4.01618335,13.5414415 3.95256696,13.4814665 C3.88895057,13.4214914 3.85714286,13.3504694 3.85714286,13.2683983 L3.85714286,11.4502165 C3.85714286,11.3681453 3.88895057,11.2971233 3.95256696,11.2371483 C4.01618335,11.1771732 4.09151742,11.1471861 4.17857143,11.1471861 L17.6785714,11.1471861 C17.7656254,11.1471861 17.8409595,11.1771732 17.9045759,11.2371483 C17.9681923,11.2971233 18,11.3681453 18,11.4502165 Z M2.57142857,0.541125541 L2.57142857,2.35930736 C2.57142857,2.44137848 2.53962085,2.51240049 2.47600446,2.57237554 C2.41238807,2.63235059 2.33705401,2.66233766 2.25,2.66233766 L0.321428571,2.66233766 C0.234374565,2.66233766 0.159040497,2.63235059 0.0954241071,2.57237554 C0.0318077176,2.51240049 0,2.44137848 0,2.35930736 L0,0.541125541 C0,0.459054424 0.0318077176,0.388032407 0.0954241071,0.328057359 C0.159040497,0.268082312 0.234374565,0.238095238 0.321428571,0.238095238 L2.25,0.238095238 C2.33705401,0.238095238 2.41238807,0.268082312 2.47600446,0.328057359 C2.53962085,0.388032407 2.57142857,0.459054424 2.57142857,0.541125541 Z M18,7.81385281 L18,9.63203463 C18,9.71410575 17.9681923,9.78512777 17.9045759,9.84510281 C17.8409595,9.90507786 17.7656254,9.93506494 17.6785714,9.93506494 L4.17857143,9.93506494 C4.09151742,9.93506494 4.01618335,9.90507786 3.95256696,9.84510281 C3.88895057,9.78512777 3.85714286,9.71410575 3.85714286,9.63203463 L3.85714286,7.81385281 C3.85714286,7.7317817 3.88895057,7.66075968 3.95256696,7.60078463 C4.01618335,7.54080958 4.09151742,7.51082251 4.17857143,7.51082251 L17.6785714,7.51082251 C17.7656254,7.51082251 17.8409595,7.54080958 17.9045759,7.60078463 C17.9681923,7.66075968 18,7.7317817 18,7.81385281 Z M18,4.17748918 L18,5.995671 C18,6.07774211 17.9681923,6.14876413 17.9045759,6.20873918 C17.8409595,6.26871422 17.7656254,6.2987013 17.6785714,6.2987013 L4.17857143,6.2987013 C4.09151742,6.2987013 4.01618335,6.26871422 3.95256696,6.20873918 C3.88895057,6.14876413 3.85714286,6.07774211 3.85714286,5.995671 L3.85714286,4.17748918 C3.85714286,4.09541806 3.88895057,4.02439604 3.95256696,3.964421 C4.01618335,3.90444595 4.09151742,3.87445887 4.17857143,3.87445887 L17.6785714,3.87445887 C17.7656254,3.87445887 17.8409595,3.90444595 17.9045759,3.964421 C17.9681923,4.02439604 18,4.09541806 18,4.17748918 Z M18,0.541125541 L18,2.35930736 C18,2.44137848 17.9681923,2.51240049 17.9045759,2.57237554 C17.8409595,2.63235059 17.7656254,2.66233766 17.6785714,2.66233766 L4.17857143,2.66233766 C4.09151742,2.66233766 4.01618335,2.63235059 3.95256696,2.57237554 C3.88895057,2.51240049 3.85714286,2.44137848 3.85714286,2.35930736 L3.85714286,0.541125541 C3.85714286,0.459054424 3.88895057,0.388032407 3.95256696,0.328057359 C4.01618335,0.268082312 4.09151742,0.238095238 4.17857143,0.238095238 L17.6785714,0.238095238 C17.7656254,0.238095238 17.8409595,0.268082312 17.9045759,0.328057359 C17.9681923,0.388032407 18,0.459054424 18,0.541125541 Z" id="path-1"></path>
    </defs>
    <g id="Symbols" stroke="none" stroke-width="1" fill="none" fill-rule="evenodd">
        <g id="Toggles/Desktop" transform="translate(-592.000000, -22.000000)">
            <g id="Toggles">
                <g id="Atom/Button/Primary/Static" transform="translate(480.000000, 0.000000)">
                    <g id="Atom/Icon/List-View" transform="translate(112.000000, 22.000000)">
                        <g>
                            <mask id="mask-2" fill="white">
                                <use xlink:href="#path-1"></use>
                            </mask>
                            <g id="List"></g>
                            <g id="Atom/Color/Global/Black" mask="url(#mask-2)" fill="#0D0D0D">
                                <rect id="Color" x="0" y="0" width="18" height="14"></rect>
                            </g>
                        </g>
                    </g>
                </g>
            </g>
        </g>
    </g>
</svg>