<?xml version="1.0" encoding="UTF-8"?>
<svg width="45px" height="45px" viewBox="0 0 45 45" version="1.1" xmlns="http://www.w3.org/2000/svg" xmlns:xlink="http://www.w3.org/1999/xlink">
    <!-- Generator: Sketch 49.1 (51147) - http://www.bohemiancoding.com/sketch -->
    <title>Twitter small</title>
    <desc>Created with Sketch.</desc>
    <defs>
        <path d="M44.6824597,5.34375 C43.4160723,7.64063648 41.8850896,9.59764816 40.0894657,11.2148437 C40.108367,11.5429704 40.1178175,12.035153 40.1178175,12.6914062 C40.1178175,15.7382965 39.7586981,18.7792817 39.0404486,21.8144531 C38.322199,24.8496246 37.2306651,27.7617048 35.765814,30.5507813 C34.3009629,33.3398577 32.5573438,35.8066299 30.5349042,37.9511719 C28.5124647,40.0957138 26.074233,41.8066342 23.2201361,43.0839844 C20.3660392,44.3613345 17.3135243,45 14.0625,45 C8.94024657,45 4.25279344,43.3007982 0,39.9023438 C0.661545646,39.9960942 1.39868545,40.0429687 2.21144153,40.0429687 C6.46423497,40.0429687 10.2538896,38.4257974 13.5805192,35.1914063 C11.5958822,35.144531 9.81918627,34.3886792 8.25037802,32.9238281 C6.68156978,31.4589771 5.6042116,29.5898551 5.01827117,27.3164063 C5.64201421,27.4335943 6.21849534,27.4921875 6.74773185,27.4921875 C7.56048793,27.4921875 8.36378131,27.3632825 9.15763609,27.1054688 C7.04069002,26.5664036 5.28762035,25.259776 3.8983745,23.1855469 C2.50912864,21.1113178 1.81451613,18.7031387 1.81451613,15.9609375 L1.81451613,15.8203125 C3.09980481,16.710942 4.47957932,17.1914059 5.95388105,17.2617188 C4.70639497,16.2304636 3.71409139,14.8828208 2.97694052,13.21875 C2.23978966,11.5546792 1.87121976,9.75000973 1.87121976,7.8046875 C1.87121976,5.74217719 2.28704221,3.83204004 3.1186996,2.07421875 C5.4057574,5.56642371 8.1889327,8.36131764 11.468309,10.4589844 C14.7476852,12.5566511 18.2585498,13.7226551 22.0010081,13.9570312 C21.8497976,13.0664018 21.7741935,12.199223 21.7741935,11.3554688 C21.7741935,8.21482805 22.6672668,5.53712045 24.45344,3.32226563 C26.2396133,1.1074108 28.3990549,0 30.9318296,0 C33.5780122,0 35.8083327,1.19530055 37.6228579,3.5859375 C39.6831,3.09374754 41.6204546,2.17969418 43.4349798,0.84375 C42.7356316,3.53907598 41.3936591,5.62499262 39.4090222,7.1015625 C41.1668435,6.86718633 42.9246384,6.28125469 44.6824597,5.34375 Z" id="path-1"></path>
    </defs>
    <g id="Symbols" stroke="none" stroke-width="1" fill="none" fill-rule="evenodd">
        <g id="Molecule/Nav/Desktop/Closed" transform="translate(-1205.000000, -13.000000)">
            <g id="Group-2">
                <g id="Atom/Icon/Social/Twitter" transform="translate(1205.000000, 13.000000)">
                    <g>
                        <mask id="mask-2" fill="white">
                            <use xlink:href="#path-1"></use>
                        </mask>
                        <use id="Twitter" fill="#080708" xlink:href="#path-1"></use>
                        <g id="Atom/Color/Brand/Primary" mask="url(#mask-2)" fill="#E7D24F">
                            <rect id="Color" x="0" y="0" width="45" height="45"></rect>
                        </g>
                    </g>
                </g>
            </g>
        </g>
    </g>
</svg>