<svg xmlns="http://www.w3.org/2000/svg" viewBox="0 0 44 44"><defs><style>.cls-1{isolation:isolate;}.cls-2{fill:#fff;}.cls-3{opacity:0.5;mix-blend-mode:multiply;}.cls-4{fill:#1d1d1b;}</style></defs><title>12A-white</title><g class="cls-1"><g id="original_certs" data-name="original certs"><path class="cls-2" d="M22,2.7A19.3,19.3,0,1,1,2.7,22,19.32,19.32,0,0,1,22,2.7M22,0A22,22,0,1,0,44,22,22,22,0,0,0,22,0Z"/><g class="cls-3"><path class="cls-4" d="M8.68,15.48h5.4v14H11.22V18.15H8.68Z"/><path class="cls-4" d="M21.12,21a2.63,2.63,0,0,0,.51-1.46,1.65,1.65,0,0,0-.44-1.17,1.47,1.47,0,0,0-1.13-.48c-.84,0-1.63.63-2.38,1.89l-2.39-1.48A7.58,7.58,0,0,1,17.34,16a4.8,4.8,0,0,1,2.85-.79,4.44,4.44,0,0,1,3,1.16,4,4,0,0,1,1.31,3.14A4.4,4.4,0,0,1,24,21.54a13.52,13.52,0,0,1-1.93,2.54l-2.41,2.63h5.27v2.81H15.52V27.19L19.43,23A18.72,18.72,0,0,0,21.12,21Z"/><path class="cls-4" d="M35,29.52l-1.24-3H28.18l-1.25,3H23.77l5.76-14h2.88l5.76,14Zm-4-9.86L29.3,23.74h3.34Z"/></g><path class="cls-2" d="M7.52,14.33h5.4v14H10.06V17H7.52Z"/><path class="cls-2" d="M20,19.8a2.61,2.61,0,0,0,.51-1.46A1.65,1.65,0,0,0,20,17.17a1.45,1.45,0,0,0-1.13-.47c-.84,0-1.63.63-2.38,1.88L14.13,17.1a7.71,7.71,0,0,1,2-2.31A4.82,4.82,0,0,1,19,14a4.44,4.44,0,0,1,3,1.16,4,4,0,0,1,1.31,3.14,4.38,4.38,0,0,1-.53,2.08,13.52,13.52,0,0,1-1.93,2.54L18.5,25.55h5.27v2.82H14.36V26l3.91-4.22A17.59,17.59,0,0,0,20,19.8Z"/><path class="cls-2" d="M33.85,28.37l-1.24-3H27l-1.24,3H22.61l5.76-14h2.88l5.77,14Zm-4-9.87-1.68,4.08h3.34Z"/></g></g></svg>