<svg xmlns="http://www.w3.org/2000/svg" viewBox="0 0 53.26 42.84"><defs><style>.cls-1{isolation:isolate;}.cls-2{fill:#fff;}.cls-3{opacity:0.5;mix-blend-mode:multiply;}.cls-4{fill:#1d1d1b;}</style></defs><title>U-white</title><g class="cls-1"><g id="original_certs" data-name="original certs"><path class="cls-2" d="M26.63,4.75,48.75,40.33H4.51L26.63,4.75m0-4.75L0,42.84H53.26L26.63,0Z"/><g class="cls-3"><path class="cls-4" d="M25.74,33.46a2.53,2.53,0,0,0,4,0,4.31,4.31,0,0,0,.73-2.66V23.05h3V30.9a6.45,6.45,0,0,1-1.6,4.69,5.51,5.51,0,0,1-4.11,1.64,5.52,5.52,0,0,1-4.11-1.65A6.42,6.42,0,0,1,22,30.9V23.05h3V30.8A4.25,4.25,0,0,0,25.74,33.46Z"/></g><path class="cls-2" d="M24.58,32.31a2.4,2.4,0,0,0,2,1,2.37,2.37,0,0,0,2-1,4.34,4.34,0,0,0,.73-2.67V21.89h3v7.86a6.44,6.44,0,0,1-1.6,4.69,5.51,5.51,0,0,1-4.11,1.63,5.52,5.52,0,0,1-4.11-1.65,6.4,6.4,0,0,1-1.61-4.67V21.89h3v7.75A4.28,4.28,0,0,0,24.58,32.31Z"/></g></g></svg>