<svg xmlns="http://www.w3.org/2000/svg" viewBox="0 0 44 44"><defs><style>.cls-1{isolation:isolate;}.cls-2{fill:#fff;}.cls-3{opacity:0.5;mix-blend-mode:multiply;}.cls-4{fill:#1d1d1b;}</style></defs><title>12-white</title><g class="cls-1"><g id="original_certs" data-name="original certs"><path class="cls-2" d="M22,2.7A19.3,19.3,0,1,1,2.7,22,19.32,19.32,0,0,1,22,2.7M22,0A22,22,0,1,0,44,22,22,22,0,0,0,22,0Z"/><g class="cls-3"><path class="cls-4" d="M14.38,15.48h5.4v14H16.92V18.15H14.38Z"/><path class="cls-4" d="M26.82,21a2.63,2.63,0,0,0,.51-1.46,1.65,1.65,0,0,0-.44-1.17,1.46,1.46,0,0,0-1.13-.48c-.84,0-1.63.63-2.38,1.89L21,18.26A7.71,7.71,0,0,1,23,16a4.82,4.82,0,0,1,2.85-.79,4.44,4.44,0,0,1,3,1.16,4,4,0,0,1,1.31,3.14,4.4,4.4,0,0,1-.53,2.08,13.52,13.52,0,0,1-1.93,2.54l-2.41,2.63h5.27v2.81H21.22V27.19L25.13,23A17.59,17.59,0,0,0,26.82,21Z"/></g><path class="cls-2" d="M13.22,14.33h5.4v14H15.76V17H13.22Z"/><path class="cls-2" d="M25.66,19.8a2.61,2.61,0,0,0,.51-1.46,1.65,1.65,0,0,0-.44-1.17,1.44,1.44,0,0,0-1.12-.47c-.84,0-1.64.63-2.39,1.88L19.84,17.1a7.45,7.45,0,0,1,2.05-2.31A4.77,4.77,0,0,1,24.73,14a4.44,4.44,0,0,1,3,1.16,4,4,0,0,1,1.31,3.14,4.36,4.36,0,0,1-.52,2.08,13.66,13.66,0,0,1-1.94,2.54L24.2,25.55h5.27v2.82H20.06V26L24,21.82A18.38,18.38,0,0,0,25.66,19.8Z"/></g></g></svg>