<svg xmlns="http://www.w3.org/2000/svg" viewBox="0 0 44 44"><defs><style>.cls-1{isolation:isolate;}.cls-2{fill:#fff;}.cls-3{opacity:0.5;mix-blend-mode:multiply;}.cls-4{fill:#1d1d1b;}</style></defs><title>15-white</title><g class="cls-1"><g id="original_certs" data-name="original certs"><path class="cls-2" d="M22,2.7A19.3,19.3,0,1,1,2.7,22,19.32,19.32,0,0,1,22,2.7M22,0A22,22,0,1,0,44,22,22,22,0,0,0,22,0Z"/><g class="cls-3"><path class="cls-4" d="M14.55,15.48H20v14H17.08V18.15H14.55Z"/><path class="cls-4" d="M30.08,15.48v2.71H24.82v2.35a4.6,4.6,0,0,1,1.35-.18,4.84,4.84,0,0,1,3.32,1.23,4.18,4.18,0,0,1,1.4,3.3,4.53,4.53,0,0,1-1.44,3.44,5,5,0,0,1-3.56,1.35,5.74,5.74,0,0,1-4.53-2.1l1.57-2.29c.11.12.27.26.46.44a6.71,6.71,0,0,0,1.05.69,3,3,0,0,0,1.52.43,2.11,2.11,0,0,0,1.36-.48,2,2,0,0,0-.05-2.88A2.58,2.58,0,0,0,25.62,23a4.86,4.86,0,0,0-2.35.76L22,22.33V15.48Z"/></g><path class="cls-2" d="M13.39,14.33h5.4v14H15.93V17H13.39Z"/><path class="cls-2" d="M28.93,14.33V17H23.66v2.35A4.64,4.64,0,0,1,25,19.21a4.82,4.82,0,0,1,3.32,1.22,4.19,4.19,0,0,1,1.4,3.31,4.51,4.51,0,0,1-1.44,3.43,5,5,0,0,1-3.56,1.36,5.72,5.72,0,0,1-4.52-2.11l1.56-2.29c.12.12.27.27.46.44a6.71,6.71,0,0,0,1.05.69,3.06,3.06,0,0,0,1.52.43,2.11,2.11,0,0,0,1.36-.48,1.73,1.73,0,0,0,.59-1.42,1.75,1.75,0,0,0-.64-1.46,2.54,2.54,0,0,0-1.65-.51,4.89,4.89,0,0,0-2.35.76l-1.24-1.41V14.33Z"/></g></g></svg>