<svg xmlns="http://www.w3.org/2000/svg" viewBox="0 0 53.26 42.84"><defs><style>.cls-1{isolation:isolate;}.cls-2{fill:#fff;}.cls-3{opacity:0.5;mix-blend-mode:multiply;}.cls-4{fill:#1d1d1b;}</style></defs><title>PG-white</title><g class="cls-1"><g id="original_certs" data-name="original certs"><path class="cls-2" d="M26.63,4.75,48.75,40.33H4.51L26.63,4.75m0-4.75L0,42.84H53.26L26.63,0Z"/><g class="cls-3"><path class="cls-4" d="M26.28,25.12a4.65,4.65,0,0,1,1.28,3.59,4.41,4.41,0,0,1-1.32,3.55,6,6,0,0,1-4,1.12H20.61V37H17.9V24h4.3A6,6,0,0,1,26.28,25.12Zm-2,5.15a2.64,2.64,0,0,0,.49-1.73,1.9,1.9,0,0,0-.63-1.61,3.4,3.4,0,0,0-2-.47H20.61v4.39h1.83A2.31,2.31,0,0,0,24.28,30.27Z"/><path class="cls-4" d="M35.37,30.37H38.1V35a6.17,6.17,0,0,1-5,2.17,6,6,0,0,1-4.5-1.91,6.67,6.67,0,0,1-1.82-4.82,6.76,6.76,0,0,1,1.85-4.85,6,6,0,0,1,4.47-2,6.4,6.4,0,0,1,4.56,1.85l-1.41,2.19a5.6,5.6,0,0,0-1.51-1.06,3.84,3.84,0,0,0-1.49-.29,3.43,3.43,0,0,0-2.61,1.14,4.16,4.16,0,0,0-1.06,3,4.23,4.23,0,0,0,1,3A3.19,3.19,0,0,0,33,34.54,4.38,4.38,0,0,0,35.37,34Z"/></g><path class="cls-2" d="M25.2,24a4.65,4.65,0,0,1,1.28,3.59,4.41,4.41,0,0,1-1.32,3.55,6,6,0,0,1-4,1.12H19.53V36H16.82V22.87h4.3A5.94,5.94,0,0,1,25.2,24Zm-2,5.15a2.7,2.7,0,0,0,.48-1.73,1.87,1.87,0,0,0-.63-1.6,3.3,3.3,0,0,0-2-.48H19.53v4.4h1.83A2.34,2.34,0,0,0,23.21,29.19Z"/><path class="cls-2" d="M34.29,29.29H37v4.64a6.17,6.17,0,0,1-5,2.17,6,6,0,0,1-4.5-1.91,6.72,6.72,0,0,1-1.82-4.82,6.78,6.78,0,0,1,1.85-4.85A6,6,0,0,1,32,22.57a6.39,6.39,0,0,1,4.55,1.85l-1.41,2.19a5.32,5.32,0,0,0-1.51-1.05,3.67,3.67,0,0,0-1.49-.29,3.42,3.42,0,0,0-2.61,1.13,4.21,4.21,0,0,0-1.06,3,4.22,4.22,0,0,0,1,3,3.19,3.19,0,0,0,2.43,1.11,4.38,4.38,0,0,0,2.35-.58Z"/></g></g></svg>