<svg xmlns="http://www.w3.org/2000/svg" viewBox="0 0 47.09 38.6"><defs><style>.cls-1{isolation:isolate;}.cls-2{fill:#fff;}.cls-3{opacity:0.5;mix-blend-mode:multiply;}.cls-4{fill:#1d1d1b;}</style></defs><title>R18-white</title><g class="cls-1"><g id="original_certs" data-name="original certs"><path class="cls-2" d="M44.39,2.7V35.89H2.7V2.7H44.39M47.09,0H0V38.6H47.09V0Z"/><g class="cls-3"><path class="cls-4" d="M21.26,15.57c0,2.25-.84,3.71-2.54,4.36l3.38,5H18.44l-3-4.48H13.42V25h-3v-14H15.5q3.11,0,4.44,1.11A4.37,4.37,0,0,1,21.26,15.57Zm-3.59,1.67a2.19,2.19,0,0,0,.56-1.66A1.82,1.82,0,0,0,17.66,14a3.54,3.54,0,0,0-2-.43H13.42v4.16H15.6A3,3,0,0,0,17.67,17.24Z"/><path class="cls-4" d="M21.84,10.91h5.4V25H24.37V13.58H21.84Z"/><path class="cls-4" d="M30.59,11.7a5,5,0,0,1,3.32-1.11,5,5,0,0,1,3.3,1.11,3.42,3.42,0,0,1,1.31,2.72,3.76,3.76,0,0,1-1.18,2.78A4.33,4.33,0,0,1,39,20.74a4,4,0,0,1-1.41,3.11,5.32,5.32,0,0,1-3.68,1.26,5.33,5.33,0,0,1-3.69-1.26,4,4,0,0,1-1.41-3.11,4.33,4.33,0,0,1,1.66-3.54,3.79,3.79,0,0,1-1.2-2.79A3.4,3.4,0,0,1,30.59,11.7ZM32.46,22a2.39,2.39,0,0,0,1.45.47A2.44,2.44,0,0,0,35.36,22,1.57,1.57,0,0,0,36,20.66a1.62,1.62,0,0,0-.64-1.39,2.44,2.44,0,0,0-1.47-.48,2.4,2.4,0,0,0-1.47.48,1.6,1.6,0,0,0-.65,1.39A1.56,1.56,0,0,0,32.46,22Zm.18-6.14a1.88,1.88,0,0,0,2.53,0,1.5,1.5,0,0,0,.55-1.19,1.55,1.55,0,0,0-.54-1.2,1.93,1.93,0,0,0-2.55,0,1.55,1.55,0,0,0-.54,1.2A1.5,1.5,0,0,0,32.64,15.89Z"/></g><path class="cls-2" d="M20.1,14.42q0,3.38-2.53,4.35l3.37,5H17.28l-3-4.48H12.26V23.8h-3v-14h5.05c2.07,0,3.55.36,4.44,1.1A4.39,4.39,0,0,1,20.1,14.42Zm-3.58,1.66a2.18,2.18,0,0,0,.55-1.65,1.83,1.83,0,0,0-.57-1.56,3.53,3.53,0,0,0-2-.42H12.26V16.6h2.18A3.09,3.09,0,0,0,16.52,16.08Z"/><path class="cls-2" d="M20.68,9.76h5.4v14H23.22V12.43H20.68Z"/><path class="cls-2" d="M29.44,10.54a5,5,0,0,1,3.31-1.11,5,5,0,0,1,3.3,1.11,3.42,3.42,0,0,1,1.32,2.72A3.75,3.75,0,0,1,36.18,16a4.33,4.33,0,0,1,1.66,3.54,4,4,0,0,1-1.41,3.11A5.33,5.33,0,0,1,32.75,24a5.31,5.31,0,0,1-3.68-1.27,4,4,0,0,1-1.42-3.11A4.36,4.36,0,0,1,29.31,16a3.79,3.79,0,0,1-1.2-2.79A3.39,3.39,0,0,1,29.44,10.54ZM31.3,20.87a2.43,2.43,0,0,0,2.9,0,1.58,1.58,0,0,0,.67-1.37,1.63,1.63,0,0,0-.65-1.39,2.44,2.44,0,0,0-1.47-.48,2.4,2.4,0,0,0-1.47.48,1.63,1.63,0,0,0-.65,1.39A1.56,1.56,0,0,0,31.3,20.87Zm.18-6.13a1.84,1.84,0,0,0,1.27.48A1.88,1.88,0,0,0,34,14.74a1.54,1.54,0,0,0,.54-1.2A1.56,1.56,0,0,0,34,12.35a1.92,1.92,0,0,0-2.56,0,1.58,1.58,0,0,0,0,2.39Z"/><g class="cls-3"><path class="cls-4" d="M12.34,27.64a1.07,1.07,0,0,1-.65,1.11L12.55,30h-.93l-.76-1.14h-.52V30H9.58V26.45h1.29a1.77,1.77,0,0,1,1.13.28A1.11,1.11,0,0,1,12.34,27.64Zm-.92.42a.53.53,0,0,0,.14-.42.46.46,0,0,0-.14-.4.92.92,0,0,0-.51-.11h-.57V28.2h.55A.77.77,0,0,0,11.42,28.06Z"/><path class="cls-4" d="M15.31,26.45v.71h-1.7v.74h1.53v.68H13.61v.75h1.75V30H12.85V26.45Z"/><path class="cls-4" d="M16.6,27.16a.34.34,0,0,0-.11.25.28.28,0,0,0,.13.25,2.34,2.34,0,0,0,.62.22,1.75,1.75,0,0,1,.76.38,1,1,0,0,1,.26.73,1,1,0,0,1-.34.78,1.33,1.33,0,0,1-.9.31,2.05,2.05,0,0,1-1.46-.64l.45-.58a1.59,1.59,0,0,0,1,.51.48.48,0,0,0,.33-.1.3.3,0,0,0,.12-.25.29.29,0,0,0-.13-.26,1.51,1.51,0,0,0-.5-.19,2.08,2.08,0,0,1-.87-.39,1.13,1.13,0,0,1,.07-1.54,1.41,1.41,0,0,1,.87-.28,2.1,2.1,0,0,1,.69.13,1.85,1.85,0,0,1,.59.35l-.38.58a1.49,1.49,0,0,0-.92-.35A.45.45,0,0,0,16.6,27.16Z"/><path class="cls-4" d="M20.12,27.14V30h-.76V27.14h-1v-.69h2.69v.69Z"/><path class="cls-4" d="M24.11,27.64a1.07,1.07,0,0,1-.65,1.11L24.32,30h-.94l-.75-1.14H22.1V30h-.76V26.45h1.29a1.8,1.8,0,0,1,1.14.28A1.14,1.14,0,0,1,24.11,27.64Zm-.92.42a.57.57,0,0,0,.14-.42.47.47,0,0,0-.15-.4.87.87,0,0,0-.51-.11H22.1V28.2h.56A.78.78,0,0,0,23.19,28.06Z"/><path class="cls-4" d="M24.62,26.45h.76V30h-.76Z"/><path class="cls-4" d="M27.56,29.33a1.12,1.12,0,0,0,.92-.47l.48.53a1.76,1.76,0,0,1-2.66.16,2,2,0,0,1,0-2.65,1.69,1.69,0,0,1,1.27-.54A1.75,1.75,0,0,1,29,27l-.47.56a1.1,1.1,0,0,0-.9-.47,1,1,0,0,0-.73.29,1.09,1.09,0,0,0-.31.8,1.12,1.12,0,0,0,.29.8A.91.91,0,0,0,27.56,29.33Z"/><path class="cls-4" d="M30.84,27.14V30h-.76V27.14h-1v-.69H31.8v.69Z"/><path class="cls-4" d="M34.52,26.45v.71h-1.7v.74h1.53v.68H32.82v.75h1.75V30H32.06V26.45Z"/><path class="cls-4" d="M37.64,26.92a1.74,1.74,0,0,1,.49,1.3,1.82,1.82,0,0,1-.48,1.33A2,2,0,0,1,36.2,30H35V26.45h1.2A1.91,1.91,0,0,1,37.64,26.92Zm-.56,2.13a1.08,1.08,0,0,0,.28-.81,1.09,1.09,0,0,0-.28-.81,1.16,1.16,0,0,0-.86-.28H35.8v2.18h.48A1.11,1.11,0,0,0,37.08,29.05Z"/></g><path class="cls-2" d="M12,27.34a1.06,1.06,0,0,1-.64,1.12l.86,1.28h-.94l-.75-1.15H10v1.15H9.28V26.15h1.29a1.81,1.81,0,0,1,1.13.28A1.11,1.11,0,0,1,12,27.34Zm-.91.43a.58.58,0,0,0,.14-.43.45.45,0,0,0-.15-.39.84.84,0,0,0-.51-.11H10V27.9h.56A.79.79,0,0,0,11.13,27.77Z"/><path class="cls-2" d="M15,26.15v.71h-1.7v.74h1.52v.69H13.32V29h1.75v.71H12.56V26.15Z"/><path class="cls-2" d="M16.3,26.87a.31.31,0,0,0-.11.25.3.3,0,0,0,.14.25,2.59,2.59,0,0,0,.62.22,1.76,1.76,0,0,1,.75.37,1,1,0,0,1,.27.74,1,1,0,0,1-.34.78,1.35,1.35,0,0,1-.91.3,2.06,2.06,0,0,1-1.46-.63l.46-.59a1.55,1.55,0,0,0,1,.51.51.51,0,0,0,.32-.09.34.34,0,0,0,0-.52,1.93,1.93,0,0,0-.5-.19,2.2,2.2,0,0,1-.88-.39,1,1,0,0,1-.27-.75.93.93,0,0,1,.35-.78,1.32,1.32,0,0,1,.87-.28,2,2,0,0,1,.68.12,1.79,1.79,0,0,1,.6.35l-.39.59a1.45,1.45,0,0,0-.92-.36A.44.44,0,0,0,16.3,26.87Z"/><path class="cls-2" d="M19.82,26.84v2.9h-.76v-2.9h-1v-.69h2.69v.69Z"/><path class="cls-2" d="M23.81,27.34a1.07,1.07,0,0,1-.65,1.12L24,29.74h-.93l-.76-1.15h-.52v1.15h-.76V26.15h1.29a1.83,1.83,0,0,1,1.13.28A1.11,1.11,0,0,1,23.81,27.34Zm-.92.43a.54.54,0,0,0,.14-.43.44.44,0,0,0-.14-.39.84.84,0,0,0-.51-.11h-.57V27.9h.55A.77.77,0,0,0,22.89,27.77Z"/><path class="cls-2" d="M24.32,26.15h.76v3.59h-.76Z"/><path class="cls-2" d="M27.26,29a1.11,1.11,0,0,0,.92-.47l.49.53a1.79,1.79,0,0,1-2.67.17,1.83,1.83,0,0,1-.51-1.33A1.87,1.87,0,0,1,26,26.6a1.73,1.73,0,0,1,1.27-.53,1.77,1.77,0,0,1,1.41.67l-.48.57a1.08,1.08,0,0,0-.89-.48,1,1,0,0,0-.74.3,1.06,1.06,0,0,0-.3.79,1.09,1.09,0,0,0,.29.81A.92.92,0,0,0,27.26,29Z"/><path class="cls-2" d="M30.54,26.84v2.9h-.76v-2.9h-1v-.69h2.7v.69Z"/><path class="cls-2" d="M34.22,26.15v.71h-1.7v.74h1.53v.69H32.52V29h1.75v.71H31.76V26.15Z"/><path class="cls-2" d="M37.34,26.62a1.71,1.71,0,0,1,.49,1.31,1.84,1.84,0,0,1-.47,1.32,1.93,1.93,0,0,1-1.45.49H34.74V26.15h1.2A1.94,1.94,0,0,1,37.34,26.62Zm-.55,2.13a1.09,1.09,0,0,0,.28-.8,1.16,1.16,0,0,0-.28-.82,1.18,1.18,0,0,0-.87-.28H35.5V29H36A1.09,1.09,0,0,0,36.79,28.75Z"/></g></g></svg>