<?xml version="1.0" encoding="UTF-8"?>
<svg width="51px" height="51px" viewBox="0 0 51 51" version="1.1" xmlns="http://www.w3.org/2000/svg" xmlns:xlink="http://www.w3.org/1999/xlink">
    <!-- Generator: Sketch 47.1 (45422) - http://www.bohemiancoding.com/sketch -->
    <title>Atom/Icon/BWT Ticket</title>
    <desc>Created with Sketch.</desc>
    <defs>
        <path d="M42.56058,19.795871 C42.56058,20.4269809 42.1811073,20.938726 41.7131223,20.938726 C41.2451374,20.938726 40.8656647,20.4269809 40.8656647,19.795871 L40.8656647,19.5393635 C40.8656647,18.9082536 41.2451374,18.3965085 41.7131223,18.3965085 C42.1811073,18.3965085 42.56058,18.9082536 42.56058,19.5393635 L42.56058,19.795871 Z M43.159823,23.9903158 C43.159823,24.6214257 42.7803503,25.1331708 42.3123654,25.1331708 C41.8443804,25.1331708 41.4649077,24.6214257 41.4649077,23.9903158 L41.4649077,23.7338084 C41.4649077,23.1026984 41.8443804,22.5909533 42.3123654,22.5909533 C42.7803503,22.5909533 43.159823,23.1026984 43.159823,23.7338084 L43.159823,23.9903158 Z M42.56058,28.1846464 C42.56058,28.8160734 42.1811073,29.3276156 41.7131223,29.3276156 C41.2451374,29.3276156 40.8656647,28.8160734 40.8656647,28.1846464 L40.8656647,27.9283674 C40.8656647,27.2969404 41.2451374,26.7853982 41.7131223,26.7853982 C42.1811073,26.7853982 42.56058,27.2969404 42.56058,27.9283674 L42.56058,28.1846464 Z M43.159823,32.3790913 C43.159823,33.0102643 42.7803503,33.5220605 42.3123654,33.5220605 C41.8443804,33.5220605 41.4649077,33.0102643 41.4649077,32.3790913 L41.4649077,32.1228122 C41.4649077,31.4913852 41.8443804,30.979843 42.3123654,30.979843 C42.7803503,30.979843 43.159823,31.4913852 43.159823,32.1228122 L43.159823,32.3790913 Z M38.3910816,32.2881137 L25.6793208,25.5089689 L12.9673528,32.2881137 L12.9673528,18.7296205 L25.6793208,25.5089689 L38.3910816,18.7296205 L38.3910816,32.2881137 Z M9.60221305,19.1966646 C9.60221305,19.8277745 9.22274035,20.3395196 8.75475542,20.3395196 C8.28677049,20.3395196 7.90729779,19.8277745 7.90729779,19.1966646 L7.90729779,18.9401571 C7.90729779,18.3090472 8.28677049,17.7973021 8.75475542,17.7973021 C9.22274035,17.7973021 9.60221305,18.3090472 9.60221305,18.9401571 L9.60221305,19.1966646 Z M9.60221305,23.9903158 C9.60221305,24.6214257 9.22274035,25.1331708 8.75475542,25.1331708 C8.28677049,25.1331708 7.90729779,24.6214257 7.90729779,23.9903158 L7.90729779,23.7338084 C7.90729779,23.1026984 8.28677049,22.5909533 8.75475542,22.5909533 C9.22274035,22.5909533 9.60221305,23.1026984 9.60221305,23.7338084 L9.60221305,23.9903158 Z M9.60221305,28.7838529 C9.60221305,29.4152798 9.22274035,29.926822 8.75475542,29.926822 C8.28677049,29.926822 7.90729779,29.4152798 7.90729779,28.7838529 L7.90729779,28.5275738 C7.90729779,27.8961468 8.28677049,27.3846046 8.75475542,27.3846046 C9.22274035,27.3846046 9.60221305,27.8961468 9.60221305,28.5275738 L9.60221305,28.7838529 Z M9.60221305,32.3790913 C9.60221305,33.0102643 9.22274035,33.5220605 8.75475542,33.5220605 C8.28677049,33.5220605 7.90729779,33.0102643 7.90729779,32.3790913 L7.90729779,32.1228122 C7.90729779,31.4913852 8.28677049,30.979843 8.75475542,30.979843 C9.22274035,30.979843 9.60221305,31.4913852 9.60221305,32.1228122 L9.60221305,32.3790913 Z M50.4673528,19.122386 L50.4673528,14.4510771 L42.9632544,14.4510771 C42.9782134,14.5167667 42.9878446,14.5844964 42.9878446,14.6548782 L42.9878446,14.7568807 C42.9878446,15.2638334 42.5749347,15.6749037 42.0657134,15.6749037 C41.5564921,15.6749037 41.1435823,15.2638334 41.1435823,14.7568807 L41.1435823,14.6548782 C41.1435823,14.5844964 41.1532134,14.5167667 41.1681724,14.4510771 L9.76673802,14.4510771 C9.78169703,14.5167667 9.79132818,14.5844964 9.79132818,14.6548782 L9.79132818,14.7568807 C9.79132818,15.2638334 9.37841834,15.6749037 8.86919703,15.6749037 C8.35997572,15.6749037 7.94706589,15.2638334 7.94706589,14.7568807 L7.94706589,14.6548782 C7.94706589,14.5844964 7.95669703,14.5167667 7.97165605,14.4510771 L0.467352771,14.4510771 L0.467352771,19.12259 C3.24645113,19.9067856 5.28292654,22.4495052 5.28292654,25.4673528 C5.28292654,28.4852003 3.24645113,31.0279199 0.467352771,31.8121156 L0.467352771,36.4836285 L7.97165605,36.4836285 C7.95669703,36.4179388 7.94706589,36.3502091 7.94706589,36.2798274 L7.94706589,36.1778248 C7.94706589,35.6706681 8.35997572,35.2598018 8.86919703,35.2598018 C9.37841834,35.2598018 9.79132818,35.6706681 9.79132818,36.1778248 L9.79132818,36.2798274 C9.79132818,36.3502091 9.78169703,36.4179388 9.76673802,36.4836285 L41.1681724,36.4836285 C41.1532134,36.4179388 41.1435823,36.3502091 41.1435823,36.2798274 L41.1435823,36.1778248 C41.1435823,35.6706681 41.5564921,35.2598018 42.0657134,35.2598018 C42.5749347,35.2598018 42.9878446,35.6706681 42.9878446,36.1778248 L42.9878446,36.2798274 C42.9878446,36.3502091 42.9782134,36.4179388 42.9632544,36.4836285 L50.4673528,36.4836285 L50.4673528,31.8121156 C47.6884593,31.0279199 45.651779,28.4854043 45.651779,25.4673528 C45.651779,22.4493012 47.6884593,19.9067856 50.4673528,19.122386 L50.4673528,19.122386 Z" id="path-1"></path>
    </defs>
    <g id="ICONS" stroke="none" stroke-width="1" fill="none" fill-rule="evenodd">
        <g id="Atom/Icon/BWT-Ticket">
            <mask id="mask-2" fill="white">
                <use xlink:href="#path-1"></use>
            </mask>
            <use id="BWT-Ticket" fill="#FFFFFF" fill-rule="evenodd" transform="translate(25.467353, 25.467353) rotate(-45.000000) translate(-25.467353, -25.467353) " xlink:href="#path-1"></use>
        </g>
    </g>
</svg>