<?xml version="1.0" standalone="no"?>
<!DOCTYPE svg PUBLIC "-//W3C//DTD SVG 1.1//EN" "http://www.w3.org/Graphics/SVG/1.1/DTD/svg11.dtd" >
<svg xmlns="http://www.w3.org/2000/svg" xmlns:xlink="http://www.w3.org/1999/xlink" version="1.1">
<metadata>
Created by FontForge 20170731 at Fri Feb 22 16:55:36 2008
 By Aleksey,,,
Copyright (URW)++, copyright 1999 by (URW)++ Design &#38; Development; Cyrillic glyphs added by Valek Filippov, copyright 2001-2002; Vietnamese characters were added by Han The Thanh; copyright 2006, 2008 for TeX Gyre extensions by B. Jackowski and J.M. Nowacki (on behalf of TeX users groups). This work is released under the GUST Font License --  see http://tug.org/fonts/licenses/GUST-FONT-LICENSE.txt for details.
</metadata>
<defs>
<font id="TeXGyreBonum-BoldItalic" horiz-adv-x="680" >
  <font-face 
    font-family="TeX Gyre Bonum"
    font-weight="700"
    font-style="italic"
    font-stretch="normal"
    units-per-em="1000"
    panose-1="0 0 8 0 0 0 0 0 0 0"
    ascent="787"
    descent="-213"
    x-height="511"
    cap-height="681"
    bbox="-581 -328 1767 1131"
    underline-thickness="60"
    underline-position="-215"
    slope="-10.3"
    unicode-range="U+0020-FB04"
  />
<missing-glyph horiz-adv-x="280" 
 />
    <glyph glyph-name="I_J" unicode="IJ" horiz-adv-x="1065" 
d="M403 81l-15 -81h-347l15 81l22 2q40 6 56 22.5t24 62.5l63 345q3 19 3 34q0 24 -11.5 36t-41.5 15l-21 2l14 81h348l-15 -81l-22 -2q-40 -4 -56 -21t-24 -64l-63 -345q-3 -19 -3 -34q0 -25 11.5 -37t41.5 -14zM1149 681l-15 -81l-22 -2q-39 -4 -55 -21t-25 -64l-54 -293
q-44 -233 -308 -233q-105 0 -169.5 49t-64.5 128q0 55 34 93.5t83 38.5q35 0 58.5 -22.5t23.5 -55.5q0 -39 -35 -64q-15 -11 -18.5 -15.5t-3.5 -12.5q0 -20 26 -35.5t60 -15.5q21 0 39 5t31.5 15.5t24 20t18.5 27.5t13 28t9.5 30.5t6 26t4.5 23.5l48 262q0 3 1.5 15t1.5 18
q0 24 -11.5 37t-41.5 15l-34 2l15 81h360z" />
    <glyph glyph-name="i_j" unicode="ij" horiz-adv-x="713" 
d="M449 65q-87 -74 -179 -74q-58 0 -94 27.5t-36 71.5q0 15 6 49l33 182q2 20 2 27q0 24 -13 35t-44 11h-12l15 82q98 5 192 35h52l-57 -316q-10 -60 -10 -61q0 -14 11.5 -24.5t27.5 -10.5q20 0 64 22zM403 686q0 -37 -31 -68t-68 -31q-28 0 -47 19.5t-19 48.5q0 38 30 68
t68 30q30 0 48.5 -18.5t18.5 -48.5zM766 511l-87 -477q-4 -22 -7 -37t-12.5 -43t-21.5 -47t-33 -42.5t-47.5 -38t-66 -24.5t-87.5 -10q-67 0 -111 23.5t-44 59.5q0 28 22 49.5t50 21.5q41 0 76 -46q18 -26 38 -26q34 0 50.5 28.5t29.5 97.5l58 320q4 24 4 32q0 21 -13 31.5
t-45 10.5h-12l15 82q98 5 192 35h52zM798 686q0 -37 -31 -68t-68 -31q-28 0 -47 19.5t-19 48.5q0 38 30 68t68 30q30 0 48.5 -18.5t18.5 -48.5z" />
    <glyph glyph-name="f_k" unicode="fk" horiz-adv-x="1120" 
d="M1165 73q-27 -31 -85.5 -56.5t-101.5 -25.5q-80 0 -135 74q-28 36 -38.5 73t-10.5 96v9q-52 -63 -67 -119l-34 -124h-158l99 545q5 32 5 51q0 40 -23.5 59.5t-84.5 19.5q-70 0 -110 -48q-14 -17 -21 -37.5t-18 -78.5h99l-16 -90h-100l-44 -242q-5 -28 -7 -38.5t-12 -47.5
t-19.5 -59t-28 -58t-39.5 -60t-53 -49.5t-69 -40.5q-82 -34 -168 -34q-52 0 -84 21.5t-32 56.5q0 31 25 54.5t58 23.5q22 0 35.5 -7t37.5 -32q20 -21 45 -21q35 0 61 23t44 74.5t26 84t20 99.5q1 7 2 10l44 242h-84l16 90h85q11 60 29.5 95t53.5 65q46 40 107 57t155 17
q134 0 257 -13l-85 -471q73 116 154 177q109 82 193 82q36 0 59 -18t23 -46q0 -32 -21 -52.5t-55 -20.5q-29 0 -51.5 14.5t-28.5 14.5q-28 0 -79 -52q11 -94 23.5 -138.5t34.5 -75.5q28 -38 65 -38q9 0 18.5 2.5t13.5 4t17 8.5t16 9z" />
    <glyph glyph-name="f_f" unicode="ff" horiz-adv-x="840" 
d="M1049 664q0 -26 -23 -45t-52 -19q-26 0 -41.5 8.5t-31.5 30.5q-13 18 -33 18q-31 0 -48 -25.5t-28 -84.5l-7 -36h96l-17 -90h-95l-33 -179q-28 -152 -57 -223q-93 -227 -334 -227q-62 0 -95.5 20.5t-33.5 57.5q0 32 25.5 55t61.5 23q34 0 64 -31q18 -19 26.5 -24t24.5 -5
q22 0 41 9.5t32.5 30t23.5 41t19 53t13.5 55.5t11.5 59l52 285h-250l-33 -179q-28 -153 -58 -225q-94 -225 -333 -225q-62 0 -95.5 20.5t-33.5 57.5q0 32 25.5 55t61.5 23q34 0 64 -31q18 -19 26.5 -24t24.5 -5q22 0 41 9.5t32.5 30t23.5 41t19 53t13.5 55.5t11.5 59l52 285
h-84l16 90h84q19 110 95.5 172t194.5 62q61 0 96.5 -21.5t35.5 -59.5q0 -28 -21.5 -46t-53.5 -18q-26 0 -41.5 8.5t-31.5 30.5q-13 18 -33 18q-31 0 -48 -25.5t-28 -84.5l-7 -36h250q19 110 95.5 172t194.5 62q61 0 96.5 -21.5t35.5 -59.5z" />
    <glyph glyph-name="f_i" unicode="fi" horiz-adv-x="820" 
d="M850 61q-48 -40 -87 -57t-83 -17q-56 0 -92 26.5t-36 67.5q0 20 11 79l32 176q4 20 4 38q0 26 -17.5 36.5t-64.5 10.5h-153l-44 -243q-7 -36 -11 -56.5t-18.5 -66.5t-30.5 -75.5t-46 -68.5t-66.5 -62.5t-91 -40t-119.5 -16.5q-62 0 -95 20.5t-33 57.5q0 32 24.5 55
t59.5 23q22 0 35.5 -7.5t37.5 -31.5q21 -21 43 -21q36 0 62 23t43 69.5t26 84.5t20 101q1 8 2 12l44 243h-84l17 90h84q30 126 112 180t244 54q101 0 157 -28t56 -79q0 -35 -26 -58.5t-64 -23.5q-61 0 -87 65q-21 54 -82 54q-74 0 -113 -48q-14 -17 -21.5 -39.5t-17.5 -76.5
h404l-64 -351q-3 -16 -3 -26q0 -16 11 -25.5t29 -9.5q22 0 52 18z" />
    <glyph glyph-name="f_l" unicode="fl" horiz-adv-x="820" 
d="M850 62q-49 -41 -88 -58t-83 -17q-56 0 -91 27t-35 70q0 20 11 79l70 382q5 32 5 51q0 40 -23.5 59.5t-84.5 19.5q-70 0 -110 -48q-14 -17 -21 -37.5t-18 -78.5h99l-16 -90h-100l-44 -242q-4 -25 -8 -42t-17.5 -61t-30.5 -76.5t-48.5 -74t-70 -68.5t-96 -46t-125.5 -19
q-52 0 -84 21.5t-32 56.5q0 31 25 54.5t58 23.5q22 0 35.5 -7t37.5 -32q20 -21 45 -21q18 0 34 6.5t29.5 22.5t23.5 29.5t19 41t15 44t13 50.5t9.5 48t9.5 49l44 242h-84l16 90h85q24 125 107 179.5t238 54.5q103 0 256 -19l-103 -563q-3 -15 -3 -26q0 -19 10 -30t26 -11
q24 0 54 23z" />
    <glyph glyph-name="f_f_i" unicode="ffi" horiz-adv-x="1240" 
d="M1258 61q-74 -74 -170 -74q-56 0 -92 26.5t-36 67.5q0 38 11 79l32 176q4 20 4 38q0 26 -17.5 36.5t-64.5 10.5h-153l-44 -243q-7 -36 -11 -56.5t-18.5 -66.5t-30.5 -75.5t-46 -68.5t-66.5 -62.5t-91 -40t-119.5 -16.5q-62 0 -95 20.5t-33 57.5q0 32 24.5 55t59.5 23
q22 0 35.5 -7.5t37.5 -31.5q21 -21 43 -21q36 0 62 23t43 69.5t26 84.5t20 101q1 8 2 12l44 243h-253l-33 -179q-28 -152 -57 -223q-93 -227 -334 -227q-62 0 -95.5 20.5t-33.5 57.5q0 32 25.5 55t61.5 23q34 0 64 -31q18 -19 26.5 -24t24.5 -5q22 0 41 9.5t32.5 30t23.5 41
t19 53t13.5 55.5t11.5 59l52 285h-84l16 90h84q19 110 95.5 172t194.5 62q61 0 96.5 -21.5t35.5 -59.5q0 -28 -21.5 -46t-53.5 -18q-26 0 -41.5 8.5t-31.5 30.5q-13 18 -33 18q-31 0 -48 -25.5t-28 -84.5l-7 -36h254q14 59 34 95t53 66q85 73 269 73q101 0 157 -28t56 -79
q0 -35 -26 -58.5t-64 -23.5q-12 0 -23 2.5t-18.5 5.5t-14.5 9t-11 10t-8 11t-5.5 10t-3.5 10l-3 7q-21 54 -82 54q-74 0 -113 -48q-14 -16 -21.5 -38.5t-17.5 -77.5h404l-64 -351q-3 -17 -3 -26q0 -16 11 -25.5t29 -9.5q22 0 52 18z" />
    <glyph glyph-name="f_f_l" unicode="ffl" horiz-adv-x="1240" 
d="M1258 62q-75 -75 -171 -75q-56 0 -91 27t-35 70q0 38 11 79l70 382q5 32 5 51q0 40 -23.5 59.5t-84.5 19.5q-70 0 -110 -48q-14 -17 -21 -37.5t-18 -78.5h99l-16 -90h-100l-44 -242q-5 -28 -7 -38.5t-12 -48t-19 -59t-27.5 -57.5t-40 -60t-53.5 -49t-69 -41
q-82 -34 -168 -34q-52 0 -84 21.5t-32 56.5q0 31 25 54.5t58 23.5q22 0 35.5 -7t37.5 -32q20 -21 45 -21q35 0 61 23t44 74.5t26 84t20 99.5q1 7 2 10l44 242h-254l-33 -179q-28 -153 -58 -225q-94 -225 -333 -225q-62 0 -95.5 20.5t-33.5 57.5q0 32 25.5 55t61.5 23
q34 0 64 -31q18 -19 26.5 -24t24.5 -5q22 0 41 9.5t32.5 30t23.5 41t19 53t13.5 55.5t11.5 59l52 285h-84l16 90h84q19 110 95.5 172t194.5 62q61 0 96.5 -21.5t35.5 -59.5q0 -28 -21.5 -46t-53.5 -18q-26 0 -41.5 8.5t-31.5 30.5q-13 18 -33 18q-31 0 -48 -25t-28 -85
l-7 -36h255q24 125 107 179.5t238 54.5q103 0 256 -19l-103 -563q-3 -15 -3 -26q0 -19 10 -30t26 -11q24 0 54 23z" />
    <glyph glyph-name=".notdef" horiz-adv-x="280" 
 />
    <glyph glyph-name=".null" horiz-adv-x="0" 
 />
    <glyph glyph-name="nonmarkingreturn" horiz-adv-x="333" 
 />
    <glyph glyph-name="space" unicode=" " horiz-adv-x="340" 
 />
    <glyph glyph-name="exclam" unicode="!" horiz-adv-x="320" 
d="M366 611q0 -33 -24 -94l-52 -130q-29 -73 -51 -168h-82q15 144 15 198l-2 69q-3 37 -3 50q0 79 31 118.5t84 39.5q37 0 60.5 -23t23.5 -60zM259 86q0 -39 -29 -69t-66 -30q-33 0 -55.5 23.5t-22.5 57.5q0 40 29 69.5t68 29.5q33 0 54.5 -23t21.5 -58z" />
    <glyph glyph-name="quotedbl" unicode="&#x22;" horiz-adv-x="380" 
d="M309 606q0 -22 -12 -45l-113 -209l-44 13l12 227q1 9 1 21q3 68 68 68q40 0 64 -20.5t24 -54.5zM507 606q0 -22 -12 -45l-113 -209l-44 13l12 227q1 9 1 21q3 68 68 68q40 0 64 -20.5t24 -54.5z" />
    <glyph glyph-name="numbersign" unicode="#" 
d="M621 219h-102l-33 -219h-86l32 219h-86l-33 -219h-86l32 219h-102v86h114l13 85h-99v86h112l30 205h87l-31 -205h87l30 205h87l-31 -205h93v-86h-105l-13 -85h90v-86zM444 305l13 85h-86l-13 -85h86z" />
    <glyph glyph-name="dollar" unicode="$" 
d="M669 219q0 -94 -79.5 -157t-215.5 -77l-26 -149h-83l26 149q-246 35 -246 138q0 34 24.5 55t62.5 21q13 0 25 -3t19 -6t17 -12t13.5 -13t15.5 -18t15 -18q47 -57 111 -57q55 0 94.5 29t39.5 69q0 38 -30 58t-118 47q-194 57 -194 189q0 83 66.5 135t186.5 69l23 123h83
l-22 -122q104 -15 162 -47.5t58 -75.5q0 -29 -21.5 -48.5t-53.5 -19.5q-13 0 -23.5 2.5t-21.5 10.5t-15 11.5t-17.5 18.5t-16.5 18q-45 48 -105 48q-49 0 -82 -24t-33 -59q0 -41 44 -63q26 -14 116 -40q57 -16 97.5 -38t60 -40t30 -41.5t12 -35t1.5 -27.5z" />
    <glyph glyph-name="percent" unicode="%" horiz-adv-x="880" 
d="M478 538q0 -85 -65 -148t-153 -63q-69 0 -111.5 40t-42.5 106q0 88 64.5 152t153.5 64q71 0 112.5 -40.5t41.5 -110.5zM361 551q0 60 -52 60q-36 0 -61 -39.5t-25 -97.5q0 -65 51 -65q42 0 64.5 46.5t22.5 95.5zM767 681l-441 -681h-84l442 681h83zM899 203
q0 -85 -65 -148t-153 -63q-69 0 -111.5 40t-42.5 106q0 88 64.5 152t153.5 64q71 0 112.5 -40.5t41.5 -110.5zM782 216q0 60 -52 60q-36 0 -61 -39.5t-25 -97.5q0 -65 51 -65q42 0 64.5 46.5t22.5 95.5z" />
    <glyph glyph-name="ampersand" unicode="&#x26;" horiz-adv-x="980" 
d="M1016 165q0 -70 -75.5 -124t-172.5 -54q-49 0 -93.5 13t-64 23.5t-49.5 30.5l-9 -4q-1 0 -25.5 -11.5t-33 -15t-34.5 -12.5t-44 -13t-46 -7.5t-56 -3.5q-41 0 -83 9.5t-85 31t-70 64.5t-27 101q0 85 52.5 140t163.5 70q-43 13 -62 37.5t-19 64.5q0 80 71.5 134.5
t177.5 54.5q89 0 142 -35.5t53 -94.5t-42 -98t-124 -63q80 -37 114 -74.5t72 -128.5q56 43 95 105t39 108q0 18 -17 36q-23 23 -30.5 37.5t-7.5 37.5q0 37 23 62.5t57 25.5q40 0 66 -36t26 -91q0 -85 -59 -183.5t-149 -163.5q63 -55 119 -55q34 0 51.5 13t21.5 49
q3 35 23.5 57t49.5 22q26 0 43.5 -17t17.5 -42zM485 564q0 27 -15.5 43.5t-41.5 16.5q-41 0 -64 -37t-23 -76q0 -30 15.5 -48t40.5 -18q41 0 64.5 41t23.5 78zM509 113q-41 41 -71 98t-55 86t-39.5 34t-37.5 5q-36 0 -60.5 -27.5t-24.5 -67.5q0 -64 51 -111t122 -47
q45 0 115 30z" />
    <glyph glyph-name="quotesingle" unicode="'" horiz-adv-x="180" 
d="M295 606q0 -22 -12 -45l-113 -209l-44 13l12 227q1 9 1 21q3 68 68 68q40 0 64 -20.5t24 -54.5z" />
    <glyph glyph-name="parenleft" unicode="(" horiz-adv-x="260" 
d="M246 -75l-13 -70h-10q-92 1 -142 56t-50 145q0 60 23.5 194t49.5 222q71 238 284 238l-13 -74q-57 -7 -95 -87q-37 -77 -71.5 -245.5t-34.5 -270.5q0 -46 17 -71t55 -37z" />
    <glyph glyph-name="parenright" unicode=")" horiz-adv-x="260" 
d="M268 165q-39 -168 -115 -239t-188 -71l13 73q57 9 95 88q37 77 71.5 245t34.5 271q0 45 -17 70.5t-55 37.5l13 70q95 0 148.5 -52.5t53.5 -148.5q0 -111 -54 -344z" />
    <glyph glyph-name="asterisk" unicode="*" horiz-adv-x="460" 
d="M508 533q0 -25 -14.5 -42t-34.5 -17q-11 0 -35 8l-59 22l-17 -19l45 -43q23 -23 23 -42q0 -20 -20.5 -37.5t-43.5 -17.5q-33 0 -33 57l-1 67l-23 2l-22 -68q-19 -57 -54 -57q-18 0 -32 12.5t-14 27.5q0 25 39 56l58 45l-6 21l-67 -24q-22 -9 -35 -9q-36 0 -36 37
q0 24 14 41.5t34 17.5q11 0 37 -9l59 -22l17 20l-45 42q-23 21 -23 42q0 20 20 37.5t43 17.5q26 0 31 -31q2 -6 2 -26l2 -66l23 -3l22 68q18 56 54 56q18 0 32 -12t14 -28q0 -26 -40 -55l-58 -45l6 -21l67 24q23 9 36 9q35 0 35 -36z" />
    <glyph glyph-name="plus" unicode="+" horiz-adv-x="600" 
d="M610 192h-202v-202h-116v202h-202v116h202v202h116v-202h202v-116z" />
    <glyph glyph-name="comma" unicode="," horiz-adv-x="340" 
d="M298 98q0 -56 -43.5 -118t-115.5 -110l-38 36q68 60 80 88q-7 -1 -15 -1q-30 0 -48 19t-18 52q0 45 36 80t83 35q35 0 57 -22.5t22 -58.5z" />
    <glyph glyph-name="hyphen" unicode="-" horiz-adv-x="280" 
d="M319 314l-33 -90h-227l34 90h226z" />
    <glyph glyph-name="period" unicode="." horiz-adv-x="340" 
d="M296 94q0 -41 -34.5 -74t-77.5 -33q-33 0 -55.5 21t-22.5 52q0 45 34.5 78.5t80.5 33.5q32 0 53.5 -22t21.5 -56z" />
    <glyph glyph-name="slash" unicode="/" horiz-adv-x="360" 
d="M502 710l-357 -855h-136l359 855h134z" />
    <glyph glyph-name="zero" unicode="0" 
d="M703 418q0 -42 -9.5 -93t-36 -112t-66 -110t-106.5 -82.5t-150 -33.5q-114 0 -181 70t-67 189q0 118 43.5 219t128.5 165t195 64q118 0 183.5 -72.5t65.5 -203.5zM535 458q0 154 -94 154q-44 0 -79 -34t-54.5 -82t-32 -107t-16.5 -103t-4 -76q0 -63 25 -99t68 -36
q52 0 91.5 47t58.5 115.5t28 125t9 95.5z" />
    <glyph glyph-name="one" unicode="1" 
d="M565 81l-15 -81h-427l15 81l54 2q42 2 60 15t24 46l63 348q4 28 4 36q0 20 -14 29t-52 9h-49l14 82l18 -1q111 7 148.5 12.5t83.5 21.5h55l-95 -525q-2 -11 -5 -36q0 -19 14 -27.5t53 -9.5z" />
    <glyph glyph-name="two" unicode="2" 
d="M664 207l-94 -207h-495l-8 102l29 17q113 66 160.5 99t100.5 82q128 117 128 227q0 37 -27 61t-68 24q-45 0 -80.5 -19.5t-35.5 -44.5q0 -6 12 -29t12 -30q0 -32 -28 -58.5t-62 -26.5t-55 22.5t-21 58.5q0 83 86 146t203 63q116 0 184.5 -49t68.5 -132q0 -77 -63 -149
q-35 -40 -82.5 -74.5t-151.5 -98.5l-95 -58h123q87 0 118 16t72 83z" />
    <glyph glyph-name="three" unicode="3" 
d="M665 225q0 -101 -98.5 -169.5t-243.5 -68.5q-110 0 -180.5 43.5t-70.5 111.5q0 43 28.5 73.5t67.5 30.5q31 0 52 -18.5t21 -44.5q0 -17 -17 -57q0 -20 31 -35.5t72 -15.5t71 15.5t45 39.5t22 47.5t7 44.5q0 55 -35 79t-115 24h-26l16 84h34q155 0 155 116q0 81 -93 81
q-36 0 -67 -14.5t-31 -31.5q0 -4 4 -21t4 -25q0 -28 -28 -51.5t-63 -23.5q-33 0 -54 19t-21 48q0 74 78.5 131t197.5 57q114 0 184.5 -47.5t70.5 -124.5q0 -52 -35 -94.5t-94 -65.5q111 -36 111 -137z" />
    <glyph glyph-name="four" unicode="4" 
d="M708 283l-49 -100h-115l-7 -36q-2 -10 -2 -14q0 -21 16 -34.5t42 -15.5l25 -2l-15 -81h-346l14 81l28 2q40 4 56 21t25 66l2 13h-298l-21 81l409 417h163l-72 -398h145zM448 547l-246 -264h198z" />
    <glyph glyph-name="five" unicode="5" 
d="M669 274q0 -127 -98 -207t-253 -80q-105 0 -172.5 41.5t-67.5 106.5q0 44 29 74.5t70 30.5q34 0 57.5 -20.5t23.5 -49.5q0 -15 -8.5 -35t-8.5 -24q0 -15 20.5 -25.5t49.5 -10.5q68 0 114.5 53.5t46.5 132.5q0 55 -29 88.5t-76 33.5q-86 0 -153 -89l-73 25l80 362h448
l-43 -133h-335l-29 -117q75 44 178 44q101 0 165 -56t64 -145z" />
    <glyph glyph-name="six" unicode="6" 
d="M681 253q0 -112 -93 -189t-229 -77q-51 0 -95.5 12t-86 39.5t-65.5 80.5t-24 127q0 56 10 112t37.5 118t69 109t111.5 78t159 31q96 0 162.5 -35.5t66.5 -87.5q0 -35 -26 -61t-61 -26q-67 0 -73 76q-3 46 -79 46q-144 0 -194 -214q84 56 188 56q100 0 161 -53.5
t61 -141.5zM513 249q0 53 -28.5 82t-80.5 29q-66 0 -109.5 -49t-43.5 -123q0 -52 30.5 -82.5t82.5 -30.5q67 0 108 48.5t41 125.5z" />
    <glyph glyph-name="seven" unicode="7" 
d="M736 590q-147 -176 -209.5 -299.5t-89.5 -290.5h-201q23 96 81.5 198t112 164.5t109 121.5t59.5 64h-241q-66 0 -92.5 -15.5t-67.5 -86.5l-74 20l68 215h545v-91z" />
    <glyph glyph-name="eight" unicode="8" 
d="M674 234q0 -107 -94 -177t-238 -70q-125 0 -199.5 48.5t-74.5 130.5q0 125 152 183q-14 9 -22 15t-22.5 20.5t-22 35t-7.5 45.5q0 32 14.5 68t45.5 74t91 62.5t140 24.5q112 0 180.5 -44t68.5 -115q0 -48 -29 -85.5t-93 -71.5q59 -28 84.5 -61.5t25.5 -82.5zM554 526
q0 36 -33.5 58t-88.5 22q-49 0 -83.5 -22.5t-34.5 -53.5q0 -26 32.5 -49.5t116.5 -58.5q91 40 91 104zM506 171q0 66 -199 133q-48 -19 -75 -52t-27 -74q0 -49 39.5 -76t113.5 -27q66 0 107 26.5t41 69.5z" />
    <glyph glyph-name="nine" unicode="9" 
d="M712 441q0 -88 -28 -169t-79.5 -145t-134 -102t-183.5 -38q-97 0 -156.5 31t-59.5 81q0 36 27.5 62.5t64.5 26.5q65 0 71 -82q2 -17 17.5 -24t55.5 -7q88 0 135 51.5t79 167.5q-97 -59 -196 -59q-96 0 -153 49t-57 131q0 115 100 197t240 82q52 0 95 -11.5t81 -38.5
t59.5 -78.5t21.5 -124.5zM544 500q0 50 -27 78t-74 28q-66 0 -110.5 -48.5t-44.5 -121.5q0 -105 97 -105q66 0 112.5 49.5t46.5 119.5z" />
    <glyph glyph-name="colon" unicode=":" horiz-adv-x="340" 
d="M356 442q0 -41 -34.5 -74t-77.5 -33q-33 0 -55.5 21t-22.5 52q0 45 34.5 78.5t80.5 33.5q32 0 53.5 -22t21.5 -56zM296 94q0 -41 -34.5 -74t-77.5 -33q-33 0 -55.5 21t-22.5 52q0 45 34.5 78.5t80.5 33.5q32 0 53.5 -22t21.5 -56z" />
    <glyph glyph-name="semicolon" unicode=";" horiz-adv-x="340" 
d="M298 98q0 -56 -43 -118t-116 -110l-38 36q69 62 80 88q-7 -1 -15 -1q-30 0 -48 19t-18 52q0 45 36 80t83 35q35 0 57 -22.5t22 -58.5zM352 442q0 -41 -34.5 -74t-77.5 -33q-33 0 -55.5 21t-22.5 52q0 44 34.5 78t80.5 34q32 0 53.5 -22t21.5 -56z" />
    <glyph glyph-name="less" unicode="&#x3c;" horiz-adv-x="620" 
d="M570 -88l-470 289v98l470 289v-136l-329 -202l329 -202v-136z" />
    <glyph glyph-name="equal" unicode="=" horiz-adv-x="600" 
d="M610 277h-520v116h520v-116zM610 107h-520v116h520v-116z" />
    <glyph glyph-name="greater" unicode="&#x3e;" horiz-adv-x="620" 
d="M570 201l-470 -289v136l329 202l-329 202v136l470 -289v-98z" />
    <glyph glyph-name="question" unicode="?" horiz-adv-x="620" 
d="M668 523q0 -68 -42 -124t-116 -85q-51 -20 -69 -39.5t-24 -59.5h-91q3 71 21.5 106t76.5 74q73 49 73 119q0 44 -26.5 71t-70.5 27q-40 0 -72 -16.5t-32 -37.5q0 -6 4.5 -24t4.5 -24q0 -31 -26 -56t-58 -25q-35 0 -55.5 20t-20.5 55q0 77 84 133.5t199 56.5
q107 0 173.5 -47.5t66.5 -123.5zM447 85q0 -40 -28.5 -69t-68.5 -29q-33 0 -55 22t-22 56q0 38 29 67t67 29q35 0 56.5 -21t21.5 -55z" />
    <glyph glyph-name="at" unicode="@" horiz-adv-x="780" 
d="M790 184q-114 -197 -335 -197q-156 0 -265.5 105t-109.5 254q0 106 57 189t141 124t176 41q83 0 158 -34.5t125 -102.5t50 -155q0 -60 -25 -108.5t-62.5 -75t-74 -40.5t-65.5 -14q-66 0 -80 52q-44 -52 -110 -52q-56 0 -92.5 40t-36.5 101q0 83 59 145.5t138 62.5
q51 0 89 -31l5 25h94l-39 -213q-6 -27 -5 -33q0 -11 7 -19t17 -8t26.5 8.5t36 25.5t33.5 49.5t14 73.5q0 102 -74.5 170t-186.5 68q-130 0 -216.5 -82t-86.5 -206q0 -128 86 -211.5t217 -83.5q172 0 264 132h71zM511 440q-1 0 -7.5 4.5t-13 7.5t-16 6t-18.5 3
q-40 0 -71.5 -50.5t-31.5 -115.5q0 -28 12 -44t33 -16q24 0 40.5 12.5t35.5 59t37 133.5z" />
    <glyph glyph-name="A" unicode="A" horiz-adv-x="720" 
d="M769 81l-15 -81h-352l15 81l33 4q33 5 45 12.5t12 23.5q0 11 -7 44l-16 77h-222l-46 -87q-16 -30 -16 -43q0 -22 58 -29l19 -2l-15 -81h-289l15 81q53 12 83 41.5t64 87.5l278 471h151l116 -503q17 -58 28 -71t49 -23q7 -2 12 -3zM469 320l-41 218l-123 -218h164z" />
    <glyph glyph-name="B" unicode="B" horiz-adv-x="720" 
d="M739 232q0 -38 -15.5 -75.5t-48.5 -74t-95.5 -59.5t-144.5 -23h-421l15 81l22 2q40 6 55.5 22.5t24.5 62.5l63 345q4 28 4 37q0 22 -11.5 33.5t-41.5 14.5l-22 2l14 81h377q130 0 189 -29.5t59 -113.5q0 -67 -50.5 -114.5t-130.5 -57.5q71 -2 114.5 -39t43.5 -95z
M545 233q0 49 -29 69t-99 20h-84l-22 -121q-9 -72 -9 -73q0 -25 15.5 -34.5t60.5 -9.5q86 0 126.5 48.5t40.5 100.5zM585 517q0 83 -120 83q-57 0 -71.5 -14t-23.5 -61l-22 -120h62q85 0 130 28.5t45 83.5z" />
    <glyph glyph-name="C" unicode="C" horiz-adv-x="700" 
d="M738 179q-123 -192 -341 -192q-144 0 -231.5 86t-87.5 209q0 47 13 99.5t44 109t74.5 101t111 73.5t147.5 29q75 0 168 -43l12 30h56l50 -262l-74 -16q-12 67 -69 133t-128 66q-64 0 -114 -52t-74.5 -126.5t-24.5 -153.5q0 -90 44 -140.5t122 -50.5q62 0 126 39.5
t107 105.5z" />
    <glyph glyph-name="D" unicode="D" horiz-adv-x="760" 
d="M805 407q0 -118 -55 -216t-148 -145q-91 -46 -292 -46h-296l15 81l22 2q40 6 55.5 22.5t24.5 62.5l63 345q4 28 4 37q0 22 -11.5 33.5t-41.5 14.5l-22 2l14 81h320q85 0 144.5 -11.5t108 -40.5t72 -84t23.5 -138zM632 419q0 88 -42 134t-121 46q-32 0 -51.5 -5.5
t-29.5 -21t-13.5 -26.5t-7.5 -37l-63 -352q-5 -22 -5 -32q0 -22 17 -30t60 -8q105 0 180.5 98t75.5 234z" />
    <glyph glyph-name="E" unicode="E" horiz-adv-x="720" 
d="M761 225l-113 -225h-634l15 81l22 2q39 4 55.5 21.5t24.5 63.5l63 345l4 36q0 23 -12 34.5t-41 14.5l-22 2l15 81h584l55 -221l-70 -22q-74 162 -227 162q-45 0 -69.5 -13t-29.5 -25t-11 -43q-1 -5 -2 -8l-19 -101q16 -2 40 -2q55 0 75 18.5t37 84.5h71l-55 -302h-71
q2 24 2 32q0 22 -6 37t-14 23.5t-25 13t-30.5 5.5t-39.5 1l-30 -165q-4 -26 -4 -32q0 -23 16 -31.5t61 -8.5q89 0 157.5 37.5t161.5 138.5z" />
    <glyph glyph-name="F" unicode="F" horiz-adv-x="660" 
d="M763 445l-69 -18l-3 7q-36 58 -49.5 75.5t-36.5 36.5q-59 47 -142 47q-52 0 -68.5 -14.5t-26.5 -67.5l-20 -108h42q38 0 63 20t41 88h69l-58 -316h-68q2 13 2 36q0 81 -62 81h-45l-27 -144q-3 -21 -3 -36q0 -25 12.5 -36t46.5 -13l28 -2l-15 -81h-360l15 81l22 2
q40 6 55.5 22.5t24.5 62.5l63 345q4 28 4 37q0 22 -11.5 33.5t-41.5 14.5l-22 2l14 81h572z" />
    <glyph glyph-name="G" unicode="G" horiz-adv-x="760" 
d="M828 349l-15 -81l-19 -4q-38 -9 -50.5 -22.5t-19.5 -49.5l-35 -192h-109l-11 51q-87 -64 -205 -64q-129 0 -208 80t-79 211q0 170 114.5 293t273.5 123q92 0 187 -53l19 40h55l42 -245l-74 -13q-11 23 -18.5 37t-28.5 43.5t-41.5 47.5t-53 32.5t-68.5 14.5
q-90 0 -155 -97t-65 -232q0 -86 39 -136t106 -50q62 0 110 39.5t48 89.5q0 10 -2 18t-6.5 13t-8.5 8.5t-12 6t-11.5 3.5t-12.5 3t-11 2l-11 2l14 81h322z" />
    <glyph glyph-name="H" unicode="H" horiz-adv-x="800" 
d="M801 81l-15 -81h-348l15 81l23 2q40 4 56 21t24 64l28 155h-250l-29 -155q-3 -19 -3 -34q0 -25 11.5 -36.5t41.5 -14.5l22 -2l-15 -81h-348l15 81l22 2q40 4 55.5 21t24.5 64l63 345q4 28 4 37q0 22 -11.5 33.5t-41.5 14.5l-22 2l14 81h348l-14 -81l-23 -2
q-39 -5 -55.5 -22t-24.5 -63l-18 -100h250l18 100q4 26 4 35q0 46 -53 50l-22 2l15 81h348l-15 -81l-22 -2q-40 -5 -55.5 -21.5t-24.5 -63.5l-63 -345q-4 -19 -4 -36q0 -23 12 -35t41 -14z" />
    <glyph glyph-name="I" unicode="I" horiz-adv-x="380" 
d="M376 81l-15 -81h-347l15 81l22 2q40 6 56 22.5t24 62.5l63 345q3 19 3 34q0 24 -11.5 36t-41.5 15l-21 2l14 81h348l-15 -81l-22 -2q-40 -4 -56 -21t-24 -64l-63 -345q-3 -19 -3 -34q0 -25 11.5 -37t41.5 -14z" />
    <glyph glyph-name="J" unicode="J" horiz-adv-x="620" 
d="M721 681l-15 -81l-22 -2q-39 -4 -55 -21t-25 -64l-54 -293q-44 -233 -308 -233q-105 0 -169.5 49t-64.5 128q0 55 34 93.5t83 38.5q35 0 58.5 -22.5t23.5 -55.5q0 -39 -35 -64q-15 -11 -18.5 -15.5t-3.5 -12.5q0 -20 26 -35.5t60 -15.5q21 0 39 5t31.5 15.5t24 20
t18.5 27.5t13 28t9.5 30.5t6 26t4.5 23.5l48 262q0 3 1.5 15t1.5 18q0 24 -11.5 37t-41.5 15l-34 2l15 81h360z" />
    <glyph glyph-name="K" unicode="K" horiz-adv-x="780" 
d="M813 81l-15 -81h-358l14 81l11 2q63 8 63 32q0 13 -18 49l-89 171l-99 -75l-17 -92q-3 -19 -3 -35q0 -23 11 -35t42 -15l22 -2l-15 -81h-348l15 81l22 2q40 4 55.5 21t24.5 64l63 345q4 28 4 37q0 22 -11.5 33.5t-41.5 14.5l-22 2l14 81h349l-15 -81l-23 -2
q-39 -5 -55.5 -21.5t-24.5 -63.5l-24 -135l206 162q39 31 39 41q0 9 -35 15l-28 4l14 81h339l-15 -81q-59 -9 -102 -27t-95 -56l-108 -79l135 -247q34 -61 53 -79t66 -31z" />
    <glyph glyph-name="L" unicode="L" horiz-adv-x="640" 
d="M725 234l-118 -234h-593l15 81l22 2q39 4 55.5 21.5t24.5 63.5l63 345q2 12 4 37q0 22 -11.5 33.5t-41.5 14.5l-22 2l14 81h361l-15 -81l-35 -2q-39 -5 -55.5 -22t-24.5 -63l-63 -346q-4 -21 -4 -40q0 -21 12.5 -29.5t46.5 -8.5q53 0 103.5 19.5t88 51t62 58.5t42.5 53z
" />
    <glyph glyph-name="M" unicode="M" horiz-adv-x="860" 
d="M861 81l-15 -81h-339l15 81l22 2q40 5 56 21.5t25 63.5l70 385l-270 -553h-67l-70 553l-70 -385q-5 -30 -5 -32q0 -50 54 -53l34 -2l-15 -81h-272l15 81l13 2q41 5 57 21.5t24 63.5l62 345q4 28 4 36q0 23 -11.5 34t-41.5 15l-13 2l14 81h300l43 -378l186 378h304
l-15 -81l-15 -2q-40 -6 -55.5 -22.5t-23.5 -62.5l-62 -345q-5 -21 -3 -35q0 -25 11.5 -35.5t38.5 -14.5z" />
    <glyph glyph-name="N" unicode="N" horiz-adv-x="740" 
d="M845 681l-15 -81l-22 -2q-40 -5 -56.5 -21.5t-24.5 -63.5l-93 -513h-124l-214 549l-69 -381q-4 -17 -4 -33q0 -47 53 -52l22 -2l-15 -81h-269l15 81l22 2q40 5 56.5 21.5t24.5 63.5l62 345q4 28 4 36q0 23 -12 35t-41 14l-22 2l15 81h289l159 -425l46 257q4 28 4 35
q0 25 -13 36.5t-40 13.5l-22 2l15 81h269z" />
    <glyph glyph-name="O" unicode="O" horiz-adv-x="760" 
d="M806 386q0 -67 -27.5 -136t-77 -128.5t-130.5 -97t-177 -37.5q-141 0 -228.5 84t-87.5 220q0 167 118 285t289 118q145 0 233 -84.5t88 -223.5zM613 412q0 91 -36.5 140.5t-103.5 49.5q-85 0 -146 -99.5t-61 -237.5q0 -85 36 -133.5t98 -48.5q48 0 87 26t61.5 64.5
t38 85.5t21 85t5.5 68z" />
    <glyph glyph-name="P" unicode="P" horiz-adv-x="640" 
d="M724 517q0 -234 -335 -234h-83l-21 -115q-3 -18 -3 -34q0 -24 11.5 -37t41.5 -14l34 -2l-15 -81h-360l15 81l22 2q40 4 55.5 21t24.5 64l63 345q4 28 4 37q0 22 -11.5 33.5t-41.5 14.5l-22 2l14 81h342q67 0 111.5 -6t81.5 -23t54.5 -50t17.5 -85zM538 510q0 93 -105 91
q-26 0 -41.5 -5t-23.5 -18t-10.5 -21.5t-6.5 -29.5l-29 -158h25q53 0 77.5 5t48.5 20q29 20 47 51.5t18 64.5z" />
    <glyph glyph-name="Q" unicode="Q" horiz-adv-x="760" 
d="M805 396q0 -77 -29 -154t-77 -128q21 -34 21 -84q0 -110 -104 -179t-268 -69q-129 0 -220 48.5t-91 113.5q0 30 23.5 52t55.5 22q37 0 53.5 -22.5t18.5 -65.5q0 -26 48 -43t115 -17q91 0 153.5 36.5t62.5 89.5q0 9 -4 20q-94 -29 -170 -29q-141 0 -228 83t-87 219
q0 168 120 286.5t291 118.5q139 0 227.5 -83.5t88.5 -214.5zM618 411q0 86 -36.5 138.5t-97.5 52.5q-92 0 -155.5 -98.5t-63.5 -240.5q0 -104 54 -154q-2 10 -2 16q0 40 38 70t117 30q60 0 105 -17q41 106 41 203zM500 99q-29 26 -79 26q-46 0 -46 -24q0 -11 13.5 -18.5
t35.5 -7.5q36 0 76 24z" />
    <glyph glyph-name="R" unicode="R" horiz-adv-x="740" 
d="M765 81l-15 -81h-203l-143 299h-75l-24 -131q-3 -19 -3 -34q0 -25 11.5 -36.5t41.5 -14.5l22 -2l-15 -81h-348l15 81l22 2q40 4 55.5 21t24.5 64l63 345q4 28 4 37q0 22 -11.5 33.5t-41.5 14.5l-22 2l14 81h375q60 0 103 -6.5t77.5 -23.5t52 -48t17.5 -77q0 -66 -45 -124
t-135 -78l73 -151q29 -53 45.5 -67.5t64.5 -24.5zM576 517q0 83 -119 83q-20 0 -34.5 -3t-22 -5t-13.5 -11.5t-7.5 -11t-4.5 -16.5t-3 -16l-26 -146q8 -1 17 -1q106 0 159.5 26.5t53.5 100.5z" />
    <glyph glyph-name="S" unicode="S" horiz-adv-x="700" 
d="M731 228q0 -101 -93.5 -171t-227.5 -70q-125 0 -219 58l-22 -45h-66l-44 256l77 13q69 -194 254 -194q63 0 103.5 27.5t40.5 69.5q0 10 -2 19t-5.5 16t-9 13t-10 10t-12 8t-12 6.5t-12.5 5t-11 3t-10 1.5l-6 2l-130 31q-95 23 -138 63q-54 49 -54 127q0 95 82 156t210 61
q120 0 217 -56l21 43h71v-229h-76q-50 154 -211 154q-54 0 -90.5 -23t-36.5 -57q0 -14 6.5 -25t13.5 -17.5t25.5 -13.5t27 -9t33.5 -9l126 -33q72 -19 108 -43q81 -54 82 -148z" />
    <glyph glyph-name="T" unicode="T" horiz-adv-x="700" 
d="M802 464l-72 -16q-28 73 -75 110t-117 42l-79 -432q-3 -19 -3 -34q0 -28 13.5 -38.5t48.5 -12.5l32 -2l-14 -81h-388l14 81l33 2q45 3 63 19.5t27 65.5l79 432q-78 -6 -127 -37.5t-108 -114.5l-59 29l101 204h582z" />
    <glyph glyph-name="U" unicode="U" horiz-adv-x="740" 
d="M855 681l-15 -81l-22 -2q-40 -5 -55.5 -21.5t-24.5 -63.5l-51 -281q-46 -245 -325 -245q-108 0 -174 44t-66 116q0 23 8 73l53 293q4 28 4 36q0 23 -12 35t-41 14l-22 2l15 81h348l-15 -81l-22 -2q-40 -5 -56.5 -21.5t-24.5 -63.5l-42 -235q-8 -36 -8 -90q0 -48 31 -74.5
t88 -26.5q29 0 53.5 7t40.5 16.5t29.5 28t20.5 31t13.5 35.5t8.5 33t6 32l44 243q4 17 4 33q0 47 -53 52l-22 2l15 81h269z" />
    <glyph glyph-name="V" unicode="V" horiz-adv-x="660" 
d="M819 681l-15 -81q-50 -6 -76 -25.5t-57 -75.5l-275 -499h-122l-106 512q-11 49 -24.5 62.5t-63.5 23.5l-8 2l15 81h355l-14 -81q-36 -2 -52 -4.5t-27 -10.5t-11 -24q0 -6 4 -24l63 -354l170 323q21 37 21 62q0 13 -13 19.5t-52 12.5l15 81h273z" />
    <glyph glyph-name="W" unicode="W" horiz-adv-x="1000" 
d="M1090 681l-15 -81q-54 -6 -73 -24t-57 -94l-238 -482h-124l-54 380l-185 -380h-122l-72 506q-7 49 -21 66t-57 28l15 81h310l-14 -81q-66 -3 -66 -58q0 -8 1 -12l46 -321l147 321l1 5v2q0 35 -30 50q-11 6 -43 13l14 81h315l-14 -81l-12 -1q-41 -4 -52.5 -12t-11.5 -27
q0 -4 0.5 -14t0.5 -16l46 -321l146 321q13 28 13 39q0 13 -13.5 19t-47.5 10l-12 2l15 81h264z" />
    <glyph glyph-name="X" unicode="X" horiz-adv-x="740" 
d="M766 81l-15 -81h-376l15 81q38 3 51.5 7t13.5 15q0 8 -15 40l-66 126l-104 -119q-25 -28 -25 -42q0 -11 13.5 -16.5t44.5 -9.5l11 -1l-15 -81h-306l15 81q65 16 90.5 31.5t83.5 73.5l144 162l-85 152q-31 54 -52 71t-62 26q-2 1 -12 3l15 81h357l-14 -81q-37 -2 -52 -7
t-15 -17q0 -13 16 -42l51 -92l95 108q17 18 17 29q0 17 -57 21h-2.5h-2.5l14 81h298l-15 -81q-97 -10 -179 -103l-118 -134l104 -183q32 -49 63 -71.5t76 -27.5z" />
    <glyph glyph-name="Y" unicode="Y" horiz-adv-x="660" 
d="M817 681l-15 -81q-56 -9 -90 -31t-95 -94l-158 -189l-21 -118q-1 -9 -4 -35q0 -23 12 -35.5t41 -14.5l30 -2l-15 -81h-361l15 81l31 2q39 5 55.5 22t24.5 63l21 118l-89 190q-33 70 -54 91t-64 30q-5 2 -9 3l15 81h353l-15 -81q-67 -5 -77 -13q-6 -6 -6 -14q0 -9 6 -23
l77 -181l139 173q20 23 20 36q0 15 -68 22l15 81h286z" />
    <glyph glyph-name="Z" unicode="Z" 
d="M719 233l-103 -233h-567l-26 62l478 535q-26 5 -51 5q-121 0 -203 -61q-34 -24 -89 -96l-74 27l88 209h548l20 -60l-474 -535q46 -6 76 -6q103 0 176 43t125 135z" />
    <glyph glyph-name="bracketleft" unicode="[" horiz-adv-x="260" 
d="M219 -145h-210l155 855h210l-14 -78h-42q-25 0 -31 -5t-11 -29l-111 -612q-4 -17 -4 -31q0 -13 7 -17.5t27 -4.5h38z" />
    <glyph glyph-name="backslash" unicode="\" horiz-adv-x="580" 
d="M575 0h-136l-366 741h138z" />
    <glyph glyph-name="bracketright" unicode="]" horiz-adv-x="260" 
d="M192 -145h-210l14 78h42q25 0 31 5t11 29l111 612q4 26 4 31q0 13 -7 17.5t-27 4.5h-38l14 78h210z" />
    <glyph glyph-name="asciicircum" unicode="^" horiz-adv-x="620" 
d="M594 318h-119l-131 250l-133 -250h-119l209 404h85z" />
    <glyph glyph-name="underscore" unicode="_" horiz-adv-x="500" 
d="M500 -155h-500v60h500v-60z" />
    <glyph glyph-name="grave" unicode="`" horiz-adv-x="380" 
d="M416 620l-57 -44q-99 38 -128 63.5t-16 63.5q10 26 36 43t55 17q31 0 56.5 -36t53.5 -107z" />
    <glyph glyph-name="a" unicode="a" 
d="M735 70q-84 -79 -168 -79q-99 0 -121 79q-67 -79 -167 -79q-85 0 -140 60t-55 153q0 127 89 221.5t209 94.5q80 0 136 -47l7 38h142l-58 -322q-6 -30 -6 -43q0 -47 36 -47q22 0 53 24zM494 400q-51 32 -85 32q-48 0 -85.5 -44.5t-54 -100t-16.5 -105.5q0 -42 18.5 -66.5
t50.5 -24.5q57 0 103 79q32 54 69 230z" />
    <glyph glyph-name="b" unicode="b" horiz-adv-x="600" 
d="M633 305q0 -122 -90.5 -218t-205.5 -96q-62 0 -136 44l-6 -35h-138l98 539q4 24 4 32q0 21 -13 31t-44 10h-11l15 82q104 0 189 38h33l-52 -285q53 73 151 73q89 0 147.5 -61t58.5 -154zM465 333q0 41 -19 66t-51 25q-119 0 -160 -314l3 -2q27 -29 65 -29q46 0 84.5 40.5
t58 98t19.5 115.5z" />
    <glyph glyph-name="c" unicode="c" horiz-adv-x="560" 
d="M570 113q-49 -54 -126.5 -88t-151.5 -34q-104 0 -169 59.5t-65 155.5q0 125 104 219.5t240 94.5q81 0 138 -37.5t57 -91.5q0 -37 -29 -63.5t-69 -26.5q-31 0 -52.5 17t-21.5 43q0 9 4 22.5t4 22.5q0 16 -13.5 26t-33.5 10q-60 0 -110 -77t-50 -170q0 -52 27 -80t76 -28
q84 0 188 84z" />
    <glyph glyph-name="d" unicode="d" 
d="M714 72q-37 -37 -83 -59t-89 -22q-100 0 -120 81q-2 -2 -12 -11.5t-16 -15t-18.5 -15t-24 -15t-26 -12t-32 -9.5t-36.5 -3q-85 0 -141 61.5t-56 153.5q0 125 90 219.5t209 94.5q63 0 121 -34l10 53q3 18 3 33q0 20 -12.5 30t-43.5 10h-12l15 82q104 0 189 38h57l-95 -523
q-6 -31 -8 -60q0 -46 37 -46q25 0 51 26zM464 402q-9 9 -32 19.5t-50 10.5q-52 0 -89 -46.5t-51 -100t-14 -100.5q0 -46 18.5 -72t51.5 -26q44 0 85 52q26 34 43.5 90t37.5 173z" />
    <glyph glyph-name="e" unicode="e" horiz-adv-x="560" 
d="M570 115q-42 -47 -120.5 -85.5t-154.5 -38.5q-105 0 -170.5 59t-65.5 153q0 130 106.5 223.5t254.5 93.5q79 0 127.5 -33.5t48.5 -89.5q0 -57 -49.5 -98t-124 -59t-164.5 -18q-15 0 -26 1q-3 -25 -3 -43q0 -42 27 -67.5t72 -25.5q86 0 188 87zM448 394q0 21 -15.5 34.5
t-40.5 13.5q-51 0 -93 -48.5t-53 -101.5h12q78 0 134 30t56 72z" />
    <glyph glyph-name="f" unicode="f" horiz-adv-x="420" 
d="M641 664q0 -28 -21.5 -46t-53.5 -18q-26 0 -41.5 8.5t-31.5 30.5q-13 18 -33 18q-31 0 -48 -25t-28 -85l-7 -36h96l-17 -90h-95l-33 -179q-28 -153 -58 -225q-94 -225 -333 -225q-62 0 -95.5 20.5t-33.5 57.5q0 32 25.5 55t61.5 23q34 0 64 -31q18 -19 26.5 -24t24.5 -5
q22 0 41 9.5t32.5 30t23.5 41t19 53t13.5 55.5t11.5 59l52 285h-84l16 90h84q19 110 95.5 172t194.5 62q61 0 96.5 -21.5t35.5 -59.5z" />
    <glyph glyph-name="g" unicode="g" horiz-adv-x="620" 
d="M669 511l-75 -412q-6 -32 -12 -56t-18.5 -58t-29 -58.5t-44 -51.5t-61.5 -44t-83.5 -28t-108.5 -11q-94 0 -155 31.5t-61 79.5q0 31 25 52t62 21q47 0 68 -44q19 -48 81 -48q35 0 63.5 14t45 31.5t32 49.5t21.5 50.5t15 51.5q-25 -30 -38.5 -44.5t-46.5 -30t-73 -15.5
q-85 0 -141 60.5t-56 152.5q0 124 89.5 220t204.5 96q38 0 64.5 -9t68.5 -33l6 33h157zM492 401q-31 22 -48.5 29.5t-37.5 7.5q-38 0 -69 -26t-48.5 -66t-27 -82t-9.5 -78q0 -45 18.5 -70t52.5 -25q49 0 89.5 59t60.5 158z" />
    <glyph glyph-name="h" unicode="h" horiz-adv-x="700" 
d="M736 61q-78 -70 -169 -70q-58 0 -93 28t-35 74q0 17 9 67l28 152q2 13 4 30.5t3 21.5q0 20 -18 32t-46 12q-55 0 -99 -29l-69 -379h-158l98 539q3 18 3 32q0 21 -12 31t-43 10h-12l15 82q104 0 189 38h53l-48 -264q78 52 165 52q66 0 107 -32t41 -84q0 -10 -3 -25
l-37 -202q-8 -41 -7 -50q0 -12 9.5 -20t23.5 -8q27 0 59 19z" />
    <glyph glyph-name="i" unicode="i" horiz-adv-x="380" 
d="M420 65q-87 -74 -179 -74q-58 0 -94 27.5t-36 71.5q0 15 6 49l33 182q2 20 2 27q0 24 -13 35t-44 11h-12l15 82q98 5 192 35h52l-57 -316q-10 -60 -10 -61q0 -14 11.5 -24.5t27.5 -10.5q20 0 64 22zM374 686q0 -37 -31 -68t-68 -31q-28 0 -47 19.5t-19 48.5q0 38 30 68
t68 30q30 0 48.5 -18.5t18.5 -48.5z" />
    <glyph glyph-name="j" unicode="j" horiz-adv-x="320" 
d="M357 511l-87 -477q-4 -22 -7 -37t-12.5 -43t-21.5 -47t-33 -42.5t-47.5 -38t-66 -24.5t-87.5 -10q-67 0 -111 23.5t-44 59.5q0 28 22 49.5t50 21.5q41 0 76 -46q18 -26 38 -26q34 0 50.5 28.5t29.5 97.5l58 320q4 24 4 32q0 21 -13 31.5t-45 10.5h-12l15 82q98 5 192 35
h52zM389 686q0 -37 -31 -68t-68 -31q-28 0 -47 19.5t-19 48.5q0 38 30 68t68 30q30 0 48.5 -18.5t18.5 -48.5z" />
    <glyph glyph-name="k" unicode="k" horiz-adv-x="700" 
d="M727 73q-27 -31 -85.5 -56.5t-101.5 -25.5q-80 0 -135 74q-28 36 -38.5 73t-10.5 96v9q-49 -54 -67 -119l-34 -124h-158l98 539q3 18 3 32q0 21 -12 31t-43 10h-12l15 82q104 0 189 38h53l-85 -471q73 116 154 177q109 82 193 82q36 0 59 -18t23 -46q0 -32 -21 -52.5
t-55 -20.5q-30 0 -61 21q-11 8 -19 8q-28 0 -79 -52q11 -94 23.5 -138.5t34.5 -75.5q28 -38 65 -38q19 0 56 19l9 5z" />
    <glyph glyph-name="l" unicode="l" horiz-adv-x="380" 
d="M410 57q-84 -66 -171 -66q-59 0 -94.5 25.5t-35.5 67.5q0 14 4 33l76 422q4 16 4 31q0 42 -56 42h-11l14 82q105 0 189 38h54l-104 -572q-3 -15 -3 -26q0 -15 10.5 -25t25.5 -10q22 0 58 18z" />
    <glyph glyph-name="m" unicode="m" horiz-adv-x="960" 
d="M996 56q-71 -65 -164 -65q-59 0 -93 26.5t-34 72.5q0 16 5 46l33 181q6 42 6 48q0 18 -18 30.5t-45 12.5q-34 0 -69 -23l-70 -385h-158l56 305q0 1 0.5 6.5t1.5 14t1 16.5q0 66 -54 66q-38 0 -74 -19l-71 -389h-158l59 321q2 20 2 27q0 24 -13 35t-44 11h-12l15 82
q98 5 192 35h52l-7 -39q61 48 146 48q36 0 69.5 -13.5t52.5 -34.5q85 48 163 48q67 0 108 -30t41 -79q-1 -5 -2 -19.5t-2 -21.5l-38 -208q-3 -15 -3 -25q0 -17 10.5 -27.5t27.5 -10.5q21 0 46 14z" />
    <glyph glyph-name="n" unicode="n" 
d="M715 59q-82 -68 -158 -68q-55 0 -90 27t-35 71q0 23 5 45l39 207q1 6 1 18q0 23 -16 36t-45 13q-54 0 -99 -35l-68 -373h-158l59 321q2 20 2 27q0 24 -13 35t-44 11h-12l15 82q98 5 192 35h52l-9 -51q32 27 77.5 43.5t88.5 16.5q63 0 103.5 -30.5t40.5 -77.5
q0 -13 -7 -54l-31 -175q-8 -48 -8 -50q0 -34 37 -34q16 0 42 16z" />
    <glyph glyph-name="o" unicode="o" horiz-adv-x="600" 
d="M627 308q0 -29 -8.5 -66t-31.5 -82t-58 -82t-94.5 -62t-133.5 -25q-112 0 -177 55t-65 149q0 34 8.5 72.5t31.5 84.5t58 82.5t94 61t133 24.5q117 0 180 -55t63 -157zM459 337q0 50 -19 72.5t-60 22.5q-43 0 -75 -34.5t-46 -84.5t-20.5 -87.5t-6.5 -60.5q0 -41 20 -63.5
t57 -22.5q44 0 76.5 35t47 84t20.5 85t6 54z" />
    <glyph glyph-name="p" unicode="p" horiz-adv-x="660" 
d="M682 308q0 -126 -89 -221.5t-205 -95.5q-61 0 -126 36l-18 -96q-2 -14 -2 -19q0 -22 13 -32.5t45 -10.5h27l-15 -82h-336l15 82h17q67 0 78 62l71 390q3 17 3 28q0 24 -13 34.5t-44 10.5h-13l15 82q99 5 192 35h53l-11 -60q39 37 73.5 53t78.5 16q84 0 137.5 -59.5
t53.5 -152.5zM513 323q0 101 -66 101q-32 0 -62.5 -29.5t-52.5 -82.5q-23 -57 -54 -202q42 -31 90 -31q47 0 82 46t49 99.5t14 98.5z" />
    <glyph glyph-name="q" unicode="q" horiz-adv-x="620" 
d="M593 -213h-336l14 82h27q68 0 79 62l24 132q-31 -38 -65 -55t-81 -17q-85 0 -140 60.5t-55 154.5q0 122 91 218t208 96q86 0 136 -47l7 38h138l-105 -580q-2 -14 -2 -20q0 -42 58 -42h16zM463 405l-2 1q-10 9 -33.5 17.5t-45.5 8.5q-48 0 -84 -45t-50.5 -99.5
t-14.5 -104.5q0 -46 18 -71t50 -25q60 0 99.5 77t62.5 241z" />
    <glyph glyph-name="r" unicode="r" horiz-adv-x="500" 
d="M582 442q0 -35 -26 -59t-64 -24q-32 0 -64 24q-17 13 -29 13q-63 0 -104 -169l-45 -227h-158l59 321q2 20 2 27q0 24 -13 35t-44 11h-12l15 82q98 5 192 35h52l-14 -76q68 85 155 85q43 0 70.5 -22t27.5 -56z" />
    <glyph glyph-name="s" unicode="s" horiz-adv-x="540" 
d="M554 183q0 -81 -83.5 -136.5t-205.5 -55.5q-119 0 -194 48q-39 25 -39 64q0 26 19 43t47 17q27 0 46 -11.5t48 -43.5q29 -35 75 -35q39 0 64.5 18.5t25.5 46.5q0 19 -12.5 30t-45.5 21l-71 20q-68 20 -99.5 51t-31.5 78q0 79 73.5 130.5t186.5 51.5q91 0 153.5 -30
t62.5 -74q0 -23 -17.5 -39t-43.5 -16q-24 0 -40.5 9.5t-38.5 36.5q-26 31 -73 31q-32 0 -51 -14.5t-19 -38.5q0 -8 1.5 -14.5t6.5 -12t8.5 -9t12 -7t11.5 -5t14.5 -5t13.5 -4.5l79 -25q117 -36 117 -120z" />
    <glyph glyph-name="t" unicode="t" horiz-adv-x="440" 
d="M463 80q-43 -41 -100.5 -65t-114.5 -24q-62 0 -96 26t-34 73q0 14 8 57l49 274h-69l12 66q67 18 105 56.5t64 115.5h90l-27 -148h138l-16 -90h-139l-49 -269q-2 -16 -2 -22q0 -14 9 -22.5t24 -8.5q16 0 48.5 14.5t57.5 33.5z" />
    <glyph glyph-name="u" unicode="u" 
d="M720 64q-67 -73 -159 -73q-91 0 -118 66q-57 -37 -97.5 -51.5t-85.5 -14.5q-64 0 -105.5 29.5t-41.5 76.5q0 25 4 45l33 179q2 20 2 27q0 24 -13 35t-44 11h-12l15 82q98 5 192 35h52l-55 -306q-6 -43 -6 -54q0 -20 18 -34t44 -14q50 0 98 39l67 369h158l-57 -316
q-7 -42 -7 -52q0 -44 34 -44q16 0 45 23z" />
    <glyph glyph-name="v" unicode="v" horiz-adv-x="540" 
d="M572 394q0 -73 -24.5 -145.5t-67.5 -129.5t-106.5 -92.5t-134.5 -35.5t-112 29.5t-41 81.5q0 18 3 34l34 185q2 20 2 27q0 24 -13 35t-44 11h-12l15 82q98 5 192 35h52l-56 -308q-5 -27 -5 -45q0 -22 15 -36t38 -14q48 0 95.5 55t47.5 132q0 29 -5.5 44t-21.5 31
q-30 30 -30 61q0 38 27 63.5t67 25.5q38 0 61.5 -35t23.5 -91z" />
    <glyph glyph-name="w" unicode="w" horiz-adv-x="860" 
d="M891 377q0 -95 -41 -182.5t-120 -145.5t-178 -58q-87 0 -140 57q-89 -57 -180 -57q-63 0 -105 32.5t-42 81.5q0 6 2 18l36 198q2 20 2 27q0 24 -13 35t-44 11h-12l15 82q98 5 192 35h52l-59 -325q-5 -25 -5 -38q0 -22 18 -35.5t46 -13.5q46 0 85 24l70 388h158l-58 -321
q-3 -14 -3 -25q0 -62 67 -62q52 0 91 54.5t39 128.5q0 31 -7 46t-36 43q-25 25 -25 54q0 37 28.5 64t67.5 27q45 0 72 -39t27 -104z" />
    <glyph glyph-name="x" unicode="x" horiz-adv-x="620" 
d="M635 82q-101 -91 -180 -91q-62 0 -103.5 41t-81.5 141q-34 -63 -47.5 -83t-36.5 -43q-58 -56 -109 -56q-30 0 -48.5 18t-18.5 49q0 37 22.5 52t71.5 15l6 -1q29 1 63.5 39.5t62.5 103.5q-23 53 -31.5 72.5t-24.5 35t-28.5 17t-46.5 3.5l15 81q52 2 82 8.5t77 26.5h53
q29 -108 49 -158q52 79 105.5 123t98.5 44q30 0 49.5 -17t19.5 -43q0 -28 -23.5 -49t-55.5 -21q-8 0 -21.5 1.5t-17.5 1.5q-53 0 -129 -124q39 -96 62.5 -128.5t54.5 -32.5q26 0 67 32z" />
    <glyph glyph-name="y" unicode="y" horiz-adv-x="600" 
d="M567 97q-6 -31 -10.5 -52.5t-16.5 -56t-27 -58t-41.5 -51t-59.5 -44t-81 -28t-107 -11.5q-85 0 -142 29.5t-57 73.5q0 30 22.5 50.5t55.5 20.5q12 0 22.5 -3t17 -6.5t12.5 -10.5t8.5 -10.5t6 -11t4.5 -8.5q21 -36 74 -36q17 0 36 6t43.5 21.5t44.5 51t28 85.5
q-86 -57 -162 -57q-60 0 -100.5 31t-40.5 77q0 25 5 49l31 173q4 24 4 31q0 21 -13 31.5t-45 10.5h-12l15 82q98 5 192 35h52l-56 -309q-8 -45 -8 -47q0 -22 15 -37t38 -15q26 0 55.5 13t47.5 32l66 363h158z" />
    <glyph glyph-name="z" unicode="z" horiz-adv-x="560" 
d="M570 120q0 -52 -50.5 -90.5t-118.5 -38.5q-13 0 -101 7t-157 7q-30 0 -79 -6l-28 80l335 343q-24 10 -63 10q-35 0 -51.5 -10.5t-27.5 -38.5q-26 -64 -80 -64q-28 0 -45 19.5t-17 51.5q0 56 53 93t133 37q39 0 130.5 -9t130.5 -9h29l23 -71l-333 -340q28 -8 61 -8
q91 0 109 51q10 26 30.5 41.5t45.5 15.5q30 0 50.5 -20.5t20.5 -50.5z" />
    <glyph glyph-name="braceleft" unicode="{" horiz-adv-x="300" 
d="M256 -145q-99 1 -142.5 18t-43.5 72q0 4 5 35l30 172q3 17 3 30q0 47 -55 61l14 78q68 17 82 82l34 195q8 39 26.5 64t44 34t41.5 11.5t39 2.5h75l-13 -72q-44 -9 -63.5 -24t-26.5 -46l-32 -180q-8 -53 -30 -73.5t-82 -32.5q77 -17 77 -80q0 -16 -3 -32l-32 -186
q0 -25 15 -38t49 -19z" />
    <glyph glyph-name="bar" unicode="|" horiz-adv-x="620" 
d="M418 -145h-116v855h116v-855z" />
    <glyph glyph-name="braceright" unicode="}" horiz-adv-x="300" 
d="M338 244q-68 -17 -82 -82l-34 -195q-8 -37 -23.5 -60.5t-39 -33.5t-42 -13.5t-46.5 -3.5l-75 -1l13 72q44 9 63.5 24t26.5 46l32 180q8 53 30 73.5t82 32.5q-77 17 -77 80q0 16 3 32l32 186q0 25 -15 38t-49 19l12 72q38 0 58.5 -0.5t45.5 -3t37 -8t24 -14.5t16.5 -23.5
t4.5 -35.5q-2 -17 -5 -40l-30 -172q-3 -15 -3 -30q0 -47 55 -61z" />
    <glyph glyph-name="asciitilde" unicode="~" horiz-adv-x="620" 
d="M605 372q-25 -52 -63.5 -82t-78.5 -30q-28 0 -91 26l-55 22q-43 17 -65 16q-25 0 -43.5 -15t-45.5 -58l-62 70q36 66 69 93t77 27q30 0 74 -18l65 -28q43 -18 72 -18q40 0 83 66z" />
    <glyph glyph-name="uni00A0" unicode="&#xa0;" horiz-adv-x="333" 
 />
    <glyph glyph-name="exclamdown" unicode="&#xa1;" horiz-adv-x="320" 
d="M248 -16q-1 -79 -32 -118.5t-84 -39.5q-37 0 -60.5 23t-23.5 60q0 34 25 94l52 130q29 73 51 168h82q-15 -144 -15 -198l2 -69q3 -38 3 -50zM329 452q0 -40 -29 -69.5t-68 -29.5q-33 0 -54.5 23t-21.5 58q0 39 29 69t66 30q33 0 55.5 -23.5t22.5 -57.5z" />
    <glyph glyph-name="cent" unicode="&#xa2;" 
d="M598 286q-29 -42 -84.5 -74t-113.5 -41l-26 -146h-83l26 146q-72 16 -114 64t-42 114q0 85 67 155.5t166 90.5l23 123h83l-23 -123q65 -7 102 -34.5t37 -70.5q0 -35 -25 -61t-59 -26q-45 0 -58 33q-7 16 -7 48q0 26 -38 26q-43 0 -79 -45.5t-36 -100.5q0 -44 27.5 -71
t72.5 -27q70 0 143 60z" />
    <glyph glyph-name="sterling" unicode="&#xa3;" 
d="M787 554q0 -43 -26 -74t-61 -31q-27 0 -45.5 17t-18.5 42q0 20 9.5 39t9.5 26q0 17 -20 30t-47 13q-103 0 -148 -187h154l-31 -83h-138q-25 -133 -48 -183q6 -2 46 -17.5t78.5 -28.5t50.5 -13q15 0 26.5 9.5t11.5 22.5q0 14 -12.5 23t-31.5 9q-1 0 -29 -2l-13 53
q32 19 71 19q52 0 84.5 -29.5t32.5 -77.5q0 -57 -44 -100.5t-102 -43.5q-43 0 -80 17.5t-137 77.5q-24 -42 -77.5 -68.5t-112.5 -26.5q-64 0 -101.5 29t-37.5 78q0 50 44 83.5t110 33.5q44 0 92 -13l27 148h-109l29 83h95q19 93 60 147q41 53 112.5 85.5t147.5 32.5
q81 0 130 -38t49 -102zM213 120q-25 13 -56 13q-28 0 -46 -8.5t-18 -21.5q0 -10 11 -17t27 -7q21 0 44 11.5t38 29.5z" />
    <glyph glyph-name="currency" unicode="&#xa4;" 
d="M637 173l-63 -64l-47 46q-62 -43 -134 -43q-71 0 -134 43l-47 -46l-64 64l46 47q-40 65 -40 131q0 73 41 132l-47 46l64 66l47 -47q62 41 135 41q71 0 132 -40l47 46l63 -66l-46 -45q42 -60 42 -133t-41 -131zM530 351q0 56 -40 96.5t-95 40.5q-58 0 -98.5 -40t-40.5 -96
q0 -58 40 -98.5t97 -40.5q56 0 96.5 40.5t40.5 97.5z" />
    <glyph glyph-name="yen" unicode="&#xa5;" 
d="M782 681l-15 -80q-85 -10 -194 -159h110l-15 -83h-160l-41 -57l-3 -18h192l-16 -83h-191l-7 -37q-1 -4 -4 -35q0 -26 14.5 -38t51.5 -12h14l-14 -79h-347l14 79h11q27 0 45.5 9t28 26t12.5 26t6 24l8 37h-190l15 83h189l4 21l-22 54h-157l15 83h105l-14 34
q-24 62 -50.5 91t-61.5 34l14 80h313l-15 -80q-33 -4 -46 -9.5t-13 -17.5q0 -8 6 -22l60 -171l114 166q15 20 15 31q0 18 -41 23l14 80h246z" />
    <glyph glyph-name="brokenbar" unicode="&#xa6;" horiz-adv-x="620" 
d="M418 368h-116v342h116v-342zM418 -145h-116v342h116v-342z" />
    <glyph glyph-name="section" unicode="&#xa7;" horiz-adv-x="620" 
d="M578 61q0 -21 -8 -46t-29 -54.5t-53 -52.5t-86.5 -39t-121.5 -16q-102 0 -168 40.5t-66 104.5q0 36 24.5 63.5t57.5 27.5q25 0 43.5 -17t18.5 -40q0 -15 -9 -42q-3 -9 -3 -15q0 -20 36 -34t88 -14q64 0 106 25.5t42 63.5q0 28 -18.5 37t-160.5 55q-32 11 -48.5 17t-43 19
t-40 26t-24.5 34t-11 46q0 34 26 74t67 69q-23 25 -32 44t-9 45q0 89 76.5 150.5t188.5 61.5q92 0 154.5 -41t62.5 -102q0 -35 -24 -59t-59 -24q-25 0 -44 16.5t-19 38.5q0 1 2 15t2 37q0 16 -23.5 26.5t-58.5 10.5q-51 0 -86 -23t-35 -56q0 -22 20.5 -35t84.5 -30
q43 -11 71 -20.5t58.5 -23.5t48.5 -30t29.5 -39.5t11.5 -52.5q0 -79 -73 -149q34 -42 34 -92zM485 245q0 22 -18.5 36.5t-65.5 29.5l-124 39q-31 -23 -31 -54q0 -21 32 -34l193 -66q14 21 14 49z" />
    <glyph glyph-name="dieresis" unicode="&#xa8;" horiz-adv-x="520" 
d="M337 685q0 -35 -30.5 -65t-65.5 -30q-28 0 -46 18.5t-18 46.5q0 37 29 66t66 29q29 0 47 -18t18 -47zM586 685q0 -35 -30.5 -65t-65.5 -30q-28 0 -46 18.5t-18 46.5q0 37 29 66t66 29q29 0 47 -18t18 -47z" />
    <glyph glyph-name="copyright" unicode="&#xa9;" horiz-adv-x="780" 
d="M810 357q0 -153 -108.5 -261.5t-261.5 -108.5t-261.5 108.5t-108.5 261.5t108.5 261.5t261.5 108.5t261.5 -108.5t108.5 -261.5zM742 357q0 125 -88.5 213.5t-213.5 88.5t-213.5 -88.5t-88.5 -213.5t88.5 -213.5t213.5 -88.5t213.5 88.5t88.5 213.5zM634 392l-55 -11
q-4 32 -35.5 66.5t-70.5 34.5q-49 0 -78.5 -49.5t-28.5 -109.5q1 -43 24 -67t64 -24q35 0 69 21t56 55l50 -29q-70 -107 -198 -107q-82 0 -133 45.5t-52 108.5q-1 31 11.5 66.5t37 70t69.5 57t102 22.5q42 0 89 -19l5 13h41z" />
    <glyph glyph-name="ordfeminine" unicode="&#xaa;" horiz-adv-x="440" 
d="M483 439q-48 -46 -97 -46q-56 0 -70 46q-43 -46 -96 -46q-49 0 -81 35t-32 88q0 73 51.5 127.5t121.5 54.5q49 0 78 -27l4 22h82l-34 -186q-4 -20 -4 -26q0 -10 6.5 -16.5t16.5 -6.5q11 0 29 11zM350 629q-29 22 -50 22q-36 0 -63.5 -44.5t-27.5 -102.5q0 -25 10.5 -39.5
t28.5 -14.5q33 0 57 46q12 22 45 133zM484 300h-429l11 62h429z" />
    <glyph glyph-name="guillemotleft" unicode="&#xab;" horiz-adv-x="380" 
d="M206 93l-56 -36l-88 201l144 219l43 -35l-84 -190zM363 93l-56 -36l-88 201l144 219l43 -35l-84 -190z" />
    <glyph glyph-name="logicalnot" unicode="&#xac;" horiz-adv-x="620" 
d="M610 393v-228h-116v112h-404v116h520z" />
    <glyph glyph-name="uni00AD" unicode="&#xad;" horiz-adv-x="280" 
d="M319 314l-33 -90h-227l34 90h226z" />
    <glyph glyph-name="registered" unicode="&#xae;" horiz-adv-x="780" 
d="M810 357q0 -153 -108.5 -261.5t-261.5 -108.5t-261.5 108.5t-108.5 261.5t108.5 261.5t261.5 108.5t261.5 -108.5t108.5 -261.5zM742 357q0 125 -88.5 213.5t-213.5 88.5t-213.5 -88.5t-88.5 -213.5t88.5 -213.5t213.5 -88.5t213.5 88.5t88.5 213.5zM652 233l-9 -54h-120
l-82 151h-31l-11 -59q-1 -7 -1 -16q0 -18 25 -21l15 -1l-10 -54h-200l10 54l15 1q18 2 25 9.5t11 27.5l32 173q2 14 2 17q-2 18 -25 19l-15 1l9 55h212q71 0 107.5 -18.5t37.5 -65.5q1 -34 -22.5 -64t-71.5 -43l37 -68q16 -26 25 -32.5t35 -11.5zM532 445q0 36 -61 36
q-22 0 -28.5 -6t-9.5 -19l-12 -66q58 0 85 11t26 44z" />
    <glyph glyph-name="macron" unicode="&#xaf;" horiz-adv-x="480" 
d="M539 714l-26 -88h-328l26 88h328z" />
    <glyph glyph-name="degree" unicode="&#xb0;" horiz-adv-x="400" 
d="M430 533q0 -64 -43.5 -108.5t-106.5 -44.5t-106.5 44.5t-43.5 109.5q0 64 44.5 108t108.5 44q62 0 104.5 -44t42.5 -109zM373 533q0 40 -26.5 68t-64.5 28q-40 0 -68 -28t-28 -68t28 -68t66 -28q39 0 66 28t27 68z" />
    <glyph glyph-name="plusminus" unicode="&#xb1;" horiz-adv-x="600" 
d="M610 308h-202v-88h-116v88h-202v116h202v202h116v-202h202v-116zM610 0h-520v116h520v-116z" />
    <glyph glyph-name="two.superior" unicode="&#xb2;" horiz-adv-x="408" 
d="M482 404l-61 -131h-323l-7 69q77 32 157 91q105 80 105 149q0 21 -15 34.5t-38 13.5q-24 0 -43.5 -9.5t-19.5 -21.5q2 -6 7.5 -16t5.5 -18q0 -22 -19 -39t-43 -17q-23 0 -38 14.5t-15 38.5q0 41 39 77q56 50 147 50q75 0 119.5 -30.5t44.5 -80.5t-40.5 -91t-146.5 -100
l-42 -24h59q53 0 71 8.5t41 45.5l3 4z" />
    <glyph glyph-name="three.superior" unicode="&#xb3;" horiz-adv-x="408" 
d="M470 409q0 -62 -63.5 -103t-157.5 -41q-71 0 -117 27t-46 69q0 28 19.5 47.5t45.5 19.5q22 0 36.5 -12t14.5 -30l-9 -31q0 -9 19.5 -17t41.5 -8q38 0 61 21t23 56q0 30 -20.5 43t-69.5 13h-21l11 60h27q91 0 91 59q0 42 -56 42q-18 0 -35 -7t-17 -14q0 -3 1.5 -9.5
t1.5 -14.5q0 -20 -18.5 -35t-44.5 -15q-23 0 -37.5 12.5t-14.5 33.5q0 47 52 80.5t126 33.5t121.5 -29t47.5 -75q0 -14 -4.5 -27t-10 -21.5t-15.5 -17t-15.5 -12t-16 -10t-11.5 -6.5q60 -27 60 -82z" />
    <glyph glyph-name="acute" unicode="&#xb4;" horiz-adv-x="340" 
d="M420 703q0 -38 -38.5 -63.5t-151.5 -63.5l-41 44q53 70 92 106.5t70 36.5q29 0 49 -17.5t20 -42.5z" />
    <glyph glyph-name="mu" unicode="&#xb5;" 
d="M720 64q-67 -73 -159 -73q-91 0 -118 66q-103 -66 -180 -66q-68 0 -107 45q-2 -12 -2 -22q0 -18 10 -66t10 -52q0 -38 -19.5 -64.5t-48.5 -26.5q-23 0 -37.5 15.5t-14.5 40.5q0 32 27 108q10 28 19 76l50 276q2 20 2 27q0 24 -13 35t-44 11h-12l15 82q98 5 192 35h52
l-55 -306q-5 -30 -5 -50q0 -26 13 -39t48 -13q50 0 98 39l67 369h158l-57 -316q-7 -42 -7 -52q0 -44 34 -44q16 0 45 23z" />
    <glyph glyph-name="paragraph" unicode="&#xb6;" 
d="M652 -201h-468l15 86l15 1q45 2 60 17t24 64l36 196q-62 0 -106 8.5t-82 31.5t-57 68t-19 113q0 41 8 79.5t31 79t58 70.5t94.5 49t135.5 19h329l-133 -727q-4 -32 -4 -37q0 -16 12 -22t49 -9l17 -1zM353 264l59 327q-10 1 -27 1q-42 0 -72 -24.5t-44 -63t-20 -74
t-6 -69.5t8 -55t26.5 -29.5t33 -10.5t42.5 -2zM594 591h-65l-128 -702h65z" />
    <glyph glyph-name="periodcentered" unicode="&#xb7;" horiz-adv-x="340" 
d="M310 250q0 -38 -26 -64t-64 -26t-64 26t-26 64t26 64t64 26t64 -26t26 -64z" />
    <glyph glyph-name="cedilla" unicode="&#xb8;" horiz-adv-x="360" 
d="M299 -119q0 -47 -38 -71.5t-96 -24.5q-44 0 -70.5 14.5t-26.5 38.5q0 16 11 27.5t26 11.5q12 0 27 -20t34 -20q45 0 45 39q0 15 -8 25.5t-21 10.5t-24 -5l-24 24l31 71h48l-21 -50h34q29 0 51 -21.5t22 -49.5z" />
    <glyph glyph-name="one.superior" unicode="&#xb9;" horiz-adv-x="408" 
d="M406 331l-11 -58h-277l11 59h38q24 1 33.5 7t12.5 23l37 203q2 14 2 18q0 20 -37 20h-36l10 58q52 0 92.5 5t54.5 10l14 5h40l-56 -312q-3 -12 -3 -19q0 -9 8 -13.5t30 -5.5h37z" />
    <glyph glyph-name="ordmasculine" unicode="&#xba;" horiz-adv-x="440" 
d="M460 576q0 -70 -51.5 -126.5t-136.5 -56.5q-64 0 -102 32t-38 86q0 74 50 130.5t137 56.5q68 0 104.5 -31.5t36.5 -90.5zM358 594q0 57 -43 57q-30 0 -49.5 -34t-25.5 -67.5t-6 -58.5q0 -24 11 -37.5t31 -13.5q24 0 41.5 20.5t25.5 49.5t11.5 50.5t3.5 33.5zM456 300
h-409l11 62h409z" />
    <glyph glyph-name="guillemotright" unicode="&#xbb;" horiz-adv-x="380" 
d="M249 275l-144 -218l-43 34l84 191l-41 158l56 37zM406 275l-144 -218l-43 34l84 191l-41 158l56 37z" />
    <glyph glyph-name="onequarter" unicode="&#xbc;" horiz-adv-x="1020" 
d="M406 331l-11 -58h-277l11 59h38q24 1 33.5 7t12.5 23l37 203q2 14 2 18q0 20 -37 20h-36l10 58q52 0 92.5 5t54.5 10l14 5h40l-56 -312q-3 -12 -3 -19q0 -9 8 -13.5t30 -5.5h37zM840 681l-442 -681h-84l443 681h83zM1054 177l-36 -70h-69l-3 -16l-2 -7q0 -9 9 -16.5
t24 -8.5l21 -1l-11 -58h-227l10 58l23 1q22 2 30.5 11t13.5 37h-184l-16 54l257 247h110l-42 -231h92zM874 310q-48 -51 -131 -133h106z" />
    <glyph glyph-name="onehalf" unicode="&#xbd;" horiz-adv-x="1020" 
d="M406 331l-11 -58h-277l11 59h38q24 1 33.5 7t12.5 23l37 203q2 14 2 18q0 20 -37 20h-36l10 58q52 0 92.5 5t54.5 10l14 5h40l-56 -312q-3 -12 -3 -19q0 -9 8 -13.5t30 -5.5h37zM828 681l-442 -681h-84l443 681h83zM1033 131l-61 -131h-323l-7 69q77 32 157 91
q105 80 105 149q0 21 -15 34.5t-38 13.5q-24 0 -43.5 -9.5t-19.5 -21.5q2 -6 7.5 -16t5.5 -18q0 -22 -19 -39t-43 -17q-23 0 -38 14.5t-15 38.5q0 41 39 77q56 50 147 50q75 0 119.5 -30.5t44.5 -80.5t-40.5 -91t-146.5 -100l-42 -24h59q53 0 71 8.5t41 45.5l3 4z" />
    <glyph glyph-name="threequarters" unicode="&#xbe;" horiz-adv-x="1020" 
d="M470 409q0 -62 -63.5 -103t-157.5 -41q-71 0 -117 27t-46 69q0 28 19.5 47.5t45.5 19.5q22 0 36.5 -12t14.5 -30l-9 -31q0 -9 19.5 -17t41.5 -8q38 0 61 21t23 56q0 30 -20.5 43t-69.5 13h-21l11 60h27q91 0 91 59q0 42 -56 42q-18 0 -35 -7t-17 -14q0 -3 1.5 -9.5
t1.5 -14.5q0 -20 -18.5 -35t-44.5 -15q-23 0 -37.5 12.5t-14.5 33.5q0 47 52 80.5t126 33.5t121.5 -29t47.5 -75q0 -14 -4.5 -27t-10 -21.5t-15.5 -17t-15.5 -12t-16 -10t-11.5 -6.5q60 -27 60 -82zM850 681l-442 -681h-84l443 681h83zM1054 177l-36 -70h-69l-3 -16
q-2 -4 -2 -7q0 -8 9 -16t24 -9l21 -1l-11 -58h-227l10 58l23 1q22 2 30.5 11t13.5 37h-184l-16 54l257 247h110l-42 -231h92zM874 310q-48 -51 -131 -133h106z" />
    <glyph glyph-name="questiondown" unicode="&#xbf;" horiz-adv-x="620" 
d="M570 16q-1 -77 -85 -133.5t-199 -56.5q-107 0 -173.5 47.5t-65.5 123.5q0 68 42 124t116 85q51 20 69 39.5t24 59.5h91q-3 -71 -21.5 -106t-76.5 -74q-73 -49 -73 -119q-1 -44 25.5 -71t70.5 -27q40 0 72 16.5t32 37.5q0 6 -4 24t-4 24q0 31 26 56t58 25q35 0 55.5 -20
t20.5 -55zM442 455q0 -38 -29 -67t-67 -29q-35 0 -56.5 21t-21.5 55q0 40 28.5 69t68.5 29q33 0 55 -22t22 -56z" />
    <glyph glyph-name="Agrave" unicode="&#xc0;" horiz-adv-x="720" 
d="M769 81l-15 -81h-352l15 81l33 4q33 5 45 12.5t12 23.5q0 11 -7 44l-16 77h-222l-46 -87q-16 -30 -16 -43q0 -22 58 -29l19 -2l-15 -81h-289l15 81q53 12 83 41.5t64 87.5l278 471h151l116 -503q17 -58 28 -71t49 -23q7 -2 12 -3zM469 320l-41 218l-123 -218h164z
M629 764l-59 -39q-95 29 -120 42q-62 32 -48 72q9 23 36.5 38.5t59.5 15.5q34 0 63 -29q37 -42 68 -100z" />
    <glyph glyph-name="Aacute" unicode="&#xc1;" horiz-adv-x="720" 
d="M769 81l-15 -81h-352l15 81l33 4q33 5 45 12.5t12 23.5q0 11 -7 44l-16 77h-222l-46 -87q-16 -30 -16 -43q0 -22 58 -29l19 -2l-15 -81h-289l15 81q53 12 83 41.5t64 87.5l278 471h151l116 -503q17 -58 28 -71t49 -23q7 -2 12 -3zM469 320l-41 218l-123 -218h164z
M652 839q0 -40 -74 -72q-32 -13 -135 -42l-45 39q52 58 105 100q39 29 73 29q32 0 54 -15.5t22 -38.5z" />
    <glyph glyph-name="Acircumflex" unicode="&#xc2;" horiz-adv-x="720" 
d="M769 81l-15 -81h-352l15 81l33 4q33 5 45 12.5t12 23.5q0 11 -7 44l-16 77h-222l-46 -87q-16 -30 -16 -43q0 -22 58 -29l19 -2l-15 -81h-289l15 81q53 12 83 41.5t64 87.5l278 471h151l116 -503q17 -58 28 -71t49 -23q7 -2 12 -3zM469 320l-41 218l-123 -218h164z
M696 788l-46 -55l-143 50l-151 -50l-34 60l202 93z" />
    <glyph glyph-name="Atilde" unicode="&#xc3;" horiz-adv-x="720" 
d="M769 81l-15 -81h-352l15 81l33 4q33 5 45 12.5t12 23.5q0 11 -7 44l-16 77h-222l-46 -87q-16 -30 -16 -43q0 -22 58 -29l19 -2l-15 -81h-289l15 81q53 12 83 41.5t64 87.5l278 471h151l116 -503q17 -58 28 -71t49 -23q7 -2 12 -3zM469 320l-41 218l-123 -218h164z
M689 830q-31 -50 -53.5 -66t-62.5 -16q-27 0 -73 16t-65 16q-34 0 -55 -29l-46 36q23 45 50.5 64.5t67.5 19.5q34 0 77.5 -15.5t60.5 -15.5q19 0 28 4.5t25 22.5z" />
    <glyph glyph-name="Adieresis" unicode="&#xc4;" horiz-adv-x="720" 
d="M769 81l-15 -81h-352l15 81l33 4q33 5 45 12.5t12 23.5q0 11 -7 44l-16 77h-222l-46 -87q-16 -30 -16 -43q0 -22 58 -29l19 -2l-15 -81h-289l15 81q53 12 83 41.5t64 87.5l278 471h151l116 -503q17 -58 28 -71t49 -23q7 -2 12 -3zM469 320l-41 218l-123 -218h164z
M467 824q0 -35 -30.5 -65t-65.5 -30q-28 0 -46 18.5t-18 46.5q0 37 29 66t66 29q29 0 47 -18t18 -47zM716 824q0 -35 -30.5 -65t-65.5 -30q-28 0 -46 18.5t-18 46.5q0 37 29 66t66 29q29 0 47 -18t18 -47z" />
    <glyph glyph-name="Aring" unicode="&#xc5;" horiz-adv-x="720" 
d="M769 81l-15 -81h-352l15 81l33 4q33 5 45 12.5t12 23.5q0 11 -7 44l-16 77h-222l-46 -87q-16 -30 -16 -43q0 -22 58 -29l19 -2l-15 -81h-289l15 81q53 12 83 41.5t64 87.5l278 471h151l116 -503q17 -58 28 -71t49 -23q7 -2 12 -3zM469 320l-41 218l-123 -218h164z
M624 821q0 -44 -32.5 -75.5t-78.5 -31.5q-45 0 -77.5 31.5t-32.5 75.5q0 45 32.5 77t78.5 32t78 -31.5t32 -77.5zM561 822q0 21 -14 35.5t-34 14.5t-34 -14.5t-14 -34.5q0 -21 14 -36t34 -15q19 0 33.5 15t14.5 35z" />
    <glyph glyph-name="AE" unicode="&#xc6;" horiz-adv-x="1140" 
d="M1189 226l-113 -226h-619l15 81l16 2q37 4 53 22t24 63l15 85h-227l-79 -86q-38 -38 -38 -57q0 -8 5.5 -13.5t20.5 -8.5t22 -3.5t29 -2.5l9 -1l-15 -81h-334l15 81q65 8 97 28t109 99l464 473h494l55 -221l-70 -22q-26 73 -88 117.5t-137 44.5q-64 0 -87 -13.5t-31 -54.5
l-23 -126h45q50 0 71 19.5t40 85.5h69l-55 -303h-69q2 32 1.5 59t-21 45.5t-62.5 18.5h-33l-30 -164l-5 -43q0 -22 16 -31t63 -9q58 0 118 21t107 57q40 31 96 91zM633 545l-208 -214h169z" />
    <glyph glyph-name="Ccedilla" unicode="&#xc7;" horiz-adv-x="700" 
d="M738 179q-114 -177 -311 -191l-15 -36h34q29 0 51 -21.5t22 -49.5q0 -47 -38 -71.5t-96 -24.5q-44 0 -70.5 14.5t-26.5 38.5q0 16 11 27.5t26 11.5q12 0 27 -20t34 -20q45 0 45 39q0 15 -8 25.5t-21 10.5t-24 -5l-24 24l25 56q-137 6 -219 91.5t-82 203.5q0 47 13 99.5
t44 109t74.5 101t111 73.5t147.5 29q75 0 168 -43l12 30h56l50 -262l-74 -16q-12 67 -69 133t-128 66q-64 0 -114 -52t-74.5 -126.5t-24.5 -153.5q0 -90 44 -140.5t122 -50.5q62 0 126 39.5t107 105.5z" />
    <glyph glyph-name="Egrave" unicode="&#xc8;" horiz-adv-x="720" 
d="M761 225l-113 -225h-634l15 81l22 2q39 4 55.5 21.5t24.5 63.5l63 345l4 36q0 23 -12 34.5t-41 14.5l-22 2l15 81h584l55 -221l-70 -22q-74 162 -227 162q-45 0 -69.5 -13t-29.5 -25t-11 -43q-1 -5 -2 -8l-19 -101q16 -2 40 -2q55 0 75 18.5t37 84.5h71l-55 -302h-71
q2 24 2 32q0 22 -6 37t-14 23.5t-25 13t-30.5 5.5t-39.5 1l-30 -165q-4 -26 -4 -32q0 -23 16 -31.5t61 -8.5q89 0 157.5 37.5t161.5 138.5zM595 764l-59 -39q-95 29 -120 42q-62 32 -48 72q9 23 36.5 38.5t59.5 15.5q34 0 63 -29q37 -42 68 -100z" />
    <glyph glyph-name="Eacute" unicode="&#xc9;" horiz-adv-x="720" 
d="M761 225l-113 -225h-634l15 81l22 2q39 4 55.5 21.5t24.5 63.5l63 345l4 36q0 23 -12 34.5t-41 14.5l-22 2l15 81h584l55 -221l-70 -22q-74 162 -227 162q-45 0 -69.5 -13t-29.5 -25t-11 -43q-1 -5 -2 -8l-19 -101q16 -2 40 -2q55 0 75 18.5t37 84.5h71l-55 -302h-71
q2 24 2 32q0 22 -6 37t-14 23.5t-25 13t-30.5 5.5t-39.5 1l-30 -165q-4 -26 -4 -32q0 -23 16 -31.5t61 -8.5q89 0 157.5 37.5t161.5 138.5zM618 839q0 -40 -74 -72q-32 -13 -135 -42l-45 39q52 58 105 100q39 29 73 29q32 0 54 -15.5t22 -38.5z" />
    <glyph glyph-name="Ecircumflex" unicode="&#xca;" horiz-adv-x="720" 
d="M761 225l-113 -225h-634l15 81l22 2q39 4 55.5 21.5t24.5 63.5l63 345l4 36q0 23 -12 34.5t-41 14.5l-22 2l15 81h584l55 -221l-70 -22q-74 162 -227 162q-45 0 -69.5 -13t-29.5 -25t-11 -43q-1 -5 -2 -8l-19 -101q16 -2 40 -2q55 0 75 18.5t37 84.5h71l-55 -302h-71
q2 24 2 32q0 22 -6 37t-14 23.5t-25 13t-30.5 5.5t-39.5 1l-30 -165q-4 -26 -4 -32q0 -23 16 -31.5t61 -8.5q89 0 157.5 37.5t161.5 138.5zM662 788l-46 -55l-143 50l-151 -50l-34 60l202 93z" />
    <glyph glyph-name="Edieresis" unicode="&#xcb;" horiz-adv-x="720" 
d="M761 225l-113 -225h-634l15 81l22 2q39 4 55.5 21.5t24.5 63.5l63 345l4 36q0 23 -12 34.5t-41 14.5l-22 2l15 81h584l55 -221l-70 -22q-74 162 -227 162q-45 0 -69.5 -13t-29.5 -25t-11 -43q-1 -5 -2 -8l-19 -101q16 -2 40 -2q55 0 75 18.5t37 84.5h71l-55 -302h-71
q2 24 2 32q0 22 -6 37t-14 23.5t-25 13t-30.5 5.5t-39.5 1l-30 -165q-4 -26 -4 -32q0 -23 16 -31.5t61 -8.5q89 0 157.5 37.5t161.5 138.5zM433 824q0 -35 -30.5 -65t-65.5 -30q-28 0 -46 18.5t-18 46.5q0 37 29 66t66 29q29 0 47 -18t18 -47zM682 824q0 -35 -30.5 -65
t-65.5 -30q-28 0 -46 18.5t-18 46.5q0 37 29 66t66 29q29 0 47 -18t18 -47z" />
    <glyph glyph-name="Igrave" unicode="&#xcc;" horiz-adv-x="380" 
d="M376 81l-15 -81h-347l15 81l22 2q40 6 56 22.5t24 62.5l63 345q3 19 3 34q0 24 -11.5 36t-41.5 15l-21 2l14 81h348l-15 -81l-22 -2q-40 -4 -56 -21t-24 -64l-63 -345q-3 -19 -3 -34q0 -25 11.5 -37t41.5 -14zM452 764l-59 -39q-95 29 -120 42q-62 32 -48 72
q9 23 36.5 38.5t59.5 15.5q34 0 63 -29q37 -42 68 -100z" />
    <glyph glyph-name="Iacute" unicode="&#xcd;" horiz-adv-x="380" 
d="M376 81l-15 -81h-347l15 81l22 2q40 6 56 22.5t24 62.5l63 345q3 19 3 34q0 24 -11.5 36t-41.5 15l-21 2l14 81h348l-15 -81l-22 -2q-40 -4 -56 -21t-24 -64l-63 -345q-3 -19 -3 -34q0 -25 11.5 -37t41.5 -14zM475 839q0 -40 -74 -72q-32 -13 -135 -42l-45 39
q52 58 105 100q39 29 73 29q32 0 54 -15.5t22 -38.5z" />
    <glyph glyph-name="Icircumflex" unicode="&#xce;" horiz-adv-x="380" 
d="M376 81l-15 -81h-347l15 81l22 2q40 6 56 22.5t24 62.5l63 345q3 19 3 34q0 24 -11.5 36t-41.5 15l-21 2l14 81h348l-15 -81l-22 -2q-40 -4 -56 -21t-24 -64l-63 -345q-3 -19 -3 -34q0 -25 11.5 -37t41.5 -14zM519 788l-46 -55l-143 50l-151 -50l-34 60l202 93z" />
    <glyph glyph-name="Idieresis" unicode="&#xcf;" horiz-adv-x="380" 
d="M376 81l-15 -81h-347l15 81l22 2q40 6 56 22.5t24 62.5l63 345q3 19 3 34q0 24 -11.5 36t-41.5 15l-21 2l14 81h348l-15 -81l-22 -2q-40 -4 -56 -21t-24 -64l-63 -345q-3 -19 -3 -34q0 -25 11.5 -37t41.5 -14zM290 824q0 -35 -30.5 -65t-65.5 -30q-28 0 -46 18.5
t-18 46.5q0 37 29 66t66 29q29 0 47 -18t18 -47zM539 824q0 -35 -30.5 -65t-65.5 -30q-28 0 -46 18.5t-18 46.5q0 37 29 66t66 29q29 0 47 -18t18 -47z" />
    <glyph glyph-name="Eth" unicode="&#xd0;" horiz-adv-x="760" 
d="M805 407q0 -72 -15 -131t-40.5 -101t-63 -73.5t-79 -50.5t-93.5 -30.5t-100 -16t-104 -4.5h-296l15 81l22 2q40 6 55.5 22.5t24.5 62.5l29 155h-88l15 80h87l20 109q2 10 4 38q0 21 -11.5 32.5t-41.5 15.5l-22 2l14 81h320q176 0 262 -59t86 -215zM632 419
q0 87 -42 133.5t-121 46.5q-18 0 -32 -2t-23.5 -4.5t-17 -9t-11.5 -10t-7 -14t-4 -14.5t-3.5 -18t-3.5 -19l-19 -105h156l-14 -80h-156l-30 -166q-4 -19 -4 -34q0 -20 15.5 -28t60.5 -8q105 0 180.5 98t75.5 234z" />
    <glyph glyph-name="Ntilde" unicode="&#xd1;" horiz-adv-x="740" 
d="M845 681l-15 -81l-22 -2q-40 -5 -56.5 -21.5t-24.5 -63.5l-93 -513h-124l-214 549l-69 -381q-4 -17 -4 -33q0 -47 53 -52l22 -2l-15 -81h-269l15 81l22 2q40 5 56.5 21.5t24.5 63.5l62 345q4 28 4 36q0 23 -12 35t-41 14l-22 2l15 81h289l159 -425l46 257q4 28 4 35
q0 25 -13 36.5t-40 13.5l-22 2l15 81h269zM692 830q-31 -50 -53.5 -66t-62.5 -16q-28 0 -74 16t-64 16q-34 0 -55 -29l-46 36q23 45 50.5 64.5t67.5 19.5q34 0 77.5 -15.5t60.5 -15.5q19 0 28 4.5t25 22.5z" />
    <glyph glyph-name="Ograve" unicode="&#xd2;" horiz-adv-x="760" 
d="M806 386q0 -67 -27.5 -136t-77 -128.5t-130.5 -97t-177 -37.5q-141 0 -228.5 84t-87.5 220q0 167 118 285t289 118q145 0 233 -84.5t88 -223.5zM613 412q0 91 -36.5 140.5t-103.5 49.5q-85 0 -146 -99.5t-61 -237.5q0 -85 36 -133.5t98 -48.5q48 0 87 26t61.5 64.5
t38 85.5t21 85t5.5 68zM642 764l-59 -39q-95 29 -120 42q-62 32 -48 72q9 23 36.5 38.5t59.5 15.5q34 0 63 -29q37 -42 68 -100z" />
    <glyph glyph-name="Oacute" unicode="&#xd3;" horiz-adv-x="760" 
d="M806 386q0 -67 -27.5 -136t-77 -128.5t-130.5 -97t-177 -37.5q-141 0 -228.5 84t-87.5 220q0 167 118 285t289 118q145 0 233 -84.5t88 -223.5zM613 412q0 91 -36.5 140.5t-103.5 49.5q-85 0 -146 -99.5t-61 -237.5q0 -85 36 -133.5t98 -48.5q48 0 87 26t61.5 64.5
t38 85.5t21 85t5.5 68zM665 839q0 -40 -74 -72q-32 -13 -135 -42l-45 39q52 58 105 100q39 29 73 29q32 0 54 -15.5t22 -38.5z" />
    <glyph glyph-name="Ocircumflex" unicode="&#xd4;" horiz-adv-x="760" 
d="M806 386q0 -67 -27.5 -136t-77 -128.5t-130.5 -97t-177 -37.5q-141 0 -228.5 84t-87.5 220q0 167 118 285t289 118q145 0 233 -84.5t88 -223.5zM613 412q0 91 -36.5 140.5t-103.5 49.5q-85 0 -146 -99.5t-61 -237.5q0 -85 36 -133.5t98 -48.5q48 0 87 26t61.5 64.5
t38 85.5t21 85t5.5 68zM709 788l-46 -55l-143 50l-151 -50l-34 60l202 93z" />
    <glyph glyph-name="Otilde" unicode="&#xd5;" horiz-adv-x="760" 
d="M806 386q0 -67 -27.5 -136t-77 -128.5t-130.5 -97t-177 -37.5q-141 0 -228.5 84t-87.5 220q0 167 118 285t289 118q145 0 233 -84.5t88 -223.5zM613 412q0 91 -36.5 140.5t-103.5 49.5q-85 0 -146 -99.5t-61 -237.5q0 -85 36 -133.5t98 -48.5q48 0 87 26t61.5 64.5
t38 85.5t21 85t5.5 68zM702 830q-31 -50 -53.5 -66t-62.5 -16q-28 0 -74 16t-64 16q-34 0 -55 -29l-46 36q23 45 50.5 64.5t67.5 19.5q34 0 77.5 -15.5t60.5 -15.5q19 0 28 4.5t25 22.5z" />
    <glyph glyph-name="Odieresis" unicode="&#xd6;" horiz-adv-x="760" 
d="M806 386q0 -67 -27.5 -136t-77 -128.5t-130.5 -97t-177 -37.5q-141 0 -228.5 84t-87.5 220q0 167 118 285t289 118q145 0 233 -84.5t88 -223.5zM613 412q0 91 -36.5 140.5t-103.5 49.5q-85 0 -146 -99.5t-61 -237.5q0 -85 36 -133.5t98 -48.5q48 0 87 26t61.5 64.5
t38 85.5t21 85t5.5 68zM480 824q0 -35 -30.5 -65t-65.5 -30q-28 0 -46 18.5t-18 46.5q0 37 29 66t66 29q29 0 47 -18t18 -47zM729 824q0 -35 -30.5 -65t-65.5 -30q-28 0 -46 18.5t-18 46.5q0 37 29 66t66 29q29 0 47 -18t18 -47z" />
    <glyph glyph-name="multiply" unicode="&#xd7;" horiz-adv-x="600" 
d="M575 107l-82 -82l-143 143l-143 -143l-82 82l143 143l-143 143l82 82l143 -143l143 143l82 -82l-143 -143z" />
    <glyph glyph-name="Oslash" unicode="&#xd8;" horiz-adv-x="760" 
d="M808 391q0 -74 -29 -146t-81 -129.5t-130.5 -93t-170.5 -35.5q-119 0 -206 63l-77 -79h-93l122 126q-63 82 -63 194q0 105 50.5 197t145 149t212.5 57q106 0 188 -50l78 81h93l-119 -123q80 -85 80 -211zM615 416q0 26 -6 64l-318 -328q36 -69 111 -69q68 0 118.5 55.5
t72.5 129t22 148.5zM583 548q-39 54 -107 54q-85 0 -146.5 -100t-61.5 -238q0 -22 2 -37z" />
    <glyph glyph-name="Ugrave" unicode="&#xd9;" horiz-adv-x="740" 
d="M855 681l-15 -81l-22 -2q-40 -5 -55.5 -21.5t-24.5 -63.5l-51 -281q-46 -245 -325 -245q-108 0 -174 44t-66 116q0 23 8 73l53 293q4 28 4 36q0 23 -12 35t-41 14l-22 2l15 81h348l-15 -81l-22 -2q-40 -5 -56.5 -21.5t-24.5 -63.5l-42 -235q-8 -36 -8 -90q0 -48 31 -74.5
t88 -26.5q29 0 53.5 7t40.5 16.5t29.5 28t20.5 31t13.5 35.5t8.5 33t6 32l44 243q4 17 4 33q0 47 -53 52l-22 2l15 81h269zM651 764l-59 -39q-95 29 -120 42q-62 32 -48 72q9 23 36.5 38.5t59.5 15.5q34 0 63 -29q37 -42 68 -100z" />
    <glyph glyph-name="Uacute" unicode="&#xda;" horiz-adv-x="740" 
d="M855 681l-15 -81l-22 -2q-40 -5 -55.5 -21.5t-24.5 -63.5l-51 -281q-46 -245 -325 -245q-108 0 -174 44t-66 116q0 23 8 73l53 293q4 28 4 36q0 23 -12 35t-41 14l-22 2l15 81h348l-15 -81l-22 -2q-40 -5 -56.5 -21.5t-24.5 -63.5l-42 -235q-8 -36 -8 -90q0 -48 31 -74.5
t88 -26.5q29 0 53.5 7t40.5 16.5t29.5 28t20.5 31t13.5 35.5t8.5 33t6 32l44 243q4 17 4 33q0 47 -53 52l-22 2l15 81h269zM674 839q0 -40 -74 -72q-32 -13 -135 -42l-45 39q52 58 105 100q39 29 73 29q32 0 54 -15.5t22 -38.5z" />
    <glyph glyph-name="Ucircumflex" unicode="&#xdb;" horiz-adv-x="740" 
d="M855 681l-15 -81l-22 -2q-40 -5 -55.5 -21.5t-24.5 -63.5l-51 -281q-46 -245 -325 -245q-108 0 -174 44t-66 116q0 23 8 73l53 293q4 28 4 36q0 23 -12 35t-41 14l-22 2l15 81h348l-15 -81l-22 -2q-40 -5 -56.5 -21.5t-24.5 -63.5l-42 -235q-8 -36 -8 -90q0 -48 31 -74.5
t88 -26.5q29 0 53.5 7t40.5 16.5t29.5 28t20.5 31t13.5 35.5t8.5 33t6 32l44 243q4 17 4 33q0 47 -53 52l-22 2l15 81h269zM718 788l-46 -55l-143 50l-151 -50l-34 60l202 93z" />
    <glyph glyph-name="Udieresis" unicode="&#xdc;" horiz-adv-x="740" 
d="M855 681l-15 -81l-22 -2q-40 -5 -55.5 -21.5t-24.5 -63.5l-51 -281q-46 -245 -325 -245q-108 0 -174 44t-66 116q0 23 8 73l53 293q4 28 4 36q0 23 -12 35t-41 14l-22 2l15 81h348l-15 -81l-22 -2q-40 -5 -56.5 -21.5t-24.5 -63.5l-42 -235q-8 -36 -8 -90q0 -48 31 -74.5
t88 -26.5q29 0 53.5 7t40.5 16.5t29.5 28t20.5 31t13.5 35.5t8.5 33t6 32l44 243q4 17 4 33q0 47 -53 52l-22 2l15 81h269zM489 824q0 -35 -30.5 -65t-65.5 -30q-28 0 -46 18.5t-18 46.5q0 37 29 66t66 29q29 0 47 -18t18 -47zM738 824q0 -35 -30.5 -65t-65.5 -30
q-28 0 -46 18.5t-18 46.5q0 37 29 66t66 29q29 0 47 -18t18 -47z" />
    <glyph glyph-name="Yacute" unicode="&#xdd;" horiz-adv-x="660" 
d="M817 681l-15 -81q-56 -9 -90 -31t-95 -94l-158 -189l-21 -118q-1 -9 -4 -35q0 -23 12 -35.5t41 -14.5l30 -2l-15 -81h-361l15 81l31 2q39 5 55.5 22t24.5 63l21 118l-89 190q-33 70 -54 91t-64 30q-5 2 -9 3l15 81h353l-15 -81q-67 -5 -77 -13q-6 -6 -6 -14q0 -9 6 -23
l77 -181l139 173q20 23 20 36q0 15 -68 22l15 81h286zM609 839q0 -40 -74 -72q-32 -13 -135 -42l-45 39q52 58 105 100q39 29 73 29q32 0 54 -15.5t22 -38.5z" />
    <glyph glyph-name="Thorn" unicode="&#xde;" horiz-adv-x="640" 
d="M701 390q0 -116 -81.5 -176.5t-236.5 -60.5h-98q-3 -15 -3 -28q0 -35 58 -41l19 -2l-14 -82h-351l14 82l21 2q45 7 60 22t23 62l60 344q6 30 6 39q0 20 -13 31t-46 14l-19 2l14 83h356l-14 -83l-24 -2q-39 -4 -55 -16.5t-21 -40.5h96q122 0 185.5 -32t63.5 -117zM506 361
q0 88 -127 88h-43l-36 -206h43q93 0 128 35.5t35 82.5z" />
    <glyph glyph-name="germandbls" unicode="&#xdf;" horiz-adv-x="660" 
d="M702 239q0 -102 -90.5 -174.5t-217.5 -72.5q-39 0 -103 13l26 78q36 -3 41 -3q63 0 110 40t47 93q0 57 -67 96q-1 1 -10 6t-11 6t-10 6t-10.5 7.5t-8.5 7.5t-8 8.5t-6 9.5t-5.5 11.5t-3 12t-1.5 14.5q0 41 35 70q8 6 79 35q51 20 51 79q0 37 -21.5 61t-54.5 24
q-38 0 -58.5 -30.5t-42.5 -121.5l-65 -269q-38 -156 -75 -233q-108 -221 -327 -221q-61 0 -93.5 21t-32.5 61q0 33 24 56t59 23q36 0 64 -31q17 -20 26 -25t26 -5q22 0 39 6.5t30.5 23t22.5 30.5t17 42.5t12.5 45t12 52t10.5 49.5l64 280h-77l22 90h75l8 40q14 67 62.5 112
t101 61.5t107.5 16.5q86 0 141 -45.5t55 -115.5q0 -43 -18.5 -73.5t-60.5 -57.5q-31 -20 -31 -32q0 -13 38 -28q47 -18 75 -59t28 -91z" />
    <glyph glyph-name="agrave" unicode="&#xe0;" 
d="M735 70q-84 -79 -168 -79q-99 0 -121 79q-67 -79 -167 -79q-85 0 -140 60t-55 153q0 127 89 221.5t209 94.5q80 0 136 -47l7 38h142l-58 -322q-6 -30 -6 -43q0 -47 36 -47q22 0 53 24zM494 400q-51 32 -85 32q-48 0 -85.5 -44.5t-54 -100t-16.5 -105.5q0 -42 18.5 -66.5
t50.5 -24.5q57 0 103 79q32 54 69 230zM556 620l-57 -44q-99 38 -128 63.5t-16 63.5q10 26 36 43t55 17q31 0 56.5 -36t53.5 -107z" />
    <glyph glyph-name="aacute" unicode="&#xe1;" 
d="M735 70q-84 -79 -168 -79q-99 0 -121 79q-67 -79 -167 -79q-85 0 -140 60t-55 153q0 127 89 221.5t209 94.5q80 0 136 -47l7 38h142l-58 -322q-6 -30 -6 -43q0 -47 36 -47q22 0 53 24zM494 400q-51 32 -85 32q-48 0 -85.5 -44.5t-54 -100t-16.5 -105.5q0 -42 18.5 -66.5
t50.5 -24.5q57 0 103 79q32 54 69 230zM580 703q0 -38 -38.5 -63.5t-151.5 -63.5l-41 44q53 70 92 106.5t70 36.5q29 0 49 -17.5t20 -42.5z" />
    <glyph glyph-name="acircumflex" unicode="&#xe2;" 
d="M735 70q-84 -79 -168 -79q-99 0 -121 79q-67 -79 -167 -79q-85 0 -140 60t-55 153q0 127 89 221.5t209 94.5q80 0 136 -47l7 38h142l-58 -322q-6 -30 -6 -43q0 -47 36 -47q22 0 53 24zM494 400q-51 32 -85 32q-48 0 -85.5 -44.5t-54 -100t-16.5 -105.5q0 -42 18.5 -66.5
t50.5 -24.5q57 0 103 79q32 54 69 230zM618 647l-42 -62l-130 56l-137 -56l-31 67l184 103z" />
    <glyph glyph-name="atilde" unicode="&#xe3;" 
d="M735 70q-84 -79 -168 -79q-99 0 -121 79q-67 -79 -167 -79q-85 0 -140 60t-55 153q0 127 89 221.5t209 94.5q80 0 136 -47l7 38h142l-58 -322q-6 -30 -6 -43q0 -47 36 -47q22 0 53 24zM494 400q-51 32 -85 32q-48 0 -85.5 -44.5t-54 -100t-16.5 -105.5q0 -42 18.5 -66.5
t50.5 -24.5q57 0 103 79q32 54 69 230zM629 691q-31 -50 -53.5 -66t-62.5 -16q-27 0 -73 16t-65 16q-34 0 -55 -29l-46 36q23 45 50.5 64.5t67.5 19.5q34 0 77.5 -15.5t60.5 -15.5q19 0 28 4.5t25 22.5z" />
    <glyph glyph-name="adieresis" unicode="&#xe4;" 
d="M735 70q-84 -79 -168 -79q-99 0 -121 79q-67 -79 -167 -79q-85 0 -140 60t-55 153q0 127 89 221.5t209 94.5q80 0 136 -47l7 38h142l-58 -322q-6 -30 -6 -43q0 -47 36 -47q22 0 53 24zM494 400q-51 32 -85 32q-48 0 -85.5 -44.5t-54 -100t-16.5 -105.5q0 -42 18.5 -66.5
t50.5 -24.5q57 0 103 79q32 54 69 230zM407 685q0 -35 -30.5 -65t-65.5 -30q-28 0 -46 18.5t-18 46.5q0 37 29 66t66 29q29 0 47 -18t18 -47zM656 685q0 -35 -30.5 -65t-65.5 -30q-28 0 -46 18.5t-18 46.5q0 37 29 66t66 29q29 0 47 -18t18 -47z" />
    <glyph glyph-name="aring" unicode="&#xe5;" 
d="M735 70q-84 -79 -168 -79q-99 0 -121 79q-67 -79 -167 -79q-85 0 -140 60t-55 153q0 127 89 221.5t209 94.5q80 0 136 -47l7 38h142l-58 -322q-6 -30 -6 -43q0 -47 36 -47q22 0 53 24zM494 400q-51 32 -85 32q-48 0 -85.5 -44.5t-54 -100t-16.5 -105.5q0 -42 18.5 -66.5
t50.5 -24.5q57 0 103 79q32 54 69 230zM562 669q0 -44 -32.5 -75.5t-78.5 -31.5q-45 0 -77.5 31.5t-32.5 75.5q0 45 32.5 77t78.5 32t78 -31.5t32 -77.5zM499 670q0 21 -14 35.5t-34 14.5t-34 -14.5t-14 -34.5q0 -21 14 -36t34 -15q19 0 33.5 15t14.5 35z" />
    <glyph glyph-name="ae" unicode="&#xe6;" horiz-adv-x="880" 
d="M879 121q-35 -45 -115 -87.5t-161 -42.5q-22 0 -41.5 2.5t-35.5 7.5t-29.5 10.5t-25 13.5t-19.5 14.5t-15.5 14.5t-11.5 12.5t-9 11.5l-4 6q-42 -32 -68 -48.5t-67.5 -30.5t-87.5 -14q-70 0 -110 31.5t-40 85.5q0 38 16.5 69t47.5 50.5t65 33.5t80 22.5t80.5 12t77.5 6.5
q10 48 10 72q0 31 -22 51.5t-57 20.5q-15 0 -28.5 -3t-23 -8.5t-17 -11t-13 -12.5t-8.5 -12t-6 -11l-3 -5q-30 -54 -80 -54q-24 0 -41.5 17.5t-17.5 41.5q0 54 69.5 93t166.5 39q127 0 191 -64q65 38 107 51t100 13q82 0 131 -33.5t49 -89.5q0 -58 -50.5 -99t-125.5 -58.5
t-165 -17.5q-14 0 -26 1q-2 -28 -2 -35q0 -47 26 -76t67 -29q28 0 56.5 8t51.5 21t40 24.5t30.5 23t15.5 12.5zM391 231q-92 0 -140 -28t-48 -68q0 -20 13 -32t34 -12q47 0 86 38.5t55 101.5zM765 394q0 22 -15.5 35t-40.5 13q-52 0 -94 -50t-52 -100h12q78 0 134 30t56 72z
" />
    <glyph glyph-name="ccedilla" unicode="&#xe7;" horiz-adv-x="560" 
d="M570 113q-45 -49 -114 -82t-137 -39l-17 -40h34q29 0 51 -21.5t22 -49.5q0 -47 -38 -71.5t-96 -24.5q-44 0 -70.5 14.5t-26.5 38.5q0 16 11 27.5t26 11.5q12 0 27 -20t34 -20q45 0 45 39q0 15 -8 25.5t-21 10.5t-24 -5l-24 24l27 61q-96 6 -154.5 64.5t-58.5 149.5
q0 125 104 219.5t240 94.5q81 0 138 -37.5t57 -91.5q0 -37 -29 -63.5t-69 -26.5q-31 0 -52.5 17t-21.5 43q0 9 4 22.5t4 22.5q0 16 -13.5 26t-33.5 10q-60 0 -110 -77t-50 -170q0 -52 27 -80t76 -28q84 0 188 84z" />
    <glyph glyph-name="egrave" unicode="&#xe8;" horiz-adv-x="560" 
d="M570 115q-42 -47 -120.5 -85.5t-154.5 -38.5q-105 0 -170.5 59t-65.5 153q0 130 106.5 223.5t254.5 93.5q79 0 127.5 -33.5t48.5 -89.5q0 -57 -49.5 -98t-124 -59t-164.5 -18q-15 0 -26 1q-3 -25 -3 -43q0 -42 27 -67.5t72 -25.5q86 0 188 87zM448 394q0 21 -15.5 34.5
t-40.5 13.5q-51 0 -93 -48.5t-53 -101.5h12q78 0 134 30t56 72zM523 620l-57 -44q-99 38 -128 63.5t-16 63.5q10 26 36 43t55 17q31 0 56.5 -36t53.5 -107z" />
    <glyph glyph-name="eacute" unicode="&#xe9;" horiz-adv-x="560" 
d="M570 115q-42 -47 -120.5 -85.5t-154.5 -38.5q-105 0 -170.5 59t-65.5 153q0 130 106.5 223.5t254.5 93.5q79 0 127.5 -33.5t48.5 -89.5q0 -57 -49.5 -98t-124 -59t-164.5 -18q-15 0 -26 1q-3 -25 -3 -43q0 -42 27 -67.5t72 -25.5q86 0 188 87zM448 394q0 21 -15.5 34.5
t-40.5 13.5q-51 0 -93 -48.5t-53 -101.5h12q78 0 134 30t56 72zM547 703q0 -38 -38.5 -63.5t-151.5 -63.5l-41 44q53 70 92 106.5t70 36.5q29 0 49 -17.5t20 -42.5z" />
    <glyph glyph-name="ecircumflex" unicode="&#xea;" horiz-adv-x="560" 
d="M570 115q-42 -47 -120.5 -85.5t-154.5 -38.5q-105 0 -170.5 59t-65.5 153q0 130 106.5 223.5t254.5 93.5q79 0 127.5 -33.5t48.5 -89.5q0 -57 -49.5 -98t-124 -59t-164.5 -18q-15 0 -26 1q-3 -25 -3 -43q0 -42 27 -67.5t72 -25.5q86 0 188 87zM448 394q0 21 -15.5 34.5
t-40.5 13.5q-51 0 -93 -48.5t-53 -101.5h12q78 0 134 30t56 72zM585 647l-42 -62l-130 56l-137 -56l-31 67l184 103z" />
    <glyph glyph-name="edieresis" unicode="&#xeb;" horiz-adv-x="560" 
d="M570 115q-42 -47 -120.5 -85.5t-154.5 -38.5q-105 0 -170.5 59t-65.5 153q0 130 106.5 223.5t254.5 93.5q79 0 127.5 -33.5t48.5 -89.5q0 -57 -49.5 -98t-124 -59t-164.5 -18q-15 0 -26 1q-3 -25 -3 -43q0 -42 27 -67.5t72 -25.5q86 0 188 87zM448 394q0 21 -15.5 34.5
t-40.5 13.5q-51 0 -93 -48.5t-53 -101.5h12q78 0 134 30t56 72zM374 685q0 -35 -30.5 -65t-65.5 -30q-28 0 -46 18.5t-18 46.5q0 37 29 66t66 29q29 0 47 -18t18 -47zM623 685q0 -35 -30.5 -65t-65.5 -30q-28 0 -46 18.5t-18 46.5q0 37 29 66t66 29q29 0 47 -18t18 -47z" />
    <glyph glyph-name="igrave" unicode="&#xec;" horiz-adv-x="380" 
d="M420 65q-87 -74 -179 -74q-58 0 -94 27.5t-36 71.5q0 15 6 49l33 182q2 20 2 27q0 24 -13 35t-44 11h-12l15 82q98 5 192 35h52l-57 -316q-10 -60 -10 -61q0 -14 11.5 -24.5t27.5 -10.5q20 0 64 22zM396 620l-57 -44q-99 38 -128 63.5t-16 63.5q10 26 36 43t55 17
q31 0 56.5 -36t53.5 -107z" />
    <glyph glyph-name="iacute" unicode="&#xed;" horiz-adv-x="380" 
d="M420 65q-87 -74 -179 -74q-58 0 -94 27.5t-36 71.5q0 15 6 49l33 182q2 20 2 27q0 24 -13 35t-44 11h-12l15 82q98 5 192 35h52l-57 -316q-10 -60 -10 -61q0 -14 11.5 -24.5t27.5 -10.5q20 0 64 22zM420 703q0 -38 -38.5 -63.5t-151.5 -63.5l-41 44q53 70 92 106.5
t70 36.5q29 0 49 -17.5t20 -42.5z" />
    <glyph glyph-name="icircumflex" unicode="&#xee;" horiz-adv-x="380" 
d="M420 65q-87 -74 -179 -74q-58 0 -94 27.5t-36 71.5q0 15 6 49l33 182q2 20 2 27q0 24 -13 35t-44 11h-12l15 82q98 5 192 35h52l-57 -316q-10 -60 -10 -61q0 -14 11.5 -24.5t27.5 -10.5q20 0 64 22zM458 647l-42 -62l-130 56l-137 -56l-31 67l184 103z" />
    <glyph glyph-name="idieresis" unicode="&#xef;" horiz-adv-x="380" 
d="M420 65q-87 -74 -179 -74q-58 0 -94 27.5t-36 71.5q0 15 6 49l33 182q2 20 2 27q0 24 -13 35t-44 11h-12l15 82q98 5 192 35h52l-57 -316q-10 -60 -10 -61q0 -14 11.5 -24.5t27.5 -10.5q20 0 64 22zM247 685q0 -35 -30.5 -65t-65.5 -30q-28 0 -46 18.5t-18 46.5
q0 37 29 66t66 29q29 0 47 -18t18 -47zM496 685q0 -35 -30.5 -65t-65.5 -30q-28 0 -46 18.5t-18 46.5q0 37 29 66t66 29q29 0 47 -18t18 -47z" />
    <glyph glyph-name="eth" unicode="&#xf0;" horiz-adv-x="600" 
d="M634 382q0 -96 -23.5 -169t-58.5 -114t-82.5 -66.5t-87 -33.5t-80.5 -8q-113 0 -178 55t-65 149q0 81 36 154t110 122t170 49q39 0 82 -12q-13 38 -39 72l-133 -31l-13 64l89 20q-34 25 -64 37l46 65q102 -21 163 -68l143 34l13 -65l-99 -23q39 -50 55 -102.5t16 -128.5z
M459 337q0 50 -19 72.5t-60 22.5q-43 0 -75 -34.5t-46 -84.5t-20.5 -87.5t-6.5 -60.5q0 -41 20 -63.5t57 -22.5q44 0 76.5 35t47 84t20.5 85t6 54z" />
    <glyph glyph-name="ntilde" unicode="&#xf1;" 
d="M715 59q-82 -68 -158 -68q-55 0 -90 27t-35 71q0 23 5 45l39 207q1 6 1 18q0 23 -16 36t-45 13q-54 0 -99 -35l-68 -373h-158l59 321q2 20 2 27q0 24 -13 35t-44 11h-12l15 82q98 5 192 35h52l-9 -51q32 27 77.5 43.5t88.5 16.5q63 0 103.5 -30.5t40.5 -77.5
q0 -13 -7 -54l-31 -175q-8 -48 -8 -50q0 -34 37 -34q16 0 42 16zM631 691q-31 -50 -53.5 -66t-62.5 -16q-27 0 -73 16t-65 16q-34 0 -55 -29l-46 36q23 45 50.5 64.5t67.5 19.5q34 0 77.5 -15.5t60.5 -15.5q19 0 28 4.5t25 22.5z" />
    <glyph glyph-name="ograve" unicode="&#xf2;" horiz-adv-x="600" 
d="M627 308q0 -29 -8.5 -66t-31.5 -82t-58 -82t-94.5 -62t-133.5 -25q-112 0 -177 55t-65 149q0 34 8.5 72.5t31.5 84.5t58 82.5t94 61t133 24.5q117 0 180 -55t63 -157zM459 337q0 50 -19 72.5t-60 22.5q-43 0 -75 -34.5t-46 -84.5t-20.5 -87.5t-6.5 -60.5q0 -41 20 -63.5
t57 -22.5q44 0 76.5 35t47 84t20.5 85t6 54zM522 620l-57 -44q-99 38 -128 63.5t-16 63.5q10 26 36 43t55 17q31 0 56.5 -36t53.5 -107z" />
    <glyph glyph-name="oacute" unicode="&#xf3;" horiz-adv-x="600" 
d="M627 308q0 -29 -8.5 -66t-31.5 -82t-58 -82t-94.5 -62t-133.5 -25q-112 0 -177 55t-65 149q0 34 8.5 72.5t31.5 84.5t58 82.5t94 61t133 24.5q117 0 180 -55t63 -157zM459 337q0 50 -19 72.5t-60 22.5q-43 0 -75 -34.5t-46 -84.5t-20.5 -87.5t-6.5 -60.5q0 -41 20 -63.5
t57 -22.5q44 0 76.5 35t47 84t20.5 85t6 54zM546 703q0 -38 -38.5 -63.5t-151.5 -63.5l-41 44q53 70 92 106.5t70 36.5q29 0 49 -17.5t20 -42.5z" />
    <glyph glyph-name="ocircumflex" unicode="&#xf4;" horiz-adv-x="600" 
d="M627 308q0 -29 -8.5 -66t-31.5 -82t-58 -82t-94.5 -62t-133.5 -25q-112 0 -177 55t-65 149q0 34 8.5 72.5t31.5 84.5t58 82.5t94 61t133 24.5q117 0 180 -55t63 -157zM459 337q0 50 -19 72.5t-60 22.5q-43 0 -75 -34.5t-46 -84.5t-20.5 -87.5t-6.5 -60.5q0 -41 20 -63.5
t57 -22.5q44 0 76.5 35t47 84t20.5 85t6 54zM584 647l-42 -62l-130 56l-137 -56l-31 67l184 103z" />
    <glyph glyph-name="otilde" unicode="&#xf5;" horiz-adv-x="600" 
d="M627 308q0 -29 -8.5 -66t-31.5 -82t-58 -82t-94.5 -62t-133.5 -25q-112 0 -177 55t-65 149q0 34 8.5 72.5t31.5 84.5t58 82.5t94 61t133 24.5q117 0 180 -55t63 -157zM459 337q0 50 -19 72.5t-60 22.5q-43 0 -75 -34.5t-46 -84.5t-20.5 -87.5t-6.5 -60.5q0 -41 20 -63.5
t57 -22.5q44 0 76.5 35t47 84t20.5 85t6 54zM595 691q-31 -50 -53.5 -66t-62.5 -16q-27 0 -73 16t-65 16q-34 0 -55 -29l-46 36q23 45 50.5 64.5t67.5 19.5q34 0 77.5 -15.5t60.5 -15.5q19 0 28 4.5t25 22.5z" />
    <glyph glyph-name="odieresis" unicode="&#xf6;" horiz-adv-x="600" 
d="M627 308q0 -29 -8.5 -66t-31.5 -82t-58 -82t-94.5 -62t-133.5 -25q-112 0 -177 55t-65 149q0 34 8.5 72.5t31.5 84.5t58 82.5t94 61t133 24.5q117 0 180 -55t63 -157zM459 337q0 50 -19 72.5t-60 22.5q-43 0 -75 -34.5t-46 -84.5t-20.5 -87.5t-6.5 -60.5q0 -41 20 -63.5
t57 -22.5q44 0 76.5 35t47 84t20.5 85t6 54zM373 685q0 -35 -30.5 -65t-65.5 -30q-28 0 -46 18.5t-18 46.5q0 37 29 66t66 29q29 0 47 -18t18 -47zM622 685q0 -35 -30.5 -65t-65.5 -30q-28 0 -46 18.5t-18 46.5q0 37 29 66t66 29q29 0 47 -18t18 -47z" />
    <glyph glyph-name="divide" unicode="&#xf7;" horiz-adv-x="600" 
d="M610 192h-520v116h520v-116zM440 420q0 -37 -26.5 -63.5t-63.5 -26.5t-63.5 26.5t-26.5 63.5q0 38 26 64t64 26t64 -26t26 -64zM440 80q0 -38 -26 -64t-64 -26t-64 26t-26 64q0 37 26.5 63.5t63.5 26.5t63.5 -26.5t26.5 -63.5z" />
    <glyph glyph-name="oslash" unicode="&#xf8;" horiz-adv-x="600" 
d="M623 314q0 -41 -11.5 -84t-37 -86t-62 -77t-92.5 -55t-123 -21q-75 0 -135 28l-66 -73h-79l95 106q-57 57 -57 144q0 34 8.5 73.5t32 85t58.5 81.5t93.5 60t131.5 24q75 0 130 -24l72 80h80l-100 -112q62 -56 62 -150zM455 346l-213 -237q23 -30 63 -30q42 0 73.5 31.5
t46.5 78t22.5 86.5t7.5 71zM434 412q-23 20 -59 20q-41 0 -71.5 -31t-45 -78t-21 -80.5t-8.5 -60.5z" />
    <glyph glyph-name="ugrave" unicode="&#xf9;" 
d="M720 64q-67 -73 -159 -73q-91 0 -118 66q-57 -37 -97.5 -51.5t-85.5 -14.5q-64 0 -105.5 29.5t-41.5 76.5q0 25 4 45l33 179q2 20 2 27q0 24 -13 35t-44 11h-12l15 82q98 5 192 35h52l-55 -306q-6 -43 -6 -54q0 -20 18 -34t44 -14q50 0 98 39l67 369h158l-57 -316
q-7 -42 -7 -52q0 -44 34 -44q16 0 45 23zM558 620l-57 -44q-99 38 -128 63.5t-16 63.5q10 26 36 43t55 17q31 0 56.5 -36t53.5 -107z" />
    <glyph glyph-name="uacute" unicode="&#xfa;" 
d="M720 64q-67 -73 -159 -73q-91 0 -118 66q-57 -37 -97.5 -51.5t-85.5 -14.5q-64 0 -105.5 29.5t-41.5 76.5q0 25 4 45l33 179q2 20 2 27q0 24 -13 35t-44 11h-12l15 82q98 5 192 35h52l-55 -306q-6 -43 -6 -54q0 -20 18 -34t44 -14q50 0 98 39l67 369h158l-57 -316
q-7 -42 -7 -52q0 -44 34 -44q16 0 45 23zM582 703q0 -38 -38.5 -63.5t-151.5 -63.5l-41 44q53 70 92 106.5t70 36.5q29 0 49 -17.5t20 -42.5z" />
    <glyph glyph-name="ucircumflex" unicode="&#xfb;" 
d="M720 64q-67 -73 -159 -73q-91 0 -118 66q-57 -37 -97.5 -51.5t-85.5 -14.5q-64 0 -105.5 29.5t-41.5 76.5q0 25 4 45l33 179q2 20 2 27q0 24 -13 35t-44 11h-12l15 82q98 5 192 35h52l-55 -306q-6 -43 -6 -54q0 -20 18 -34t44 -14q50 0 98 39l67 369h158l-57 -316
q-7 -42 -7 -52q0 -44 34 -44q16 0 45 23zM620 647l-42 -62l-130 56l-137 -56l-31 67l184 103z" />
    <glyph glyph-name="udieresis" unicode="&#xfc;" 
d="M720 64q-67 -73 -159 -73q-91 0 -118 66q-57 -37 -97.5 -51.5t-85.5 -14.5q-64 0 -105.5 29.5t-41.5 76.5q0 25 4 45l33 179q2 20 2 27q0 24 -13 35t-44 11h-12l15 82q98 5 192 35h52l-55 -306q-6 -43 -6 -54q0 -20 18 -34t44 -14q50 0 98 39l67 369h158l-57 -316
q-7 -42 -7 -52q0 -44 34 -44q16 0 45 23zM409 685q0 -35 -30.5 -65t-65.5 -30q-28 0 -46 18.5t-18 46.5q0 37 29 66t66 29q29 0 47 -18t18 -47zM658 685q0 -35 -30.5 -65t-65.5 -30q-28 0 -46 18.5t-18 46.5q0 37 29 66t66 29q29 0 47 -18t18 -47z" />
    <glyph glyph-name="yacute" unicode="&#xfd;" horiz-adv-x="600" 
d="M567 97q-6 -31 -10.5 -52.5t-16.5 -56t-27 -58t-41.5 -51t-59.5 -44t-81 -28t-107 -11.5q-85 0 -142 29.5t-57 73.5q0 30 22.5 50.5t55.5 20.5q12 0 22.5 -3t17 -6.5t12.5 -10.5t8.5 -10.5t6 -11t4.5 -8.5q21 -36 74 -36q17 0 36 6t43.5 21.5t44.5 51t28 85.5
q-86 -57 -162 -57q-60 0 -100.5 31t-40.5 77q0 25 5 49l31 173q4 24 4 31q0 21 -13 31.5t-45 10.5h-12l15 82q98 5 192 35h52l-56 -309q-8 -45 -8 -47q0 -22 15 -37t38 -15q26 0 55.5 13t47.5 32l66 363h158zM546 703q0 -38 -38.5 -63.5t-151.5 -63.5l-41 44q53 70 92 106.5
t70 36.5q29 0 49 -17.5t20 -42.5z" />
    <glyph glyph-name="thorn" unicode="&#xfe;" horiz-adv-x="660" 
d="M682 308q0 -126 -89 -221.5t-205 -95.5q-66 0 -126 36l-18 -96q-2 -14 -2 -19q0 -22 13 -32.5t45 -10.5h27l-15 -82h-336l15 82h17q67 0 78 62l111 611q3 16 3 29q0 23 -13 33.5t-44 10.5h-12l14 82q99 5 192 35h53l-51 -281q72 69 152 69q84 0 137.5 -59.5t53.5 -152.5z
M513 323q0 101 -66 101q-32 0 -62.5 -29.5t-52.5 -82.5q-24 -59 -54 -202q42 -31 90 -31q35 0 64.5 26t46 65t25.5 79.5t9 73.5z" />
    <glyph glyph-name="ydieresis" unicode="&#xff;" horiz-adv-x="600" 
d="M567 97q-6 -31 -10.5 -52.5t-16.5 -56t-27 -58t-41.5 -51t-59.5 -44t-81 -28t-107 -11.5q-85 0 -142 29.5t-57 73.5q0 30 22.5 50.5t55.5 20.5q12 0 22.5 -3t17 -6.5t12.5 -10.5t8.5 -10.5t6 -11t4.5 -8.5q21 -36 74 -36q17 0 36 6t43.5 21.5t44.5 51t28 85.5
q-86 -57 -162 -57q-60 0 -100.5 31t-40.5 77q0 25 5 49l31 173q4 24 4 31q0 21 -13 31.5t-45 10.5h-12l15 82q98 5 192 35h52l-56 -309q-8 -45 -8 -47q0 -22 15 -37t38 -15q26 0 55.5 13t47.5 32l66 363h158zM373 685q0 -35 -30.5 -65t-65.5 -30q-28 0 -46 18.5t-18 46.5
q0 37 29 66t66 29q29 0 47 -18t18 -47zM622 685q0 -35 -30.5 -65t-65.5 -30q-28 0 -46 18.5t-18 46.5q0 37 29 66t66 29q29 0 47 -18t18 -47z" />
    <glyph glyph-name="Amacron" unicode="&#x100;" horiz-adv-x="720" 
d="M769 81l-15 -81h-352l15 81l33 4q33 5 45 12.5t12 23.5q0 11 -7 44l-16 77h-222l-46 -87q-16 -30 -16 -43q0 -22 58 -29l19 -2l-15 -81h-289l15 81q53 12 83 41.5t64 87.5l278 471h151l116 -503q17 -58 28 -71t49 -23q7 -2 12 -3zM469 320l-41 218l-123 -218h164z
M689 853l-26 -88h-328l26 88h328z" />
    <glyph glyph-name="amacron" unicode="&#x101;" 
d="M735 70q-84 -79 -168 -79q-99 0 -121 79q-67 -79 -167 -79q-85 0 -140 60t-55 153q0 127 89 221.5t209 94.5q80 0 136 -47l7 38h142l-58 -322q-6 -30 -6 -43q0 -47 36 -47q22 0 53 24zM494 400q-51 32 -85 32q-48 0 -85.5 -44.5t-54 -100t-16.5 -105.5q0 -42 18.5 -66.5
t50.5 -24.5q57 0 103 79q32 54 69 230zM629 714l-26 -88h-328l26 88h328z" />
    <glyph glyph-name="Abreve" unicode="&#x102;" horiz-adv-x="720" 
d="M769 81l-15 -81h-352l15 81l33 4q33 5 45 12.5t12 23.5q0 11 -7 44l-16 77h-222l-46 -87q-16 -30 -16 -43q0 -22 58 -29l19 -2l-15 -81h-289l15 81q53 12 83 41.5t64 87.5l278 471h151l116 -503q17 -58 28 -71t49 -23q7 -2 12 -3zM469 320l-41 218l-123 -218h164z
M695 872q-16 -70 -61 -98t-134 -28q-86 0 -127 29t-51 97h80q12 -29 34 -40t69 -11q45 0 70 11.5t40 39.5h80z" />
    <glyph glyph-name="abreve" unicode="&#x103;" 
d="M735 70q-84 -79 -168 -79q-99 0 -121 79q-67 -79 -167 -79q-85 0 -140 60t-55 153q0 127 89 221.5t209 94.5q80 0 136 -47l7 38h142l-58 -322q-6 -30 -6 -43q0 -47 36 -47q22 0 53 24zM494 400q-51 32 -85 32q-48 0 -85.5 -44.5t-54 -100t-16.5 -105.5q0 -42 18.5 -66.5
t50.5 -24.5q57 0 103 79q32 54 69 230zM616 740q-17 -80 -57.5 -110t-119.5 -30t-116 32t-46 108h73q10 -32 30.5 -44.5t62.5 -12.5q41 0 63.5 13t36.5 44h73z" />
    <glyph glyph-name="Aogonek" unicode="&#x104;" horiz-adv-x="720" 
d="M727 -150q-30 -41 -75 -65.5t-92 -24.5q-53 0 -93 28t-40 70q0 75 103 142h-128l15 81l33 4q33 5 45 12.5t12 23.5q0 11 -7 44l-16 77h-222l-46 -87q-16 -30 -16 -43q0 -22 58 -29l19 -2l-15 -81h-289l15 81q53 12 83 41.5t64 87.5l278 471h151l116 -503q17 -58 28 -71
t49 -23q7 -2 12 -3l-15 -81h-37q-34 0 -55.5 -2t-46.5 -13.5t-38 -33.5q-14 -22 -14 -58q0 -21 15.5 -32.5t37.5 -11.5q30 0 69 32zM469 320l-41 218l-123 -218h164z" />
    <glyph glyph-name="aogonek" unicode="&#x105;" 
d="M695 -150q-30 -41 -75 -65.5t-92 -24.5q-53 0 -93 28t-40 70q0 77 108 145q-43 19 -57 67q-67 -79 -167 -79q-85 0 -140 60t-55 153q0 127 89 221.5t209 94.5q80 0 136 -47l7 38h142l-58 -322q-6 -30 -6 -43q0 -47 36 -47q22 0 53 24l43 -53q-49 -46 -101 -66
q-75 -30 -89 -53q-14 -22 -14 -58q0 -21 15.5 -32.5t37.5 -11.5q30 0 69 32zM494 400q-51 32 -85 32q-48 0 -85.5 -44.5t-54 -100t-16.5 -105.5q0 -42 18.5 -66.5t50.5 -24.5q57 0 103 79q32 54 69 230z" />
    <glyph glyph-name="Cacute" unicode="&#x106;" horiz-adv-x="700" 
d="M738 179q-123 -192 -341 -192q-144 0 -231.5 86t-87.5 209q0 47 13 99.5t44 109t74.5 101t111 73.5t147.5 29q75 0 168 -43l12 30h56l50 -262l-74 -16q-12 67 -69 133t-128 66q-64 0 -114 -52t-74.5 -126.5t-24.5 -153.5q0 -90 44 -140.5t122 -50.5q62 0 126 39.5
t107 105.5zM661 839q0 -40 -74 -72q-32 -13 -135 -42l-45 39q52 58 105 100q39 29 73 29q32 0 54 -15.5t22 -38.5z" />
    <glyph glyph-name="cacute" unicode="&#x107;" horiz-adv-x="560" 
d="M570 113q-49 -54 -126.5 -88t-151.5 -34q-104 0 -169 59.5t-65 155.5q0 125 104 219.5t240 94.5q81 0 138 -37.5t57 -91.5q0 -37 -29 -63.5t-69 -26.5q-31 0 -52.5 17t-21.5 43q0 9 4 22.5t4 22.5q0 16 -13.5 26t-33.5 10q-60 0 -110 -77t-50 -170q0 -52 27 -80t76 -28
q84 0 188 84zM544 703q0 -38 -38.5 -63.5t-151.5 -63.5l-41 44q53 70 92 106.5t70 36.5q29 0 49 -17.5t20 -42.5z" />
    <glyph glyph-name="Ccircumflex" unicode="&#x108;" horiz-adv-x="700" 
d="M738 179q-123 -192 -341 -192q-144 0 -231.5 86t-87.5 209q0 47 13 99.5t44 109t74.5 101t111 73.5t147.5 29q75 0 168 -43l12 30h56l50 -262l-74 -16q-12 67 -69 133t-128 66q-64 0 -114 -52t-74.5 -126.5t-24.5 -153.5q0 -90 44 -140.5t122 -50.5q62 0 126 39.5
t107 105.5zM705 788l-46 -55l-143 50l-151 -50l-34 60l202 93z" />
    <glyph glyph-name="ccircumflex" unicode="&#x109;" horiz-adv-x="560" 
d="M570 113q-49 -54 -126.5 -88t-151.5 -34q-104 0 -169 59.5t-65 155.5q0 125 104 219.5t240 94.5q81 0 138 -37.5t57 -91.5q0 -37 -29 -63.5t-69 -26.5q-31 0 -52.5 17t-21.5 43q0 9 4 22.5t4 22.5q0 16 -13.5 26t-33.5 10q-60 0 -110 -77t-50 -170q0 -52 27 -80t76 -28
q84 0 188 84zM582 647l-42 -62l-130 56l-137 -56l-31 67l184 103z" />
    <glyph glyph-name="Cdotaccent" unicode="&#x10a;" horiz-adv-x="700" 
d="M738 179q-123 -192 -341 -192q-144 0 -231.5 86t-87.5 209q0 47 13 99.5t44 109t74.5 101t111 73.5t147.5 29q75 0 168 -43l12 30h56l50 -262l-74 -16q-12 67 -69 133t-128 66q-64 0 -114 -52t-74.5 -126.5t-24.5 -153.5q0 -90 44 -140.5t122 -50.5q62 0 126 39.5
t107 105.5zM603 825q0 -37 -31 -68t-68 -31q-28 0 -47 19.5t-19 48.5q0 38 30 68t68 30q30 0 48.5 -18.5t18.5 -48.5z" />
    <glyph glyph-name="cdotaccent" unicode="&#x10b;" horiz-adv-x="560" 
d="M570 113q-49 -54 -126.5 -88t-151.5 -34q-104 0 -169 59.5t-65 155.5q0 125 104 219.5t240 94.5q81 0 138 -37.5t57 -91.5q0 -37 -29 -63.5t-69 -26.5q-31 0 -52.5 17t-21.5 43q0 9 4 22.5t4 22.5q0 16 -13.5 26t-33.5 10q-60 0 -110 -77t-50 -170q0 -52 27 -80t76 -28
q84 0 188 84zM498 686q0 -37 -31 -68t-68 -31q-28 0 -47 19.5t-19 48.5q0 38 30 68t68 30q30 0 48.5 -18.5t18.5 -48.5z" />
    <glyph glyph-name="Ccaron" unicode="&#x10c;" horiz-adv-x="700" 
d="M738 179q-123 -192 -341 -192q-144 0 -231.5 86t-87.5 209q0 47 13 99.5t44 109t74.5 101t111 73.5t147.5 29q75 0 168 -43l12 30h56l50 -262l-74 -16q-12 67 -69 133t-128 66q-64 0 -114 -52t-74.5 -126.5t-24.5 -153.5q0 -90 44 -140.5t122 -50.5q62 0 126 39.5
t107 105.5zM711 826l-202 -93l-172 98l46 55l143 -50l151 50z" />
    <glyph glyph-name="ccaron" unicode="&#x10d;" horiz-adv-x="560" 
d="M570 113q-49 -54 -126.5 -88t-151.5 -34q-104 0 -169 59.5t-65 155.5q0 125 104 219.5t240 94.5q81 0 138 -37.5t57 -91.5q0 -37 -29 -63.5t-69 -26.5q-31 0 -52.5 17t-21.5 43q0 9 4 22.5t4 22.5q0 16 -13.5 26t-33.5 10q-60 0 -110 -77t-50 -170q0 -52 27 -80t76 -28
q84 0 188 84zM584 688l-184 -103l-156 108l42 62l130 -56l137 56z" />
    <glyph glyph-name="Dcaron" unicode="&#x10e;" horiz-adv-x="760" 
d="M805 407q0 -118 -55 -216t-148 -145q-91 -46 -292 -46h-296l15 81l22 2q40 6 55.5 22.5t24.5 62.5l63 345q4 28 4 37q0 22 -11.5 33.5t-41.5 14.5l-22 2l14 81h320q85 0 144.5 -11.5t108 -40.5t72 -84t23.5 -138zM632 419q0 88 -42 134t-121 46q-32 0 -51.5 -5.5
t-29.5 -21t-13.5 -26.5t-7.5 -37l-63 -352q-5 -22 -5 -32q0 -22 17 -30t60 -8q105 0 180.5 98t75.5 234zM697 826l-202 -93l-172 98l46 55l143 -50l151 50z" />
    <glyph glyph-name="dcaron" unicode="&#x10f;" 
d="M714 72q-37 -37 -83 -59t-89 -22q-100 0 -120 81q-2 -2 -12 -11.5t-16 -15t-18.5 -15t-24 -15t-26 -12t-32 -9.5t-36.5 -3q-85 0 -141 61.5t-56 153.5q0 125 90 219.5t209 94.5q63 0 121 -34l10 53q3 18 3 33q0 20 -12.5 30t-43.5 10h-12l15 82q104 0 189 38h57l-95 -523
q-6 -31 -8 -60q0 -46 37 -46q25 0 51 26zM464 402q-9 9 -32 19.5t-50 10.5q-52 0 -89 -46.5t-51 -100t-14 -100.5q0 -46 18.5 -72t51.5 -26q44 0 85 52q26 34 43.5 90t37.5 173zM887 658q0 -50 -39.5 -106t-103.5 -98l-34 32q60 54 72 79q-6 -1 -13 -1q-28 0 -44 17.5
t-16 46.5q0 41 32.5 72.5t75.5 31.5q31 0 50.5 -20.5t19.5 -53.5z" />
    <glyph glyph-name="Dcroat" unicode="&#x110;" horiz-adv-x="760" 
d="M805 407q0 -72 -15 -131t-40.5 -101t-63 -73.5t-79 -50.5t-93.5 -30.5t-100 -16t-104 -4.5h-296l15 81l22 2q40 6 55.5 22.5t24.5 62.5l29 155h-88l15 80h87l20 109q2 10 4 38q0 21 -11.5 32.5t-41.5 15.5l-22 2l14 81h320q176 0 262 -59t86 -215zM632 419
q0 87 -42 133.5t-121 46.5q-18 0 -32 -2t-23.5 -4.5t-17 -9t-11.5 -10t-7 -14t-4 -14.5t-3.5 -18t-3.5 -19l-19 -105h156l-14 -80h-156l-30 -166q-4 -19 -4 -34q0 -20 15.5 -28t60.5 -8q105 0 180.5 98t75.5 234z" />
    <glyph glyph-name="dcroat" unicode="&#x111;" 
d="M714 72q-37 -37 -83 -59t-89 -22q-100 0 -120 81l-40 -37q-54 -44 -125 -44q-85 0 -141 61t-56 153q0 116 87.5 202.5t205.5 86.5q64 0 122 -34l13 72h-175l8 47h175q1 6 1 12q0 14 -6 20t-22.5 11t-28.5 5h-12l12 66q103 2 189 39h57l-27 -153h83l-8 -47h-84l-59 -323
q-8 -48 -8 -68q0 -16 10.5 -27t26.5 -11q12 0 18.5 3t27.5 19l5 4zM459 376q-38 30 -82 30q-60 0 -104.5 -65t-44.5 -152q0 -102 70 -102q44 0 85 52q25 33 41.5 84t34.5 153z" />
    <glyph glyph-name="Emacron" unicode="&#x112;" horiz-adv-x="720" 
d="M761 225l-113 -225h-634l15 81l22 2q39 4 55.5 21.5t24.5 63.5l63 345l4 36q0 23 -12 34.5t-41 14.5l-22 2l15 81h584l55 -221l-70 -22q-74 162 -227 162q-45 0 -69.5 -13t-29.5 -25t-11 -43q-1 -5 -2 -8l-19 -101q16 -2 40 -2q55 0 75 18.5t37 84.5h71l-55 -302h-71
q2 24 2 32q0 22 -6 37t-14 23.5t-25 13t-30.5 5.5t-39.5 1l-30 -165q-4 -26 -4 -32q0 -23 16 -31.5t61 -8.5q89 0 157.5 37.5t161.5 138.5zM655 853l-26 -88h-328l26 88h328z" />
    <glyph glyph-name="emacron" unicode="&#x113;" horiz-adv-x="560" 
d="M570 115q-42 -47 -120.5 -85.5t-154.5 -38.5q-105 0 -170.5 59t-65.5 153q0 130 106.5 223.5t254.5 93.5q79 0 127.5 -33.5t48.5 -89.5q0 -57 -49.5 -98t-124 -59t-164.5 -18q-15 0 -26 1q-3 -25 -3 -43q0 -42 27 -67.5t72 -25.5q86 0 188 87zM448 394q0 21 -15.5 34.5
t-40.5 13.5q-51 0 -93 -48.5t-53 -101.5h12q78 0 134 30t56 72zM596 714l-26 -88h-328l26 88h328z" />
    <glyph glyph-name="Ebreve" unicode="&#x114;" horiz-adv-x="720" 
d="M761 225l-113 -225h-634l15 81l22 2q39 4 55.5 21.5t24.5 63.5l63 345l4 36q0 23 -12 34.5t-41 14.5l-22 2l15 81h584l55 -221l-70 -22q-74 162 -227 162q-45 0 -69.5 -13t-29.5 -25t-11 -43q-1 -5 -2 -8l-19 -101q16 -2 40 -2q55 0 75 18.5t37 84.5h71l-55 -302h-71
q2 24 2 32q0 22 -6 37t-14 23.5t-25 13t-30.5 5.5t-39.5 1l-30 -165q-4 -26 -4 -32q0 -23 16 -31.5t61 -8.5q89 0 157.5 37.5t161.5 138.5zM661 872q-16 -70 -61 -98t-134 -28q-86 0 -127 29t-51 97h80q12 -29 34 -40t69 -11q45 0 70 11.5t40 39.5h80z" />
    <glyph glyph-name="ebreve" unicode="&#x115;" horiz-adv-x="560" 
d="M570 115q-42 -47 -120.5 -85.5t-154.5 -38.5q-105 0 -170.5 59t-65.5 153q0 130 106.5 223.5t254.5 93.5q79 0 127.5 -33.5t48.5 -89.5q0 -57 -49.5 -98t-124 -59t-164.5 -18q-15 0 -26 1q-3 -25 -3 -43q0 -42 27 -67.5t72 -25.5q86 0 188 87zM448 394q0 21 -15.5 34.5
t-40.5 13.5q-51 0 -93 -48.5t-53 -101.5h12q78 0 134 30t56 72zM583 740q-17 -80 -57.5 -110t-119.5 -30t-116 32t-46 108h73q10 -32 30.5 -44.5t62.5 -12.5q41 0 63.5 13t36.5 44h73z" />
    <glyph glyph-name="Edotaccent" unicode="&#x116;" horiz-adv-x="720" 
d="M761 225l-113 -225h-634l15 81l22 2q39 4 55.5 21.5t24.5 63.5l63 345l4 36q0 23 -12 34.5t-41 14.5l-22 2l15 81h584l55 -221l-70 -22q-74 162 -227 162q-45 0 -69.5 -13t-29.5 -25t-11 -43q-1 -5 -2 -8l-19 -101q16 -2 40 -2q55 0 75 18.5t37 84.5h71l-55 -302h-71
q2 24 2 32q0 22 -6 37t-14 23.5t-25 13t-30.5 5.5t-39.5 1l-30 -165q-4 -26 -4 -32q0 -23 16 -31.5t61 -8.5q89 0 157.5 37.5t161.5 138.5zM560 825q0 -37 -31 -68t-68 -31q-28 0 -47 19.5t-19 48.5q0 38 30 68t68 30q30 0 48.5 -18.5t18.5 -48.5z" />
    <glyph glyph-name="edotaccent" unicode="&#x117;" horiz-adv-x="560" 
d="M570 115q-42 -47 -120.5 -85.5t-154.5 -38.5q-105 0 -170.5 59t-65.5 153q0 130 106.5 223.5t254.5 93.5q79 0 127.5 -33.5t48.5 -89.5q0 -57 -49.5 -98t-124 -59t-164.5 -18q-15 0 -26 1q-3 -25 -3 -43q0 -42 27 -67.5t72 -25.5q86 0 188 87zM448 394q0 21 -15.5 34.5
t-40.5 13.5q-51 0 -93 -48.5t-53 -101.5h12q78 0 134 30t56 72zM501 686q0 -37 -31 -68t-68 -31q-28 0 -47 19.5t-19 48.5q0 38 30 68t68 30q30 0 48.5 -18.5t18.5 -48.5z" />
    <glyph glyph-name="Eogonek" unicode="&#x118;" horiz-adv-x="720" 
d="M693 -150q-30 -41 -75 -65.5t-92 -24.5q-53 0 -93 28t-40 70q0 75 103 142h-482l15 81l22 2q39 4 55.5 21.5t24.5 63.5l63 345l4 36q0 23 -12 34.5t-41 14.5l-22 2l15 81h584l55 -221l-70 -22q-74 162 -227 162q-45 0 -69.5 -13t-29.5 -25t-11 -43q-1 -5 -2 -8l-19 -101
q16 -2 40 -2q55 0 75 18.5t37 84.5h71l-55 -302h-71q2 24 2 32q0 22 -6 37t-14 23.5t-25 13t-30.5 5.5t-39.5 1l-30 -165q-4 -26 -4 -32q0 -23 16 -31.5t61 -8.5q89 0 157.5 37.5t161.5 138.5l66 -35l-113 -225q-77 0 -106 -49q-13 -23 -13 -58q0 -21 15.5 -32.5t37.5 -11.5
q30 0 69 32z" />
    <glyph glyph-name="eogonek" unicode="&#x119;" horiz-adv-x="560" 
d="M570 115q-54 -59 -145 -96q-27 -11 -41.5 -17.5t-34 -20.5t-28.5 -30q-13 -23 -13 -58q0 -21 15.5 -32.5t37.5 -11.5q30 0 69 32l42 -31q-30 -41 -75 -65.5t-92 -24.5q-53 0 -93 28t-40 70q0 71 92 134q-92 9 -148.5 67t-56.5 144q0 130 106.5 223.5t254.5 93.5
q79 0 127.5 -33.5t48.5 -89.5q0 -57 -49.5 -98t-124 -59t-164.5 -18q-15 0 -26 1q-3 -25 -3 -43q0 -42 27 -67.5t72 -25.5q86 0 188 87zM448 394q0 21 -15.5 34.5t-40.5 13.5q-51 0 -93 -48.5t-53 -101.5h12q78 0 134 30t56 72z" />
    <glyph glyph-name="Ecaron" unicode="&#x11a;" horiz-adv-x="720" 
d="M761 225l-113 -225h-634l15 81l22 2q39 4 55.5 21.5t24.5 63.5l63 345l4 36q0 23 -12 34.5t-41 14.5l-22 2l15 81h584l55 -221l-70 -22q-74 162 -227 162q-45 0 -69.5 -13t-29.5 -25t-11 -43q-1 -5 -2 -8l-19 -101q16 -2 40 -2q55 0 75 18.5t37 84.5h71l-55 -302h-71
q2 24 2 32q0 22 -6 37t-14 23.5t-25 13t-30.5 5.5t-39.5 1l-30 -165q-4 -26 -4 -32q0 -23 16 -31.5t61 -8.5q89 0 157.5 37.5t161.5 138.5zM668 826l-202 -93l-172 98l46 55l143 -50l151 50z" />
    <glyph glyph-name="ecaron" unicode="&#x11b;" horiz-adv-x="560" 
d="M570 115q-42 -47 -120.5 -85.5t-154.5 -38.5q-105 0 -170.5 59t-65.5 153q0 130 106.5 223.5t254.5 93.5q79 0 127.5 -33.5t48.5 -89.5q0 -57 -49.5 -98t-124 -59t-164.5 -18q-15 0 -26 1q-3 -25 -3 -43q0 -42 27 -67.5t72 -25.5q86 0 188 87zM448 394q0 21 -15.5 34.5
t-40.5 13.5q-51 0 -93 -48.5t-53 -101.5h12q78 0 134 30t56 72zM587 688l-184 -103l-156 108l42 62l130 -56l137 56z" />
    <glyph glyph-name="Gcircumflex" unicode="&#x11c;" horiz-adv-x="760" 
d="M828 349l-15 -81l-19 -4q-38 -9 -50.5 -22.5t-19.5 -49.5l-35 -192h-109l-11 51q-87 -64 -205 -64q-129 0 -208 80t-79 211q0 170 114.5 293t273.5 123q92 0 187 -53l19 40h55l42 -245l-74 -13q-11 23 -18.5 37t-28.5 43.5t-41.5 47.5t-53 32.5t-68.5 14.5
q-90 0 -155 -97t-65 -232q0 -86 39 -136t106 -50q62 0 110 39.5t48 89.5q0 10 -2 18t-6.5 13t-8.5 8.5t-12 6t-11.5 3.5t-12.5 3t-11 2l-11 2l14 81h322zM707 788l-46 -55l-143 50l-151 -50l-34 60l202 93z" />
    <glyph glyph-name="gcircumflex" unicode="&#x11d;" horiz-adv-x="620" 
d="M669 511l-75 -412q-6 -32 -12 -56t-18.5 -58t-29 -58.5t-44 -51.5t-61.5 -44t-83.5 -28t-108.5 -11q-94 0 -155 31.5t-61 79.5q0 31 25 52t62 21q47 0 68 -44q19 -48 81 -48q35 0 63.5 14t45 31.5t32 49.5t21.5 50.5t15 51.5q-25 -30 -38.5 -44.5t-46.5 -30t-73 -15.5
q-85 0 -141 60.5t-56 152.5q0 124 89.5 220t204.5 96q38 0 64.5 -9t68.5 -33l6 33h157zM492 401q-31 22 -48.5 29.5t-37.5 7.5q-38 0 -69 -26t-48.5 -66t-27 -82t-9.5 -78q0 -45 18.5 -70t52.5 -25q49 0 89.5 59t60.5 158zM566 647l-42 -62l-130 56l-137 -56l-31 67l184 103
z" />
    <glyph glyph-name="Gbreve" unicode="&#x11e;" horiz-adv-x="760" 
d="M828 349l-15 -81l-19 -4q-38 -9 -50.5 -22.5t-19.5 -49.5l-35 -192h-109l-11 51q-87 -64 -205 -64q-129 0 -208 80t-79 211q0 170 114.5 293t273.5 123q92 0 187 -53l19 40h55l42 -245l-74 -13q-11 23 -18.5 37t-28.5 43.5t-41.5 47.5t-53 32.5t-68.5 14.5
q-90 0 -155 -97t-65 -232q0 -86 39 -136t106 -50q62 0 110 39.5t48 89.5q0 10 -2 18t-6.5 13t-8.5 8.5t-12 6t-11.5 3.5t-12.5 3t-11 2l-11 2l14 81h322zM706 872q-16 -70 -61 -98t-134 -28q-86 0 -127 29t-51 97h80q12 -29 34 -40t69 -11q45 0 70 11.5t40 39.5h80z" />
    <glyph glyph-name="gbreve" unicode="&#x11f;" horiz-adv-x="620" 
d="M669 511l-75 -412q-6 -32 -12 -56t-18.5 -58t-29 -58.5t-44 -51.5t-61.5 -44t-83.5 -28t-108.5 -11q-94 0 -155 31.5t-61 79.5q0 31 25 52t62 21q47 0 68 -44q19 -48 81 -48q35 0 63.5 14t45 31.5t32 49.5t21.5 50.5t15 51.5q-25 -30 -38.5 -44.5t-46.5 -30t-73 -15.5
q-85 0 -141 60.5t-56 152.5q0 124 89.5 220t204.5 96q38 0 64.5 -9t68.5 -33l6 33h157zM492 401q-31 22 -48.5 29.5t-37.5 7.5q-38 0 -69 -26t-48.5 -66t-27 -82t-9.5 -78q0 -45 18.5 -70t52.5 -25q49 0 89.5 59t60.5 158zM564 740q-17 -80 -57.5 -110t-119.5 -30t-116 32
t-46 108h73q10 -32 30.5 -44.5t62.5 -12.5q41 0 63.5 13t36.5 44h73z" />
    <glyph glyph-name="Gdotaccent" unicode="&#x120;" horiz-adv-x="760" 
d="M828 349l-15 -81l-19 -4q-38 -9 -50.5 -22.5t-19.5 -49.5l-35 -192h-109l-11 51q-87 -64 -205 -64q-129 0 -208 80t-79 211q0 170 114.5 293t273.5 123q92 0 187 -53l19 40h55l42 -245l-74 -13q-11 23 -18.5 37t-28.5 43.5t-41.5 47.5t-53 32.5t-68.5 14.5
q-90 0 -155 -97t-65 -232q0 -86 39 -136t106 -50q62 0 110 39.5t48 89.5q0 10 -2 18t-6.5 13t-8.5 8.5t-12 6t-11.5 3.5t-12.5 3t-11 2l-11 2l14 81h322zM605 825q0 -37 -31 -68t-68 -31q-28 0 -47 19.5t-19 48.5q0 38 30 68t68 30q30 0 48.5 -18.5t18.5 -48.5z" />
    <glyph glyph-name="gdotaccent" unicode="&#x121;" horiz-adv-x="620" 
d="M669 511l-75 -412q-6 -32 -12 -56t-18.5 -58t-29 -58.5t-44 -51.5t-61.5 -44t-83.5 -28t-108.5 -11q-94 0 -155 31.5t-61 79.5q0 31 25 52t62 21q47 0 68 -44q19 -48 81 -48q35 0 63.5 14t45 31.5t32 49.5t21.5 50.5t15 51.5q-25 -30 -38.5 -44.5t-46.5 -30t-73 -15.5
q-85 0 -141 60.5t-56 152.5q0 124 89.5 220t204.5 96q38 0 64.5 -9t68.5 -33l6 33h157zM492 401q-31 22 -48.5 29.5t-37.5 7.5q-38 0 -69 -26t-48.5 -66t-27 -82t-9.5 -78q0 -45 18.5 -70t52.5 -25q49 0 89.5 59t60.5 158zM482 686q0 -37 -31 -68t-68 -31q-28 0 -47 19.5
t-19 48.5q0 38 30 68t68 30q30 0 48.5 -18.5t18.5 -48.5z" />
    <glyph glyph-name="Gcommaaccent" unicode="&#x122;" horiz-adv-x="760" 
d="M828 349l-15 -81l-19 -4q-38 -9 -50.5 -22.5t-19.5 -49.5l-35 -192h-109l-11 51q-87 -64 -205 -64q-129 0 -208 80t-79 211q0 170 114.5 293t273.5 123q92 0 187 -53l19 40h55l42 -245l-74 -13q-11 23 -18.5 37t-28.5 43.5t-41.5 47.5t-53 32.5t-68.5 14.5
q-90 0 -155 -97t-65 -232q0 -86 39 -136t106 -50q62 0 110 39.5t48 89.5q0 10 -2 18t-6.5 13t-8.5 8.5t-12 6t-11.5 3.5t-12.5 3t-11 2l-11 2l14 81h322zM436 -124q0 -50 -39.5 -106t-103.5 -98l-34 32q60 54 72 79q-6 -1 -13 -1q-28 0 -44 17.5t-16 46.5q0 41 32.5 72.5
t75.5 31.5q31 0 50.5 -20.5t19.5 -53.5z" />
    <glyph glyph-name="gcommaaccent" unicode="&#x123;" horiz-adv-x="620" 
d="M484 655q0 -41 -32.5 -72.5t-75.5 -31.5q-31 0 -50.5 20.5t-19.5 53.5q0 50 39.5 106t103.5 98l34 -32q-60 -54 -72 -79q6 1 13 1q28 0 44 -17.5t16 -46.5zM669 511l-75 -412q-6 -32 -12 -56t-18.5 -58t-29 -58.5t-44 -51.5t-61.5 -44t-83.5 -28t-108.5 -11
q-94 0 -155 31.5t-61 79.5q0 31 25 52t62 21q47 0 68 -44q19 -48 81 -48q35 0 63.5 14t45 31.5t32 49.5t21.5 50.5t15 51.5q-25 -30 -38.5 -44.5t-46.5 -30t-73 -15.5q-85 0 -141 60.5t-56 152.5q0 124 89.5 220t204.5 96q38 0 64.5 -9t68.5 -33l6 33h157zM492 401
q-31 22 -48.5 29.5t-37.5 7.5q-38 0 -69 -26t-48.5 -66t-27 -82t-9.5 -78q0 -45 18.5 -70t52.5 -25q49 0 89.5 59t60.5 158z" />
    <glyph glyph-name="Hcircumflex" unicode="&#x124;" horiz-adv-x="800" 
d="M801 81l-15 -81h-348l15 81l23 2q40 4 56 21t24 64l28 155h-250l-29 -155q-3 -19 -3 -34q0 -25 11.5 -36.5t41.5 -14.5l22 -2l-15 -81h-348l15 81l22 2q40 4 55.5 21t24.5 64l63 345q4 28 4 37q0 22 -11.5 33.5t-41.5 14.5l-22 2l14 81h348l-14 -81l-23 -2
q-39 -5 -55.5 -22t-24.5 -63l-18 -100h250l18 100q4 26 4 35q0 46 -53 50l-22 2l15 81h348l-15 -81l-22 -2q-40 -5 -55.5 -21.5t-24.5 -63.5l-63 -345q-4 -19 -4 -36q0 -23 12 -35t41 -14zM731 788l-46 -55l-143 50l-151 -50l-34 60l202 93z" />
    <glyph glyph-name="hcircumflex" unicode="&#x125;" horiz-adv-x="700" 
d="M736 61q-78 -70 -169 -70q-58 0 -93 28t-35 74q0 17 9 67l28 152q2 13 4 30.5t3 21.5q0 20 -18 32t-46 12q-55 0 -99 -29l-69 -379h-158l98 539q3 18 3 32q0 21 -12 31t-43 10h-12l15 82q104 0 189 38h53l-48 -264q78 52 165 52q66 0 107 -32t41 -84q0 -10 -3 -25
l-37 -202q-8 -41 -7 -50q0 -12 9.5 -20t23.5 -8q27 0 59 19zM691 839l-46 -55l-143 50l-151 -50l-34 60l202 93z" />
    <glyph glyph-name="Hbar" unicode="&#x126;" horiz-adv-x="800" 
d="M801 81l-15 -81h-348l15 81l23 2q40 4 56 21t24 64l28 155h-250l-29 -155q-3 -19 -3 -34q0 -25 11.5 -36.5t41.5 -14.5l22 -2l-15 -81h-348l15 81l22 2q40 4 55.5 21t24.5 64l54 295h-88l18 96h83q-5 34 -53 39l-22 2l14 81h348l-14 -81l-23 -2q-52 -7 -67 -39h240
q-5 35 -52 39l-22 2l15 81h348l-15 -81l-22 -2q-52 -7 -67 -39h82l-18 -96h-86l-54 -295q-4 -19 -4 -36q0 -23 12 -35t41 -14zM600 413l9 50h-250l-9 -50h250z" />
    <glyph glyph-name="hbar" unicode="&#x127;" horiz-adv-x="789" 
d="M760 61q-78 -70 -169 -70q-58 0 -93 28t-35 74q0 17 9 67l28 152q2 13 4 30.5t3 21.5q0 20 -18 32t-46 12q-55 0 -99 -29l-69 -379h-158l91 499l-81 -19l14 80l77 17q-3 35 -55 35h-12l15 82q104 0 189 38h53l-21 -116l103 24l-14 -79l-103 -24l-13 -69q78 52 165 52
q66 0 107 -32t41 -84q0 -10 -3 -25l-37 -202q-8 -41 -7 -50q0 -12 9.5 -20t23.5 -8q27 0 59 19z" />
    <glyph glyph-name="Itilde" unicode="&#x128;" horiz-adv-x="380" 
d="M376 81l-15 -81h-347l15 81l22 2q40 6 56 22.5t24 62.5l63 345q3 19 3 34q0 24 -11.5 36t-41.5 15l-21 2l14 81h348l-15 -81l-22 -2q-40 -4 -56 -21t-24 -64l-63 -345q-3 -19 -3 -34q0 -25 11.5 -37t41.5 -14zM512 830q-31 -50 -53.5 -66t-62.5 -16q-28 0 -74 16t-64 16
q-34 0 -55 -29l-46 36q23 45 50.5 64.5t67.5 19.5q34 0 77.5 -15.5t60.5 -15.5q19 0 28 4.5t25 22.5z" />
    <glyph glyph-name="itilde" unicode="&#x129;" horiz-adv-x="380" 
d="M420 65q-87 -74 -179 -74q-58 0 -94 27.5t-36 71.5q0 15 6 49l33 182q2 20 2 27q0 24 -13 35t-44 11h-12l15 82q98 5 192 35h52l-57 -316q-10 -60 -10 -61q0 -14 11.5 -24.5t27.5 -10.5q20 0 64 22zM469 691q-31 -50 -53.5 -66t-62.5 -16q-27 0 -73 16t-65 16
q-34 0 -55 -29l-46 36q23 45 50.5 64.5t67.5 19.5q34 0 77.5 -15.5t60.5 -15.5q19 0 28 4.5t25 22.5z" />
    <glyph glyph-name="Imacron" unicode="&#x12a;" horiz-adv-x="380" 
d="M376 81l-15 -81h-347l15 81l22 2q40 6 56 22.5t24 62.5l63 345q3 19 3 34q0 24 -11.5 36t-41.5 15l-21 2l14 81h348l-15 -81l-22 -2q-40 -4 -56 -21t-24 -64l-63 -345q-3 -19 -3 -34q0 -25 11.5 -37t41.5 -14zM512 853l-26 -88h-328l26 88h328z" />
    <glyph glyph-name="imacron" unicode="&#x12b;" horiz-adv-x="380" 
d="M420 65q-87 -74 -179 -74q-58 0 -94 27.5t-36 71.5q0 15 6 49l33 182q2 20 2 27q0 24 -13 35t-44 11h-12l15 82q98 5 192 35h52l-57 -316q-10 -60 -10 -61q0 -14 11.5 -24.5t27.5 -10.5q20 0 64 22zM469 714l-26 -88h-328l26 88h328z" />
    <glyph glyph-name="Ibreve" unicode="&#x12c;" horiz-adv-x="380" 
d="M376 81l-15 -81h-347l15 81l22 2q40 6 56 22.5t24 62.5l63 345q3 19 3 34q0 24 -11.5 36t-41.5 15l-21 2l14 81h348l-15 -81l-22 -2q-40 -4 -56 -21t-24 -64l-63 -345q-3 -19 -3 -34q0 -25 11.5 -37t41.5 -14zM518 872q-16 -70 -61 -98t-134 -28q-86 0 -127 29t-51 97h80
q12 -29 34 -40t69 -11q45 0 70 11.5t40 39.5h80z" />
    <glyph glyph-name="ibreve" unicode="&#x12d;" horiz-adv-x="380" 
d="M420 65q-87 -74 -179 -74q-58 0 -94 27.5t-36 71.5q0 15 6 49l33 182q2 20 2 27q0 24 -13 35t-44 11h-12l15 82q98 5 192 35h52l-57 -316q-10 -60 -10 -61q0 -14 11.5 -24.5t27.5 -10.5q20 0 64 22zM456 740q-17 -80 -57.5 -110t-119.5 -30t-116 32t-46 108h73
q10 -32 30.5 -44.5t62.5 -12.5q41 0 63.5 13t36.5 44h73z" />
    <glyph glyph-name="Iogonek" unicode="&#x12e;" horiz-adv-x="380" 
d="M334 -150q-30 -41 -75 -65.5t-92 -24.5q-53 0 -93 28t-40 70q0 75 103 142h-123l15 81l22 2q40 6 56 22.5t24 62.5l63 345q3 19 3 34q0 24 -11.5 36t-41.5 15l-21 2l14 81h348l-15 -81l-22 -2q-40 -4 -56 -21t-24 -64l-63 -345q-3 -19 -3 -34q0 -25 11.5 -37t41.5 -14
l21 -2l-15 -81h-36q-35 0 -56 -2t-46.5 -13.5t-38.5 -33.5q-14 -22 -14 -58q0 -21 15.5 -32.5t37.5 -11.5q30 0 69 32z" />
    <glyph glyph-name="iogonek" unicode="&#x12f;" horiz-adv-x="380" 
d="M381 -150q-30 -41 -75 -65.5t-92 -24.5q-53 0 -93 28t-40 70q0 72 102 142q-34 11 -53 34.5t-19 55.5q0 15 6 49l33 182q2 20 2 27q0 24 -13 35t-44 11h-12l15 82q98 5 192 35h52l-57 -316q-10 -60 -10 -61q0 -14 11.5 -24.5t27.5 -10.5q20 0 64 22l42 -56
q-50 -43 -107 -61q-65 -22 -82 -53q-14 -22 -14 -58q0 -21 15.5 -32.5t37.5 -11.5q30 0 69 32zM375 686q0 -37 -31 -68t-68 -31q-28 0 -47 19.5t-19 48.5q0 38 30 68t68 30q30 0 48.5 -18.5t18.5 -48.5z" />
    <glyph glyph-name="Idotaccent" unicode="&#x130;" horiz-adv-x="380" 
d="M376 81l-15 -81h-347l15 81l22 2q40 6 56 22.5t24 62.5l63 345q3 19 3 34q0 24 -11.5 36t-41.5 15l-21 2l14 81h348l-15 -81l-22 -2q-40 -4 -56 -21t-24 -64l-63 -345q-3 -19 -3 -34q0 -25 11.5 -37t41.5 -14zM417 825q0 -37 -31 -68t-68 -31q-28 0 -47 19.5t-19 48.5
q0 38 30 68t68 30q30 0 48.5 -18.5t18.5 -48.5z" />
    <glyph glyph-name="dotlessi" unicode="&#x131;" horiz-adv-x="380" 
d="M420 65q-87 -74 -179 -74q-58 0 -94 27.5t-36 71.5q0 15 6 49l33 182q2 20 2 27q0 24 -13 35t-44 11h-12l15 82q98 5 192 35h52l-57 -316q-10 -60 -10 -61q0 -14 11.5 -24.5t27.5 -10.5q20 0 64 22z" />
    <glyph glyph-name="Jcircumflex" unicode="&#x134;" horiz-adv-x="620" 
d="M721 681l-15 -81l-22 -2q-39 -4 -55 -21t-25 -64l-54 -293q-44 -233 -308 -233q-105 0 -169.5 49t-64.5 128q0 55 34 93.5t83 38.5q35 0 58.5 -22.5t23.5 -55.5q0 -39 -35 -64q-15 -11 -18.5 -15.5t-3.5 -12.5q0 -20 26 -35.5t60 -15.5q21 0 39 5t31.5 15.5t24 20
t18.5 27.5t13 28t9.5 30.5t6 26t4.5 23.5l48 262q0 3 1.5 15t1.5 18q0 24 -11.5 37t-41.5 15l-34 2l15 81h360zM755 788l-46 -55l-143 50l-151 -50l-34 60l202 93z" />
    <glyph glyph-name="jcircumflex" unicode="&#x135;" horiz-adv-x="320" 
d="M357 511l-87 -477q-4 -22 -7 -37t-12.5 -43t-21.5 -47t-33 -42.5t-47.5 -38t-66 -24.5t-87.5 -10q-67 0 -111 23.5t-44 59.5q0 28 22 49.5t50 21.5q41 0 76 -46q18 -26 38 -26q34 0 50.5 28.5t29.5 97.5l58 320q4 24 4 32q0 21 -13 31.5t-45 10.5h-12l15 82q98 5 192 35
h52zM473 647l-42 -62l-130 56l-137 -56l-31 67l184 103z" />
    <glyph glyph-name="Kcommaaccent" unicode="&#x136;" horiz-adv-x="780" 
d="M813 81l-15 -81h-358l14 81l11 2q63 8 63 32q0 13 -18 49l-89 171l-99 -75l-17 -92q-3 -19 -3 -35q0 -23 11 -35t42 -15l22 -2l-15 -81h-348l15 81l22 2q40 4 55.5 21t24.5 64l63 345q4 28 4 37q0 22 -11.5 33.5t-41.5 14.5l-22 2l14 81h349l-15 -81l-23 -2
q-39 -5 -55.5 -21.5t-24.5 -63.5l-24 -135l206 162q39 31 39 41q0 9 -35 15l-28 4l14 81h339l-15 -81q-59 -9 -102 -27t-95 -56l-108 -79l135 -247q34 -61 53 -79t66 -31zM462 -124q0 -50 -39.5 -106t-103.5 -98l-34 32q60 54 72 79q-6 -1 -13 -1q-28 0 -44 17.5t-16 46.5
q0 41 32.5 72.5t75.5 31.5q31 0 50.5 -20.5t19.5 -53.5z" />
    <glyph glyph-name="kcommaaccent" unicode="&#x137;" horiz-adv-x="700" 
d="M727 73q-27 -31 -85.5 -56.5t-101.5 -25.5q-80 0 -135 74q-28 36 -38.5 73t-10.5 96v9q-49 -54 -67 -119l-34 -124h-158l98 539q3 18 3 32q0 21 -12 31t-43 10h-12l15 82q104 0 189 38h53l-85 -471q73 116 154 177q109 82 193 82q36 0 59 -18t23 -46q0 -32 -21 -52.5
t-55 -20.5q-30 0 -61 21q-11 8 -19 8q-28 0 -79 -52q11 -94 23.5 -138.5t34.5 -75.5q28 -38 65 -38q19 0 56 19l9 5zM413 -124q0 -50 -39.5 -106t-103.5 -98l-34 32q60 54 72 79q-6 -1 -13 -1q-28 0 -44 17.5t-16 46.5q0 41 32.5 72.5t75.5 31.5q31 0 50.5 -20.5t19.5 -53.5
z" />
    <glyph glyph-name="Lacute" unicode="&#x139;" horiz-adv-x="640" 
d="M725 234l-118 -234h-593l15 81l22 2q39 4 55.5 21.5t24.5 63.5l63 345q2 12 4 37q0 22 -11.5 33.5t-41.5 14.5l-22 2l14 81h361l-15 -81l-35 -2q-39 -5 -55.5 -22t-24.5 -63l-63 -346q-4 -21 -4 -40q0 -21 12.5 -29.5t46.5 -8.5q53 0 103.5 19.5t88 51t62 58.5t42.5 53z
M481 839q0 -40 -74 -72q-32 -13 -135 -42l-45 39q52 58 105 100q39 29 73 29q32 0 54 -15.5t22 -38.5z" />
    <glyph glyph-name="lacute" unicode="&#x13a;" horiz-adv-x="380" 
d="M410 57q-84 -66 -171 -66q-59 0 -94.5 25.5t-35.5 67.5q0 14 4 33l76 422q4 16 4 31q0 42 -56 42h-11l14 82q105 0 189 38h54l-104 -572q-3 -15 -3 -26q0 -15 10.5 -25t25.5 -10q22 0 58 18zM468 890q0 -40 -74 -72q-32 -13 -135 -42l-45 39q52 58 105 100q39 29 73 29
q32 0 54 -15.5t22 -38.5z" />
    <glyph glyph-name="Lcommaaccent" unicode="&#x13b;" horiz-adv-x="640" 
d="M725 234l-118 -234h-593l15 81l22 2q39 4 55.5 21.5t24.5 63.5l63 345q2 12 4 37q0 22 -11.5 33.5t-41.5 14.5l-22 2l14 81h361l-15 -81l-35 -2q-39 -5 -55.5 -22t-24.5 -63l-63 -346q-4 -21 -4 -40q0 -21 12.5 -29.5t46.5 -8.5q53 0 103.5 19.5t88 51t62 58.5t42.5 53z
M381 -124q0 -50 -39.5 -106t-103.5 -98l-34 32q60 54 72 79q-6 -1 -13 -1q-28 0 -44 17.5t-16 46.5q0 41 32.5 72.5t75.5 31.5q31 0 50.5 -20.5t19.5 -53.5z" />
    <glyph glyph-name="lcommaaccent" unicode="&#x13c;" horiz-adv-x="380" 
d="M410 57q-84 -66 -171 -66q-59 0 -94.5 25.5t-35.5 67.5q0 14 4 33l76 422q4 16 4 31q0 42 -56 42h-11l14 82q105 0 189 38h54l-104 -572q-3 -15 -3 -26q0 -15 10.5 -25t25.5 -10q22 0 58 18zM232 -124q0 -50 -39.5 -106t-103.5 -98l-34 32q60 54 72 79q-6 -1 -13 -1
q-28 0 -44 17.5t-16 46.5q0 41 32.5 72.5t75.5 31.5q31 0 50.5 -20.5t19.5 -53.5z" />
    <glyph glyph-name="Lcaron" unicode="&#x13d;" horiz-adv-x="640" 
d="M725 234l-118 -234h-593l15 81l22 2q39 4 55.5 21.5t24.5 63.5l63 345q2 12 4 37q0 22 -11.5 33.5t-41.5 14.5l-22 2l14 81h361l-15 -81l-35 -2q-39 -5 -55.5 -22t-24.5 -63l-63 -346q-4 -21 -4 -40q0 -21 12.5 -29.5t46.5 -8.5q53 0 103.5 19.5t88 51t62 58.5t42.5 53z
M699 607q0 -50 -39.5 -106t-103.5 -98l-34 32q60 54 72 79q-6 -1 -13 -1q-28 0 -44 17.5t-16 46.5q0 41 32.5 72.5t75.5 31.5q31 0 50.5 -20.5t19.5 -53.5z" />
    <glyph glyph-name="lcaron" unicode="&#x13e;" horiz-adv-x="380" 
d="M410 57q-84 -66 -171 -66q-59 0 -94.5 25.5t-35.5 67.5q0 14 4 33l76 422q4 16 4 31q0 42 -56 42h-11l14 82q105 0 189 38h54l-104 -572q-3 -15 -3 -26q0 -15 10.5 -25t25.5 -10q22 0 58 18zM584 658q0 -50 -39.5 -106t-103.5 -98l-34 32q60 54 72 79q-6 -1 -13 -1
q-28 0 -44 17.5t-16 46.5q0 41 32.5 72.5t75.5 31.5q31 0 50.5 -20.5t19.5 -53.5z" />
    <glyph glyph-name="Ldot" unicode="&#x13f;" horiz-adv-x="640" 
d="M725 234l-118 -234h-593l15 81l22 2q39 4 55.5 21.5t24.5 63.5l63 345q2 12 4 37q0 22 -11.5 33.5t-41.5 14.5l-22 2l14 81h361l-15 -81l-35 -2q-39 -5 -55.5 -22t-24.5 -63l-63 -346q-4 -21 -4 -40q0 -21 12.5 -29.5t46.5 -8.5q53 0 103.5 19.5t88 51t62 58.5t42.5 53z
M660 395q0 -37 -31 -68t-68 -31q-28 0 -47 19.5t-19 48.5q0 38 30 68t68 30q30 0 48.5 -18.5t18.5 -48.5z" />
    <glyph glyph-name="ldot" unicode="&#x140;" horiz-adv-x="512" 
d="M410 57q-84 -66 -171 -66q-59 0 -94.5 25.5t-35.5 67.5q0 14 4 33l76 422q4 16 4 31q0 42 -56 42h-11l14 82q105 0 189 38h54l-104 -572q-3 -15 -3 -26q0 -15 10.5 -25t25.5 -10q22 0 58 18zM578 395q0 -37 -31 -68t-68 -31q-28 0 -47 19.5t-19 48.5q0 38 30 68t68 30
q30 0 48.5 -18.5t18.5 -48.5z" />
    <glyph glyph-name="Lslash" unicode="&#x141;" horiz-adv-x="640" 
d="M725 234l-118 -234h-593l15 81l22 2q39 4 55 21t25 64l17 94l-94 -39l17 94l94 39l29 157q2 12 4 37q0 22 -11.5 33.5t-41.5 14.5l-22 2l14 81h361l-15 -81l-35 -2q-39 -5 -55.5 -22t-24.5 -63l-16 -87l165 69l-17 -94l-165 -69l-30 -165q-4 -19 -4 -36q0 -22 12 -32
t41 -10q55 0 106.5 19.5t89.5 50.5t62.5 58t43.5 54z" />
    <glyph glyph-name="lslash" unicode="&#x142;" horiz-adv-x="380" 
d="M410 57q-84 -66 -171 -66q-59 0 -94.5 25.5t-35.5 67.5q0 14 4 33l33 184l-87 -56l20 106l86 55l24 133q4 16 4 31q0 42 -56 42h-11l14 82q105 0 189 38h54l-40 -221l112 72l-20 -106l-111 -72l-45 -245q-3 -15 -3 -26q0 -15 10.5 -25t25.5 -10q22 0 58 18z" />
    <glyph glyph-name="Nacute" unicode="&#x143;" horiz-adv-x="740" 
d="M845 681l-15 -81l-22 -2q-40 -5 -56.5 -21.5t-24.5 -63.5l-93 -513h-124l-214 549l-69 -381q-4 -17 -4 -33q0 -47 53 -52l22 -2l-15 -81h-269l15 81l22 2q40 5 56.5 21.5t24.5 63.5l62 345q4 28 4 36q0 23 -12 35t-41 14l-22 2l15 81h289l159 -425l46 257q4 28 4 35
q0 25 -13 36.5t-40 13.5l-22 2l15 81h269zM655 839q0 -40 -74 -72q-32 -13 -135 -42l-45 39q52 58 105 100q39 29 73 29q32 0 54 -15.5t22 -38.5z" />
    <glyph glyph-name="nacute" unicode="&#x144;" 
d="M715 59q-82 -68 -158 -68q-55 0 -90 27t-35 71q0 23 5 45l39 207q1 6 1 18q0 23 -16 36t-45 13q-54 0 -99 -35l-68 -373h-158l59 321q2 20 2 27q0 24 -13 35t-44 11h-12l15 82q98 5 192 35h52l-9 -51q32 27 77.5 43.5t88.5 16.5q63 0 103.5 -30.5t40.5 -77.5
q0 -13 -7 -54l-31 -175q-8 -48 -8 -50q0 -34 37 -34q16 0 42 16zM582 703q0 -38 -38.5 -63.5t-151.5 -63.5l-41 44q53 70 92 106.5t70 36.5q29 0 49 -17.5t20 -42.5z" />
    <glyph glyph-name="Ncommaaccent" unicode="&#x145;" horiz-adv-x="740" 
d="M845 681l-15 -81l-22 -2q-40 -5 -56.5 -21.5t-24.5 -63.5l-93 -513h-124l-214 549l-69 -381q-4 -17 -4 -33q0 -47 53 -52l22 -2l-15 -81h-269l15 81l22 2q40 5 56.5 21.5t24.5 63.5l62 345q4 28 4 36q0 23 -12 35t-41 14l-22 2l15 81h289l159 -425l46 257q4 28 4 35
q0 25 -13 36.5t-40 13.5l-22 2l15 81h269zM429 -124q0 -50 -39.5 -106t-103.5 -98l-34 32q60 54 72 79q-6 -1 -13 -1q-28 0 -44 17.5t-16 46.5q0 41 32.5 72.5t75.5 31.5q31 0 50.5 -20.5t19.5 -53.5z" />
    <glyph glyph-name="ncommaaccent" unicode="&#x146;" 
d="M715 59q-82 -68 -158 -68q-55 0 -90 27t-35 71q0 23 5 45l39 207q1 6 1 18q0 23 -16 36t-45 13q-54 0 -99 -35l-68 -373h-158l59 321q2 20 2 27q0 24 -13 35t-44 11h-12l15 82q98 5 192 35h52l-9 -51q32 27 77.5 43.5t88.5 16.5q63 0 103.5 -30.5t40.5 -77.5
q0 -13 -7 -54l-31 -175q-8 -48 -8 -50q0 -34 37 -34q16 0 42 16zM393 -124q0 -50 -39.5 -106t-103.5 -98l-34 32q60 54 72 79q-6 -1 -13 -1q-28 0 -44 17.5t-16 46.5q0 41 32.5 72.5t75.5 31.5q31 0 50.5 -20.5t19.5 -53.5z" />
    <glyph glyph-name="Ncaron" unicode="&#x147;" horiz-adv-x="740" 
d="M845 681l-15 -81l-22 -2q-40 -5 -56.5 -21.5t-24.5 -63.5l-93 -513h-124l-214 549l-69 -381q-4 -17 -4 -33q0 -47 53 -52l22 -2l-15 -81h-269l15 81l22 2q40 5 56.5 21.5t24.5 63.5l62 345q4 28 4 36q0 23 -12 35t-41 14l-22 2l15 81h289l159 -425l46 257q4 28 4 35
q0 25 -13 36.5t-40 13.5l-22 2l15 81h269zM705 826l-202 -93l-172 98l46 55l143 -50l151 50z" />
    <glyph glyph-name="ncaron" unicode="&#x148;" 
d="M715 59q-82 -68 -158 -68q-55 0 -90 27t-35 71q0 23 5 45l39 207q1 6 1 18q0 23 -16 36t-45 13q-54 0 -99 -35l-68 -373h-158l59 321q2 20 2 27q0 24 -13 35t-44 11h-12l15 82q98 5 192 35h52l-9 -51q32 27 77.5 43.5t88.5 16.5q63 0 103.5 -30.5t40.5 -77.5
q0 -13 -7 -54l-31 -175q-8 -48 -8 -50q0 -34 37 -34q16 0 42 16zM622 688l-184 -103l-156 108l42 62l130 -56l137 56z" />
    <glyph glyph-name="Eng" unicode="&#x14a;" horiz-adv-x="740" 
d="M845 681l-15 -81l-22 -2q-40 -5 -56.5 -21.5t-24.5 -63.5l-93 -513q-17 -91 -106 -149.5t-196 -58.5q-67 0 -111 23.5t-44 59.5q0 28 22 49.5t50 21.5q41 0 76 -46q18 -26 38 -26q51 0 94 37t53 89l-214 549l-69 -381q-4 -17 -4 -33q0 -47 53 -52l22 -2l-15 -81h-269
l15 81l22 2q40 5 56.5 21.5t24.5 63.5l62 345q4 28 4 36q0 23 -12 35t-41 14l-22 2l15 81h289l159 -425l46 257q4 28 4 35q0 25 -13 36.5t-40 13.5l-22 2l15 81h269z" />
    <glyph glyph-name="eng" unicode="&#x14b;" 
d="M605 183q-14 -75 -39.5 -142.5t-62 -124.5t-89 -90.5t-112.5 -33.5q-67 0 -111 23.5t-44 59.5q0 28 22 49.5t50 21.5q41 0 76 -46q18 -26 38 -26t36 21t29.5 67t20 76t17.5 91q1 3 1 5l39 207q1 6 1 18q0 23 -16 36t-45 13q-54 0 -99 -35l-68 -373h-158l59 321q2 20 2 27
q0 24 -13 35t-44 11h-12l15 82q98 5 192 35h52l-9 -51q32 27 77.5 43.5t88.5 16.5q63 0 103.5 -30.5t40.5 -77.5q0 -13 -7 -54z" />
    <glyph glyph-name="Omacron" unicode="&#x14c;" horiz-adv-x="760" 
d="M806 386q0 -67 -27.5 -136t-77 -128.5t-130.5 -97t-177 -37.5q-141 0 -228.5 84t-87.5 220q0 167 118 285t289 118q145 0 233 -84.5t88 -223.5zM613 412q0 91 -36.5 140.5t-103.5 49.5q-85 0 -146 -99.5t-61 -237.5q0 -85 36 -133.5t98 -48.5q48 0 87 26t61.5 64.5
t38 85.5t21 85t5.5 68zM702 853l-26 -88h-328l26 88h328z" />
    <glyph glyph-name="omacron" unicode="&#x14d;" horiz-adv-x="600" 
d="M627 308q0 -29 -8.5 -66t-31.5 -82t-58 -82t-94.5 -62t-133.5 -25q-112 0 -177 55t-65 149q0 34 8.5 72.5t31.5 84.5t58 82.5t94 61t133 24.5q117 0 180 -55t63 -157zM459 337q0 50 -19 72.5t-60 22.5q-43 0 -75 -34.5t-46 -84.5t-20.5 -87.5t-6.5 -60.5q0 -41 20 -63.5
t57 -22.5q44 0 76.5 35t47 84t20.5 85t6 54zM595 714l-26 -88h-328l26 88h328z" />
    <glyph glyph-name="Obreve" unicode="&#x14e;" horiz-adv-x="760" 
d="M806 386q0 -67 -27.5 -136t-77 -128.5t-130.5 -97t-177 -37.5q-141 0 -228.5 84t-87.5 220q0 167 118 285t289 118q145 0 233 -84.5t88 -223.5zM613 412q0 91 -36.5 140.5t-103.5 49.5q-85 0 -146 -99.5t-61 -237.5q0 -85 36 -133.5t98 -48.5q48 0 87 26t61.5 64.5
t38 85.5t21 85t5.5 68zM708 872q-16 -70 -61 -98t-134 -28q-86 0 -127 29t-51 97h80q12 -29 34 -40t69 -11q45 0 70 11.5t40 39.5h80z" />
    <glyph glyph-name="obreve" unicode="&#x14f;" horiz-adv-x="600" 
d="M627 308q0 -29 -8.5 -66t-31.5 -82t-58 -82t-94.5 -62t-133.5 -25q-112 0 -177 55t-65 149q0 34 8.5 72.5t31.5 84.5t58 82.5t94 61t133 24.5q117 0 180 -55t63 -157zM459 337q0 50 -19 72.5t-60 22.5q-43 0 -75 -34.5t-46 -84.5t-20.5 -87.5t-6.5 -60.5q0 -41 20 -63.5
t57 -22.5q44 0 76.5 35t47 84t20.5 85t6 54zM582 740q-17 -80 -57.5 -110t-119.5 -30t-116 32t-46 108h73q10 -32 30.5 -44.5t62.5 -12.5q41 0 63.5 13t36.5 44h73z" />
    <glyph glyph-name="Ohungarumlaut" unicode="&#x150;" horiz-adv-x="760" 
d="M806 386q0 -67 -27.5 -136t-77 -128.5t-130.5 -97t-177 -37.5q-141 0 -228.5 84t-87.5 220q0 167 118 285t289 118q145 0 233 -84.5t88 -223.5zM613 412q0 91 -36.5 140.5t-103.5 49.5q-85 0 -146 -99.5t-61 -237.5q0 -85 36 -133.5t98 -48.5q48 0 87 26t61.5 64.5
t38 85.5t21 85t5.5 68zM796 868q0 -33 -35 -59.5t-138 -72.5l-45 40q77 102 102 126.5t54 24.5q26 0 44 -17t18 -42zM569 868q0 -34 -34.5 -60t-138.5 -72l-45 40q77 102 102 126.5t54 24.5q26 0 44 -17t18 -42z" />
    <glyph glyph-name="ohungarumlaut" unicode="&#x151;" horiz-adv-x="600" 
d="M627 308q0 -29 -8.5 -66t-31.5 -82t-58 -82t-94.5 -62t-133.5 -25q-112 0 -177 55t-65 149q0 34 8.5 72.5t31.5 84.5t58 82.5t94 61t133 24.5q117 0 180 -55t63 -157zM459 337q0 50 -19 72.5t-60 22.5q-43 0 -75 -34.5t-46 -84.5t-20.5 -87.5t-6.5 -60.5q0 -41 20 -63.5
t57 -22.5q44 0 76.5 35t47 84t20.5 85t6 54zM685 707q0 -33 -35 -59.5t-138 -72.5l-45 40q77 102 102 126.5t54 24.5q26 0 44 -17t18 -42zM458 707q0 -34 -34.5 -60t-138.5 -72l-45 40q77 102 102 126.5t54 24.5q26 0 44 -17t18 -42z" />
    <glyph glyph-name="OE" unicode="&#x152;" horiz-adv-x="1180" 
d="M1229 221l-111 -221h-536l9 51q-83 -64 -188 -64q-136 0 -222.5 85t-86.5 218q0 115 57 209t147 144.5t192 50.5q117 0 206 -65l10 52h486l53 -217l-66 -24q-70 159 -230 159q-37 0 -60 -6.5t-34 -22t-14.5 -25.5t-7.5 -34l-19 -104q16 -1 36 -1q56 0 79.5 21t37.5 84h70
l-56 -305h-70q1 34 -0.5 50t-11 33.5t-31.5 23.5t-61 6h-9l-31 -169q-1 -4 -4 -31q0 -20 16.5 -27.5t64.5 -7.5q87 0 163.5 41t157.5 131zM632 412q0 91 -37 140.5t-105 49.5q-64 0 -113.5 -54.5t-72.5 -130t-23 -153.5q0 -85 36 -133t99 -48q90 0 153 95.5t63 233.5z" />
    <glyph glyph-name="oe" unicode="&#x153;" horiz-adv-x="920" 
d="M930 119q-125 -128 -276 -128q-86 0 -164 62q-63 -36 -105 -49t-97 -13q-110 0 -175 55t-65 149q0 38 10 80t34.5 86.5t59.5 79t91.5 57t125.5 22.5q113 0 193 -71q103 71 219 71q82 0 131 -33.5t49 -89.5q0 -59 -51.5 -100t-125.5 -58t-162 -17q-14 0 -25 1
q-3 -24 -3 -40q0 -44 27 -72t70 -28q36 0 74.5 17t57 31t58.5 46zM813 394q0 22 -15.5 35t-40.5 13q-51 0 -92.5 -48t-53.5 -102h12q78 0 134 30t56 72zM445 335q0 50 -19 73.5t-59 23.5q-42 0 -73.5 -34.5t-46 -83.5t-20.5 -87.5t-6 -62.5q0 -40 20 -62.5t55 -22.5
q65 0 107 81t42 175z" />
    <glyph glyph-name="Racute" unicode="&#x154;" horiz-adv-x="740" 
d="M765 81l-15 -81h-203l-143 299h-75l-24 -131q-3 -19 -3 -34q0 -25 11.5 -36.5t41.5 -14.5l22 -2l-15 -81h-348l15 81l22 2q40 4 55.5 21t24.5 64l63 345q4 28 4 37q0 22 -11.5 33.5t-41.5 14.5l-22 2l14 81h375q60 0 103 -6.5t77.5 -23.5t52 -48t17.5 -77q0 -66 -45 -124
t-135 -78l73 -151q29 -53 45.5 -67.5t64.5 -24.5zM576 517q0 83 -119 83q-20 0 -34.5 -3t-22 -5t-13.5 -11.5t-7.5 -11t-4.5 -16.5t-3 -16l-26 -146q8 -1 17 -1q106 0 159.5 26.5t53.5 100.5zM635 839q0 -40 -74 -72q-32 -13 -135 -42l-45 39q52 58 105 100q39 29 73 29
q32 0 54 -15.5t22 -38.5z" />
    <glyph glyph-name="racute" unicode="&#x155;" horiz-adv-x="500" 
d="M582 442q0 -35 -26 -59t-64 -24q-32 0 -64 24q-17 13 -29 13q-63 0 -104 -169l-45 -227h-158l59 321q2 20 2 27q0 24 -13 35t-44 11h-12l15 82q98 5 192 35h52l-14 -76q68 85 155 85q43 0 70.5 -22t27.5 -56zM500 703q0 -38 -38.5 -63.5t-151.5 -63.5l-41 44
q53 70 92 106.5t70 36.5q29 0 49 -17.5t20 -42.5z" />
    <glyph glyph-name="Rcommaaccent" unicode="&#x156;" horiz-adv-x="740" 
d="M765 81l-15 -81h-203l-143 299h-75l-24 -131q-3 -19 -3 -34q0 -25 11.5 -36.5t41.5 -14.5l22 -2l-15 -81h-348l15 81l22 2q40 4 55.5 21t24.5 64l63 345q4 28 4 37q0 22 -11.5 33.5t-41.5 14.5l-22 2l14 81h375q60 0 103 -6.5t77.5 -23.5t52 -48t17.5 -77q0 -66 -45 -124
t-135 -78l73 -151q29 -53 45.5 -67.5t64.5 -24.5zM576 517q0 83 -119 83q-20 0 -34.5 -3t-22 -5t-13.5 -11.5t-7.5 -11t-4.5 -16.5t-3 -16l-26 -146q8 -1 17 -1q106 0 159.5 26.5t53.5 100.5zM409 -124q0 -50 -39.5 -106t-103.5 -98l-34 32q60 54 72 79q-6 -1 -13 -1
q-28 0 -44 17.5t-16 46.5q0 41 32.5 72.5t75.5 31.5q31 0 50.5 -20.5t19.5 -53.5z" />
    <glyph glyph-name="rcommaaccent" unicode="&#x157;" horiz-adv-x="500" 
d="M582 442q0 -35 -26 -59t-64 -24q-32 0 -64 24q-17 13 -29 13q-63 0 -104 -169l-45 -227h-158l59 321q2 20 2 27q0 24 -13 35t-44 11h-12l15 82q98 5 192 35h52l-14 -76q68 85 155 85q43 0 70.5 -22t27.5 -56zM234 -124q0 -50 -39.5 -106t-103.5 -98l-34 32q60 54 72 79
q-6 -1 -13 -1q-28 0 -44 17.5t-16 46.5q0 41 32.5 72.5t75.5 31.5q31 0 50.5 -20.5t19.5 -53.5z" />
    <glyph glyph-name="Rcaron" unicode="&#x158;" horiz-adv-x="740" 
d="M765 81l-15 -81h-203l-143 299h-75l-24 -131q-3 -19 -3 -34q0 -25 11.5 -36.5t41.5 -14.5l22 -2l-15 -81h-348l15 81l22 2q40 4 55.5 21t24.5 64l63 345q4 28 4 37q0 22 -11.5 33.5t-41.5 14.5l-22 2l14 81h375q60 0 103 -6.5t77.5 -23.5t52 -48t17.5 -77q0 -66 -45 -124
t-135 -78l73 -151q29 -53 45.5 -67.5t64.5 -24.5zM576 517q0 83 -119 83q-20 0 -34.5 -3t-22 -5t-13.5 -11.5t-7.5 -11t-4.5 -16.5t-3 -16l-26 -146q8 -1 17 -1q106 0 159.5 26.5t53.5 100.5zM685 826l-202 -93l-172 98l46 55l143 -50l151 50z" />
    <glyph glyph-name="rcaron" unicode="&#x159;" horiz-adv-x="500" 
d="M582 442q0 -35 -26 -59t-64 -24q-32 0 -64 24q-17 13 -29 13q-63 0 -104 -169l-45 -227h-158l59 321q2 20 2 27q0 24 -13 35t-44 11h-12l15 82q98 5 192 35h52l-14 -76q68 85 155 85q43 0 70.5 -22t27.5 -56zM540 688l-184 -103l-156 108l42 62l130 -56l137 56z" />
    <glyph glyph-name="Sacute" unicode="&#x15a;" horiz-adv-x="700" 
d="M731 228q0 -101 -93.5 -171t-227.5 -70q-125 0 -219 58l-22 -45h-66l-44 256l77 13q69 -194 254 -194q63 0 103.5 27.5t40.5 69.5q0 10 -2 19t-5.5 16t-9 13t-10 10t-12 8t-12 6.5t-12.5 5t-11 3t-10 1.5l-6 2l-130 31q-95 23 -138 63q-54 49 -54 127q0 95 82 156t210 61
q120 0 217 -56l21 43h71v-229h-76q-50 154 -211 154q-54 0 -90.5 -23t-36.5 -57q0 -14 6.5 -25t13.5 -17.5t25.5 -13.5t27 -9t33.5 -9l126 -33q72 -19 108 -43q81 -54 82 -148zM637 839q0 -40 -74 -72q-32 -13 -135 -42l-45 39q52 58 105 100q39 29 73 29q32 0 54 -15.5
t22 -38.5z" />
    <glyph glyph-name="sacute" unicode="&#x15b;" horiz-adv-x="540" 
d="M554 183q0 -81 -83.5 -136.5t-205.5 -55.5q-119 0 -194 48q-39 25 -39 64q0 26 19 43t47 17q27 0 46 -11.5t48 -43.5q29 -35 75 -35q39 0 64.5 18.5t25.5 46.5q0 19 -12.5 30t-45.5 21l-71 20q-68 20 -99.5 51t-31.5 78q0 79 73.5 130.5t186.5 51.5q91 0 153.5 -30
t62.5 -74q0 -23 -17.5 -39t-43.5 -16q-24 0 -40.5 9.5t-38.5 36.5q-26 31 -73 31q-32 0 -51 -14.5t-19 -38.5q0 -8 1.5 -14.5t6.5 -12t8.5 -9t12 -7t11.5 -5t14.5 -5t13.5 -4.5l79 -25q117 -36 117 -120zM515 703q0 -38 -38.5 -63.5t-151.5 -63.5l-41 44q53 70 92 106.5
t70 36.5q29 0 49 -17.5t20 -42.5z" />
    <glyph glyph-name="Scircumflex" unicode="&#x15c;" horiz-adv-x="700" 
d="M731 228q0 -101 -93.5 -171t-227.5 -70q-125 0 -219 58l-22 -45h-66l-44 256l77 13q69 -194 254 -194q63 0 103.5 27.5t40.5 69.5q0 10 -2 19t-5.5 16t-9 13t-10 10t-12 8t-12 6.5t-12.5 5t-11 3t-10 1.5l-6 2l-130 31q-95 23 -138 63q-54 49 -54 127q0 95 82 156t210 61
q120 0 217 -56l21 43h71v-229h-76q-50 154 -211 154q-54 0 -90.5 -23t-36.5 -57q0 -14 6.5 -25t13.5 -17.5t25.5 -13.5t27 -9t33.5 -9l126 -33q72 -19 108 -43q81 -54 82 -148zM681 788l-46 -55l-143 50l-151 -50l-34 60l202 93z" />
    <glyph glyph-name="scircumflex" unicode="&#x15d;" horiz-adv-x="540" 
d="M554 183q0 -81 -83.5 -136.5t-205.5 -55.5q-119 0 -194 48q-39 25 -39 64q0 26 19 43t47 17q27 0 46 -11.5t48 -43.5q29 -35 75 -35q39 0 64.5 18.5t25.5 46.5q0 19 -12.5 30t-45.5 21l-71 20q-68 20 -99.5 51t-31.5 78q0 79 73.5 130.5t186.5 51.5q91 0 153.5 -30
t62.5 -74q0 -23 -17.5 -39t-43.5 -16q-24 0 -40.5 9.5t-38.5 36.5q-26 31 -73 31q-32 0 -51 -14.5t-19 -38.5q0 -8 1.5 -14.5t6.5 -12t8.5 -9t12 -7t11.5 -5t14.5 -5t13.5 -4.5l79 -25q117 -36 117 -120zM553 647l-42 -62l-130 56l-137 -56l-31 67l184 103z" />
    <glyph glyph-name="Scedilla" unicode="&#x15e;" horiz-adv-x="700" 
d="M731 228q0 -99 -91 -169t-223 -72l-15 -35h34q29 0 51 -21.5t22 -49.5q0 -47 -38 -71.5t-96 -24.5q-44 0 -70.5 14.5t-26.5 38.5q0 16 11 27.5t26 11.5q12 0 27 -20t34 -20q45 0 45 39q0 15 -8 25.5t-21 10.5t-24 -5l-24 24l25 58q-100 8 -178 56l-22 -45h-66l-44 256
l77 13q69 -194 254 -194q63 0 103.5 27.5t40.5 69.5q0 10 -2 19t-5.5 16t-9 13t-10 10t-12 8t-12 6.5t-12.5 5t-11 3t-10 1.5l-6 2l-130 31q-95 23 -138 63q-54 49 -54 127q0 95 82 156t210 61q120 0 217 -56l21 43h71v-229h-76q-50 154 -211 154q-54 0 -90.5 -23t-36.5 -57
q0 -14 6.5 -25t13.5 -17.5t25.5 -13.5t27 -9t33.5 -9l126 -33q72 -19 108 -43q81 -54 82 -148z" />
    <glyph glyph-name="scedilla" unicode="&#x15f;" horiz-adv-x="540" 
d="M554 183q0 -75 -72.5 -129t-182.5 -62l-17 -40h34q29 0 51 -21.5t22 -49.5q0 -47 -38 -71.5t-96 -24.5q-44 0 -70.5 14.5t-26.5 38.5q0 16 11 27.5t26 11.5q12 0 27 -20t34 -20q45 0 45 39q0 15 -8 25.5t-21 10.5t-24 -5l-24 24l27 60q-110 3 -180 48q-39 25 -39 64
q0 26 19 43t47 17q27 0 46 -11.5t48 -43.5q29 -35 75 -35q39 0 64.5 18.5t25.5 46.5q0 19 -12.5 30t-45.5 21l-71 20q-68 20 -99.5 51t-31.5 78q0 79 73.5 130.5t186.5 51.5q91 0 153.5 -30t62.5 -74q0 -23 -17.5 -39t-43.5 -16q-24 0 -40.5 9.5t-38.5 36.5q-26 31 -73 31
q-32 0 -51 -14.5t-19 -38.5q0 -8 1.5 -14.5t6.5 -12t8.5 -9t12 -7t11.5 -5t14.5 -5t13.5 -4.5l79 -25q117 -36 117 -120z" />
    <glyph glyph-name="Scaron" unicode="&#x160;" horiz-adv-x="700" 
d="M731 228q0 -101 -93.5 -171t-227.5 -70q-125 0 -219 58l-22 -45h-66l-44 256l77 13q69 -194 254 -194q63 0 103.5 27.5t40.5 69.5q0 10 -2 19t-5.5 16t-9 13t-10 10t-12 8t-12 6.5t-12.5 5t-11 3t-10 1.5l-6 2l-130 31q-95 23 -138 63q-54 49 -54 127q0 95 82 156t210 61
q120 0 217 -56l21 43h71v-229h-76q-50 154 -211 154q-54 0 -90.5 -23t-36.5 -57q0 -14 6.5 -25t13.5 -17.5t25.5 -13.5t27 -9t33.5 -9l126 -33q72 -19 108 -43q81 -54 82 -148zM687 826l-202 -93l-172 98l46 55l143 -50l151 50z" />
    <glyph glyph-name="scaron" unicode="&#x161;" horiz-adv-x="540" 
d="M554 183q0 -81 -83.5 -136.5t-205.5 -55.5q-119 0 -194 48q-39 25 -39 64q0 26 19 43t47 17q27 0 46 -11.5t48 -43.5q29 -35 75 -35q39 0 64.5 18.5t25.5 46.5q0 19 -12.5 30t-45.5 21l-71 20q-68 20 -99.5 51t-31.5 78q0 79 73.5 130.5t186.5 51.5q91 0 153.5 -30
t62.5 -74q0 -23 -17.5 -39t-43.5 -16q-24 0 -40.5 9.5t-38.5 36.5q-26 31 -73 31q-32 0 -51 -14.5t-19 -38.5q0 -8 1.5 -14.5t6.5 -12t8.5 -9t12 -7t11.5 -5t14.5 -5t13.5 -4.5l79 -25q117 -36 117 -120zM555 688l-184 -103l-156 108l42 62l130 -56l137 56z" />
    <glyph glyph-name="Tcedilla" unicode="&#x162;" horiz-adv-x="700" 
d="M802 464l-72 -16q-28 73 -75 110t-117 42l-79 -432q-3 -19 -3 -34q0 -28 13.5 -38.5t48.5 -12.5l32 -2l-14 -81h-163l-21 -48h34q29 0 51 -21.5t22 -49.5q0 -47 -38 -71.5t-96 -24.5q-44 0 -70.5 14.5t-26.5 38.5q0 16 11 27.5t26 11.5q12 0 27 -20t34 -20q45 0 45 39
q0 15 -8 25.5t-21 10.5t-24 -5l-24 24l30 69h-176l14 81l33 2q45 3 63 19.5t27 65.5l79 432q-78 -6 -127 -37.5t-108 -114.5l-59 29l101 204h582z" />
    <glyph glyph-name="tcedilla" unicode="&#x163;" horiz-adv-x="440" 
d="M463 80q-83 -80 -194 -88l-17 -40h34q29 0 51 -21.5t22 -49.5q0 -47 -38 -71.5t-96 -24.5q-44 0 -70.5 14.5t-26.5 38.5q0 16 11 27.5t26 11.5q12 0 27 -20t34 -20q45 0 45 39q0 15 -8 25.5t-21 10.5t-24 -5l-24 24l27 61q-50 6 -76.5 31t-26.5 67q0 14 8 57l49 274h-69
l12 66q67 18 105 56.5t64 115.5h90l-27 -148h138l-16 -90h-139l-49 -269q-2 -16 -2 -22q0 -14 9 -22.5t24 -8.5q16 0 48.5 14.5t57.5 33.5z" />
    <glyph glyph-name="Tcaron" unicode="&#x164;" horiz-adv-x="700" 
d="M802 464l-72 -16q-28 73 -75 110t-117 42l-79 -432q-3 -19 -3 -34q0 -28 13.5 -38.5t48.5 -12.5l32 -2l-14 -81h-388l14 81l33 2q45 3 63 19.5t27 65.5l79 432q-78 -6 -127 -37.5t-108 -114.5l-59 29l101 204h582zM679 826l-202 -93l-172 98l46 55l143 -50l151 50z" />
    <glyph glyph-name="tcaron" unicode="&#x165;" horiz-adv-x="440" 
d="M463 80q-43 -41 -100.5 -65t-114.5 -24q-62 0 -96 26t-34 73q0 14 8 57l49 274h-69l12 66q67 18 105 56.5t64 115.5h90l-27 -148h138l-16 -90h-139l-49 -269q-2 -16 -2 -22q0 -14 9 -22.5t24 -8.5q16 0 48.5 14.5t57.5 33.5zM586 744q0 -50 -39.5 -106t-103.5 -98l-34 32
q60 54 72 79q-6 -1 -13 -1q-28 0 -44 17.5t-16 46.5q0 41 32.5 72.5t75.5 31.5q31 0 50.5 -20.5t19.5 -53.5z" />
    <glyph glyph-name="Utilde" unicode="&#x168;" horiz-adv-x="740" 
d="M855 681l-15 -81l-22 -2q-40 -5 -55.5 -21.5t-24.5 -63.5l-51 -281q-46 -245 -325 -245q-108 0 -174 44t-66 116q0 23 8 73l53 293q4 28 4 36q0 23 -12 35t-41 14l-22 2l15 81h348l-15 -81l-22 -2q-40 -5 -56.5 -21.5t-24.5 -63.5l-42 -235q-8 -36 -8 -90q0 -48 31 -74.5
t88 -26.5q29 0 53.5 7t40.5 16.5t29.5 28t20.5 31t13.5 35.5t8.5 33t6 32l44 243q4 17 4 33q0 47 -53 52l-22 2l15 81h269zM711 830q-31 -50 -53.5 -66t-62.5 -16q-27 0 -73 16t-65 16q-34 0 -55 -29l-46 36q23 45 50.5 64.5t67.5 19.5q34 0 77.5 -15.5t60.5 -15.5
q19 0 28 4.5t25 22.5z" />
    <glyph glyph-name="utilde" unicode="&#x169;" 
d="M720 64q-67 -73 -159 -73q-91 0 -118 66q-57 -37 -97.5 -51.5t-85.5 -14.5q-64 0 -105.5 29.5t-41.5 76.5q0 25 4 45l33 179q2 20 2 27q0 24 -13 35t-44 11h-12l15 82q98 5 192 35h52l-55 -306q-6 -43 -6 -54q0 -20 18 -34t44 -14q50 0 98 39l67 369h158l-57 -316
q-7 -42 -7 -52q0 -44 34 -44q16 0 45 23zM631 691q-31 -50 -53.5 -66t-62.5 -16q-27 0 -73 16t-65 16q-34 0 -55 -29l-46 36q23 45 50.5 64.5t67.5 19.5q34 0 77.5 -15.5t60.5 -15.5q19 0 28 4.5t25 22.5z" />
    <glyph glyph-name="Umacron" unicode="&#x16a;" horiz-adv-x="740" 
d="M855 681l-15 -81l-22 -2q-40 -5 -55.5 -21.5t-24.5 -63.5l-51 -281q-46 -245 -325 -245q-108 0 -174 44t-66 116q0 23 8 73l53 293q4 28 4 36q0 23 -12 35t-41 14l-22 2l15 81h348l-15 -81l-22 -2q-40 -5 -56.5 -21.5t-24.5 -63.5l-42 -235q-8 -36 -8 -90q0 -48 31 -74.5
t88 -26.5q29 0 53.5 7t40.5 16.5t29.5 28t20.5 31t13.5 35.5t8.5 33t6 32l44 243q4 17 4 33q0 47 -53 52l-22 2l15 81h269zM711 853l-26 -88h-328l26 88h328z" />
    <glyph glyph-name="umacron" unicode="&#x16b;" 
d="M720 64q-67 -73 -159 -73q-91 0 -118 66q-57 -37 -97.5 -51.5t-85.5 -14.5q-64 0 -105.5 29.5t-41.5 76.5q0 25 4 45l33 179q2 20 2 27q0 24 -13 35t-44 11h-12l15 82q98 5 192 35h52l-55 -306q-6 -43 -6 -54q0 -20 18 -34t44 -14q50 0 98 39l67 369h158l-57 -316
q-7 -42 -7 -52q0 -44 34 -44q16 0 45 23zM631 714l-26 -88h-328l26 88h328z" />
    <glyph glyph-name="Ubreve" unicode="&#x16c;" horiz-adv-x="740" 
d="M855 681l-15 -81l-22 -2q-40 -5 -55.5 -21.5t-24.5 -63.5l-51 -281q-46 -245 -325 -245q-108 0 -174 44t-66 116q0 23 8 73l53 293q4 28 4 36q0 23 -12 35t-41 14l-22 2l15 81h348l-15 -81l-22 -2q-40 -5 -56.5 -21.5t-24.5 -63.5l-42 -235q-8 -36 -8 -90q0 -48 31 -74.5
t88 -26.5q29 0 53.5 7t40.5 16.5t29.5 28t20.5 31t13.5 35.5t8.5 33t6 32l44 243q4 17 4 33q0 47 -53 52l-22 2l15 81h269zM717 872q-16 -70 -61 -98t-134 -28q-86 0 -127 29t-51 97h80q12 -29 34 -40t69 -11q45 0 70 11.5t40 39.5h80z" />
    <glyph glyph-name="ubreve" unicode="&#x16d;" 
d="M720 64q-67 -73 -159 -73q-91 0 -118 66q-57 -37 -97.5 -51.5t-85.5 -14.5q-64 0 -105.5 29.5t-41.5 76.5q0 25 4 45l33 179q2 20 2 27q0 24 -13 35t-44 11h-12l15 82q98 5 192 35h52l-55 -306q-6 -43 -6 -54q0 -20 18 -34t44 -14q50 0 98 39l67 369h158l-57 -316
q-7 -42 -7 -52q0 -44 34 -44q16 0 45 23zM618 740q-17 -80 -57.5 -110t-119.5 -30t-116 32t-46 108h73q10 -32 30.5 -44.5t62.5 -12.5q41 0 63.5 13t36.5 44h73z" />
    <glyph glyph-name="Uring" unicode="&#x16e;" horiz-adv-x="740" 
d="M855 681l-15 -81l-22 -2q-40 -5 -55.5 -21.5t-24.5 -63.5l-51 -281q-46 -245 -325 -245q-108 0 -174 44t-66 116q0 23 8 73l53 293q4 28 4 36q0 23 -12 35t-41 14l-22 2l15 81h348l-15 -81l-22 -2q-40 -5 -56.5 -21.5t-24.5 -63.5l-42 -235q-8 -36 -8 -90q0 -48 31 -74.5
t88 -26.5q29 0 53.5 7t40.5 16.5t29.5 28t20.5 31t13.5 35.5t8.5 33t6 32l44 243q4 17 4 33q0 47 -53 52l-22 2l15 81h269zM646 821q0 -44 -32.5 -75.5t-78.5 -31.5q-45 0 -77.5 31.5t-32.5 75.5q0 45 32.5 77t78.5 32t78 -31.5t32 -77.5zM583 822q0 21 -14 35.5t-34 14.5
t-34 -14.5t-14 -34.5q0 -21 14 -36t34 -15q19 0 33.5 15t14.5 35z" />
    <glyph glyph-name="uring" unicode="&#x16f;" 
d="M720 64q-67 -73 -159 -73q-91 0 -118 66q-57 -37 -97.5 -51.5t-85.5 -14.5q-64 0 -105.5 29.5t-41.5 76.5q0 25 4 45l33 179q2 20 2 27q0 24 -13 35t-44 11h-12l15 82q98 5 192 35h52l-55 -306q-6 -43 -6 -54q0 -20 18 -34t44 -14q50 0 98 39l67 369h158l-57 -316
q-7 -42 -7 -52q0 -44 34 -44q16 0 45 23zM564 669q0 -44 -32.5 -75.5t-78.5 -31.5q-45 0 -77.5 31.5t-32.5 75.5q0 45 32.5 77t78.5 32t78 -31.5t32 -77.5zM501 670q0 21 -14 35.5t-34 14.5t-34 -14.5t-14 -34.5q0 -21 14 -36t34 -15q19 0 33.5 15t14.5 35z" />
    <glyph glyph-name="Uhungarumlaut" unicode="&#x170;" horiz-adv-x="740" 
d="M855 681l-15 -81l-22 -2q-40 -5 -55.5 -21.5t-24.5 -63.5l-51 -281q-46 -245 -325 -245q-108 0 -174 44t-66 116q0 23 8 73l53 293q4 28 4 36q0 23 -12 35t-41 14l-22 2l15 81h348l-15 -81l-22 -2q-40 -5 -56.5 -21.5t-24.5 -63.5l-42 -235q-8 -36 -8 -90q0 -48 31 -74.5
t88 -26.5q29 0 53.5 7t40.5 16.5t29.5 28t20.5 31t13.5 35.5t8.5 33t6 32l44 243q4 17 4 33q0 47 -53 52l-22 2l15 81h269zM805 868q0 -33 -35 -59.5t-138 -72.5l-45 40q77 102 102 126.5t54 24.5q26 0 44 -17t18 -42zM578 868q0 -34 -34.5 -60t-138.5 -72l-45 40
q77 102 102 126.5t54 24.5q26 0 44 -17t18 -42z" />
    <glyph glyph-name="uhungarumlaut" unicode="&#x171;" 
d="M720 64q-67 -73 -159 -73q-91 0 -118 66q-57 -37 -97.5 -51.5t-85.5 -14.5q-64 0 -105.5 29.5t-41.5 76.5q0 25 4 45l33 179q2 20 2 27q0 24 -13 35t-44 11h-12l15 82q98 5 192 35h52l-55 -306q-6 -43 -6 -54q0 -20 18 -34t44 -14q50 0 98 39l67 369h158l-57 -316
q-7 -42 -7 -52q0 -44 34 -44q16 0 45 23zM721 707q0 -33 -35 -59.5t-138 -72.5l-45 40q77 102 102 126.5t54 24.5q26 0 44 -17t18 -42zM494 707q0 -34 -34.5 -60t-138.5 -72l-45 40q77 102 102 126.5t54 24.5q26 0 44 -17t18 -42z" />
    <glyph glyph-name="Uogonek" unicode="&#x172;" horiz-adv-x="740" 
d="M855 681l-15 -81l-22 -2q-40 -5 -55.5 -21.5t-24.5 -63.5l-51 -281q-32 -174 -182 -225q-59 -19 -80 -56q-14 -22 -14 -58q0 -21 15.5 -32.5t37.5 -11.5q30 0 69 32l42 -31q-30 -41 -75 -65.5t-92 -24.5q-53 0 -93 28t-40 70q0 67 84 129q-107 1 -172 45t-65 115
q0 23 8 73l53 293q4 28 4 36q0 23 -12 35t-41 14l-22 2l15 81h348l-15 -81l-22 -2q-40 -5 -56.5 -21.5t-24.5 -63.5l-42 -235q-8 -36 -8 -90q0 -48 31 -74.5t88 -26.5q29 0 53.5 7t40.5 16.5t29.5 28t20.5 31t13.5 35.5t8.5 33t6 32l44 243q4 17 4 33q0 47 -53 52l-22 2
l15 81h269z" />
    <glyph glyph-name="uogonek" unicode="&#x173;" 
d="M681 -150q-30 -41 -75 -65.5t-92 -24.5q-53 0 -93 28t-40 70q0 76 110 147q-32 15 -48 52q-57 -37 -97.5 -51.5t-85.5 -14.5q-64 0 -105.5 29.5t-41.5 76.5q0 25 4 45l33 179q2 20 2 27q0 24 -13 35t-44 11h-12l15 82q98 5 192 35h52l-55 -306q-6 -43 -6 -54
q0 -20 18 -34t44 -14q50 0 98 39l67 369h158l-57 -316q-7 -42 -7 -52q0 -44 34 -44q16 0 45 23l39 -58q-46 -49 -107 -66q-64 -16 -82 -47q-14 -22 -14 -58q0 -21 15.5 -32.5t37.5 -11.5q30 0 69 32z" />
    <glyph glyph-name="Wcircumflex" unicode="&#x174;" horiz-adv-x="1000" 
d="M1090 681l-15 -81q-54 -6 -73 -24t-57 -94l-238 -482h-124l-54 380l-185 -380h-122l-72 506q-7 49 -21 66t-57 28l15 81h310l-14 -81q-66 -3 -66 -58q0 -8 1 -12l46 -321l147 321l1 5v2q0 35 -30 50q-11 6 -43 13l14 81h315l-14 -81l-12 -1q-41 -4 -52.5 -12t-11.5 -27
q0 -4 0.5 -14t0.5 -16l46 -321l146 321q13 28 13 39q0 13 -13.5 19t-47.5 10l-12 2l15 81h264zM818 788l-46 -55l-143 50l-151 -50l-34 60l202 93z" />
    <glyph glyph-name="wcircumflex" unicode="&#x175;" horiz-adv-x="860" 
d="M891 377q0 -95 -41 -182.5t-120 -145.5t-178 -58q-87 0 -140 57q-89 -57 -180 -57q-63 0 -105 32.5t-42 81.5q0 6 2 18l36 198q2 20 2 27q0 24 -13 35t-44 11h-12l15 82q98 5 192 35h52l-59 -325q-5 -25 -5 -38q0 -22 18 -35.5t46 -13.5q46 0 85 24l70 388h158l-58 -321
q-3 -14 -3 -25q0 -62 67 -62q52 0 91 54.5t39 128.5q0 31 -7 46t-36 43q-25 25 -25 54q0 37 28.5 64t67.5 27q45 0 72 -39t27 -104zM708 647l-42 -62l-130 56l-137 -56l-31 67l184 103z" />
    <glyph glyph-name="Ycircumflex" unicode="&#x176;" horiz-adv-x="660" 
d="M817 681l-15 -81q-56 -9 -90 -31t-95 -94l-158 -189l-21 -118q-1 -9 -4 -35q0 -23 12 -35.5t41 -14.5l30 -2l-15 -81h-361l15 81l31 2q39 5 55.5 22t24.5 63l21 118l-89 190q-33 70 -54 91t-64 30q-5 2 -9 3l15 81h353l-15 -81q-67 -5 -77 -13q-6 -6 -6 -14q0 -9 6 -23
l77 -181l139 173q20 23 20 36q0 15 -68 22l15 81h286zM653 788l-46 -55l-143 50l-151 -50l-34 60l202 93z" />
    <glyph glyph-name="ycircumflex" unicode="&#x177;" horiz-adv-x="600" 
d="M567 97q-6 -31 -10.5 -52.5t-16.5 -56t-27 -58t-41.5 -51t-59.5 -44t-81 -28t-107 -11.5q-85 0 -142 29.5t-57 73.5q0 30 22.5 50.5t55.5 20.5q12 0 22.5 -3t17 -6.5t12.5 -10.5t8.5 -10.5t6 -11t4.5 -8.5q21 -36 74 -36q17 0 36 6t43.5 21.5t44.5 51t28 85.5
q-86 -57 -162 -57q-60 0 -100.5 31t-40.5 77q0 25 5 49l31 173q4 24 4 31q0 21 -13 31.5t-45 10.5h-12l15 82q98 5 192 35h52l-56 -309q-8 -45 -8 -47q0 -22 15 -37t38 -15q26 0 55.5 13t47.5 32l66 363h158zM584 647l-42 -62l-130 56l-137 -56l-31 67l184 103z" />
    <glyph glyph-name="Ydieresis" unicode="&#x178;" horiz-adv-x="660" 
d="M817 681l-15 -81q-56 -9 -90 -31t-95 -94l-158 -189l-21 -118q-1 -9 -4 -35q0 -23 12 -35.5t41 -14.5l30 -2l-15 -81h-361l15 81l31 2q39 5 55.5 22t24.5 63l21 118l-89 190q-33 70 -54 91t-64 30q-5 2 -9 3l15 81h353l-15 -81q-67 -5 -77 -13q-6 -6 -6 -14q0 -9 6 -23
l77 -181l139 173q20 23 20 36q0 15 -68 22l15 81h286zM424 824q0 -35 -30.5 -65t-65.5 -30q-28 0 -46 18.5t-18 46.5q0 37 29 66t66 29q29 0 47 -18t18 -47zM673 824q0 -35 -30.5 -65t-65.5 -30q-28 0 -46 18.5t-18 46.5q0 37 29 66t66 29q29 0 47 -18t18 -47z" />
    <glyph glyph-name="Zacute" unicode="&#x179;" 
d="M719 233l-103 -233h-567l-26 62l478 535q-26 5 -51 5q-121 0 -203 -61q-34 -24 -89 -96l-74 27l88 209h548l20 -60l-474 -535q46 -6 76 -6q103 0 176 43t125 135zM610 839q0 -40 -74 -72q-32 -13 -135 -42l-45 39q52 58 105 100q39 29 73 29q32 0 54 -15.5t22 -38.5z" />
    <glyph glyph-name="zacute" unicode="&#x17a;" horiz-adv-x="560" 
d="M570 120q0 -52 -50.5 -90.5t-118.5 -38.5q-13 0 -101 7t-157 7q-30 0 -79 -6l-28 80l335 343q-24 10 -63 10q-35 0 -51.5 -10.5t-27.5 -38.5q-26 -64 -80 -64q-28 0 -45 19.5t-17 51.5q0 56 53 93t133 37q39 0 130.5 -9t130.5 -9h29l23 -71l-333 -340q28 -8 61 -8
q91 0 109 51q10 26 30.5 41.5t45.5 15.5q30 0 50.5 -20.5t20.5 -50.5zM512 703q0 -38 -38.5 -63.5t-151.5 -63.5l-41 44q53 70 92 106.5t70 36.5q29 0 49 -17.5t20 -42.5z" />
    <glyph glyph-name="Zdotaccent" unicode="&#x17b;" 
d="M719 233l-103 -233h-567l-26 62l478 535q-26 5 -51 5q-121 0 -203 -61q-34 -24 -89 -96l-74 27l88 209h548l20 -60l-474 -535q46 -6 76 -6q103 0 176 43t125 135zM552 825q0 -37 -31 -68t-68 -31q-28 0 -47 19.5t-19 48.5q0 38 30 68t68 30q30 0 48.5 -18.5t18.5 -48.5z
" />
    <glyph glyph-name="zdotaccent" unicode="&#x17c;" horiz-adv-x="560" 
d="M570 120q0 -52 -50.5 -90.5t-118.5 -38.5q-13 0 -101 7t-157 7q-30 0 -79 -6l-28 80l335 343q-24 10 -63 10q-35 0 -51.5 -10.5t-27.5 -38.5q-26 -64 -80 -64q-28 0 -45 19.5t-17 51.5q0 56 53 93t133 37q39 0 130.5 -9t130.5 -9h29l23 -71l-333 -340q28 -8 61 -8
q91 0 109 51q10 26 30.5 41.5t45.5 15.5q30 0 50.5 -20.5t20.5 -50.5zM466 686q0 -37 -31 -68t-68 -31q-28 0 -47 19.5t-19 48.5q0 38 30 68t68 30q30 0 48.5 -18.5t18.5 -48.5z" />
    <glyph glyph-name="Zcaron" unicode="&#x17d;" 
d="M719 233l-103 -233h-567l-26 62l478 535q-26 5 -51 5q-121 0 -203 -61q-34 -24 -89 -96l-74 27l88 209h548l20 -60l-474 -535q46 -6 76 -6q103 0 176 43t125 135zM660 826l-202 -93l-172 98l46 55l143 -50l151 50z" />
    <glyph glyph-name="zcaron" unicode="&#x17e;" horiz-adv-x="560" 
d="M570 120q0 -52 -50.5 -90.5t-118.5 -38.5q-13 0 -101 7t-157 7q-30 0 -79 -6l-28 80l335 343q-24 10 -63 10q-35 0 -51.5 -10.5t-27.5 -38.5q-26 -64 -80 -64q-28 0 -45 19.5t-17 51.5q0 56 53 93t133 37q39 0 130.5 -9t130.5 -9h29l23 -71l-333 -340q28 -8 61 -8
q91 0 109 51q10 26 30.5 41.5t45.5 15.5q30 0 50.5 -20.5t20.5 -50.5zM552 688l-184 -103l-156 108l42 62l130 -56l137 56z" />
    <glyph glyph-name="longs" unicode="&#x17f;" horiz-adv-x="420" 
d="M641 664q0 -28 -21.5 -46t-53.5 -18q-26 0 -41.5 8.5t-31.5 30.5q-13 18 -33 18q-31 0 -48 -25.5t-28 -84.5l-56 -305q-24 -131 -35.5 -175t-31.5 -82q-49 -92 -133.5 -142.5t-190.5 -50.5q-62 0 -95.5 20.5t-33.5 57.5q0 32 25.5 55t61.5 23q34 0 64 -31
q18 -19 26.5 -24t24.5 -5q56 0 93 70q25 48 48 178l52 285h-84l16 90h84q19 110 95.5 172t194.5 62q61 0 96.5 -21.5t35.5 -59.5z" />
    <glyph glyph-name="Ereversed" unicode="&#x18e;" horiz-adv-x="720" 
d="M829 600l-23 -2q-54 -5 -70 -49q-4 -15 -9 -36l-63 -345q-8 -46 1.5 -63.5t47.5 -21.5l22 -2l-15 -81h-634l-31 225l79 35q56 -100 111 -138t144 -38q44 0 63.5 8.5t27.5 31.5q2 6 8 32l30 165q-32 0 -49.5 -2t-38 -9.5t-33.5 -24t-23 -44.5q-5 -13 -10 -32h-71l55 302
h71q-7 -66 6 -84.5t68 -18.5q24 0 41 2l18 101q3 25 5.5 44.5t-17.5 32t-68 12.5q-153 0 -286 -162l-62 22l136 221h584z" />
    <glyph glyph-name="florin" unicode="&#x192;" 
d="M743 664q0 -28 -21.5 -46t-53.5 -18q-26 0 -41.5 8.5t-31.5 30.5q-13 18 -33 18q-31 0 -48 -25t-28 -85l-7 -36h96l-17 -90h-95l-71 -389q-4 -23 -8.5 -41t-15 -44.5t-23.5 -46t-35.5 -41t-50.5 -35.5t-68.5 -23t-89.5 -9q-61 0 -95 20.5t-34 57.5q0 32 25.5 55t61.5 23
q34 0 64 -31q17 -19 26 -24t23 -5q24 0 34.5 24.5t28.5 123.5l70 385h-84l16 90h84q19 110 95.5 172t194.5 62q61 0 96.5 -21.5t35.5 -59.5z" />
    <glyph glyph-name="Ohorn" unicode="&#x1a0;" horiz-adv-x="773" 
d="M806 386q0 -67 -28 -139t-74 -124q-56 -64 -138 -100t-172 -36q-141 0 -228.5 84t-87.5 220q0 78 31 155t84 129q57 56 133.5 87.5t158.5 31.5q113 0 195 -55q47 24 54 43q-24 4 -40 20.5t-16 39.5q0 36 31 62t64 26q34 0 54 -22t20 -52q0 -96 -118 -159q77 -83 77 -211z
M613 412q0 91 -36.5 140.5t-103.5 49.5q-85 0 -146 -99.5t-61 -237.5q0 -85 36 -133.5t98 -48.5q94 0 157 104q23 39 39.5 104.5t16.5 120.5z" />
    <glyph glyph-name="ohorn" unicode="&#x1a1;" horiz-adv-x="649" 
d="M723 585q0 -100 -124 -162q28 -50 28 -115q0 -56 -25 -117.5t-65 -103.5q-90 -96 -236 -96q-112 0 -177 55t-65 149q0 67 28 133t75 111q86 81 222 81q111 0 174 -51q45 23 52 42q-24 4 -40 20.5t-16 39.5q0 36 31 62t64 26q34 0 54 -22t20 -52zM459 337q0 50 -19 72.5
t-60 22.5q-64 0 -102 -74q-18 -35 -32 -93.5t-14 -99.5t20 -63.5t57 -22.5q66 0 104 74q17 33 31.5 90.5t14.5 93.5z" />
    <glyph glyph-name="Uhorn" unicode="&#x1af;" horiz-adv-x="822" 
d="M952 756q0 -41 -21.5 -76t-55.5 -57.5t-65.5 -37t-63.5 -22.5l-59 -331q-19 -106 -71 -158q-41 -41 -108 -64t-146 -23q-108 0 -174 44t-66 116q0 23 8 73l53 293q4 22 4 39q0 42 -53 46l-22 2l15 81h348l-15 -81l-22 -2q-40 -5 -55.5 -21.5t-25.5 -63.5l-42 -235
q-8 -36 -8 -90q0 -48 31 -74.5t88 -26.5q39 0 74 14t54 37q26 32 44 132l44 243q4 18 4 39q0 42 -53 46l-22 2l15 81h182l-10 -54q70 27 81 55q-24 4 -40 20.5t-16 39.5q0 36 31 62t64 26q34 0 54 -22t20 -52z" />
    <glyph glyph-name="uhorn" unicode="&#x1b0;" horiz-adv-x="726" 
d="M845 585q0 -40 -20.5 -74t-53.5 -57t-63.5 -37.5t-62.5 -23.5l-36 -198q-8 -41 -8 -56q0 -16 10.5 -28t24.5 -12q16 0 45 23l39 -58q-67 -73 -159 -73q-91 0 -118 66q-57 -37 -97.5 -51.5t-85.5 -14.5q-64 0 -105.5 29.5t-41.5 76.5q0 25 4 45l33 179q4 26 4 37
q0 14 -6 20q-21 16 -53 16h-12l15 82q98 5 192 35h52l-55 -306q-6 -43 -6 -54q0 -20 18 -34t44 -14q50 0 98 39l67 369h158l-10 -52q67 27 76 52q-24 4 -40 20.5t-16 39.5q0 36 31 62t64 26q34 0 54 -22t20 -52z" />
    <glyph glyph-name="eturned" unicode="&#x1dd;" horiz-adv-x="560" 
d="M601 308q0 -130 -106.5 -223.5t-254.5 -93.5q-79 0 -127.5 33.5t-48.5 89.5q0 57 49.5 98t124 59t164.5 18q15 0 26 -1q3 25 3 43q0 42 -27 67.5t-72 25.5q-86 0 -188 -87l-54 59q42 47 120.5 85.5t154.5 38.5q105 0 170.5 -59t65.5 -153zM414 219h-12q-78 0 -134 -30
t-56 -72q0 -21 15.5 -34.5t40.5 -13.5q51 0 93 48.5t53 101.5z" />
    <glyph glyph-name="Gcaron" unicode="&#x1e6;" horiz-adv-x="760" 
d="M828 349l-15 -81l-19 -4q-38 -9 -50.5 -22.5t-19.5 -49.5l-35 -192h-109l-11 51q-87 -64 -205 -64q-129 0 -208 80t-79 211q0 170 114.5 293t273.5 123q92 0 187 -53l19 40h55l42 -245l-74 -13q-11 23 -18.5 37t-28.5 43.5t-41.5 47.5t-53 32.5t-68.5 14.5
q-90 0 -155 -97t-65 -232q0 -86 39 -136t106 -50q62 0 110 39.5t48 89.5q0 10 -2 18t-6.5 13t-8.5 8.5t-12 6t-11.5 3.5t-12.5 3t-11 2l-11 2l14 81h322zM713 826l-202 -93l-172 98l46 55l143 -50l151 50z" />
    <glyph glyph-name="gcaron" unicode="&#x1e7;" horiz-adv-x="620" 
d="M669 511l-75 -412q-6 -32 -12 -56t-18.5 -58t-29 -58.5t-44 -51.5t-61.5 -44t-83.5 -28t-108.5 -11q-94 0 -155 31.5t-61 79.5q0 31 25 52t62 21q47 0 68 -44q19 -48 81 -48q35 0 63.5 14t45 31.5t32 49.5t21.5 50.5t15 51.5q-25 -30 -38.5 -44.5t-46.5 -30t-73 -15.5
q-85 0 -141 60.5t-56 152.5q0 124 89.5 220t204.5 96q38 0 64.5 -9t68.5 -33l6 33h157zM492 401q-31 22 -48.5 29.5t-37.5 7.5q-38 0 -69 -26t-48.5 -66t-27 -82t-9.5 -78q0 -45 18.5 -70t52.5 -25q49 0 89.5 59t60.5 158zM568 688l-184 -103l-156 108l42 62l130 -56l137 56
z" />
    <glyph glyph-name="Oogonek" unicode="&#x1ea;" horiz-adv-x="760" 
d="M806 386q0 -112 -71 -220.5t-195 -153.5q-63 -23 -85 -61q-14 -22 -14 -58q0 -21 15.5 -32.5t37.5 -11.5q30 0 69 32l42 -31q-30 -41 -75 -65.5t-92 -24.5q-53 0 -93 28t-40 70q0 67 84 129q-139 2 -225 85.5t-86 218.5q0 167 118 285t289 118q145 0 233 -84.5t88 -223.5
zM613 412q0 91 -36.5 140.5t-103.5 49.5q-85 0 -146 -99.5t-61 -237.5q0 -85 36 -133.5t98 -48.5q48 0 87 26t61.5 64.5t38 85.5t21 85t5.5 68z" />
    <glyph glyph-name="oogonek" unicode="&#x1eb;" horiz-adv-x="600" 
d="M627 308q0 -59 -34 -137.5t-106 -127.5q-10 -7 -72 -33.5t-80 -58.5q-14 -22 -14 -58q0 -21 15.5 -32.5t37.5 -11.5q30 0 69 32l42 -31q-30 -41 -75 -65.5t-92 -24.5q-53 0 -93 28t-40 70q0 70 91 134q-101 6 -159 60.5t-58 142.5q0 34 8.5 72.5t31.5 84.5t58 82.5t94 61
t133 24.5q117 0 180 -55t63 -157zM459 337q0 50 -19 72.5t-60 22.5q-43 0 -75 -34.5t-46 -84.5t-20.5 -87.5t-6.5 -60.5q0 -41 20 -63.5t57 -22.5q44 0 76.5 35t47 84t20.5 85t6 54z" />
    <glyph glyph-name="Gacute" unicode="&#x1f4;" horiz-adv-x="760" 
d="M828 349l-15 -81l-19 -4q-38 -9 -50.5 -22.5t-19.5 -49.5l-35 -192h-109l-11 51q-87 -64 -205 -64q-129 0 -208 80t-79 211q0 170 114.5 293t273.5 123q92 0 187 -53l19 40h55l42 -245l-74 -13q-11 23 -18.5 37t-28.5 43.5t-41.5 47.5t-53 32.5t-68.5 14.5
q-90 0 -155 -97t-65 -232q0 -86 39 -136t106 -50q62 0 110 39.5t48 89.5q0 10 -2 18t-6.5 13t-8.5 8.5t-12 6t-11.5 3.5t-12.5 3t-11 2l-11 2l14 81h322zM663 839q0 -40 -74 -72q-32 -13 -135 -42l-45 39q52 58 105 100q39 29 73 29q32 0 54 -15.5t22 -38.5z" />
    <glyph glyph-name="gacute" unicode="&#x1f5;" horiz-adv-x="620" 
d="M669 511l-75 -412q-6 -32 -12 -56t-18.5 -58t-29 -58.5t-44 -51.5t-61.5 -44t-83.5 -28t-108.5 -11q-94 0 -155 31.5t-61 79.5q0 31 25 52t62 21q47 0 68 -44q19 -48 81 -48q35 0 63.5 14t45 31.5t32 49.5t21.5 50.5t15 51.5q-25 -30 -38.5 -44.5t-46.5 -30t-73 -15.5
q-85 0 -141 60.5t-56 152.5q0 124 89.5 220t204.5 96q38 0 64.5 -9t68.5 -33l6 33h157zM492 401q-31 22 -48.5 29.5t-37.5 7.5q-38 0 -69 -26t-48.5 -66t-27 -82t-9.5 -78q0 -45 18.5 -70t52.5 -25q49 0 89.5 59t60.5 158zM528 703q0 -38 -38.5 -63.5t-151.5 -63.5l-41 44
q53 70 92 106.5t70 36.5q29 0 49 -17.5t20 -42.5z" />
    <glyph glyph-name="Aringacute" unicode="&#x1fa;" horiz-adv-x="720" 
d="M769 81l-15 -81h-352l15 81l33 4q33 5 45 12.5t12 23.5q0 11 -7 44l-16 77h-222l-46 -87q-16 -30 -16 -43q0 -22 58 -29l19 -2l-15 -81h-289l15 81q53 12 83 41.5t64 87.5l278 471h151l116 -503q17 -58 28 -71t49 -23q7 -2 12 -3zM469 320l-41 218l-123 -218h164z
M693 1064q0 -40 -74 -72q-32 -13 -135 -42l-45 39q52 58 105 100q39 29 73 29q32 0 54 -15.5t22 -38.5zM624 821q0 -44 -32.5 -75.5t-78.5 -31.5q-45 0 -77.5 31.5t-32.5 75.5q0 45 32.5 77t78.5 32t78 -31.5t32 -77.5zM561 822q0 21 -14 35.5t-34 14.5t-34 -14.5t-14 -34.5
q0 -21 14 -36t34 -15q19 0 33.5 15t14.5 35z" />
    <glyph glyph-name="aringacute" unicode="&#x1fb;" 
d="M735 70q-84 -79 -168 -79q-99 0 -121 79q-67 -79 -167 -79q-85 0 -140 60t-55 153q0 127 89 221.5t209 94.5q80 0 136 -47l7 38h142l-58 -322q-6 -30 -6 -43q0 -47 36 -47q22 0 53 24zM494 400q-51 32 -85 32q-48 0 -85.5 -44.5t-54 -100t-16.5 -105.5q0 -42 18.5 -66.5
t50.5 -24.5q57 0 103 79q32 54 69 230zM629 903q0 -40 -74 -72q-32 -13 -135 -42l-45 39q52 58 105 100q39 29 73 29q32 0 54 -15.5t22 -38.5zM560 660q0 -44 -32.5 -75.5t-78.5 -31.5q-45 0 -77.5 31.5t-32.5 75.5q0 45 32.5 77t78.5 32t78 -31.5t32 -77.5zM497 661
q0 21 -14 35.5t-34 14.5t-34 -14.5t-14 -34.5q0 -21 14 -36t34 -15q19 0 33.5 15t14.5 35z" />
    <glyph glyph-name="AEacute" unicode="&#x1fc;" horiz-adv-x="1140" 
d="M1189 226l-113 -226h-619l15 81l16 2q37 4 53 22t24 63l15 85h-227l-79 -86q-38 -38 -38 -57q0 -8 5.5 -13.5t20.5 -8.5t22 -3.5t29 -2.5l9 -1l-15 -81h-334l15 81q65 8 97 28t109 99l464 473h494l55 -221l-70 -22q-26 73 -88 117.5t-137 44.5q-64 0 -87 -13.5t-31 -54.5
l-23 -126h45q50 0 71 19.5t40 85.5h69l-55 -303h-69q2 32 1.5 59t-21 45.5t-62.5 18.5h-33l-30 -164l-5 -43q0 -22 16 -31t63 -9q58 0 118 21t107 57q40 31 96 91zM633 545l-208 -214h169zM903 839q0 -40 -74 -72q-32 -13 -135 -42l-45 39q52 58 105 100q39 29 73 29
q32 0 54 -15.5t22 -38.5z" />
    <glyph glyph-name="aeacute" unicode="&#x1fd;" horiz-adv-x="880" 
d="M879 121q-35 -45 -115 -87.5t-161 -42.5q-22 0 -41.5 2.5t-35.5 7.5t-29.5 10.5t-25 13.5t-19.5 14.5t-15.5 14.5t-11.5 12.5t-9 11.5l-4 6q-42 -32 -68 -48.5t-67.5 -30.5t-87.5 -14q-70 0 -110 31.5t-40 85.5q0 38 16.5 69t47.5 50.5t65 33.5t80 22.5t80.5 12t77.5 6.5
q10 48 10 72q0 31 -22 51.5t-57 20.5q-15 0 -28.5 -3t-23 -8.5t-17 -11t-13 -12.5t-8.5 -12t-6 -11l-3 -5q-30 -54 -80 -54q-24 0 -41.5 17.5t-17.5 41.5q0 54 69.5 93t166.5 39q127 0 191 -64q65 38 107 51t100 13q82 0 131 -33.5t49 -89.5q0 -58 -50.5 -99t-125.5 -58.5
t-165 -17.5q-14 0 -26 1q-2 -28 -2 -35q0 -47 26 -76t67 -29q28 0 56.5 8t51.5 21t40 24.5t30.5 23t15.5 12.5zM391 231q-92 0 -140 -28t-48 -68q0 -20 13 -32t34 -12q47 0 86 38.5t55 101.5zM765 394q0 22 -15.5 35t-40.5 13q-52 0 -94 -50t-52 -100h12q78 0 134 30t56 72z
M670 703q0 -38 -38.5 -63.5t-151.5 -63.5l-41 44q53 70 92 106.5t70 36.5q29 0 49 -17.5t20 -42.5z" />
    <glyph glyph-name="Oslashacute" unicode="&#x1fe;" horiz-adv-x="760" 
d="M808 391q0 -74 -29 -146t-81 -129.5t-130.5 -93t-170.5 -35.5q-119 0 -206 63l-77 -79h-93l122 126q-63 82 -63 194q0 105 50.5 197t145 149t212.5 57q106 0 188 -50l78 81h93l-119 -123q80 -85 80 -211zM615 416q0 26 -6 64l-318 -328q36 -69 111 -69q68 0 118.5 55.5
t72.5 129t22 148.5zM583 548q-39 54 -107 54q-85 0 -146.5 -100t-61.5 -238q0 -22 2 -37zM667 839q0 -40 -74 -72q-32 -13 -135 -42l-45 39q52 58 105 100q39 29 73 29q32 0 54 -15.5t22 -38.5z" />
    <glyph glyph-name="oslashacute" unicode="&#x1ff;" horiz-adv-x="600" 
d="M623 314q0 -41 -11.5 -84t-37 -86t-62 -77t-92.5 -55t-123 -21q-75 0 -135 28l-66 -73h-79l95 106q-57 57 -57 144q0 34 8.5 73.5t32 85t58.5 81.5t93.5 60t131.5 24q75 0 130 -24l72 80h80l-100 -112q62 -56 62 -150zM455 346l-213 -237q23 -30 63 -30q42 0 73.5 31.5
t46.5 78t22.5 86.5t7.5 71zM434 412q-23 20 -59 20q-41 0 -71.5 -31t-45 -78t-21 -80.5t-8.5 -60.5zM550 703q0 -38 -38.5 -63.5t-151.5 -63.5l-41 44q53 70 92 106.5t70 36.5q29 0 49 -17.5t20 -42.5z" />
    <glyph glyph-name="Adblgrave" unicode="&#x200;" horiz-adv-x="720" 
d="M769 81l-15 -81h-352l15 81l33 4q33 5 45 12.5t12 23.5q0 11 -7 44l-16 77h-222l-46 -87q-16 -30 -16 -43q0 -22 58 -29l19 -2l-15 -81h-289l15 81q53 12 83 41.5t64 87.5l278 471h151l116 -503q17 -58 28 -71t49 -23q7 -2 12 -3zM469 320l-41 218l-123 -218h164z
M447 776l-60 -40q-87 46 -112 72.5t-13 59.5q9 25 33.5 42t50.5 17q29 0 45 -24.5t56 -126.5zM674 776l-60 -40q-87 46 -112 72t-13 60q9 25 33.5 42t50.5 17q29 0 45 -24t56 -127z" />
    <glyph glyph-name="adblgrave" unicode="&#x201;" 
d="M735 70q-84 -79 -168 -79q-99 0 -121 79q-67 -79 -167 -79q-85 0 -140 60t-55 153q0 127 89 221.5t209 94.5q80 0 136 -47l7 38h142l-58 -322q-6 -30 -6 -43q0 -47 36 -47q22 0 53 24zM494 400q-51 32 -85 32q-48 0 -85.5 -44.5t-54 -100t-16.5 -105.5q0 -42 18.5 -66.5
t50.5 -24.5q57 0 103 79q32 54 69 230zM383 615l-60 -40q-87 46 -112 72.5t-13 59.5q9 25 33.5 42t50.5 17q29 0 45 -24.5t56 -126.5zM610 615l-60 -40q-87 46 -112 72t-13 60q9 25 33.5 42t50.5 17q29 0 45 -24t56 -127z" />
    <glyph glyph-name="Edblgrave" unicode="&#x204;" horiz-adv-x="720" 
d="M761 225l-113 -225h-634l15 81l22 2q39 4 55.5 21.5t24.5 63.5l63 345l4 36q0 23 -12 34.5t-41 14.5l-22 2l15 81h584l55 -221l-70 -22q-74 162 -227 162q-45 0 -69.5 -13t-29.5 -25t-11 -43q-1 -5 -2 -8l-19 -101q16 -2 40 -2q55 0 75 18.5t37 84.5h71l-55 -302h-71
q2 24 2 32q0 22 -6 37t-14 23.5t-25 13t-30.5 5.5t-39.5 1l-30 -165q-4 -26 -4 -32q0 -23 16 -31.5t61 -8.5q89 0 157.5 37.5t161.5 138.5zM413 776l-60 -40q-87 46 -112 72.5t-13 59.5q9 25 33.5 42t50.5 17q29 0 45 -24.5t56 -126.5zM640 776l-60 -40q-87 46 -112 72
t-13 60q9 25 33.5 42t50.5 17q29 0 45 -24t56 -127z" />
    <glyph glyph-name="edblgrave" unicode="&#x205;" horiz-adv-x="560" 
d="M570 115q-42 -47 -120.5 -85.5t-154.5 -38.5q-105 0 -170.5 59t-65.5 153q0 130 106.5 223.5t254.5 93.5q79 0 127.5 -33.5t48.5 -89.5q0 -57 -49.5 -98t-124 -59t-164.5 -18q-15 0 -26 1q-3 -25 -3 -43q0 -42 27 -67.5t72 -25.5q86 0 188 87zM448 394q0 21 -15.5 34.5
t-40.5 13.5q-51 0 -93 -48.5t-53 -101.5h12q78 0 134 30t56 72zM350 615l-60 -40q-87 46 -112 72.5t-13 59.5q9 25 33.5 42t50.5 17q29 0 45 -24.5t56 -126.5zM577 615l-60 -40q-87 46 -112 72t-13 60q9 25 33.5 42t50.5 17q29 0 45 -24t56 -127z" />
    <glyph glyph-name="Idblgrave" unicode="&#x208;" horiz-adv-x="380" 
d="M376 81l-15 -81h-347l15 81l22 2q40 6 56 22.5t24 62.5l63 345q3 19 3 34q0 24 -11.5 36t-41.5 15l-21 2l14 81h348l-15 -81l-22 -2q-40 -4 -56 -21t-24 -64l-63 -345q-3 -19 -3 -34q0 -25 11.5 -37t41.5 -14zM270 776l-60 -40q-87 46 -112 72.5t-13 59.5q9 25 33.5 42
t50.5 17q29 0 45 -24.5t56 -126.5zM497 776l-60 -40q-87 46 -112 72t-13 60q9 25 33.5 42t50.5 17q29 0 45 -24t56 -127z" />
    <glyph glyph-name="idblgrave" unicode="&#x209;" horiz-adv-x="380" 
d="M420 65q-87 -74 -179 -74q-58 0 -94 27.5t-36 71.5q0 15 6 49l33 182q2 20 2 27q0 24 -13 35t-44 11h-12l15 82q98 5 192 35h52l-57 -316q-10 -60 -10 -61q0 -14 11.5 -24.5t27.5 -10.5q20 0 64 22zM223 615l-60 -40q-87 46 -112 72.5t-13 59.5q9 25 33.5 42t50.5 17
q29 0 45 -24.5t56 -126.5zM450 615l-60 -40q-87 46 -112 72t-13 60q9 25 33.5 42t50.5 17q29 0 45 -24t56 -127z" />
    <glyph glyph-name="Odblgrave" unicode="&#x20c;" horiz-adv-x="760" 
d="M806 386q0 -67 -27.5 -136t-77 -128.5t-130.5 -97t-177 -37.5q-141 0 -228.5 84t-87.5 220q0 167 118 285t289 118q145 0 233 -84.5t88 -223.5zM613 412q0 91 -36.5 140.5t-103.5 49.5q-85 0 -146 -99.5t-61 -237.5q0 -85 36 -133.5t98 -48.5q48 0 87 26t61.5 64.5
t38 85.5t21 85t5.5 68zM460 776l-60 -40q-87 46 -112 72.5t-13 59.5q9 25 33.5 42t50.5 17q29 0 45 -24.5t56 -126.5zM687 776l-60 -40q-87 46 -112 72t-13 60q9 25 33.5 42t50.5 17q29 0 45 -24t56 -127z" />
    <glyph glyph-name="odblgrave" unicode="&#x20d;" horiz-adv-x="600" 
d="M627 308q0 -29 -8.5 -66t-31.5 -82t-58 -82t-94.5 -62t-133.5 -25q-112 0 -177 55t-65 149q0 34 8.5 72.5t31.5 84.5t58 82.5t94 61t133 24.5q117 0 180 -55t63 -157zM459 337q0 50 -19 72.5t-60 22.5q-43 0 -75 -34.5t-46 -84.5t-20.5 -87.5t-6.5 -60.5q0 -41 20 -63.5
t57 -22.5q44 0 76.5 35t47 84t20.5 85t6 54zM349 615l-60 -40q-87 46 -112 72.5t-13 59.5q9 25 33.5 42t50.5 17q29 0 45 -24.5t56 -126.5zM576 615l-60 -40q-87 46 -112 72t-13 60q9 25 33.5 42t50.5 17q29 0 45 -24t56 -127z" />
    <glyph glyph-name="Rdblgrave" unicode="&#x210;" horiz-adv-x="740" 
d="M765 81l-15 -81h-203l-143 299h-75l-24 -131q-3 -19 -3 -34q0 -25 11.5 -36.5t41.5 -14.5l22 -2l-15 -81h-348l15 81l22 2q40 4 55.5 21t24.5 64l63 345q4 28 4 37q0 22 -11.5 33.5t-41.5 14.5l-22 2l14 81h375q60 0 103 -6.5t77.5 -23.5t52 -48t17.5 -77q0 -66 -45 -124
t-135 -78l73 -151q29 -53 45.5 -67.5t64.5 -24.5zM576 517q0 83 -119 83q-20 0 -34.5 -3t-22 -5t-13.5 -11.5t-7.5 -11t-4.5 -16.5t-3 -16l-26 -146q8 -1 17 -1q106 0 159.5 26.5t53.5 100.5zM430 776l-60 -40q-87 46 -112 72.5t-13 59.5q9 25 33.5 42t50.5 17
q29 0 45 -24.5t56 -126.5zM657 776l-60 -40q-87 46 -112 72t-13 60q9 25 33.5 42t50.5 17q29 0 45 -24t56 -127z" />
    <glyph glyph-name="rdblgrave" unicode="&#x211;" horiz-adv-x="500" 
d="M582 442q0 -35 -26 -59t-64 -24q-32 0 -64 24q-17 13 -29 13q-63 0 -104 -169l-45 -227h-158l59 321q2 20 2 27q0 24 -13 35t-44 11h-12l15 82q98 5 192 35h52l-14 -76q68 85 155 85q43 0 70.5 -22t27.5 -56zM303 615l-60 -40q-87 46 -112 72.5t-13 59.5q9 25 33.5 42
t50.5 17q29 0 45 -24.5t56 -126.5zM530 615l-60 -40q-87 46 -112 72t-13 60q9 25 33.5 42t50.5 17q29 0 45 -24t56 -127z" />
    <glyph glyph-name="Udblgrave" unicode="&#x214;" horiz-adv-x="740" 
d="M855 681l-15 -81l-22 -2q-40 -5 -55.5 -21.5t-24.5 -63.5l-51 -281q-46 -245 -325 -245q-108 0 -174 44t-66 116q0 23 8 73l53 293q4 28 4 36q0 23 -12 35t-41 14l-22 2l15 81h348l-15 -81l-22 -2q-40 -5 -56.5 -21.5t-24.5 -63.5l-42 -235q-8 -36 -8 -90q0 -48 31 -74.5
t88 -26.5q29 0 53.5 7t40.5 16.5t29.5 28t20.5 31t13.5 35.5t8.5 33t6 32l44 243q4 17 4 33q0 47 -53 52l-22 2l15 81h269zM469 776l-60 -40q-87 46 -112 72.5t-13 59.5q9 25 33.5 42t50.5 17q29 0 45 -24.5t56 -126.5zM696 776l-60 -40q-87 46 -112 72t-13 60q9 25 33.5 42
t50.5 17q29 0 45 -24t56 -127z" />
    <glyph glyph-name="udblgrave" unicode="&#x215;" 
d="M720 64q-67 -73 -159 -73q-91 0 -118 66q-57 -37 -97.5 -51.5t-85.5 -14.5q-64 0 -105.5 29.5t-41.5 76.5q0 25 4 45l33 179q2 20 2 27q0 24 -13 35t-44 11h-12l15 82q98 5 192 35h52l-55 -306q-6 -43 -6 -54q0 -20 18 -34t44 -14q50 0 98 39l67 369h158l-57 -316
q-7 -42 -7 -52q0 -44 34 -44q16 0 45 23zM385 615l-60 -40q-87 46 -112 72.5t-13 59.5q9 25 33.5 42t50.5 17q29 0 45 -24.5t56 -126.5zM612 615l-60 -40q-87 46 -112 72t-13 60q9 25 33.5 42t50.5 17q29 0 45 -24t56 -127z" />
    <glyph glyph-name="uni0218" unicode="&#x218;" horiz-adv-x="700" 
d="M731 228q0 -101 -93.5 -171t-227.5 -70q-125 0 -219 58l-22 -45h-66l-44 256l77 13q69 -194 254 -194q63 0 103.5 27.5t40.5 69.5q0 10 -2 19t-5.5 16t-9 13t-10 10t-12 8t-12 6.5t-12.5 5t-11 3t-10 1.5l-6 2l-130 31q-95 23 -138 63q-54 49 -54 127q0 95 82 156t210 61
q120 0 217 -56l21 43h71v-229h-76q-50 154 -211 154q-54 0 -90.5 -23t-36.5 -57q0 -14 6.5 -25t13.5 -17.5t25.5 -13.5t27 -9t33.5 -9l126 -33q72 -19 108 -43q81 -54 82 -148zM411 -124q0 -50 -39.5 -106t-103.5 -98l-34 32q60 54 72 79q-6 -1 -13 -1q-28 0 -44 17.5
t-16 46.5q0 41 32.5 72.5t75.5 31.5q31 0 50.5 -20.5t19.5 -53.5z" />
    <glyph glyph-name="uni0219" unicode="&#x219;" horiz-adv-x="540" 
d="M554 183q0 -81 -83.5 -136.5t-205.5 -55.5q-119 0 -194 48q-39 25 -39 64q0 26 19 43t47 17q27 0 46 -11.5t48 -43.5q29 -35 75 -35q39 0 64.5 18.5t25.5 46.5q0 19 -12.5 30t-45.5 21l-71 20q-68 20 -99.5 51t-31.5 78q0 79 73.5 130.5t186.5 51.5q91 0 153.5 -30
t62.5 -74q0 -23 -17.5 -39t-43.5 -16q-24 0 -40.5 9.5t-38.5 36.5q-26 31 -73 31q-32 0 -51 -14.5t-19 -38.5q0 -8 1.5 -14.5t6.5 -12t8.5 -9t12 -7t11.5 -5t14.5 -5t13.5 -4.5l79 -25q117 -36 117 -120zM326 -124q0 -50 -39.5 -106t-103.5 -98l-34 32q60 54 72 79
q-6 -1 -13 -1q-28 0 -44 17.5t-16 46.5q0 41 32.5 72.5t75.5 31.5q31 0 50.5 -20.5t19.5 -53.5z" />
    <glyph glyph-name="uni021A" unicode="&#x21a;" horiz-adv-x="700" 
d="M802 464l-72 -16q-28 73 -75 110t-117 42l-79 -432q-3 -19 -3 -34q0 -28 13.5 -38.5t48.5 -12.5l32 -2l-14 -81h-388l14 81l33 2q45 3 63 19.5t27 65.5l79 432q-78 -6 -127 -37.5t-108 -114.5l-59 29l101 204h582zM403 -124q0 -50 -39.5 -106t-103.5 -98l-34 32
q60 54 72 79q-6 -1 -13 -1q-28 0 -44 17.5t-16 46.5q0 41 32.5 72.5t75.5 31.5q31 0 50.5 -20.5t19.5 -53.5z" />
    <glyph glyph-name="uni021B" unicode="&#x21b;" horiz-adv-x="440" 
d="M463 80q-43 -41 -100.5 -65t-114.5 -24q-62 0 -96 26t-34 73q0 14 8 57l49 274h-69l12 66q67 18 105 56.5t64 115.5h90l-27 -148h138l-16 -90h-139l-49 -269q-2 -16 -2 -22q0 -14 9 -22.5t24 -8.5q16 0 48.5 14.5t57.5 33.5zM317 -124q0 -50 -39.5 -106t-103.5 -98
l-34 32q60 54 72 79q-6 -1 -13 -1q-28 0 -44 17.5t-16 46.5q0 41 32.5 72.5t75.5 31.5q31 0 50.5 -20.5t19.5 -53.5z" />
    <glyph glyph-name="ereversed" unicode="&#x258;" horiz-adv-x="560" 
d="M582 203q-35 -94 -122 -153t-192 -59q-76 0 -139.5 38.5t-89.5 85.5l75 59q71 -87 156 -87q45 0 81.5 25.5t51.5 67.5q7 19 13 43q-12 -1 -27 -1q-90 0 -158 18t-102.5 59t-13.5 98q20 56 81 89.5t140 33.5q97 0 165 -43.5t88.5 -114t-7.5 -159.5zM427 292
q8 53 -16.5 101.5t-75.5 48.5q-25 0 -45 -13.5t-28 -34.5q-15 -42 30 -72t123 -30h12z" />
    <glyph glyph-name="schwa" unicode="&#x259;" horiz-adv-x="560" 
d="M601 308q0 -130 -106.5 -223.5t-254.5 -93.5q-79 0 -127.5 33.5t-48.5 89.5q0 57 49.5 98t124 59t164.5 18q15 0 26 -1q3 25 3 43q0 42 -27 67.5t-72 25.5q-86 0 -188 -87l-54 59q42 47 120.5 85.5t154.5 38.5q105 0 170.5 -59t65.5 -153zM414 219h-12q-78 0 -134 -30
t-56 -72q0 -21 15.5 -34.5t40.5 -13.5q51 0 93 48.5t53 101.5z" />
    <glyph glyph-name="ringhalfright" unicode="&#x2be;" horiz-adv-x="451" 
d="M502 519q0 -87 -71.5 -153t-166.5 -66q-57 0 -97 27.5t-41 65.5q1 28 23 48.5t53 20.5q24 0 39.5 -13.5t15.5 -33.5q0 -6 -2.5 -15t-2.5 -15q0 -17 25 -17q37 0 67 48.5t30 106.5q0 66 -62 66q-51 0 -120 -54q-1 -2 -5 -2t-5 2l-36 38q0 1 -0.5 3t-0.5 3t0.5 2.5t1.5 2.5
q35 38 88.5 61.5t104.5 23.5q73 0 118 -41.5t44 -108.5z" />
    <glyph glyph-name="ringhalfleft" unicode="&#x2bf;" horiz-adv-x="451" 
d="M482 390q0 -3 -2 -5q-35 -38 -88 -61.5t-104 -23.5q-73 0 -118 41.5t-45 108.5q0 87 72 153t167 66q57 0 96.5 -27.5t40.5 -65.5q-1 -28 -23 -48.5t-53 -20.5q-24 0 -39.5 13.5t-15.5 33.5q0 6 2.5 15t2.5 15q0 17 -25 17q-37 0 -67 -48.5t-30 -106.5q0 -66 62 -66
q51 0 120 54q1 2 5 2t5 -2l36 -38q1 -2 1 -6z" />
    <glyph glyph-name="circumflex" unicode="&#x2c6;" horiz-adv-x="480" 
d="M528 647l-42 -62l-130 56l-137 -56l-31 67l184 103z" />
    <glyph glyph-name="caron" unicode="&#x2c7;" horiz-adv-x="480" 
d="M530 688l-184 -103l-156 108l42 62l130 -56l137 56z" />
    <glyph glyph-name="breve" unicode="&#x2d8;" horiz-adv-x="460" 
d="M516 740q-17 -80 -57.5 -110t-119.5 -30t-116 32t-46 108h73q10 -32 30.5 -44.5t62.5 -12.5q41 0 63.5 13t36.5 44h73z" />
    <glyph glyph-name="dotaccent" unicode="&#x2d9;" horiz-adv-x="380" 
d="M394 686q0 -37 -31 -68t-68 -31q-28 0 -47 19.5t-19 48.5q0 38 30 68t68 30q30 0 48.5 -18.5t18.5 -48.5z" />
    <glyph glyph-name="ring" unicode="&#x2da;" horiz-adv-x="360" 
d="M412 669q0 -44 -32.5 -75.5t-78.5 -31.5q-45 0 -77.5 31.5t-32.5 75.5q0 45 32.5 77t78.5 32t78 -31.5t32 -77.5zM349 670q0 21 -14 35.5t-34 14.5t-34 -14.5t-14 -34.5q0 -21 14 -36t34 -15q19 0 33.5 15t14.5 35z" />
    <glyph glyph-name="ogonek" unicode="&#x2db;" horiz-adv-x="320" 
d="M305 -150q-30 -41 -75 -65.5t-92 -24.5q-53 0 -93 28t-40 70q0 81 119 152h108q-49 -21 -70 -48t-21 -69q0 -21 15.5 -32.5t37.5 -11.5q30 0 69 32z" />
    <glyph glyph-name="tilde" unicode="&#x2dc;" horiz-adv-x="480" 
d="M539 691q-31 -50 -53.5 -66t-62.5 -16q-27 0 -73 16t-65 16q-34 0 -55 -29l-46 36q23 45 50.5 64.5t67.5 19.5q34 0 77.5 -15.5t60.5 -15.5q19 0 28 4.5t25 22.5z" />
    <glyph glyph-name="hungarumlaut" unicode="&#x2dd;" horiz-adv-x="560" 
d="M669 707q0 -33 -35 -59.5t-138 -72.5l-45 40q77 102 102 126.5t54 24.5q26 0 44 -17t18 -42zM442 707q0 -34 -34.5 -60t-138.5 -72l-45 40q77 102 102 126.5t54 24.5q26 0 44 -17t18 -42z" />
    <glyph glyph-name="uni0300" unicode="&#x300;" horiz-adv-x="0" 
d="M-114 620l-57 -44q-99 38 -128 63.5t-16 63.5q10 26 36 43t55 17q31 0 56.5 -36t53.5 -107z" />
    <glyph glyph-name="uni0301" unicode="&#x301;" horiz-adv-x="0" 
d="M-90 703q0 -38 -38.5 -63.5t-151.5 -63.5l-41 44q53 70 92 106.5t70 36.5q29 0 49 -17.5t20 -42.5z" />
    <glyph glyph-name="uni0302" unicode="&#x302;" horiz-adv-x="0" 
d="M-52 647l-42 -62l-130 56l-137 -56l-31 67l184 103z" />
    <glyph glyph-name="uni0303" unicode="&#x303;" horiz-adv-x="0" 
d="M-41 691q-31 -50 -53.5 -66t-62.5 -16q-28 0 -73.5 16t-64.5 16q-34 0 -55 -29l-46 36q23 45 50.5 64.5t67.5 19.5q34 0 77.5 -15.5t60.5 -15.5q19 0 28 4.5t25 22.5z" />
    <glyph glyph-name="uni0304" unicode="&#x304;" horiz-adv-x="0" 
d="M-41 714l-26 -88h-328l26 88h328z" />
    <glyph glyph-name="uni0306" unicode="&#x306;" horiz-adv-x="0" 
d="M-54 740q-17 -80 -57.5 -110t-119.5 -30t-116 32t-46 108h73q10 -32 30.5 -44.5t62.5 -12.5q41 0 63.5 13t36.5 44h73z" />
    <glyph glyph-name="uni0307" unicode="&#x307;" horiz-adv-x="0" 
d="M-136 686q0 -37 -31 -68t-68 -31q-28 0 -47 19.5t-19 48.5q0 38 30 68t68 30q30 0 48.5 -18.5t18.5 -48.5z" />
    <glyph glyph-name="uni0308" unicode="&#x308;" horiz-adv-x="0" 
d="M-263 685q0 -35 -30.5 -65t-65.5 -30q-28 0 -46 18.5t-18 46.5q0 37 29 66t66 29q29 0 47 -18t18 -47zM-14 685q0 -35 -30.5 -65t-65.5 -30q-28 0 -46 18.5t-18 46.5q0 37 29 66t66 29q29 0 47 -18t18 -47z" />
    <glyph glyph-name="uni0309" unicode="&#x309;" horiz-adv-x="0" 
d="M-88 704q0 -35 -22 -64.5t-60 -44.5q-23 -9 -31 -18t-11 -31h-57q2 41 11.5 60t39.5 41q32 23 32 53q0 18 -11 29.5t-29 11.5q-17 0 -30.5 -6t-13.5 -14q0 -1 2 -10t2 -13q0 -19 -14.5 -33t-33.5 -14q-20 0 -32 12t-12 32q0 41 43 70.5t103 29.5q55 0 89.5 -25.5
t34.5 -65.5z" />
    <glyph glyph-name="uni030A" unicode="&#x30a;" horiz-adv-x="0" 
d="M-108 669q0 -44 -32.5 -75.5t-78.5 -31.5q-45 0 -77.5 31.5t-32.5 75.5q0 45 32.5 77t78.5 32t78 -31.5t32 -77.5zM-171 670q0 21 -14 35.5t-34 14.5t-34 -14.5t-14 -34.5q0 -21 14 -36t34 -15q19 0 33.5 15t14.5 35z" />
    <glyph glyph-name="uni030B" unicode="&#x30b;" horiz-adv-x="0" 
d="M49 707q0 -33 -35 -59.5t-138 -72.5l-45 40q77 102 102 126.5t54 24.5q26 0 44 -17t18 -42zM-178 707q0 -34 -34.5 -60t-138.5 -72l-45 40q77 102 102 126.5t54 24.5q26 0 44 -17t18 -42z" />
    <glyph glyph-name="uni030C" unicode="&#x30c;" horiz-adv-x="0" 
d="M-50 688l-184 -103l-156 108l42 62l130 -56l137 56z" />
    <glyph glyph-name="uni030F" unicode="&#x30f;" horiz-adv-x="0" 
d="M-287 615l-60 -40q-87 46 -112 72.5t-13 59.5q9 25 33.5 42t50.5 17q29 0 45 -24.5t56 -126.5zM-60 615l-60 -40q-87 46 -112 72t-13 60q9 25 33.5 42t50.5 17q29 0 45 -24t56 -127z" />
    <glyph glyph-name="uni0311" unicode="&#x311;" horiz-adv-x="0" 
d="M-79 600h-73q-10 32 -30.5 44.5t-62.5 12.5q-41 0 -63.5 -13t-36.5 -44h-73q17 80 57.5 110t119.5 30t116 -32t46 -108z" />
    <glyph glyph-name="uni0323" unicode="&#x323;" horiz-adv-x="0" 
d="M-286 -144q0 -37 -31 -68t-68 -31q-28 0 -47 19.5t-19 48.5q0 38 30 68t68 30q30 0 48.5 -18.5t18.5 -48.5z" />
    <glyph glyph-name="uni0326" unicode="&#x326;" horiz-adv-x="0" 
d="M-279 -124q0 -50 -39.5 -106t-103.5 -98l-34 32q60 54 72 79q-6 -1 -13 -1q-28 0 -44 17.5t-16 46.5q0 41 32.5 72.5t75.5 31.5q31 0 50.5 -20.5t19.5 -53.5z" />
    <glyph glyph-name="uni032E" unicode="&#x32e;" horiz-adv-x="0" 
d="M-186 -97q-16 -70 -61 -98t-134 -28q-86 0 -127 29t-51 97h80q12 -29 34 -40t69 -11q45 0 70 11.5t40 39.5h80z" />
    <glyph glyph-name="uni032F" unicode="&#x32f;" horiz-adv-x="0" 
d="M-208 -223h-80q-12 29 -34 40t-69 11q-45 0 -70 -11.5t-40 -39.5h-80q16 70 61 98t134 28q86 0 127 -29t51 -97z" />
    <glyph glyph-name="uni0330" unicode="&#x330;" horiz-adv-x="0" 
d="M-192 -139q-31 -50 -53.5 -66t-62.5 -16q-28 0 -74 16t-64 16q-34 0 -55 -29l-46 36q23 45 50.5 64.5t67.5 19.5q34 0 77.5 -15.5t60.5 -15.5q19 0 28 4.5t25 22.5z" />
    <glyph glyph-name="uni0331" unicode="&#x331;" horiz-adv-x="0" 
d="M-192 -116l-26 -88h-328l26 88h328z" />
    <glyph glyph-name="uni0332" unicode="&#x332;" horiz-adv-x="0" 
d="M-192 -116l-26 -88h-328l26 88h328z" />
    <glyph glyph-name="Alpha" unicode="&#x391;" horiz-adv-x="720" 
d="M769 81l-15 -81h-352l15 81l33 4q33 5 45 12.5t12 23.5q0 11 -7 44l-16 77h-222l-46 -87q-16 -30 -16 -43q0 -22 58 -29l19 -2l-15 -81h-289l15 81q53 12 83 41.5t64 87.5l278 471h151l116 -503q17 -58 28 -71t49 -23q7 -2 12 -3zM469 320l-41 218l-123 -218h164z" />
    <glyph glyph-name="Beta" unicode="&#x392;" horiz-adv-x="720" 
d="M739 232q0 -38 -15.5 -75.5t-48.5 -74t-95.5 -59.5t-144.5 -23h-421l15 81l22 2q40 6 55.5 22.5t24.5 62.5l63 345q4 28 4 37q0 22 -11.5 33.5t-41.5 14.5l-22 2l14 81h377q130 0 189 -29.5t59 -113.5q0 -67 -50.5 -114.5t-130.5 -57.5q71 -2 114.5 -39t43.5 -95z
M545 233q0 49 -29 69t-99 20h-84l-22 -121q-9 -72 -9 -73q0 -25 15.5 -34.5t60.5 -9.5q86 0 126.5 48.5t40.5 100.5zM585 517q0 83 -120 83q-57 0 -71.5 -14t-23.5 -61l-22 -120h62q85 0 130 28.5t45 83.5z" />
    <glyph glyph-name="Gamma" unicode="&#x393;" horiz-adv-x="660" 
d="M763 445l-69 -18l-3 7q-36 58 -49.5 75.5t-36.5 36.5q-59 47 -142 47q-52 0 -68.5 -14.5t-26.5 -67.5l-63 -343q-3 -21 -3 -36q0 -25 12.5 -36t46.5 -13l28 -2l-15 -81h-360l15 81l22 2q40 6 55.5 22.5t24.5 62.5l63 345q4 28 4 37q0 22 -11.5 33.5t-41.5 14.5l-22 2
l14 81h572z" />
    <glyph glyph-name="Delta" unicode="&#x394;" horiz-adv-x="720" 
d="M649 94l-20 -94h-683l20 94l391 587h152zM445 109l-77 393l-251 -393h328z" />
    <glyph glyph-name="Epsilon" unicode="&#x395;" horiz-adv-x="720" 
d="M761 225l-113 -225h-634l15 81l22 2q39 4 55.5 21.5t24.5 63.5l63 345l4 36q0 23 -12 34.5t-41 14.5l-22 2l15 81h584l55 -221l-70 -22q-74 162 -227 162q-45 0 -69.5 -13t-29.5 -25t-11 -43q-1 -5 -2 -8l-19 -101q16 -2 40 -2q55 0 75 18.5t37 84.5h71l-55 -302h-71
q2 24 2 32q0 22 -6 37t-14 23.5t-25 13t-30.5 5.5t-39.5 1l-30 -165q-4 -26 -4 -32q0 -23 16 -31.5t61 -8.5q89 0 157.5 37.5t161.5 138.5z" />
    <glyph glyph-name="Zeta" unicode="&#x396;" 
d="M719 233l-103 -233h-567l-26 62l478 535q-26 5 -51 5q-121 0 -203 -61q-34 -24 -89 -96l-74 27l88 209h548l20 -60l-474 -535q46 -6 76 -6q103 0 176 43t125 135z" />
    <glyph glyph-name="Eta" unicode="&#x397;" horiz-adv-x="800" 
d="M801 81l-15 -81h-348l15 81l23 2q40 4 56 21t24 64l28 155h-250l-29 -155q-3 -19 -3 -34q0 -25 11.5 -36.5t41.5 -14.5l22 -2l-15 -81h-348l15 81l22 2q40 4 55.5 21t24.5 64l63 345q4 28 4 37q0 22 -11.5 33.5t-41.5 14.5l-22 2l14 81h348l-14 -81l-23 -2
q-39 -5 -55.5 -22t-24.5 -63l-18 -100h250l18 100q4 26 4 35q0 46 -53 50l-22 2l15 81h348l-15 -81l-22 -2q-40 -5 -55.5 -21.5t-24.5 -63.5l-63 -345q-4 -19 -4 -36q0 -23 12 -35t41 -14z" />
    <glyph glyph-name="Theta" unicode="&#x398;" horiz-adv-x="800" 
d="M795 341q-34 -160 -155.5 -256.5t-286.5 -96.5q-133 0 -216 69t-83 195q0 125 63 227t166.5 158t223.5 56q137 0 217 -72t80 -197q0 -41 -9 -83zM616 430q0 73 -35.5 114t-97.5 41q-96 0 -168 -100t-72 -231q0 -74 35 -115.5t99 -41.5q99 0 169 99.5t70 233.5zM585 447
l-43 -204h-69l3 15l2 14q0 26 -38 26h-39q-46 0 -53 -40l-3 -15h-69l43 204h69l-4 -20l-2 -13q0 -21 39 -21h39q30 0 39 7t13 27l4 20h69z" />
    <glyph glyph-name="Iota" unicode="&#x399;" horiz-adv-x="380" 
d="M376 81l-15 -81h-347l15 81l22 2q40 6 56 22.5t24 62.5l63 345q3 19 3 34q0 24 -11.5 36t-41.5 15l-21 2l14 81h348l-15 -81l-22 -2q-40 -4 -56 -21t-24 -64l-63 -345q-3 -19 -3 -34q0 -25 11.5 -37t41.5 -14z" />
    <glyph glyph-name="Kappa" unicode="&#x39a;" horiz-adv-x="780" 
d="M813 81l-15 -81h-358l14 81l11 2q63 8 63 32q0 13 -18 49l-89 171l-99 -75l-17 -92q-3 -19 -3 -35q0 -23 11 -35t42 -15l22 -2l-15 -81h-348l15 81l22 2q40 4 55.5 21t24.5 64l63 345q4 28 4 37q0 22 -11.5 33.5t-41.5 14.5l-22 2l14 81h349l-15 -81l-23 -2
q-39 -5 -55.5 -21.5t-24.5 -63.5l-24 -135l206 162q39 31 39 41q0 9 -35 15l-28 4l14 81h339l-15 -81q-59 -9 -102 -27t-95 -56l-108 -79l135 -247q34 -61 53 -79t66 -31z" />
    <glyph glyph-name="Lambda" unicode="&#x39b;" horiz-adv-x="720" 
d="M769 81l-15 -81h-352l15 81l33 4q33 5 45 12.5t12 23.5q0 11 -7 44l-72 373l-212 -383q-16 -30 -16 -43q0 -22 58 -29l19 -2l-15 -81h-289l15 81q53 12 83 41.5t64 87.5l278 471h151l116 -503q17 -58 28 -71t49 -23q7 -2 12 -3z" />
    <glyph glyph-name="Mu" unicode="&#x39c;" horiz-adv-x="860" 
d="M861 81l-15 -81h-339l15 81l22 2q40 5 56 21.5t25 63.5l70 385l-270 -553h-67l-70 553l-70 -385q-5 -30 -5 -32q0 -50 54 -53l34 -2l-15 -81h-272l15 81l13 2q41 5 57 21.5t24 63.5l62 345q4 28 4 36q0 23 -11.5 34t-41.5 15l-13 2l14 81h300l43 -378l186 378h304
l-15 -81l-15 -2q-40 -6 -55.5 -22.5t-23.5 -62.5l-62 -345q-5 -21 -3 -35q0 -25 11.5 -35.5t38.5 -14.5z" />
    <glyph glyph-name="Nu" unicode="&#x39d;" horiz-adv-x="740" 
d="M845 681l-15 -81l-22 -2q-40 -5 -56.5 -21.5t-24.5 -63.5l-93 -513h-124l-214 549l-69 -381q-4 -17 -4 -33q0 -47 53 -52l22 -2l-15 -81h-269l15 81l22 2q40 5 56.5 21.5t24.5 63.5l62 345q4 28 4 36q0 23 -12 35t-41 14l-22 2l15 81h289l159 -425l46 257q4 28 4 35
q0 25 -13 36.5t-40 13.5l-22 2l15 81h269z" />
    <glyph glyph-name="Xi" unicode="&#x39e;" horiz-adv-x="721" 
d="M752 466l-95 -32q-14 65 -54.5 94.5t-118.5 29.5h-107q-78 0 -130 -29t-94 -95l-82 32l110 215h553zM573 481l-54 -252h-87l4 16q3 12 3 30q0 16 -8 21.5t-33 5.5h-43q-31 0 -43.5 -12.5t-18.5 -44.5l-3 -16h-87l54 252h87l-5 -22q-3 -13 -3 -23q0 -28 41 -28h44
q32 0 42 9t18 42l5 22h87zM723 253l-134 -253h-553l-28 247l97 37q18 -91 54 -126t119 -35h116q89 0 141 34t105 127z" />
    <glyph glyph-name="Omicron" unicode="&#x39f;" horiz-adv-x="760" 
d="M806 386q0 -67 -27.5 -136t-77 -128.5t-130.5 -97t-177 -37.5q-141 0 -228.5 84t-87.5 220q0 167 118 285t289 118q145 0 233 -84.5t88 -223.5zM613 412q0 91 -36.5 140.5t-103.5 49.5q-85 0 -146 -99.5t-61 -237.5q0 -85 36 -133.5t98 -48.5q48 0 87 26t61.5 64.5
t38 85.5t21 85t5.5 68z" />
    <glyph glyph-name="Pi" unicode="&#x3a0;" horiz-adv-x="860" 
d="M831 81l-15 -81h-348l15 81l23 2q39 5 55.5 21.5t24.5 63.5l62 345q5 32 5 35q0 50 -54 50h-121q-38 0 -55 -18.5t-25 -66.5l-63 -345q-3 -19 -3 -34q0 -25 11.5 -36.5t41.5 -14.5l22 -2l-15 -81h-348l15 81l22 2q40 4 55.5 21t24.5 64l63 345q4 28 4 37q0 22 -11.5 33.5
t-41.5 14.5l-22 2l14 81h773l-15 -81l-22 -2q-40 -4 -55.5 -21t-24.5 -64l-63 -345q-4 -19 -4 -36q0 -23 12 -35t41 -14z" />
    <glyph glyph-name="Rho" unicode="&#x3a1;" horiz-adv-x="640" 
d="M724 517q0 -234 -335 -234h-83l-21 -115q-3 -18 -3 -34q0 -24 11.5 -37t41.5 -14l34 -2l-15 -81h-360l15 81l22 2q40 4 55.5 21t24.5 64l63 345q4 28 4 37q0 22 -11.5 33.5t-41.5 14.5l-22 2l14 81h342q67 0 111.5 -6t81.5 -23t54.5 -50t17.5 -85zM538 510q0 93 -105 91
q-26 0 -41.5 -5t-23.5 -18t-10.5 -21.5t-6.5 -29.5l-29 -158h25q53 0 77.5 5t48.5 20q29 20 47 51.5t18 64.5z" />
    <glyph glyph-name="Sigma" unicode="&#x3a3;" horiz-adv-x="640" 
d="M649 252l-143 -252h-520l20 94l246 238l-129 255l20 94h474l53 -236l-94 -38q-35 107 -71.5 137t-121.5 30h-71l107 -211l-222 -222h111q98 0 153 29.5t105 111.5z" />
    <glyph glyph-name="Tau" unicode="&#x3a4;" horiz-adv-x="700" 
d="M802 464l-72 -16q-28 73 -75 110t-117 42l-79 -432q-3 -19 -3 -34q0 -28 13.5 -38.5t48.5 -12.5l32 -2l-14 -81h-388l14 81l33 2q45 3 63 19.5t27 65.5l79 432q-78 -6 -127 -37.5t-108 -114.5l-59 29l101 204h582z" />
    <glyph glyph-name="Upsilon" unicode="&#x3a5;" horiz-adv-x="660" 
d="M728 454h-96q5 26 -2 45.5t-27 19.5q-21 0 -39.5 -9.5t-31 -21.5t-24.5 -36.5t-19 -42.5t-15 -52t-11.5 -52t-10.5 -55l-14 -82q-1 -9 -4 -35q0 -23 12 -35.5t41 -14.5l30 -2l-15 -81h-361l15 81l31 2q39 5 55.5 22t24.5 63l14 82q7 40 11 63.5t8.5 60t2.5 58t-8 44
t-20.5 33t-36.5 10.5q-19 0 -31.5 -19t-17.5 -46h-96q18 94 62.5 160.5t111.5 66.5q116 0 159 -115q89 115 206 115q68 0 90.5 -66.5t5.5 -160.5z" />
    <glyph glyph-name="Phi" unicode="&#x3a6;" horiz-adv-x="907" 
d="M884 346q-20 -98 -112 -144t-275 -46l-6 -25q-2 -18 -2 -19q0 -28 39 -28h35l-18 -84h-328l17 84h35q49 0 58 47l5 25q-94 0 -156.5 10.5t-95.5 32t-46 47.5t-13 62q0 115 96.5 168.5t294.5 53.5l4 19q1 3 1 18q0 30 -39 30h-35l18 84h329l-18 -84h-35q-47 0 -57 -48
l-4 -19q76 0 132 -7t90.5 -19t55 -31.5t28 -40.5t7.5 -50q0 -9 -5 -36zM709 362q0 74 -153 74l-39 -185q102 0 147 27t45 84zM391 436q-192 0 -192 -114q0 -35 32 -53t121 -18z" />
    <glyph glyph-name="Chi" unicode="&#x3a7;" horiz-adv-x="740" 
d="M766 81l-15 -81h-376l15 81q38 3 51.5 7t13.5 15q0 8 -15 40l-66 126l-104 -119q-25 -28 -25 -42q0 -11 13.5 -16.5t44.5 -9.5l11 -1l-15 -81h-306l15 81q65 16 90.5 31.5t83.5 73.5l144 162l-85 152q-31 54 -52 71t-62 26q-2 1 -12 3l15 81h357l-14 -81q-37 -2 -52 -7
t-15 -17q0 -13 16 -42l51 -92l95 108q17 18 17 29q0 17 -57 21h-2.5h-2.5l14 81h298l-15 -81q-97 -10 -179 -103l-118 -134l104 -183q32 -49 63 -71.5t76 -27.5z" />
    <glyph glyph-name="Psi" unicode="&#x3a8;" horiz-adv-x="999" 
d="M1057 681l-20 -94h-18q-34 0 -44.5 -10.5t-20.5 -55.5l-14 -66q-24 -114 -96 -164.5t-210 -50.5h-72l-18 -83q-4 -16 -4 -36q0 -17 11 -22t43 -5h19l-20 -94h-333l20 94h22q39 0 52.5 12t21.5 51l18 83h-60q-125 0 -180 32.5t-55 105.5q0 42 8 77l15 66q4 16 4 39
q0 16 -9 21.5t-33 5.5h-18l20 94h238l-45 -210q-8 -35 -7 -61q0 -36 24 -50t83 -14h37l40 189q3 13 3 27q0 15 -8.5 20t-31.5 5h-13l20 94h294l-20 -94h-16q-32 0 -42.5 -12t-18.5 -49l-39 -180h33q77 0 109.5 26t48.5 99l44 210h238z" />
    <glyph glyph-name="Omega" unicode="&#x3a9;" horiz-adv-x="787" 
d="M751 196l-119 -196h-281l66 229q67 24 111.5 87t44.5 149q0 56 -34.5 88t-92.5 32q-91 0 -147.5 -69.5t-56.5 -165.5q0 -91 78 -121l-31 -229h-282l-36 196l81 19q20 -57 59 -81t119 -25l1 46q-169 51 -169 197q0 148 119 244.5t289 96.5q129 0 206.5 -60t77.5 -158
q0 -123 -75.5 -205.5t-204.5 -114.5l-18 -46q79 2 127.5 24t95.5 82z" />
    <glyph glyph-name="alpha" unicode="&#x3b1;" horiz-adv-x="640" 
d="M688 95q-60 -64 -92.5 -83.5t-76.5 -19.5q-81 0 -103 66q-73 -70 -160 -70q-72 0 -116 50.5t-44 130.5q0 141 90.5 227.5t232.5 86.5q59 0 206 -13l-81 -356q-1 -4 -1.5 -7.5t-1 -5.5l-1 -4t-0.5 -3v-5q19 1 76 68zM477 376q-39 6 -65 6q-76 0 -127.5 -66.5t-51.5 -156.5
q0 -68 43 -68q59 0 118 85t83 200z" />
    <glyph glyph-name="beta" unicode="&#x3b2;" horiz-adv-x="590" 
d="M629 556q0 -54 -50 -86t-128 -32q-93 0 -177 24q-71 -110 -71 -234q0 -74 21.5 -114t60.5 -40q64 0 101 41.5t37 115.5q0 99 -59 99q-45 0 -45 -65q0 -17 3 -37l-104 13q-1 6 -1 18q0 64 48 105t124 41q82 0 126 -46.5t44 -129.5q0 -118 -72.5 -180t-207.5 -62
q-104 0 -157.5 58.5t-53.5 166.5q0 101 50.5 210t143.5 187t198 78q69 0 119 -37.5t50 -93.5zM522 558q0 23 -23.5 36.5t-56.5 13.5q-51 0 -134 -77q90 -22 125 -22q89 0 89 49z" />
    <glyph glyph-name="gamma" unicode="&#x3b3;" horiz-adv-x="503" 
d="M576 409q0 -44 -41 -112q-6 -11 -60 -91l-141 -211q0 -225 -112 -225q-67 0 -67 69q0 47 54 139l-64 365l-2 4q-12 -11 -34 -59l-87 25q42 81 85 114.5t93 33.5q30 0 48 -17t35 -67l34 -232l69 110q31 48 34 68q0 2 -6.5 31.5t-6.5 39.5q0 42 26 65.5t66 23.5
q77 0 77 -74z" />
    <glyph glyph-name="delta" unicode="&#x3b4;" horiz-adv-x="560" 
d="M575 297q0 -133 -77 -221t-196 -88q-93 0 -148.5 58t-55.5 150q0 85 43.5 160t114.5 111q-37 31 -37 80q0 57 49.5 106t126.5 49q34 -1 91 -18q22 -7 37 -7q13 0 31 24l72 -21q-16 -66 -49 -93q-23 -18 -35 -21.5t-39 -3.5q-13 0 -24 3t-37 11.5t-53 16.5q-34 0 -34 -45
q0 -17 53 -40l89 -39q78 -52 78 -172zM439 301q0 98 -67 98q-56 0 -96.5 -63t-40.5 -141q0 -107 69 -107q56 0 95.5 65.5t39.5 147.5z" />
    <glyph glyph-name="epsilon" unicode="&#x3b5;" horiz-adv-x="469" 
d="M510 128q-86 -88 -134.5 -114.5t-118.5 -26.5q-86 0 -139 37.5t-53 102.5q0 89 98 131q-38 29 -38 75q0 69 64.5 114t151.5 45q133 0 143 -94v-20q0 -65 -64 -65q-20 0 -33 20t-13 47l-18 11q-5 3 -23 3q-30 0 -51.5 -17t-21.5 -42q0 -43 81 -43h57l-20 -94h-47
q-131 0 -131 -67q0 -16 23 -27t51 -11q43 0 76.5 18.5t99.5 78.5z" />
    <glyph glyph-name="zeta" unicode="&#x3b6;" horiz-adv-x="397" 
d="M466 -52q0 -73 -67 -125t-156 -52q-67 0 -112 26t-45 67q0 61 61 61q16 0 56 -26t60 -26q32 0 53.5 13t21.5 34q-187 124 -191 128q-46 47 -46 127q0 193 275 436q-53 19 -95 19q-50 0 -85 -32l-79 22q42 118 146 118q39 0 127 -19q42 -9 58 -9q20 0 41.5 13t28.5 13
q22 0 37 -16.5t15 -47.5q0 -32 -30 -55q-132 -105 -219 -226.5t-87 -204.5q0 -45 28 -64q5 -3 147 -80q57 -37 57 -94z" />
    <glyph glyph-name="eta" unicode="&#x3b7;" horiz-adv-x="590" 
d="M513 -159l-23 -75q-71 15 -102 43.5t-31 76.5q0 10 1 14l92 427q5 25 5 33q0 14 -17 14q-70 0 -130 -111q-30 -56 -45 -105.5t-40 -176.5h-131l83 375q-21 -23 -40 -78l-84 31q41 100 74.5 134.5t90.5 34.5q32 0 56.5 -20t31.5 -45q73 70 153 70q53 0 90 -32t37 -84
q0 -18 -10 -64l-90 -428q1 -16 29 -34z" />
    <glyph glyph-name="theta" unicode="&#x3b8;" horiz-adv-x="507" 
d="M517 276q-26 -131 -102 -207.5t-181 -76.5q-82 0 -134.5 52.5t-52.5 134.5q0 106 75.5 178t184.5 72q64 0 107 -32q4 28 4 59q0 131 -78 131h-8q-56 0 -56 -42q0 -17 16 -31.5t44 -14.5q12 0 27 3q1 -6 3.5 -20.5t2.5 -20.5q-21 -17 -70 -17q-79 0 -113.5 36t-34.5 86
q0 57 59 90t147 33q85 0 132.5 -70t47.5 -188q0 -52 -20 -155zM377 245q0 16 -5 38q-14 56 -67 56q-55 0 -91.5 -47t-36.5 -113q0 -86 66 -86q50 0 92 47t42 105z" />
    <glyph glyph-name="iota" unicode="&#x3b9;" horiz-adv-x="280" 
d="M347 97q-71 -105 -147 -105q-42 0 -69 27.5t-27 69.5q0 26 7 54l43 185l-72 23q68 141 153 141q55 0 55 -55q0 -25 -7 -54l-60 -267q-4 -16 -4 -25v-1q16 6 66 68z" />
    <glyph glyph-name="kappa" unicode="&#x3ba;" horiz-adv-x="600" 
d="M664 99q-89 -107 -166 -107q-88 0 -130 104l-57 140q-61 -92 -96 -237h-128l83 388q-10 -13 -29 -50l-87 24q74 142 174 142q73 0 73 -89q0 -18 -6 -49q108 120 232 120q113 0 113 -80q0 -27 -19 -45.5t-46 -18.5q-14 0 -42 14l-10 7q-10 6 -21.5 11.5t-17.5 5.5
q-30 0 -79 -37l80 -198q21 -51 32 -51q20 0 74 66z" />
    <glyph glyph-name="lambda" unicode="&#x3bb;" horiz-adv-x="672" 
d="M664 416l-95 -414h-158l83 364q-12 23 -52 23q-95 0 -117 -110l-67 -275q-33 -135 -191 -135q-70 0 -110 20l16 72l10 -3q28 -2 31 -2q25 0 52 18t35 48l78 312q14 63 69.5 109.5t130.5 46.5q70 0 132 -52l7 28q8 31 8 58q0 49 -24.5 78t-68.5 29q-52 0 -88 -36
q-25 -25 -41 -36t-23.5 -12t-27.5 -1q-25 0 -39.5 12t-14.5 32q0 53 73.5 91t172.5 38q105 0 172 -44.5t67 -123.5q-2 -51 -20 -135z" />
    <glyph glyph-name="mu.greek" unicode="&#x3bc;" horiz-adv-x="793" 
d="M777 130q-11 -59 -56 -101t-100 -42q-99 0 -149 50q-68 -50 -143 -50q-49 0 -88 7l-44 -244h-175q50 203 82 380l70 390h162l-70 -390q-5 -25 18.5 -36t61.5 -11q54 0 97 45l71 392h162l-70 -390q-4 -19 5.5 -33t26.5 -14q16 0 27.5 14t15.5 33h96z" />
    <glyph glyph-name="nu" unicode="&#x3bd;" horiz-adv-x="540" 
d="M585 379q0 -116 -101 -249q-109 -142 -225 -142q-50 0 -80 28.5t-30 75.5q0 77 22 243l-4 -9l-86 24q75 143 173 143q61 0 61 -72q0 -13 -4 -44l-25 -213q-3 -25 -3 -49q0 -22 5 -24q48 0 112 86.5t64 140.5q0 10 -14.5 49t-14.5 49q0 67 64 67q38 0 62 -29t24 -75z" />
    <glyph glyph-name="xi" unicode="&#x3be;" horiz-adv-x="463" 
d="M460 -46q0 -76 -67 -129.5t-157 -53.5q-67 0 -112 26t-45 68q0 61 61 61q16 0 56 -26.5t61 -26.5q32 0 54.5 15t22.5 38q0 5 -19 15l-123 62q-98 48 -98 174q0 90 46 160.5t127 104.5q-68 38 -68 106q0 60 40 101l-7 3q-68 29 -68 96q0 43 12 69.5t31 26.5q15 0 24 -19
q51 -105 205 -105q21 0 59.5 6.5t55.5 6.5q16 0 26.5 -17t10.5 -33q0 -32 -29.5 -52t-73.5 -20q-6 0 -51 2t-51 -1q-49 -6 -49 -61q0 -37 53 -54l99 -27q54 -20 54 -60q0 -29 -18.5 -48.5t-46.5 -19.5q-8 0 -46.5 16t-50.5 16q-62 0 -102.5 -51.5t-40.5 -126.5
q0 -36 23 -62.5t56 -43.5t66.5 -33.5t56.5 -42.5t23 -60z" />
    <glyph glyph-name="omicron" unicode="&#x3bf;" horiz-adv-x="600" 
d="M627 308q0 -29 -8.5 -66t-31.5 -82t-58 -82t-94.5 -62t-133.5 -25q-112 0 -177 55t-65 149q0 34 8.5 72.5t31.5 84.5t58 82.5t94 61t133 24.5q117 0 180 -55t63 -157zM459 337q0 50 -19 72.5t-60 22.5q-43 0 -75 -34.5t-46 -84.5t-20.5 -87.5t-6.5 -60.5q0 -41 20 -63.5
t57 -22.5q44 0 76.5 35t47 84t20.5 85t6 54z" />
    <glyph glyph-name="pi" unicode="&#x3c0;" horiz-adv-x="608" 
d="M653 104q-101 -116 -181 -116q-52 0 -87.5 29t-35.5 78q0 25 6 51l51 220l-72 8l-89 -375h-131l92 385q-19 -3 -53 -17l-91 31q64 90 193 90q54 0 176 -16q52 -7 85 -7q48 0 85 22l89 -45q-58 -55 -98 -69l-57 -10l-51 -223q-6 -26 -6 -38q0 -11 8 -11q26 0 94 74z" />
    <glyph glyph-name="rho" unicode="&#x3c1;" horiz-adv-x="636" 
d="M665 245q-31 -117 -125.5 -187t-215.5 -70q-59 0 -112 19l-60 -225h-157l114 428q76 289 352 289q98 0 156.5 -48.5t58.5 -130.5q0 -33 -11 -75zM504 310q0 12 -4 32q-12 50 -67 50q-66 0 -110 -70.5t-44 -146.5q0 -81 70 -81q62 0 108.5 67.5t46.5 148.5z" />
    <glyph glyph-name="uni03C2" unicode="&#x3c2;" horiz-adv-x="480" 
d="M539 342q0 -88 -72 -88q-28 0 -46 21.5t-18 49.5q0 3 1 15t1 14q0 27 -35 27q-60 0 -105.5 -62t-45.5 -137q0 -35 23.5 -59t95.5 -61q57 -30 78 -56t21 -65q0 -71 -67 -121t-153 -50q-70 0 -115 26t-45 68q0 61 62 61q10 0 55.5 -26t60.5 -26q71 0 71 45q0 12 -33 32
q-117 66 -154.5 112t-37.5 115q0 126 83.5 216t207.5 90q72 0 119.5 -39.5t47.5 -101.5z" />
    <glyph glyph-name="sigma" unicode="&#x3c3;" horiz-adv-x="561" 
d="M645 477q-24 -93 -98 -108q20 -42 20 -98q0 -120 -80.5 -201.5t-198.5 -81.5q-90 0 -146 56t-56 146q0 122 78.5 208t198.5 86q17 0 90 -5t89 -5q14 0 32 24zM430 290q0 95 -68 95q-58 0 -98 -61.5t-40 -142.5q0 -96 69 -96q56 0 96.5 63.5t40.5 141.5z" />
    <glyph glyph-name="tau" unicode="&#x3c4;" horiz-adv-x="390" 
d="M434 105q-96 -117 -172 -117q-50 0 -83 29t-33 78q0 21 6 50l53 245q-14 2 -20 2q-11 0 -46 -18l-71 18q40 103 126 103q35 0 103 -16q27 -6 45 -6q20 0 40 21l75 -18q-38 -105 -125 -108l-9 -4l-49 -224q-5 -25 -5 -36q0 -13 8 -13q22 0 88 74z" />
    <glyph glyph-name="upsilon" unicode="&#x3c5;" horiz-adv-x="571" 
d="M610 473l-60 -256q-25 -108 -95.5 -168.5t-171.5 -60.5q-158 0 -158 119q0 51 22 142l18 77l-84 24q75 141 166 141q67 0 67 -58q0 -28 -7 -56l-48 -207q-7 -28 -7 -56q0 -29 42 -29q96 0 132 156l53 232h131z" />
    <glyph glyph-name="phi" unicode="&#x3c6;" horiz-adv-x="617" 
d="M644 178q-9 -81 -85.5 -136.5t-191.5 -68.5l-45 -191h-128l44 193q-162 27 -162 204q0 111 57 191q52 72 127 92.5t235 20.5l-33 -107q-109 -8 -138.5 -15.5t-69.5 -41.5q-26 -22 -37.5 -67t-11.5 -82q0 -41 11 -54.5t44 -18.5q20 83 24 96q16 45 53 75t72 40t68 10
q66 0 117 -36.5t51 -89.5zM517 189q0 24 -37 24q-64 0 -76 -52l-15 -64q67 6 97.5 32.5t30.5 59.5z" />
    <glyph glyph-name="chi" unicode="&#x3c7;" horiz-adv-x="612" 
d="M599 -151q-85 -71 -163 -71q-82 0 -116 81q-13 30 -34 149l-50 -86q-52 -89 -91.5 -117t-86.5 -28q-32 0 -51 19.5t-19 50.5q0 33 22.5 56.5t54.5 23.5q6 -3 29 -3q16 0 34 24t69 108q34 57 56 93l-40 149q-15 56 -27 67t-81 27l20 72q72 7 133 22h52l46 -225
q80 111 101 135q78 93 126 93q46 0 64.5 -20t18.5 -45q0 -35 -30 -59t-66 -24h-12l-4 1q-33 0 -171 -200q13 -113 25.5 -162.5t29.5 -64t54 -14.5q12 0 67 35z" />
    <glyph glyph-name="psi" unicode="&#x3c8;" horiz-adv-x="743" 
d="M765 477l-98 -310q-29 -93 -91 -138.5t-171 -52.5l-48 -197h-120l48 194h-9q-72 0 -112.5 31.5t-40.5 83.5q0 26 7 55l45 203q-15 0 -22 -16l-81 22q76 145 183 145q64 0 64 -61q0 -12 -6 -40l-58 -266q-5 -21 -5 -34q2 -21 34 -21q12 0 21 4l112 477h137l-122 -471
q89 18 146 178q22 64 55 214h132z" />
    <glyph glyph-name="omega" unicode="&#x3c9;" horiz-adv-x="717" 
d="M736 296q0 -134 -74 -221t-189 -87q-69 0 -100 48q-49 -48 -123 -48q-77 0 -120.5 49.5t-43.5 136.5q0 147 92.5 228t262.5 81l-22 -99q-66 0 -104 -20q-38 -21 -64 -81.5t-26 -126.5q0 -69 38 -69q53 0 78 112l20 91h132l-25 -101q-11 -46 -11 -79q0 -23 23 -23
q47 0 81.5 66.5t34.5 144.5q0 51 -20.5 68t-101.5 20l22 97q124 0 182 -46t58 -141z" />
    <glyph glyph-name="uni03D1" unicode="&#x3d1;" horiz-adv-x="601" 
d="M640 492q0 -129 -48.5 -245.5t-132.5 -187.5t-181 -71q-79 0 -124 40.5t-45 119.5q0 11 5 53t5 44l-58 4l28 106q71 -6 84 -9l15 -3q62 -18 62 -81q0 -31 -2.5 -60t-5 -46t-2.5 -19q0 -48 52 -48q119 0 188 266q24 91 24 153q0 59 -18 80.5t-58 21.5q-48 0 -79 -37.5
t-31 -92.5q0 -25 3.5 -38t20.5 -30q24 -26 102 -30l-29 -107q-100 0 -160.5 57.5t-60.5 157.5q0 81 42 143q28 41 84.5 62.5t116.5 21.5q203 0 203 -225z" />
    <glyph glyph-name="uni03D5" unicode="&#x3d5;" horiz-adv-x="661" 
d="M332 363q-72 -2 -103 -31q-23 -21 -42 -72t-19 -86q0 -30 21.5 -47.5t62.5 -17.5zM649 240q-34 -127 -111 -189t-207 -64l-62 -206h-115l65 207q-85 2 -130.5 42t-45.5 114q0 43 14 97q30 114 109.5 177t196.5 63l21 84h124l-24 -85q81 0 129.5 -39.5t48.5 -115.5
q0 -33 -13 -85zM535 303q0 57 -83 59l-78 -254q59 0 94 35q67 70 67 160z" />
    <glyph glyph-name="uni03D6" unicode="&#x3d6;" horiz-adv-x="920" 
d="M754 391h-109q-90 0 -213 14q-99 -93 -99 -257q0 -64 39 -64q30 0 48 29.5t40 125.5l25 108h155l-25 -108q-19 -82 -19 -109q0 -46 34 -46q48 0 86 109t38 198zM1019 493q-30 -38 -124 -68q9 -14 14 -46t5 -50q0 -144 -83 -246t-219 -102q-86 0 -120 63q-66 -63 -147 -63
q-102 0 -141 41t-39 130q0 83 20 136t75 123q-9 -2 -41 -10l-117 29q55 46 123 65q101 27 205 27q36 0 177 -13t172 -13q44 0 93 15l19 6z" />
    <glyph glyph-name="epsilon.alt" unicode="&#x3f5;" horiz-adv-x="470" 
d="M494 116q-106 -128 -211 -128q-84 0 -127 31.5t-61 96.5q-16 60 -1 126q18 76 65 132t111 83q52 22 97 22q49 0 89.5 -25.5t60.5 -66.5l-91 -100q-16 62 -36 86t-47 24q-35 0 -68.5 -31.5t-48.5 -77.5h158l-21 -94h-159q-9 -60 25 -94q31 -29 68 -29q64 0 151 90z" />
    <glyph glyph-name="uni0400" unicode="&#x400;" horiz-adv-x="720" 
d="M640 825l-41 -44q-104 36 -135 54q-55 31 -55 73q0 25 20 42.5t49 17.5q32 0 66 -33q43 -40 96 -110zM761 225l-113 -225h-634l15 81l22 2q40 5 55.5 21.5t24.5 63.5l63 345q4 22 4 39q0 42 -53 46l-22 2l15 81h584l55 -221l-70 -22q-74 162 -227 162q-65 0 -86 -21
q-17 -14 -26 -68l-19 -101q16 -2 40 -2q55 0 75 18.5t37 84.5h71l-55 -302h-71q2 16 2 30q0 49 -23.5 66t-91.5 16l-30 -165q-5 -28 -5 -37q0 -35 78 -35q89 0 157.5 37.5t161.5 138.5z" />
    <glyph glyph-name="afii10023" unicode="&#x401;" horiz-adv-x="720" 
d="M761 225l-113 -225h-634l15 81l22 2q40 5 55.5 21.5t24.5 63.5l63 345q4 22 4 39q0 42 -53 46l-22 2l15 81h584l55 -221l-70 -22q-74 162 -227 162q-65 0 -86 -21q-17 -14 -26 -68l-19 -101q16 -2 40 -2q55 0 75 18.5t37 84.5h71l-55 -302h-71q2 16 2 30q0 49 -23.5 66
t-91.5 16l-30 -165q-5 -28 -5 -37q0 -35 78 -35q89 0 157.5 37.5t161.5 138.5zM443 830q0 -35 -30.5 -65t-65.5 -30q-28 0 -46 18.5t-18 46.5q0 37 29 66t66 29q29 0 47 -18t18 -47zM672 830q0 -35 -30.5 -65t-65.5 -30q-28 0 -46 18.5t-18 46.5q0 37 29 66t66 29
q29 0 47 -18t18 -47z" />
    <glyph glyph-name="afii10051" unicode="&#x402;" horiz-adv-x="955" 
d="M832 -23q-10 -65 -49 -104t-133 -39h-93l16 91q11 0 26.5 3.5t34.5 16.5t22 33l52 290q2 16 -8 27.5t-26.5 16.5t-29 7t-19.5 2q-13 0 -24.5 -1t-20 -2.5t-19 -5.5t-16 -6t-17 -8t-15.5 -8.5t-17.5 -10.5t-17.5 -11l-19 -100q-3 -21 -3 -39q0 -23 14 -33.5t48 -12.5
l32 -2l-14 -81h-388l14 81l33 2q45 3 62.5 19.5t27.5 65.5l79 432q-78 -6 -127 -37.5t-108 -114.5l-59 29l101 204h582l49 -217l-72 -16q-28 73 -75 110t-117 42l-43 -235q115 50 207 50q97 0 144 -43t38 -100z" />
    <glyph glyph-name="afii10052" unicode="&#x403;" horiz-adv-x="660" 
d="M603 849q0 -45 -67 -79q-31 -17 -123 -48l-41 44q53 70 96 110q34 33 66 33q29 0 49 -17.5t20 -42.5zM763 445l-69 -18q-48 94 -89 119q-59 47 -142 47q-52 0 -69 -14.5t-26 -67.5l-62 -343q-4 -32 -4 -39q0 -23 13.5 -33.5t45.5 -12.5l28 -2l-15 -81h-360l15 81l22 2
q39 4 55 21t25 64l63 345q4 24 4 39q0 42 -53 46l-22 2l14 81h572z" />
    <glyph glyph-name="afii10053" unicode="&#x404;" horiz-adv-x="718" 
d="M748 199q-53 -96 -153.5 -154t-213.5 -58q-157 0 -240.5 99.5t-56.5 254.5q16 89 64 165t118 123q97 65 222 65q92 0 161 -36l12 23h69l42 -236l-82 -29q-38 95 -61 125q-56 71 -129 71q-69 0 -123.5 -53t-83.5 -147h64q60 0 80 16q3 2 6 5t5.5 7.5t4.5 8t4.5 10t4 10
t4.5 12.5t4 12.5t4.5 14t4.5 14.5h78l-55 -311h-78q13 77 -10 97q-13 12 -73 12h-69q-17 -135 44 -197q42 -44 106 -44q81 0 159 62q39 29 92 100z" />
    <glyph glyph-name="afii10054" unicode="&#x405;" horiz-adv-x="700" 
d="M731 228q0 -101 -93.5 -171t-227.5 -70q-125 0 -219 58l-22 -45h-66l-44 256l77 13q69 -194 254 -194q63 0 103.5 27.5t40.5 69.5q0 35 -26 58q-19 15 -64 26l-130 31q-98 24 -139 63q-53 48 -53 127q0 95 82 156t210 61q120 0 217 -56l21 43h63l8 -229h-76
q-21 65 -58 98q-62 56 -153 56q-54 0 -90.5 -23t-36.5 -57q0 -27 25 -46q14 -10 81 -28l126 -33q93 -24 134 -62q56 -51 56 -129z" />
    <glyph glyph-name="afii10055" unicode="&#x406;" horiz-adv-x="380" 
d="M376 81l-15 -81h-347l15 81l22 2q39 5 54.5 21.5t25.5 63.5l63 345q3 24 3 39q0 42 -53 46l-21 2l14 81h348l-15 -81l-22 -2q-39 -5 -54.5 -21.5t-25.5 -63.5l-63 -345q-3 -21 -3 -40q0 -41 53 -45z" />
    <glyph glyph-name="afii10056" unicode="&#x407;" horiz-adv-x="380" 
d="M376 81l-15 -81h-347l15 81l22 2q39 5 54.5 21.5t25.5 63.5l63 345q3 24 3 39q0 42 -53 46l-21 2l14 81h348l-15 -81l-22 -2q-39 -5 -54.5 -21.5t-25.5 -63.5l-63 -345q-3 -21 -3 -40q0 -41 52 -45zM298 830q0 -35 -30.5 -65t-65.5 -30q-28 0 -46 18.5t-18 46.5
q0 37 29 66t66 29q29 0 47 -18t18 -47zM499 830q0 -35 -30.5 -65t-65.5 -30q-28 0 -46 18.5t-18 46.5q0 37 29 66t66 29q29 0 47 -18t18 -47z" />
    <glyph glyph-name="afii10057" unicode="&#x408;" horiz-adv-x="620" 
d="M721 681l-15 -81l-22 -2q-40 -5 -55.5 -21.5t-24.5 -63.5l-54 -293q-12 -69 -22 -90q-31 -64 -109.5 -103.5t-176.5 -39.5q-105 0 -169.5 49t-64.5 128q0 55 34 93.5t83 38.5q35 0 58.5 -22.5t23.5 -55.5q0 -39 -35 -64q-15 -11 -18.5 -15.5t-3.5 -12.5q0 -20 26 -35.5
t60 -15.5q67 0 107 55q22 30 39 121l48 262q3 24 3 40q0 42 -53 45l-34 2l15 81h360z" />
    <glyph glyph-name="afii10058" unicode="&#x409;" horiz-adv-x="1185" 
d="M1207 232q0 -45 -22 -89.5t-60 -76.5q-79 -66 -222 -66h-421l14 81l26 3q40 5 57 27t27 83l51 289q12 65 8 83.5t-29 18.5h-79q-10 0 -17 -2.5t-11.5 -4.5t-7.5 -9l-4.5 -10.5t-4 -15.5t-4.5 -18q-38 -150 -64.5 -224.5t-85.5 -194.5q-26 -54 -67.5 -87t-87.5 -33
q-87 0 -132.5 26t-36.5 75q5 32 27 53t51 21q51 0 59 -30l2.5 -12.5t2.5 -11t3.5 -7.5t7 -5.5t12.5 -1.5q40 0 92.5 126t76.5 268q11 61 2 83.5t-47 26.5l-24 3l14 81h638l-12 -81l-23 -2q-38 -4 -54 -21.5t-26 -65.5l-20 -106h75q81 0 141 -11t93 -27t52 -40.5t24.5 -46
t5.5 -48.5zM1013 233q0 49 -29 69t-99 20h-84l-22 -121q-10 -71 -10 -80q0 -37 77 -37q73 0 117 41q50 45 50 108z" />
    <glyph glyph-name="afii10059" unicode="&#x40a;" horiz-adv-x="1141" 
d="M1163 232q0 -45 -22 -89.5t-60 -76.5q-79 -66 -222 -66h-421l15 81l23 2q39 5 54.5 21.5t25.5 63.5l28 155h-250l-29 -155q-3 -24 -3 -40q0 -41 53 -45l22 -2l-15 -81h-348l15 81l22 2q40 5 55.5 21.5t24.5 63.5l63 345q4 24 4 39q0 42 -53 46l-22 2l14 81h348l-14 -81
l-23 -2q-39 -5 -54.5 -21.5t-25.5 -63.5l-18 -100h250l18 100q4 20 4 39q0 42 -53 46l-22 2l15 81h348l-15 -81l-23 -2q-38 -4 -54 -21.5t-26 -65.5l-20 -106h75q81 0 141 -11t93 -27t52 -40.5t24.5 -46t5.5 -48.5zM969 233q0 49 -29 69t-99 20h-84l-22 -121
q-10 -71 -10 -80q0 -37 77 -37q73 0 117 41q50 45 50 108z" />
    <glyph glyph-name="afii10060" unicode="&#x40b;" horiz-adv-x="955" 
d="M924 0h-351l14 82l21 2q43 5 58.5 20.5t24.5 63.5l17 100q3 16 -7 27.5t-26.5 16.5t-29.5 7t-20 2q-13 0 -24.5 -1t-20 -2.5t-19 -5.5t-16 -6t-17 -8t-15.5 -8.5t-17.5 -10.5t-17.5 -11l-19 -100q-3 -21 -3 -39q0 -23 14 -33.5t48 -12.5l32 -2l-14 -81h-388l14 81l33 2
q45 3 62.5 19.5t27.5 65.5l79 432q-78 -6 -127 -37.5t-108 -114.5l-59 29l101 204h582l49 -217l-72 -16q-28 73 -75 110t-117 42l-43 -235q115 50 207 50q97 0 145 -43t37 -100l-18 -104q-9 -48 1 -63.5t52 -20.5l19 -2z" />
    <glyph glyph-name="afii10061" unicode="&#x40c;" horiz-adv-x="732" 
d="M927 883q0 -45 -67 -79q-31 -17 -123 -48l-41 44q53 70 96 110q34 33 66 33q29 0 49 -17.5t20 -42.5zM788 140q-2 -6 -6 -16.5t-19 -37.5t-33.5 -47.5t-51 -37.5t-69.5 -17q-129 0 -129 92q0 36 4 77t6.5 63.5t1.5 46.5t-9.5 35.5t-28.5 19t-55 7.5h-64l-22 -129
q-12 -61 -7 -83.5t40 -26.5l29 -3l-15 -83h-346l14 80l26 3q40 5 57 27t27 83l52 294q11 61 1.5 83.5t-47.5 26.5l-24 3l14 81h346l-15 -84l-29 -3q-37 -4 -49.5 -24.5t-23.5 -85.5l-14 -83h80q47 0 78.5 43t62.5 128q20 55 64 89.5t92 34.5q60 0 82.5 -27t21.5 -78
q0 -32 -22 -54.5t-52 -23.5q-36 -1 -49 6.5t-17 23.5q-2 7 -2 22t-2.5 22.5t-12.5 7.5q-21 0 -30 -32q-41 -155 -137 -200q45 0 76.5 -21.5t45 -58t18.5 -68t5 -65.5q0 -25 1 -34t8 -16t23 -7q20 0 33.5 14t17.5 29l3 14z" />
    <glyph glyph-name="uni040D" unicode="&#x40d;" horiz-adv-x="819" 
d="M586 798l-41 -44q-104 36 -135 54q-55 31 -55 73q0 25 20 42.5t49 17.5q32 0 66 -33q43 -40 96 -110zM809 0h-351l14 82l21 2q43 5 58.5 20.5t24.5 63.5l42 238l-310 -228l-1 -10q-9 -48 1 -63.5t52 -20.5l19 -2l-14 -82h-351l14 82l21 2q43 5 58.5 20.5t24.5 63.5
l60 345q9 48 -1 63.5t-52 20.5l-19 2l14 82h351l-14 -82l-21 -2q-43 -5 -58.5 -20.5t-24.5 -63.5l-42 -238l310 228l1 10q9 48 -1 63.5t-52 20.5l-19 2l14 82h351l-14 -82l-21 -2q-43 -5 -58.5 -20.5t-24.5 -63.5l-60 -345q-9 -48 1 -63.5t52 -20.5l19 -2z" />
    <glyph glyph-name="afii10062" unicode="&#x40e;" horiz-adv-x="676" 
d="M691 894q-9 -42 -19 -63t-29 -38q-42 -39 -129 -39q-79 0 -116 32t-46 108h73q10 -32 30.5 -44.5t62.5 -12.5q41 0 63.5 13t36.5 44h73zM819 600q-26 -4 -38 -7t-31 -13.5t-38 -31.5t-43 -56l-234 -338q-78 -99 -129.5 -133.5t-135.5 -34.5q-43 0 -70.5 22t-27.5 56
q0 35 27 56.5t58 21.5q44 0 55 -33q1 -2 2.5 -8.5t2.5 -9t3.5 -6t5.5 -5t8 -1.5q25 0 53 23.5t43 46.5l15 23l-138 385q-5 11 -10.5 18t-10 11t-13.5 7t-14 4t-19 2.5t-21 2.5l14 79h340l-14 -80q-37 -5 -64 -16t-21 -27q1 -3 2.5 -10t2.5 -10l73 -220l114 165q34 48 38 76
q2 19 -16.5 27t-66.5 17l13 78h299z" />
    <glyph glyph-name="afii10145" unicode="&#x40f;" horiz-adv-x="800" 
d="M787 0h-308l-29 -154h-146l29 154h-319l15 81l22 2q39 4 55 21t25 64l63 345q4 22 4 39q0 42 -53 46l-22 2l15 81h348l-15 -81l-23 -2q-39 -4 -54.5 -20.5t-25.5 -64.5l-78 -423h250l79 423q3 24 3 40q0 41 -53 45l-22 2l15 81h348l-15 -81l-22 -2q-39 -4 -55 -21
t-25 -64l-63 -345q-4 -24 -4 -39q0 -42 53 -46l22 -2z" />
    <glyph glyph-name="afii10017" unicode="&#x410;" horiz-adv-x="720" 
d="M769 81l-15 -81h-352l15 81l14 2l19 2q32 5 44.5 12t12.5 22q0 13 -7 46l-16 77h-222l-46 -87q-16 -31 -16 -42q0 -23 58 -30l19 -2l-15 -81h-289l15 81q50 12 78 32.5t50 63.5q4 7 10.5 18t8.5 15l278 471h151l116 -503q14 -56 21 -66q8 -13 16 -16.5t40 -11.5
q7 -2 12 -3zM469 320l-41 218l-123 -218h164z" />
    <glyph glyph-name="afii10018" unicode="&#x411;" horiz-adv-x="731" 
d="M739 242q0 -46 -22.5 -95.5t-59.5 -80.5q-79 -66 -222 -66h-421l15 81l22 2q39 4 55 21t25 64l63 345q4 24 4 39q0 42 -53 46l-22 2l14 81h572l54 -236l-69 -18q-33 73 -89 119q-59 47 -142 47q-52 0 -69 -14.5t-26 -67.5l-17 -94q43 8 72 8q85 0 146.5 -12t93.5 -29
t50 -44.5t22 -48t4 -49.5zM545 243q0 50 -29.5 74.5t-98.5 24.5l-81 -8l-25 -133q-10 -71 -10 -80q0 -37 77 -37q73 0 117 41q50 45 50 118z" />
    <glyph glyph-name="afii10019" unicode="&#x412;" horiz-adv-x="720" 
d="M739 232q0 -45 -22 -89.5t-60 -76.5q-79 -66 -222 -66h-421l15 81l22 2q40 5 55.5 21.5t24.5 63.5l63 345q4 24 4 39q0 42 -53 46l-22 2l14 81h377q133 0 182 -27q31 -17 48.5 -48t17.5 -68q0 -67 -50.5 -114.5t-130.5 -57.5q71 -2 114.5 -39t43.5 -95zM545 233
q0 49 -29 69t-99 20h-84l-22 -121q-10 -71 -10 -80q0 -37 77 -37q73 0 117 41q50 45 50 108zM585 517q0 83 -120 83q-46 0 -67 -11q-17 -8 -28 -64l-22 -120h62q85 0 130 28.5t45 83.5z" />
    <glyph glyph-name="afii10020" unicode="&#x413;" horiz-adv-x="660" 
d="M749 445l-69 -18q-48 94 -89 119q-59 47 -132 47q-51 0 -66.5 -14t-24.5 -68l-62 -343q-4 -32 -4 -39q0 -23 13.5 -33.5t45.5 -12.5l28 -2l-15 -81h-360l15 81l22 2q39 4 55 21t25 64l63 345q4 24 4 39q0 42 -53 46l-22 2l14 81h558z" />
    <glyph glyph-name="afii10021" unicode="&#x414;" horiz-adv-x="848" 
d="M585 193l51 290q11 65 7.5 83.5t-28.5 18.5h-89q-16 0 -24 -13t-17 -47q-4 -18 -12.5 -52t-11.5 -45.5t-9.5 -36t-9.5 -33.5t-8.5 -28t-10.5 -30t-11.5 -28.5t-14.5 -34t-17.5 -36.5t-22.5 -46q-15 -27 -17 -41t4.5 -18t21.5 -4h169q23 0 30 13.5t20 87.5zM805 -128h-64
q1 37 0 61.5t-12.5 39.5t-36 21t-70.5 6h-380q-27 0 -44 -1t-31.5 -6t-22 -9t-18 -17t-16.5 -23.5t-20.5 -34.5t-27.5 -44l-62 7l71 213q84 1 106 9q31 12 52 50q18 33 31.5 60t21.5 45.5t17.5 49.5t14 47t16.5 63.5t19 76.5q11 61 1.5 83t-47.5 27l-25 3l15 82h634l-15 -82
l-25 -3q-40 -5 -57 -27t-27 -83l-52 -297q-12 -68 2.5 -87t68.5 -17z" />
    <glyph glyph-name="afii10022" unicode="&#x415;" horiz-adv-x="720" 
d="M761 225l-113 -225h-634l15 81l22 2q40 5 55.5 21.5t24.5 63.5l63 345q4 22 4 39q0 42 -53 46l-22 2l15 81h584l55 -221l-70 -22q-74 162 -227 162q-65 0 -86 -21q-17 -14 -26 -68l-19 -101q16 -2 40 -2q55 0 75 18.5t37 84.5h71l-55 -302h-71q2 16 2 30q0 49 -23.5 66
t-91.5 16l-30 -165q-5 -28 -5 -37q0 -35 78 -35q89 0 157.5 37.5t161.5 138.5z" />
    <glyph glyph-name="afii10024" unicode="&#x416;" horiz-adv-x="1067" 
d="M1134 140q-2 -6 -6 -16.5t-19 -37.5t-33.5 -47.5t-51 -37.5t-69.5 -17q-66 0 -93.5 24t-35.5 68q-8 51 -10 100t-3 75t-10 42q-10 19 -21.5 25t-36.5 7h-34l-22 -129q-9 -54 -9 -68q0 -21 9.5 -30.5t32.5 -11.5l29 -3l-15 -83h-346l14 80l26 3q40 5 57.5 26t27.5 82
l22 134h-34q-25 -1 -38.5 -7t-29.5 -25q-15 -16 -25.5 -42t-30 -75t-45.5 -100q-22 -44 -58.5 -68t-102.5 -24q-40 0 -67.5 18.5t-38 47t-14 47.5t-3.5 37v6l53 10q-1 -6 -1 -13q0 -44 34 -44q6 0 10.5 1t8.5 3.5t7 4t6.5 6t5 7t4.5 8.5l4 8t3.5 9.5t3.5 9.5q40 95 64 130
q52 75 127 83q-46 26 -46 94q0 15 4.5 51t4.5 55q0 18 -3.5 25t-14.5 7q-10 0 -15.5 -7.5t-10 -22t-9.5 -22.5q-7 -11 -13 -16.5t-21.5 -9.5t-41.5 -4q-40 0 -40 48q0 57 34.5 96t99.5 39q48 0 80 -35t32 -89q0 -17 -1 -40.5t-1 -37.5t0.5 -31t3.5 -26.5t9 -18.5t16 -13
t24 -4h80l16 88q7 38 7 54q0 28 -12.5 39.5t-41.5 14.5l-24 3l14 81h346l-15 -84l-29 -3q-36 -4 -48.5 -24.5t-24.5 -85.5l-14 -83h80q20 0 34 7t25 26t16.5 33t17 50t18.5 55q19 54 63.5 89t92.5 35q52 0 73.5 -20t21.5 -59q0 -44 -16.5 -74t-54.5 -30t-50 12t-12 38v5v5.5
v5t-0.5 4.5t-1 3.5t-2 3.5t-3 2.5t-3.5 2t-5 0.5q-21 0 -30 -32q-3 -12 -10.5 -41.5t-11 -42t-12 -35t-17 -34t-23 -25t-33.5 -22.5q37 -4 61 -23t35 -56.5t13.5 -56.5t4.5 -65q1 -8 1 -12q0 -3 0.5 -13.5t1 -14t2.5 -11t5 -10.5t9 -5.5t14 -2.5q20 0 33.5 14.5t17.5 28.5
l3 14z" />
    <glyph glyph-name="afii10025" unicode="&#x417;" horiz-adv-x="664" 
d="M666 264q0 -118 -101 -197.5t-227 -79.5q-113 0 -183 60.5t-100 153.5l87 41l12 -28t8 -19t6.5 -12t12.5 -16q77 -83 176 -83q69 0 107.5 35t38.5 100q0 95 -112 95h-142l20 114l144 1h2q55 0 79.5 28.5t24.5 67.5q0 28 -28 50t-71 22t-89 -18.5t-80 -49.5
q-28 -25 -76 -78l-67 27l102 203h60l6 -32q75 45 168 45q101 0 162 -50t61 -131q0 -79 -50 -139q49 -36 49 -110z" />
    <glyph glyph-name="afii10026" unicode="&#x418;" horiz-adv-x="819" 
d="M809 0h-351l14 82l21 2q43 5 58.5 20.5t24.5 63.5l42 238l-310 -228l-1 -10q-9 -48 1 -63.5t52 -20.5l19 -2l-14 -82h-351l14 82l21 2q43 5 58.5 20.5t24.5 63.5l60 345q9 48 -1 63.5t-52 20.5l-19 2l14 82h351l-14 -82l-21 -2q-43 -5 -58.5 -20.5t-24.5 -63.5l-42 -238
l310 228l1 10q9 48 -1 63.5t-52 20.5l-19 2l14 82h351l-14 -82l-21 -2q-43 -5 -58.5 -20.5t-24.5 -63.5l-60 -345q-9 -48 1 -63.5t52 -20.5l19 -2z" />
    <glyph glyph-name="afii10027" unicode="&#x419;" horiz-adv-x="804" 
d="M712 878q-9 -42 -19 -63t-29 -38q-42 -39 -129 -39q-79 0 -116 32t-46 108h73q10 -32 30.5 -44t62.5 -12q41 0 64 12.5t36 43.5h73zM794 0h-351l14 82l21 2q43 5 58.5 20.5t24.5 63.5l42 238l-295 -228l-1 -10q-9 -48 1 -63.5t52 -20.5l19 -2l-14 -82h-351l14 82l21 2
q43 5 58.5 20.5t24.5 63.5l60 345q9 48 -1 63.5t-52 20.5l-19 2l14 82h351l-14 -82l-21 -2q-43 -5 -58.5 -20.5t-24.5 -63.5l-42 -238l295 228l1 10q9 48 -1 63.5t-52 20.5l-19 2l14 82h351l-14 -82l-21 -2q-43 -5 -58.5 -20.5t-24.5 -63.5l-60 -345q-9 -48 1 -63.5
t52 -20.5l19 -2z" />
    <glyph glyph-name="afii10028" unicode="&#x41a;" horiz-adv-x="732" 
d="M788 140q-2 -6 -6 -16.5t-19 -37.5t-33.5 -47.5t-51 -37.5t-69.5 -17q-129 0 -129 92q0 36 4 77t6.5 63.5t1.5 46.5t-9.5 35.5t-28.5 19t-55 7.5h-64l-22 -129q-12 -61 -7 -83.5t40 -26.5l29 -3l-15 -83h-346l14 80l26 3q40 5 57 27t27 83l52 294q11 61 1.5 83.5
t-47.5 26.5l-24 3l14 81h346l-15 -84l-29 -3q-37 -4 -49.5 -24.5t-23.5 -85.5l-14 -83h80q47 0 78.5 43t62.5 128q20 55 64 89.5t92 34.5q60 0 82.5 -27t21.5 -78q0 -32 -22 -54.5t-52 -23.5q-36 -1 -49 6.5t-17 23.5q-2 7 -2 22t-2.5 22.5t-12.5 7.5q-21 0 -30 -32
q-41 -155 -137 -200q45 0 76.5 -21.5t45 -58t18.5 -68t5 -65.5q0 -25 1 -34t8 -16t23 -7q20 0 33.5 14t17.5 29l3 14z" />
    </font>
</defs>
</svg>
