<?xml version="1.0" encoding="UTF-8" standalone="no"?>
<svg width="92px" height="75px" viewBox="0 0 92 75" version="1.1" xmlns="http://www.w3.org/2000/svg" xmlns:xlink="http://www.w3.org/1999/xlink">
    <!-- Generator: Sketch 3.8.3 (29802) - http://www.bohemiancoding.com/sketch -->
    <title>Twitter</title>
    <desc>Created with Sketch.</desc>
    <defs></defs>
    <g id="Theatre-Details" stroke="none" stroke-width="1" fill="none" fill-rule="evenodd">
        <g id="Twitter" fill="#000000">
            <path d="M91.943968,9.11554518 C88.5610192,10.6148058 84.9255011,11.6280923 81.1097204,12.0838192 C85.0045341,9.75073968 87.9953446,6.05652914 89.4038136,1.65486651 C85.7592151,3.81486389 81.7221421,5.38369348 77.4254373,6.22927515 C73.9843068,2.56564804 69.0819064,0.276259195 63.6565431,0.276259195 C53.2386481,0.276259195 44.7925425,8.71628007 44.7925425,19.1264121 C44.7925425,20.6038275 44.9596889,22.0425934 45.2812019,23.422209 C29.6037448,22.6361138 15.704362,15.1314084 6.40066425,3.72681048 C4.77695644,6.51091165 3.84672119,9.74905927 3.84672119,13.2036435 C3.84672119,19.7434582 7.17720553,25.5133096 12.2386808,28.8936198 C9.14630437,28.79582 6.23788989,27.9478858 3.69437246,26.5360064 C3.69302722,26.6146495 3.69302722,26.6936287 3.69302722,26.772944 C3.69302722,35.9063015 10.1952573,43.5252747 18.8246522,45.2567678 C17.241638,45.6876246 15.5752187,45.9178406 13.8546534,45.9178406 C12.6392268,45.9178406 11.4574311,45.7998759 10.3059035,45.5797424 C12.7061526,53.068988 19.6724913,58.5188896 27.9268999,58.6711346 C21.4710807,63.7268123 13.3374077,66.7404573 4.49983647,66.7404573 C2.97735816,66.7404573 1.47573112,66.6513957 0,66.4773053 C8.3479029,71.8257102 18.2633497,74.9462292 28.9159895,74.9462292 C63.6124864,74.9462292 82.5857879,46.2223307 82.5857879,21.3122878 C82.5857879,20.494937 82.5676271,19.6819553 82.5313056,18.8736787 C86.2165976,16.2159442 89.4149119,12.8957927 91.943968,9.11554518" id="Fill-1"></path>
        </g>
    </g>
</svg>