<svg xmlns="http://www.w3.org/2000/svg" viewBox="0 0 30 30" class="injected-svg" data-src="/svg/icon-arrow.svg" xmlns:xlink="http://www.w3.org/1999/xlink">
    <title>arrow</title>
    <path class="icon-arrow" d="M28,22.5A15.1,15.1,0,0,1,22.5,28,14.56,14.56,0,0,1,15,30a14.56,14.56,0,0,1-7.5-2A15.1,15.1,0,0,1,2,22.5,14.46,14.46,0,0,1,0,15,14.46,14.46,0,0,1,2,7.5,15.1,15.1,0,0,1,7.5,2,14.56,14.56,0,0,1,15,0a14.56,14.56,0,0,1,7.5,2A15.1,15.1,0,0,1,28,7.5,14.56,14.56,0,0,1,30,15,14.56,14.56,0,0,1,28,22.5Zm-24.21-1A13.13,13.13,0,0,0,8.5,26.24a12.88,12.88,0,0,0,13,0,13.16,13.16,0,0,0,4.75-4.74A12.6,12.6,0,0,0,28,15a12.6,12.6,0,0,0-1.75-6.5A13.16,13.16,0,0,0,21.5,3.76a12.88,12.88,0,0,0-13,0A13.13,13.13,0,0,0,3.76,8.5a12.88,12.88,0,0,0,0,13Zm3.71-4.78a.67.67,0,0,0,.51.22h7v4a.66.66,0,0,0,.45.66.71.71,0,0,0,.82-.18l6-5.93a.9.9,0,0,0,0-1.08l-6.05-6A.73.73,0,0,0,15,9v4.05H8a.7.7,0,0,0-.51.22.69.69,0,0,0-.21.51v2.42A.69.69,0,0,0,7.47,16.72Z" fill="#FFF"></path>
</svg>