<svg xmlns="http://www.w3.org/2000/svg" viewBox="0 0 44 44"><defs><style>.cls-1{isolation:isolate;}.cls-2{fill:#fff;}.cls-3{opacity:0.5;mix-blend-mode:multiply;}.cls-4{fill:#1d1d1b;}</style></defs><title>18-white</title><g class="cls-1"><g id="original_certs" data-name="original certs"><path class="cls-2" d="M22,2.7A19.3,19.3,0,1,1,2.7,22,19.32,19.32,0,0,1,22,2.7M22,0A22,22,0,1,0,44,22,22,22,0,0,0,22,0Z"/><g class="cls-3"><path class="cls-4" d="M14.36,15.49h5.4v14H16.89V18.16H14.36Z"/><path class="cls-4" d="M23.12,16.27a5,5,0,0,1,3.31-1.11,5,5,0,0,1,3.3,1.11A3.44,3.44,0,0,1,31,19a3.74,3.74,0,0,1-1.18,2.78,4.33,4.33,0,0,1,1.66,3.54,4,4,0,0,1-1.41,3.11,5.33,5.33,0,0,1-3.68,1.27,5.33,5.33,0,0,1-3.69-1.27,4,4,0,0,1-1.41-3.11A4.33,4.33,0,0,1,23,21.77,3.79,3.79,0,0,1,21.79,19,3.39,3.39,0,0,1,23.12,16.27ZM25,26.6a2.4,2.4,0,0,0,1.45.48,2.45,2.45,0,0,0,1.45-.48,1.57,1.57,0,0,0,.66-1.37,1.62,1.62,0,0,0-.64-1.39,2.44,2.44,0,0,0-1.47-.48,2.4,2.4,0,0,0-1.47.48,1.6,1.6,0,0,0-.65,1.39A1.56,1.56,0,0,0,25,26.6Zm.18-6.13a1.91,1.91,0,0,0,2.53,0,1.52,1.52,0,0,0,.55-1.2,1.53,1.53,0,0,0-.54-1.19,1.93,1.93,0,0,0-2.55,0,1.53,1.53,0,0,0-.54,1.19A1.52,1.52,0,0,0,25.16,20.47Z"/></g><path class="cls-2" d="M13.2,14.33h5.4v14H15.74V17H13.2Z"/><path class="cls-2" d="M22,15.11A5,5,0,0,1,25.27,14a5,5,0,0,1,3.3,1.1,3.43,3.43,0,0,1,1.32,2.72,3.75,3.75,0,0,1-1.19,2.78,4.33,4.33,0,0,1,1.66,3.54A4,4,0,0,1,29,27.26a5.28,5.28,0,0,1-3.68,1.27,5.26,5.26,0,0,1-3.68-1.27,4,4,0,0,1-1.42-3.11,4.36,4.36,0,0,1,1.66-3.54,3.79,3.79,0,0,1-1.2-2.79A3.39,3.39,0,0,1,22,15.11Zm1.86,10.34a2.47,2.47,0,0,0,2.9,0,1.61,1.61,0,0,0,.67-1.38,1.65,1.65,0,0,0-.65-1.39,2.49,2.49,0,0,0-2.94,0,1.65,1.65,0,0,0-.65,1.39A1.59,1.59,0,0,0,23.82,25.45ZM24,19.31a1.84,1.84,0,0,0,1.27.48,1.88,1.88,0,0,0,1.27-.48,1.54,1.54,0,0,0,.54-1.2,1.56,1.56,0,0,0-.53-1.19,1.95,1.95,0,0,0-2.56,0,1.6,1.6,0,0,0,0,2.39Z"/></g></g></svg>