<?xml version="1.0" standalone="no"?>
<!DOCTYPE svg PUBLIC "-//W3C//DTD SVG 1.1//EN" "http://www.w3.org/Graphics/SVG/1.1/DTD/svg11.dtd" >
<svg>
<metadata>
Created by FontForge 20090914 at Mon Oct 29 16:23:27 2018
 By www-data
Data copyright &#194;&#169; URW Software &#38; Type GbmH., additional data copyright The Font Bureau, Inc. Copyright 1994 Microsoft Corporation. All rights reserved.
</metadata>
<defs>
<font id="CopperplateGothic-Bold" horiz-adv-x="1461" >
  <font-face 
    font-family="Copperplate Gothic Bold"
    font-weight="400"
    font-stretch="normal"
    units-per-em="2048"
    panose-1="2 14 7 5 2 2 6 2 4 4"
    ascent="1638"
    descent="-410"
    x-height="1120"
    cap-height="1365"
    bbox="-58 -466.001 2485 1813"
    underline-thickness="174"
    underline-position="-1163"
    unicode-range="U+0020-U+25FC"
  />
<missing-glyph horiz-adv-x="748" 
d="M68 0v1365h544v-1365h-544zM136 68h408v1229h-408v-1229z" />
    <glyph glyph-name=".notdef" horiz-adv-x="748" 
d="M68 0v1365h544v-1365h-544zM136 68h408v1229h-408v-1229z" />
    <glyph glyph-name="space" unicode=" " horiz-adv-x="512" 
 />
    <glyph glyph-name="exclam" unicode="!" horiz-adv-x="774" 
d="M177 1333l0.00195312 32h420v-32c-26 -4.66699 -42.5 -11.667 -49.5 -21s-12.5 -31.666 -16.5 -66.999l-73 -615c-2 -16 -3 -31 -3 -45c0 -24 3.66699 -40.333 11 -49s24.666 -16.667 51.999 -24v-32h-262v32c27.333 7.33301 44.666 15.5 51.999 24.5s11 25.167 11 48.5
c0 14 -1 29 -3 45l-73 615c-4 35.333 -9.5 57.666 -16.5 66.999s-23.5 16.333 -49.5 21zM223.002 141c0 44.667 15.833 82.833 47.5 114.5s70.5 47.834 116.5 48.501c46 0 84.833 -16 116.5 -48s47.5 -71 47.5 -117c0 -44.667 -16.167 -83 -48.5 -115
s-70.833 -48 -115.5 -48c-45.333 0 -84 16.167 -116 48.5s-48 71.166 -48 116.499z" />
    <glyph glyph-name="quotedbl" unicode="&#x22;" horiz-adv-x="1137" 
d="M96 1336l0.00292969 28.999h378v-29c-24 -4.66699 -38.667 -10.667 -44 -18s-10.333 -27.666 -15 -60.999l-66 -348c-2 -10 -3 -21.333 -3 -34c0 -24.667 3.16699 -41.167 9.5 -49.5s22.166 -15.833 47.499 -22.5v-29h-236v29c25.333 6.66699 41.166 14.167 47.499 22.5
s9.5 25.5 9.5 51.5c0 10.667 -1 21.334 -3 32.001l-66 348c-4.66699 33.333 -9.83398 53.666 -15.501 60.999s-20.167 13.333 -43.5 18zM664.003 1336l0.00390625 29h378v-29c-23.333 -4.66699 -37.833 -10.667 -43.5 -18s-10.834 -27.666 -15.501 -60.999l-66 -348
c-2 -10 -3 -21.333 -3 -34c0 -24.667 3.16699 -41.167 9.5 -49.5s22.166 -15.833 47.499 -22.5v-29h-236v29c25.333 6.66699 41.166 14.167 47.499 22.5s9.5 25.5 9.5 51.5c0 11.333 -1 22 -3 32l-66 348c-4.66699 33.333 -9.83398 53.666 -15.501 60.999
s-20.167 13.333 -43.5 18z" />
    <glyph glyph-name="numbersign" unicode="#" horiz-adv-x="1570" 
d="M52 239l65.9941 340.003h34c2 -24 7.33301 -40.5 16 -49.5s23.334 -13.5 44.001 -13.5h167l63 326h-166c-20.667 0 -37.167 -4.5 -49.5 -13.5s-24.166 -25.5 -35.499 -49.5h-34l66 341h34c2 -24.667 7.33301 -41.834 16 -51.501s23.334 -14.5 44.001 -14.5h167l38 201
c1.33301 4 2 9.66699 2 17c0 16 -3.5 27.833 -10.5 35.5s-20.5 14.167 -40.5 19.5l6 33h340l-7 -33c-24.667 -6 -42.834 -14.5 -54.501 -25.5s-19.5 -26.5 -23.5 -46.5l-39 -201h328l39 201c0.666992 4 1 9.66699 1 17c0 16 -3.5 27.833 -10.5 35.5s-20.5 14.167 -40.5 19.5
l6 33h340l-6 -33c-25.333 -6 -43.833 -14.5 -55.5 -25.5s-19.5 -26.5 -23.5 -46.5l-38 -201h166c20.667 0 37.334 5 50.001 15s24.334 27 35.001 51h32l-64 -341h-34c-2 23.333 -7.5 39.666 -16.5 48.999s-23.5 14 -43.5 14h-167l-63 -326h166
c20.667 0 37.334 4.66699 50.001 14s24.334 25.666 35.001 48.999h32l-64 -340h-34c-2 24 -7.33301 40.833 -16 50.5s-23.334 14.5 -44.001 14.5h-166l-39 -201c-0.666992 -3.33301 -1 -8.66602 -1 -15.999c0 -16.667 3.33301 -28.667 10 -36s20.334 -14.333 41.001 -21
l-7 -34h-340l7 34c25.333 7.33301 43.666 16.166 54.999 26.499s19 25.833 23 46.5l39 201h-328l-39 -201c-0.666992 -3.33301 -1 -8.66602 -1 -15.999c0 -16.667 3.33301 -28.667 10 -36s20.334 -14.333 41.001 -21l-6 -34h-340l6 34c26 7.33301 44.667 16.166 56 26.499
s19 25.833 23 46.5l39 201h-167c-20 0 -36.333 -4.83301 -49 -14.5s-24.667 -26.5 -36 -50.5h-34zM589.994 516.003h328l64 326h-328z" />
    <glyph glyph-name="dollar" unicode="$" 
d="M75 125l148.004 335.001l29 -13v-14c0 -36 21 -68.667 63 -98c43.333 -30 98.5 -56.333 165.5 -79s130.5 -36.667 190.5 -42v341c-97.333 9.33301 -170.333 19.333 -219 30s-94.334 26.667 -137.001 48c-61.333 30.667 -109 75.667 -143 135
c-31.333 54.667 -47 116.667 -47 186c0 128.667 48.833 232 146.5 310s230.834 119.667 399.501 125v49c0 20 -4.66699 35.333 -14 46s-26 19.334 -50 26.001v32h279v-32c-24.667 -6.66699 -41.667 -15.334 -51 -26.001s-14 -26 -14 -46v-54
c62.667 -4.66699 126.834 -16.667 192.501 -36s150.5 -51 254.5 -95c17.333 -7.33301 31 -11 41 -11c14 0 30.333 7.66699 49 23l29 -15l-164 -321l-28 16c0.666992 5.33301 1 10.666 1 15.999c0 34 -42.833 72.5 -128.5 115.5s-167.834 67.5 -246.501 73.5v-313l36 -3
c166.667 -14.667 293.667 -52 381 -112c45.333 -31.333 81.166 -73.5 107.499 -126.5s39.5 -109.5 39.5 -169.5c0 -92 -26.5 -172 -79.5 -240s-129.833 -120 -230.5 -156c-82.667 -30 -167.334 -47 -254.001 -51v-65c0 -20.667 4.66699 -36.334 14 -47.001
s26 -19.334 50 -26.001v-32h-278v32c24 6.66699 40.667 15.334 50 26.001s14 26.334 14 47.001v65c-161.333 12 -325 59.667 -491 143c-14.667 7.33301 -26.334 11 -35.001 11s-22.334 -7.33301 -41.001 -22zM401.004 984.001c0 -24 8.33301 -45.333 25 -64
s39.334 -32 68.001 -40c40 -11.333 99 -20 177 -26v301c-54.667 -4 -100.334 -12 -137.001 -24c-40.667 -13.333 -73 -33.333 -97 -60s-36 -55.667 -36 -87zM821.004 213.001c66 7.33301 119.666 21.0029 160.999 41.0029c76 37.333 114 88 114 152
c0 21.333 -6.83301 41.166 -20.5 59.499s-31.167 31.166 -52.5 38.499c-37.333 13.333 -104.666 24.666 -201.999 33.999v-325z" />
    <glyph glyph-name="percent" unicode="%" horiz-adv-x="1809" 
d="M68 1024c0 112 36 200.333 108 265c64 57.333 144 86.666 240 87.999c97.333 0 178 -29.333 242 -88c72 -66 108 -156 108 -270c0 -108 -36 -195 -108 -261c-64 -58.667 -144.333 -88 -241 -88s-177 29.333 -241 88c-72 66.667 -108 155.334 -108 266.001zM241 1023
c0 -62 16.333 -112.501 49 -151.501s75 -58.5 127 -58.5c51.333 0 93.5 19.5 126.5 58.5s49.5 88.833 49.5 149.5c0 64 -16 115.333 -48 154s-74.667 58.334 -128 59.001c-52 0 -94.333 -19.5 -127 -58.5s-49 -89.833 -49 -152.5zM244 -0.000976562v32
c34 5.33301 60.833 15.833 80.5 31.5s52.5 53.167 98.5 112.5l788 1016c29.333 37.333 44 64.333 44 81c0 29.333 -20 49.333 -60 60v32h355v-32c-34 -4.66699 -58.833 -13.5 -74.5 -26.5s-47.5 -51.167 -95.5 -114.5l-804 -1040c-24 -31.333 -36 -54 -36 -68
c0 -26.667 20 -44 60 -52v-32h-356zM1043 341.999c0 112 36 200.334 108 265.001c64 57.333 144 86.666 240 87.999c97.333 0 178 -29.333 242 -88c72 -66 108 -156 108 -270c0 -108 -36 -195 -108 -261c-64 -58.667 -144.333 -88 -241 -88s-177 29.333 -241 88
c-72 66 -108 154.667 -108 266zM1216 341c0 -62 16.333 -112.501 49 -151.501s75 -58.5 127 -58.5c51.333 0 93.5 19.5 126.5 58.5s49.5 88.833 49.5 149.5c0 64 -16 115.333 -48 154s-74.667 58.334 -128 59.001c-52 0 -94.333 -19.5 -127 -58.5s-49 -89.833 -49 -152.5z
" />
    <glyph glyph-name="ampersand" unicode="&#x26;" horiz-adv-x="1584" 
d="M60 389c0 171.333 101.335 306.665 304.002 405.998c-90 78.667 -135 164.667 -135 258c0 108.667 52 195 156 259c84.667 51.333 181.667 77 291 77c122.667 0 230 -30.667 322 -92c90 -60 135 -143.333 135 -250c0 -59.333 -13.167 -109.666 -39.5 -150.999
s-73.5 -86 -141.5 -134c69.333 -44.667 123 -108 161 -190c64 110.667 126.667 193.167 188 247.5s137.666 94.5 228.999 120.5v-379h-32c-4 33.333 -14 50 -30 50c-14.667 0 -36.667 -9.66699 -66 -29s-55 -41.333 -77 -66c-39.333 -43.333 -66.666 -90.333 -81.999 -141
c41.333 -42 77.166 -71.833 107.499 -89.5s61.5 -26.5 93.5 -26.5c29.333 0 47.333 16 54 48h32v-315c-18.667 4 -77.334 9 -176.001 15c-38 2.66699 -85.167 20.334 -141.5 53.001s-104.833 70.667 -145.5 114c-135.333 -132 -296 -198 -482 -198
c-145.333 0 -266 34.667 -362 104c-108.667 78 -163 181 -163 309zM337.002 443.999c0 -68.667 26.501 -125.001 79.501 -169.001s120.833 -66 203.5 -66c85.333 0 158 21.333 218 64c60 42 90 92 90 150c0 27.333 -9.16699 57.5 -27.5 90.5s-41.5 60.5 -69.5 82.5
c-61.333 50 -134.333 75.333 -219 76c-74.667 0 -139.334 -21.667 -194.001 -65c-54 -43.333 -81 -97.666 -81 -162.999zM477.003 1013c0 -49.333 19.5 -90.167 58.5 -122.5s88.167 -48.5 147.5 -48.5c51.333 0 96 12.333 134 37c48.667 32 73 76 73 132
c0 51.333 -19 93 -57 125s-88 48.333 -150 49c-50.667 0 -95 -12.333 -133 -37c-48.667 -31.333 -73 -76.333 -73 -135z" />
    <glyph glyph-name="quotesingle" unicode="'" horiz-adv-x="569" 
d="M96 1336l0.00292969 28.999h378v-29c-24 -4.66699 -38.667 -10.667 -44 -18s-10.333 -27.666 -15 -60.999l-66 -348c-2 -10 -3 -21.333 -3 -34c0 -24.667 3.16699 -41.167 9.5 -49.5s22.166 -15.833 47.499 -22.5v-29h-236v29c25.333 6.66699 41.166 14.167 47.499 22.5
s9.5 25.5 9.5 51.5c0 10.667 -1 21.334 -3 32.001l-66 348c-4.66699 33.333 -9.83398 53.666 -15.501 60.999s-20.167 13.333 -43.5 18z" />
    <glyph glyph-name="parenleft" unicode="(" horiz-adv-x="683" 
d="M134 682c0 167.333 38.001 327.335 114.001 480.002s178.667 275 308 367l110 -91c-76 -88 -131.667 -170.667 -167 -248c-64.667 -138 -97 -307.333 -97 -508c0 -162.667 20.167 -301.334 60.5 -416.001s108.166 -227.667 203.499 -339l-110 -91
c-86 61.333 -161 138 -225 230c-131.333 189.333 -197 394.666 -197 615.999z" />
    <glyph glyph-name="parenright" unicode=")" horiz-adv-x="683" 
d="M16 -73c76 88 131.999 170.333 167.999 247c64 138.667 96 308 96 508c0 163.333 -20.167 302.5 -60.5 417.5s-108.166 227.833 -203.499 338.5l111 91c85.333 -61.333 160 -138 224 -230c131.333 -189.333 197 -395 197 -617c0 -167.333 -37.833 -327 -113.5 -479
s-178.167 -274.333 -307.5 -367z" />
    <glyph glyph-name="asterisk" unicode="*" horiz-adv-x="1033" 
d="M96 1086l94.002 288.001l36 -11c-0.666992 -6.66699 -1 -12.334 -1 -17.001c0 -26 17.167 -50 51.5 -72s92.166 -46.333 173.499 -73c-2.66699 104 -9.16699 171.833 -19.5 203.5s-32.166 51.5 -65.499 59.5v38h303v-38c-33.333 -8 -55.333 -28.333 -66 -61
s-17 -100 -19 -202c89.333 30.667 149.166 55.834 179.499 75.501s45.5 43.5 45.5 71.5c0 3.33301 -0.333008 8.33301 -1 15l36 12l94 -288l-36 -12c-18 29.333 -42.667 44 -74 44c-39.333 0 -107 -14.667 -203 -44c52 -68.667 90.667 -114.834 116 -138.501
s48.666 -35.5 69.999 -35.5c9.33301 0 22 3.33301 38 10l22 -30l-245 -179l-22 31c16 20 24 37.333 24 52c0 35.333 -36.667 105.666 -110 210.999c-73.333 -105.333 -110 -175.666 -110 -210.999c0 -14.667 8 -32 24 -52l-22 -31l-246 178l23 31
c16.667 -6.66699 29.667 -10 39 -10c37.333 0 98.666 57.667 183.999 173c-98.667 30 -166.667 45 -204 45c-29.333 0 -53.666 -14.667 -72.999 -44z" />
    <glyph glyph-name="plus" unicode="+" horiz-adv-x="1570" 
d="M234 521v323.998h30c5.33301 -24 13 -40.667 23 -50s24.333 -14 43 -14h357v356c0 18.667 -4.66699 32.834 -14 42.501s-26 17.5 -50 23.5v30h324v-29c-24 -6.66699 -40.667 -14.667 -50 -24s-14 -23.666 -14 -42.999v-356h357c18.667 0 32.834 4.66699 42.501 14
s17.5 26 23.5 50h30v-324h-30c-6 24 -13.833 40.667 -23.5 50s-23.834 14 -42.501 14h-357v-357c0 -18.667 4.66699 -33 14 -43s26 -18 50 -24v-29h-324v30c24 5.33301 40.667 13 50 23s14 24.333 14 43v357h-357c-18.667 0 -33 -4.66699 -43 -14s-18 -26 -24 -50h-29z" />
    <glyph glyph-name="comma" unicode="," horiz-adv-x="628" 
d="M150 142c0 49.333 13.5 88.667 40.5 118s62.833 44 107.5 44c60 0 106 -24.667 138 -74c28 -44.667 42 -98 42 -160c0 -146.667 -77.667 -274.667 -233 -384l-48 64c54.667 36 94 71 118 105s41 78 51 132c-32 -7.33301 -55.333 -11 -70 -11
c-44 0 -79.333 15.333 -106 46s-40 70.667 -40 120z" />
    <glyph glyph-name="hyphen" unicode="-" horiz-adv-x="455" 
d="M0 387v346h32c6 -24 14.5 -40.833 25.5 -50.5s26.5 -14.5 46.5 -14.5h246c20.667 0 36.334 4.66699 47.001 14s19.334 26.333 26.001 51h32v-346h-32c-6.66699 24 -15.334 40.667 -26.001 50s-26.334 14 -47.001 14h-246c-20 0 -35.5 -4.83301 -46.5 -14.5
s-19.5 -26.167 -25.5 -49.5h-32z" />
    <glyph glyph-name="period" unicode="." horiz-adv-x="628" 
d="M150 141c0 44.667 15.833 82.833 47.5 114.5s70.5 47.834 116.5 48.501c46 0 84.833 -16 116.5 -48s47.5 -71 47.5 -117c0 -44.667 -16.167 -83 -48.5 -115s-70.833 -48 -115.5 -48c-45.333 0 -84 16.167 -116 48.5s-48 71.166 -48 116.499z" />
    <glyph glyph-name="slash" unicode="/" horiz-adv-x="1555" 
d="M68 0v32c34.667 5.33301 61.667 15.833 81 31.5s52 53.167 98 112.5l788 1016c29.333 37.333 44 64.333 44 81c0 29.333 -20 49.333 -60 60v32h468v-32c-34 -4.66699 -58.833 -13.5 -74.5 -26.5s-47.5 -51.167 -95.5 -114.5l-804 -1040c-24.667 -31.333 -37 -54 -37 -68
c0 -26.667 20 -44 60 -52v-32h-468z" />
    <glyph glyph-name="zero" unicode="0" 
d="M84 683c0 162.667 37.333 303.332 112 421.999c58.667 94 138.667 166.667 240 218c84 42.667 181.667 64.667 293 66c179.333 0 328.333 -58.333 447 -175c133.333 -131.333 200 -311.666 200 -540.999c0 -72 -10 -145 -30 -219s-47.333 -138.333 -82 -193
c-60.667 -96 -140.667 -169 -240 -219c-88 -44 -186 -66 -294 -66c-179.333 0 -328 58.667 -446 176c-56.667 56.667 -100.667 120.667 -132 192c-45.333 105.333 -68 218.333 -68 339zM389 690.998c0 -129.333 28.999 -237.666 86.999 -324.999
c62.667 -94 147.334 -141 254.001 -141c107.333 0 192 47 254 141c58 87.333 87 193.666 87 318.999c0 135.333 -29 245.666 -87 330.999c-62 92.667 -147 139.667 -255 141c-106 0 -190.333 -47 -253 -141c-58 -87.333 -87 -195.666 -87 -324.999z" />
    <glyph glyph-name="one" unicode="1" 
d="M441 872l0.000976562 362.999h32c7.33301 -24.667 14.333 -40.667 21 -48s17 -11 31 -11c6.66699 0 16 1.33301 28 4l86 22v59c0 20 -4.66699 35.333 -14 46s-26 19.334 -50 26.001v32h417v-32c-24 -6.66699 -40.667 -15.167 -50 -25.5s-14 -25.833 -14 -46.5v-1156
c0 -20.667 4.66699 -36.334 14 -47.001s26 -19.334 50 -26.001v-32h-417v32c24 6.66699 40.667 15.334 50 26.001s14 26.334 14 47.001v864l-94 -23c-22 -5.33301 -37.833 -13 -47.5 -23s-17.834 -27 -24.501 -51h-32z" />
    <glyph glyph-name="two" unicode="2" 
d="M82 0c0 85.333 9.66797 155.668 29.001 211.001c39.333 112 112.666 207 219.999 285c55.333 40 145.666 88.667 270.999 146l169 77c79.333 36.667 136.5 74.5 171.5 113.5s52.5 85.167 52.5 138.5c0 60.667 -20.833 106.834 -62.5 138.501s-102.167 47.5 -181.5 47.5
c-96.667 0 -186.667 -23.667 -270 -71c-80.667 -45.333 -121 -92 -121 -140c0 -11.333 5.33301 -32.333 16 -63l-22 -23l-266 287l24 22c25.333 -12 44 -18 56 -18c10.667 0 20 2.33301 28 7s24.333 18 49 40c146.667 127.333 327.667 191 543 191
c154.667 0 278.334 -38 371.001 -114c94 -77.333 141 -180.333 141 -309c0 -126.667 -45 -231.334 -135 -314.001c-59.333 -54 -139 -103.333 -239 -148l-154 -69c-16 -8 -52.333 -23.333 -109 -46c-69.333 -28 -118 -50.833 -146 -68.5s-54 -42.5 -78 -74.5h835
c20.667 0 36.334 4.66699 47.001 14s19.334 26 26.001 50h32v-374h-32c-6.66699 24 -15.334 40.667 -26.001 50s-26.334 14 -47.001 14h-1063c-34 0 -57 -4 -69 -12s-21 -25.333 -27 -52h-32c-0.666992 33.333 -1 54.666 -1 63.999z" />
    <glyph glyph-name="three" unicode="3" 
d="M43 106l159.999 368.999l30 -13c-3.33301 -8 -5 -15 -5 -21c0 -36 18.333 -69 55 -99c47.333 -38.667 115 -70.5 203 -95.5s176.333 -37.5 265 -37.5c84 0 156 13.667 216 41c76 34.667 114 89 114 163c0 64 -27 112.333 -81 145s-133.667 49 -239 49
c-64 0 -108.167 -4.66699 -132.5 -14s-39.833 -27.666 -46.5 -54.999h-32v335h32c8 -30 22.833 -49.5 44.5 -58.5s64.167 -13.5 127.5 -13.5c98.667 0 174.334 17.333 227.001 52c46 29.333 69 71.666 69 126.999c0 56.667 -25.667 100.334 -77 131.001
s-124.666 46 -219.999 46c-134.667 0 -253 -29.667 -355 -89c-49.333 -29.333 -74 -60 -74 -92c0 -12.667 4.33301 -27.667 13 -45l-25 -20l-230 283l25 20c24.667 -11.333 43 -17 55 -17c13.333 0 31.333 7.66699 54 23c167.333 112.667 354.333 169 561 169
c144 0 265.333 -28.333 364 -85c56.667 -32.667 101 -75 133 -127c32.667 -54 49 -114.333 49 -181c0 -119.333 -57.333 -212.666 -172 -279.999c151.333 -56.667 227 -157.334 227 -302.001c0 -148 -65 -260.333 -195 -337c-114 -67.333 -256.667 -101 -428 -101
c-182 0 -347 35.667 -495 107c-62 30 -102 45 -120 45c-16.667 0 -39.334 -12.333 -68.001 -37z" />
    <glyph glyph-name="four" unicode="4" 
d="M90 165l-0.000976562 290.003l678 762c29.333 34 44 58.333 44 73c0 23.333 -17 37.666 -51 42.999v32h535v-32c-24 -6.66699 -40.667 -15.334 -50 -26.001s-14 -26 -14 -46v-806h75c20.667 0 36.334 4.66699 47.001 14s19.334 25.666 26.001 48.999h32v-353h-32
c-6.66699 24 -15.334 40.833 -26.001 50.5s-26.334 14.5 -47.001 14.5h-75v-125c0 -20.667 4.66699 -36.334 14 -47.001s26 -19.334 50 -26.001v-32h-417v32c24 6.66699 40.667 15.334 50 26.001s14 26.334 14 47.001v125h-719c-38.667 0 -64.167 -3.83301 -76.5 -11.5
s-21.166 -25.5 -26.499 -53.5h-31zM415.999 455.003h527v599z" />
    <glyph glyph-name="five" unicode="5" 
d="M57 162l241.002 318.999l26 -18c-4.66699 -17.333 -7 -32 -7 -44c0 -34 27 -68 81 -102c112 -72 235.333 -108 370 -108c100.667 0 180 21 238 63c62.667 46 94 109 94 189c0 74 -30.167 133 -90.5 177s-141.166 66 -242.499 66c-74.667 0 -145.167 -12 -211.5 -36
s-99.5 -49.667 -99.5 -77c0 -9.33301 4.66699 -22.666 14 -39.999l-24 -21l-352 354l21 24c5.33301 -0.666992 9.66602 -1 12.999 -1c32 0 48 20.333 48 61v289c0 22 -4.83301 38.667 -14.5 50s-26.167 20 -49.5 26v32h1082c20.667 0 36.167 4.66699 46.5 14
s19.166 26.333 26.499 51h32v-361h-32c-7.33301 24 -16.166 40.5 -26.499 49.5s-25.833 13.5 -46.5 13.5h-779v-294c110 54.667 237.667 82 383 82c190 0 339.333 -44.333 448 -133c100.667 -82 151 -190.333 151 -325c0 -102.667 -30.333 -194.667 -91 -276
c-104 -140 -281 -210 -531 -210c-161.333 0 -300.333 28.667 -417 86c-28.667 14 -75.334 40 -140.001 78c-28 16.667 -53.333 25 -76 25c-12.667 0 -32.334 -7.66699 -59.001 -23z" />
    <glyph glyph-name="six" unicode="6" 
d="M96 669c0 212.667 65.668 384.67 197.001 516.003c136 136 312.333 204 529 204c76 0 144.833 -7 206.5 -21s132.5 -38.667 212.5 -74c28 -12.667 50 -19 66 -19c11.333 0 22.333 4.33301 33 13c8.66699 7.33301 15 12.333 19 15l27 -17l-176 -327l-28 14
c3.33301 17.333 5 30.333 5 39c0 26.667 -21.333 53.334 -64 80.001c-36 22.667 -81.667 41 -137 55s-109 21 -161 21c-110.667 0 -205.334 -29 -284.001 -87c-51.333 -38 -89.333 -83.833 -114 -137.5s-40.334 -123.834 -47.001 -210.501
c67.333 60 135.5 103.167 204.5 129.5s148.5 39.5 238.5 39.5c145.333 0 270 -34.667 374 -104c58 -38.667 104 -89.334 138 -152.001c32 -60.667 48 -127.334 48 -200.001c0 -142.667 -59.667 -257.334 -179 -344.001c-115.333 -84 -262.666 -126 -441.999 -126
c-193.333 0 -344.333 48.667 -453 146c-72 64 -126 146 -162 246c-34 96 -51 196.333 -51 301zM441.001 438.003c0 -66 26.6689 -120 80.002 -162c63.333 -50 146.666 -75 249.999 -75s186.666 25 249.999 75c53.333 42 80 95 80 159c0 67.333 -26.667 122 -80 164
c-62.667 49.333 -146.667 74.333 -252 75c-101.333 0 -184 -25 -248 -75c-53.333 -41.333 -80 -95 -80 -161z" />
    <glyph glyph-name="seven" unicode="7" 
d="M85 1077l-0.00195312 352.999h32c6.66699 -24.667 15.334 -41.667 26.001 -51s26.334 -14 47.001 -14h1080c20.667 0 36.334 4.66699 47.001 14s19.334 26.333 26.001 51h32v-261l-614 -1012c-24 -39.333 -36 -64.666 -36 -75.999c0 -20 18.667 -36.333 56 -49v-32h-489
v32c28.667 8 52.5 20.667 71.5 38s41.167 46.333 66.5 87l611 983h-851c-20.667 0 -36.334 -4.5 -47.001 -13.5s-19.334 -25.5 -26.001 -49.5h-32z" />
    <glyph glyph-name="eight" unicode="8" 
d="M75 408c0 162 101.667 269.334 305 322.001c-164 64.667 -246 162 -246 292c0 92 37.333 170.333 112 235c101.333 88 262.666 132 483.999 132c154.667 0 284 -23.333 388 -70c60.667 -27.333 110.667 -66.666 150 -117.999s59 -111 59 -179
c0 -130 -82 -227.333 -246 -292c203.333 -52.667 305 -159.667 305 -321c0 -108.667 -43 -203.334 -129 -284.001c-105.333 -99.333 -280.666 -149 -525.999 -149c-167.333 0 -305.333 24.333 -414 73c-69.333 31.333 -127 79.666 -173 144.999c-46 66.667 -69 138 -69 214z
M381 413.001c0 -63.333 31.167 -113.168 93.5 -149.501s147.5 -54.5 255.5 -54.5c117.333 0 209 22 275 66c50 34 75 79.333 75 136c0 65.333 -30.667 116 -92 152s-148 54.333 -260 55c-114 0 -204.667 -22 -272 -66c-50 -33.333 -75 -79.666 -75 -138.999zM422 1010
c0 -50.667 27.666 -90.665 82.999 -119.998s130.333 -44 225 -44s169.834 14.667 225.501 44s83.5 68.666 83.5 117.999c0 52.667 -27.167 93.667 -81.5 123s-130.833 44 -229.5 44c-94 0 -168.5 -14.833 -223.5 -44.5s-82.5 -69.834 -82.5 -120.501z" />
    <glyph glyph-name="nine" unicode="9" 
d="M75 79l177 327.001l28 -14c-4 -16.667 -6 -29.667 -6 -39c0 -26.667 21.333 -53.334 64 -80.001c35.333 -22 81 -40.167 137 -54.5s109.333 -21.5 160 -21.5c111.333 0 206.333 29 285 87c51.333 38.667 89.5 84.667 114.5 138s40.5 123.333 46.5 210
c-67.333 -60 -135.5 -103.167 -204.5 -129.5s-148.833 -39.5 -239.5 -39.5c-144.667 0 -268.667 34.333 -372 103c-58.667 39.333 -104.667 90.333 -138 153c-32 60.667 -48 127 -48 199c0 144 59.667 259 179 345c116 84 262.667 126 440 126
c193.333 0 344.666 -48.667 453.999 -146c72.667 -64 126.667 -146 162 -246c34 -96 51 -196.333 51 -301c0 -212.667 -65.667 -384.667 -197 -516c-136 -136 -312.333 -204 -529 -204c-76 0 -144.333 6.83301 -205 20.5s-132 38.5 -214 74.5c-28 12.667 -49.667 19 -65 19
c-11.333 0 -22.666 -4.33301 -33.999 -13c-8.66699 -7.33301 -15 -12.333 -19 -15zM361 927.001c0 -65.333 26.668 -119 80.001 -161c63.333 -50 146.333 -75 249 -75c103.333 0 186.666 25 249.999 75c53.333 42 80 95 80 159c0 67.333 -26.667 122 -80 164
c-62 49.333 -145.333 74.333 -250 75c-102 0 -185 -25 -249 -75c-53.333 -41.333 -80 -95.333 -80 -162z" />
    <glyph glyph-name="colon" unicode=":" horiz-adv-x="628" 
d="M150 141c0 44.667 15.833 82.833 47.5 114.5s70.5 47.834 116.5 48.501c46 0 84.833 -16 116.5 -48s47.5 -71 47.5 -117c0 -44.667 -16.167 -83 -48.5 -115s-70.833 -48 -115.5 -48c-45.333 0 -84 16.167 -116 48.5s-48 71.166 -48 116.499zM150 980.999
c0 44.667 15.833 82.833 47.5 114.5s70.5 47.834 116.5 48.501c46 0 84.833 -16 116.5 -48s47.5 -71 47.5 -117c0 -44.667 -16.167 -83 -48.5 -115s-70.833 -48 -115.5 -48c-45.333 0 -84 16.167 -116 48.5s-48 71.166 -48 116.499z" />
    <glyph glyph-name="semicolon" unicode=";" horiz-adv-x="628" 
d="M150 142c0 49.333 13.5 88.667 40.5 118s62.833 44 107.5 44c60 0 106 -24.667 138 -74c28 -44.667 42 -98 42 -160c0 -146.667 -77.667 -274.667 -233 -384l-48 64c54.667 36 94 71 118 105s41 78 51 132c-32 -7.33301 -55.333 -11 -70 -11
c-44 0 -79.333 15.333 -106 46s-40 70.667 -40 120zM150 981.001c0 44.667 15.833 82.833 47.5 114.5s70.5 47.834 116.5 48.501c46 0 84.833 -16 116.5 -48s47.5 -71 47.5 -117c0 -44.667 -16.167 -83 -48.5 -115s-70.833 -48 -115.5 -48c-45.333 0 -84 16.167 -116 48.5
s-48 71.166 -48 116.499z" />
    <glyph glyph-name="less" unicode="&#x3c;" horiz-adv-x="1024" 
d="M68 562v243l887 461v-289l-580 -294l580 -295v-288z" />
    <glyph glyph-name="equal" unicode="=" horiz-adv-x="1570" 
d="M234 288l-0.000976562 323.999h30c5.33301 -23.333 13 -39.666 23 -48.999s24.333 -14 43 -14h910c18.667 0 32.834 4.5 42.501 13.5s17.5 25.5 23.5 49.5h30v-324h-30c-6 24.667 -13.833 41.667 -23.5 51s-23.834 14 -42.501 14h-910
c-19.333 0 -33.666 -4.66699 -42.999 -14s-17.333 -26.333 -24 -51h-29zM233.999 752.999l-0.000976562 324h30c5.33301 -24 13 -40.667 23 -50s24.333 -14 43 -14h910c18.667 0 32.834 4.66699 42.501 14s17.5 26 23.5 50h30v-324h-30c-6 24 -13.833 40.667 -23.5 50
s-23.834 14 -42.501 14h-910c-19.333 0 -33.666 -4.66699 -42.999 -14s-17.333 -26 -24 -50h-29z" />
    <glyph glyph-name="greater" unicode="&#x3e;" horiz-adv-x="1024" 
d="M69 100v288l580 295l-580 294v289l887 -461v-243z" />
    <glyph glyph-name="question" unicode="?" horiz-adv-x="1000" 
d="M41 1232l25.998 18c20 -10 34 -15 42 -15c15.333 0 44 13.667 86 41c62.667 41.333 118.5 70.5 167.5 87.5s101.833 25.5 158.5 25.5c92 0 169 -21.667 231 -65c83.333 -58 125 -137.333 125 -238c0 -52.667 -13.333 -103 -40 -151s-72.667 -104 -138 -168
c-45.333 -44.667 -74.833 -79.834 -88.5 -105.501s-20.5 -58.834 -20.5 -99.501c0 -18 4 -31 12 -39s23.333 -15 46 -21v-32h-329v32c26.667 8.66699 44.334 19.834 53.001 33.501s16.667 44.167 24 91.5c7.33301 42.667 17.5 76.5 30.5 101.5s40.167 63.5 81.5 115.5
c37.333 46.667 62.5 82.834 75.5 108.501s19.5 52.5 19.5 80.5c0 43.333 -14.167 78.166 -42.5 104.499s-66.166 39.5 -113.499 39.5c-70.667 0 -131 -25.333 -181 -76c-23.333 -24 -35 -47 -35 -69c0 -7.33301 3 -18.666 9 -33.999l-27 -18zM335.998 141
c0 44.667 15.833 82.833 47.5 114.5s70.5 47.834 116.5 48.501c46 0 84.833 -16 116.5 -48s47.5 -71 47.5 -117c0 -44.667 -16.167 -83 -48.5 -115s-70.833 -48 -115.5 -48c-45.333 0 -84 16.167 -116 48.5s-48 71.166 -48 116.499z" />
    <glyph glyph-name="at" unicode="@" horiz-adv-x="1682" 
d="M109 668c0 146 37.3369 275.997 112.004 389.997c80 122 194.333 211.667 343 269c102.667 39.333 209.334 59 320.001 59c200 0 368 -60 504 -180c124 -108.667 186 -246.667 186 -414c0 -151.333 -48 -270.666 -144 -357.999c-64 -58 -128.333 -87 -193 -87
c-50 0 -90.5 8.83301 -121.5 26.5s-59.833 48.5 -86.5 92.5c-39.333 -29.333 -87.5 -52.666 -144.5 -69.999s-115.5 -26 -175.5 -26c-82 0 -148.333 20 -199 60c-56 45.333 -84 106.333 -84 183c0 86.667 31.333 164.667 94 234c41.333 46 93.166 82 155.499 108
s127.833 39 196.5 39c93.333 0 174.666 -32.667 243.999 -98l22 72h136l-114 -459c-2 -6.66699 -3 -13.667 -3 -21c0 -30 20.667 -45 62 -45c37.333 0 76.666 16.333 117.999 49c26.667 20.667 48 55.5 64 104.5s24 102.5 24 160.5c0 126 -44 230.667 -132 314
c-58.667 56 -127.334 98.667 -206.001 128c-71.333 26 -142 39 -212 39c-108.667 0 -215 -29 -319 -87c-105.333 -59.333 -184 -133.666 -236 -222.999c-42 -72.667 -63 -153.334 -63 -242.001c0 -99.333 25.667 -193.666 77 -282.999c106 -184 283.333 -276 532 -276
c47.333 0 102 4.83301 164 14.5s112.333 21.5 151 35.5c16 5.33301 24 15.666 24 30.999c0 4.66699 -0.333008 10 -1 16l24 6l67 -234l-24 -6c-16.667 32 -34.667 48 -54 48c-8 0 -19.667 -2 -35 -6c-136 -35.333 -249.667 -53 -341 -53
c-196.667 0 -363.334 59 -500.001 177c-154.667 132.667 -232 303.334 -232 512.001zM581.004 643.997c-2 -43.333 12.168 -78.6689 42.501 -106.002s70.833 -41 121.5 -41c86.667 0 158 20.333 214 61c56 41.333 84 89 84 143c0 52.667 -17.333 93.334 -52 122.001
s-84.334 43.334 -149.001 44.001c-66.667 0 -124 -18.333 -172 -55c-56 -43.333 -85.667 -99.333 -89 -168z" />
    <glyph glyph-name="A" unicode="A" horiz-adv-x="1666" 
d="M7 0v31.999c26.667 5.33301 47 14.666 61 27.999s30 39.333 48 78l502 1049c16 33.333 24 60 24 80c0 30.667 -19.333 52.667 -58 66v32h484v-32c-39.333 -11.333 -59 -31 -59 -59c0 -19.333 6.33301 -41.333 19 -66l520 -1052c22 -44.667 41.333 -75.167 58 -91.5
s39 -27.166 67 -32.499v-32h-502v32c44 7.33301 66 28 66 62c0 14 -6.66699 34.667 -20 62l-94 192h-620l-92 -192c-12.667 -26.667 -19 -47.667 -19 -63c0 -29.333 22.333 -49.666 67 -60.999v-32h-452zM592 534.999h445l-221 486z" />
    <glyph glyph-name="B" unicode="B" horiz-adv-x="1651" 
d="M123 0v31.9961c24 6.66699 40.667 15.334 50 26.001s14 26.334 14 47.001v1155c0 20.667 -4.66699 36.334 -14 47.001s-26 19.334 -50 26.001v32h924c88.667 0 160 -6.66699 214 -20s101.333 -36 142 -68c80.667 -63.333 121 -154.666 121 -273.999
c0 -133.333 -61.667 -229.333 -185 -288c153.333 -58 230 -165.333 230 -322c0 -124.667 -44.667 -222.334 -134 -293.001c-45.333 -35.333 -97.833 -60.833 -157.5 -76.5s-133.5 -23.5 -221.5 -23.5h-933zM485 224.996h506.001c94 0 161.667 13 203 39
c47.333 30 71 79 71 147c0 67.333 -23.667 116.333 -71 147c-40.667 26 -108.334 39 -203.001 39h-506v-372zM485.001 821.996l523 0.000976562c79.333 0 134.666 11.667 165.999 35c35.333 26.667 53 68 53 124c0 57.333 -16.667 98.166 -50 122.499
s-89.666 36.5 -168.999 36.5h-523v-318z" />
    <glyph glyph-name="C" unicode="C" horiz-adv-x="1718" 
d="M91 683c0 165.333 48.333 308.999 145 430.999c145.333 183.333 365 275 659 275c108 0 200.667 -11.333 278 -34s174 -67.334 290 -134.001c55.333 -31.333 89 -47 101 -47s27.333 8.66699 46 26l26 -18l-190 -285l-27 18c1.33301 10.667 2 19.667 2 27
c0 19.333 -8.33301 37.5 -25 54.5s-46.334 37.5 -89.001 61.5c-118 66.667 -243 100 -375 100c-156 0 -280.333 -39 -373 -117c-109.333 -91.333 -164 -210.666 -164 -357.999s54.667 -266.666 164 -357.999c92.667 -78 217 -117 373 -117c132 0 257 33.333 375 100
c42.667 24 72.334 44.5 89.001 61.5s25 35.167 25 54.5c0 7.33301 -0.666992 16 -2 26l27 19l190 -285l-26 -18c-18.667 17.333 -34 26 -46 26s-45.667 -16 -101 -48c-114.667 -66 -211.167 -110.5 -289.5 -133.5s-171.5 -34.5 -279.5 -34.5c-215.333 0 -392 51 -530 153
c-81.333 59.333 -145.333 133 -192 221c-54 100.667 -81 211.667 -81 333z" />
    <glyph glyph-name="D" unicode="D" horiz-adv-x="1717" 
d="M123 0v31.9941c24 6.66699 40.667 15.334 50 26.001s14 26.334 14 47.001v1155c0 20.667 -4.66699 36.334 -14 47.001s-26 19.334 -50 26.001v32h761c166.667 0 294.667 -19 384 -57c128 -55.333 222.667 -146.666 284 -273.999c48.667 -100 73 -217 73 -351
c0 -235.333 -72.333 -414.666 -217 -537.999c-60.667 -52 -131.667 -89.167 -213 -111.5s-185 -33.5 -311 -33.5h-761zM485 224.994l374.002 0.000976562c119.333 0 209 16.333 269 49c128.667 70 193 206.333 193 409c0 146.667 -34.667 259 -104 337
c-38.667 43.333 -85.334 74.166 -140.001 92.499s-127.334 27.5 -218.001 27.5h-374v-915z" />
    <glyph glyph-name="E" unicode="E" horiz-adv-x="1556" 
d="M123 0v31.9971c24 6.66699 40.667 15.334 50 26.001s14 26.334 14 47.001v1155c0 20.667 -4.66699 36.334 -14 47.001s-26 19.334 -50 26.001v32h1216c20 0 35.333 4.83301 46 14.5s19.334 26.5 26.001 50.5h32v-353h-32c-6.66699 23.333 -15.334 39.666 -26.001 48.999
s-26 14 -46 14h-854v-324h554c20 0 35.333 4.66699 46 14s19.334 26 26.001 50h32v-345h-32c-6.66699 23.333 -15.334 39.833 -26.001 49.5s-26 14.5 -46 14.5h-554v-374h878c20 0 35.333 4.66699 46 14s19.334 26 26.001 50h32v-353h-32
c-6.66699 24 -15.334 40.667 -26.001 50s-26 14 -46 14h-1240z" />
    <glyph glyph-name="F" unicode="F" horiz-adv-x="1490" 
d="M123 0v31.9971c24 6.66699 40.667 15.334 50 26.001s14 26.334 14 47.001v1155c0 20.667 -4.66699 36.334 -14 47.001s-26 19.334 -50 26.001v32h1208c20 0 35.333 4.66699 46 14s19.334 26.333 26.001 51h32v-353h-32c-6.66699 24 -15.334 40.5 -26.001 49.5
s-26 13.5 -46 13.5h-846v-326h553c20.667 0 36.334 4.83301 47.001 14.5s19.334 26.5 26.001 50.5h32v-345h-32c-6.66699 23.333 -15.334 39.666 -26.001 48.999s-26.334 14 -47.001 14h-553v-492c0 -20.667 4.83301 -36.5 14.5 -47.5s26.167 -19.5 49.5 -25.5v-32h-426z
" />
    <glyph glyph-name="G" unicode="G" horiz-adv-x="1757" 
d="M91 683c0 218.667 78.002 392.671 234.002 522.004c148 122.667 344.667 184 590 184c78 0 151.5 -7.16699 220.5 -21.5s147.5 -38.5 235.5 -72.5c45.333 -18 77.666 -27 96.999 -27c14 0 30.333 7.66699 49 23l28 -15l-160 -327l-29 15
c-0.666992 22 -3.66699 37.833 -9 47.5s-17.333 21.5 -36 35.5c-40.667 30.667 -100.334 56.834 -179.001 78.501s-153 32.5 -223 32.5c-142.667 0 -261 -40 -355 -120c-106 -90.667 -159 -210.334 -159 -359.001c0 -144 51.667 -260.333 155 -349
c94.667 -81.333 219.334 -122 374.001 -122c75.333 0 149.666 8.66699 222.999 26s136.666 41 189.999 71v186h-337c-20.667 0 -36.167 -4.66699 -46.5 -14s-18.833 -26 -25.5 -50h-32v318h32c6.66699 -24.667 15.167 -41.5 25.5 -50.5s25.833 -13.5 46.5 -13.5h648v-32
c-24 -6.66699 -40.833 -15.334 -50.5 -26.001s-14.5 -26.334 -14.5 -47.001v-280c0 -20.667 4.66699 -36.334 14 -47.001s26.333 -19.334 51 -26.001v-25c-259.333 -148 -510.666 -222 -753.999 -222c-220.667 0 -400.667 52.333 -540 157
c-175.333 132 -263 315.333 -263 550z" />
    <glyph glyph-name="H" unicode="H" horiz-adv-x="1757" 
d="M123 0v32c24 6.66699 40.667 15.334 50 26.001s14 26 14 46v1157c0 20 -4.66699 35.333 -14 46s-26 19.334 -50 26.001v32h426v-32c-24 -6 -40.667 -14.5 -50 -25.5s-14 -26.5 -14 -46.5v-440h787v440c0 20 -4.66699 35.5 -14 46.5s-26 19.5 -50 25.5v32h426v-32
c-24 -6.66699 -40.667 -15.334 -50 -26.001s-14 -26 -14 -46v-1157c0 -20 4.66699 -35.333 14 -46s26 -19.334 50 -26.001v-32h-426v32c23.333 6 39.833 14.5 49.5 25.5s14.5 26.5 14.5 46.5v492h-787v-492c0 -20 4.83301 -35.5 14.5 -46.5s26.167 -19.5 49.5 -25.5v-32
h-426z" />
    <glyph glyph-name="I" unicode="I" horiz-adv-x="671" 
d="M123 0v31.9971c24 6.66699 40.667 15.334 50 26.001s14 26.334 14 47.001v1156c0 20 -4.66699 35.333 -14 46s-26 19.334 -50 26.001v32h426v-32c-24 -6 -40.667 -14.5 -50 -25.5s-14 -26.5 -14 -46.5v-1156c0 -20.667 4.83301 -36.5 14.5 -47.5s26.167 -19.5 49.5 -25.5
v-32h-426z" />
    <glyph glyph-name="J" unicode="J" horiz-adv-x="1238" 
d="M6 52l128.002 345.999l30 -11c-0.666992 -8 -1 -14.667 -1 -20c0 -27.333 17 -52.666 51 -75.999c36 -23.333 84.167 -43 144.5 -59s118.166 -24 173.499 -24c89.333 0 154.333 20.333 195 61c20.667 20.667 34.667 45.167 42 73.5s11 71.166 11 128.499v789
c0 20.667 -4.66699 36.334 -14 47.001s-26 19.334 -50 26.001v32h426v-32c-24 -6.66699 -40.667 -15.334 -50 -26.001s-14 -26.334 -14 -47.001v-804c0 -132 -18.333 -227.333 -55 -286c-38.667 -62 -96 -109.833 -172 -143.5s-164.667 -50.5 -266 -50.5
c-58 0 -108.333 3.83301 -151 11.5s-112.334 25.834 -209.001 54.501c-60 17.333 -102.667 26 -128 26c-22 0 -42.333 -9.33301 -61 -28z" />
    <glyph glyph-name="K" unicode="K" horiz-adv-x="1642" 
d="M123 0l-0.00195312 31.998c24 6.66699 40.667 15.334 50 26.001s14 26.334 14 47.001v1156c0 20 -4.66699 35.333 -14 46s-26 19.334 -50 26.001v32h426v-32c-24 -6 -40.667 -14.5 -50 -25.5s-14 -26.5 -14 -46.5v-478l562 459c26 21.333 39 38.333 39 51
c0 19.333 -19.333 32.666 -58 39.999v32h558v-32c-23.333 -4.66699 -40 -10 -50 -16s-39 -28.667 -87 -68l-77 -64l-464 -373l526 -633c48.667 -58.667 83.834 -96.5 105.501 -113.5s48.834 -28.167 81.501 -33.5v-32h-533v32c35.333 7.33301 53 20 53 38
c0 9.33301 -16 34 -48 74l-403 494l-205 -167v-366c0 -20.667 4.83301 -36.5 14.5 -47.5s26.167 -19.5 49.5 -25.5v-32h-426z" />
    <glyph glyph-name="L" unicode="L" horiz-adv-x="1449" 
d="M123 0v31.9961c24 6.66699 40.667 15.334 50 26.001s14 26.334 14 47.001v1155c0 20.667 -4.66699 36.334 -14 47.001s-26 19.334 -50 26.001v32h426v-32c-24 -6 -40.667 -14.5 -50 -25.5s-14 -26.833 -14 -47.5v-1035h839c20.667 0 36.334 4.66699 47.001 14
s19.334 26 26.001 50h32v-353h-32c-6.66699 24 -15.334 40.667 -26.001 50s-26.334 14 -47.001 14h-1201z" />
    <glyph glyph-name="M" unicode="M" horiz-adv-x="1979" 
d="M123 0v32.002c24 6.66699 40.667 15.334 50 26.001s14 26.334 14 47.001v1156c0 20 -4.66699 35.333 -14 46s-26 19.334 -50 26.001v32h526v-32c-31.333 -8 -47 -26.333 -47 -55c0 -13.333 4.66699 -28.666 14 -45.999l372 -686l377 674c16.667 30.667 25 53 25 67
c0 27.333 -16.667 42.666 -50 45.999v32h516v-32c-24 -6.66699 -40.667 -15.334 -50 -26.001s-14 -26 -14 -46v-1156c0 -20.667 4.66699 -36.334 14 -47.001s26 -19.334 50 -26.001v-32h-426v32c23.333 6 39.833 14.5 49.5 25.5s14.5 26.833 14.5 47.5v838l-531 -924
l-503 924v-838c0 -20.667 4.66699 -36.334 14 -47.001s26 -19.334 50 -26.001v-32h-401z" />
    <glyph glyph-name="N" unicode="N" horiz-adv-x="1785" 
d="M123 0v32.001c24 6.66699 40.667 15.334 50 26.001s14 26.334 14 47.001v1156c0 20 -4.66699 35.333 -14 46s-26 19.334 -50 26.001v32h464v-32c-28.667 -7.33301 -43 -22.666 -43 -45.999c0 -16 9.33301 -33.667 28 -53l753 -783v810c0 20 -4.66699 35.333 -14 46
s-26 19.334 -50 26.001v32h401v-32c-24 -6.66699 -40.667 -15.334 -50 -26.001s-14 -26 -14 -46v-1156c0 -20.667 4.66699 -36.334 14 -47.001s26 -19.334 50 -26.001v-32h-430v32c28 6 42 20.333 42 43c0 13.333 -16.333 36.666 -49 69.999l-765 790v-830
c0 -20.667 4.66699 -36.334 14 -47.001s26 -19.334 50 -26.001v-32h-401z" />
    <glyph glyph-name="O" unicode="O" horiz-adv-x="1752" 
d="M91 683c0 136.667 35.001 261.667 105.001 375c134 216.667 359.667 327 677 331c238 0 426.667 -64.333 566 -193c147.333 -134.667 221 -308.667 221 -522c0 -130.667 -35.333 -252.667 -106 -366c-138 -221.333 -364.333 -332 -679 -332
c-236 0 -423.667 64.333 -563 193c-74.667 68.667 -131.334 151 -170.001 247c-34 84.667 -51 173.667 -51 267zM395.001 683c0 -148 51.333 -267.667 154 -359c86.667 -77.333 195.667 -116 327 -116s240 38.667 326 116c51.333 46 90.666 102.333 117.999 169
c24 59.333 36 120.666 36 183.999c0 154.667 -51.333 276.334 -154 365.001c-87.333 76 -196.666 114.667 -327.999 116c-130 0 -238.333 -38.667 -325 -116c-102.667 -91.333 -154 -211 -154 -359z" />
    <glyph glyph-name="P" unicode="P" horiz-adv-x="1567" 
d="M123 0l0.000976562 31.9971c24 6.66699 40.667 15.334 50 26.001s14 26 14 46v1156c0 20.667 -4.66699 36.334 -14 47.001s-26 19.334 -50 26.001v32h852c99.333 0 178.166 -6.66699 236.499 -20s109.833 -36.333 154.5 -69c46 -34 82 -78.667 108 -134
c26 -57.333 39 -118 39 -182c0 -92 -24.667 -172.667 -74 -242c-42.667 -59.333 -99.167 -101.5 -169.5 -126.5s-168.5 -37.5 -294.5 -37.5h-490v-450c0 -20 4.83301 -35.5 14.5 -46.5s26.167 -19.5 49.5 -25.5v-32h-426zM485.001 778.997l454.999 -0.00292969
c90.667 0 154.334 9.66699 191.001 29c23.333 12.667 42.166 32.834 56.499 60.501s21.5 58.167 21.5 91.5c0 32.667 -7.16699 62.834 -21.5 90.501s-33.166 47.834 -56.499 60.501c-36 19.333 -99.667 29 -191 29h-455v-361z" />
    <glyph glyph-name="Q" unicode="Q" horiz-adv-x="1752" 
d="M91 683c0 136.667 35.335 261.333 106.002 374c137.333 221.333 363.666 332 678.999 332c236.667 0 424.334 -64.333 563.001 -193c74.667 -68.667 131.334 -150.667 170.001 -246c34 -84.667 51 -173.667 51 -267c0 -200.667 -71 -369.667 -213 -507l106 -110
c24 -25.333 40.167 -40.833 48.5 -46.5s18.166 -8.5 29.499 -8.5c9.33301 0 24.666 4.33301 45.999 13l21 -24l-292 -266l-22 24c13.333 22 20 38.333 20 49c0 12 -18.667 40.333 -56 85l-118 144c-98.667 -40 -218.667 -60 -360 -60c-232.667 0 -418.667 64.333 -558 193
c-74.667 68.667 -131.334 151 -170.001 247c-34 84.667 -51 173.667 -51 267zM395.002 682.999c0 -148 51.332 -267.667 153.999 -359c86.667 -77.333 196 -116 328 -116c62.667 0 124 10.667 184 32l-19 24c-70.667 90.667 -154 147.334 -250 170.001v28
c48 37.333 102.667 56 164 56c44 0 87.833 -10.667 131.5 -32s97.834 -58.333 162.501 -111c70.667 88 106 191 106 309c0 147.333 -51.333 266.666 -154 357.999c-86 77.333 -194.667 116 -326 116c-132 0 -241 -38.667 -327 -116c-102.667 -92 -154 -211.667 -154 -359z
" />
    <glyph glyph-name="R" unicode="R" horiz-adv-x="1656" 
d="M123 0l-0.000976562 31.9961c24 6.66699 40.667 15.334 50 26.001s14 26 14 46v1156c0 20.667 -4.66699 36.334 -14 47.001s-26 19.334 -50 26.001v32h854c104 0 186.5 -6 247.5 -18s114.167 -33 159.5 -63c52.667 -34.667 92 -81.667 118 -141
c24.667 -57.333 37 -118.666 37 -183.999c0 -222.667 -123.667 -353 -371 -391l265 -377c46.667 -66 80.834 -108.5 102.501 -127.5s48.167 -29.5 79.5 -31.5v-32h-494v32c34 5.33301 51 17.333 51 36c0 12 -15.667 41 -47 87l-276 402h-364v-453
c0 -20 4.83301 -35.5 14.5 -46.5s26.167 -19.5 49.5 -25.5v-32h-426zM484.999 781.996l460 0.00195312c68 0 116 2 144 6s53.667 12.333 77 25c50.667 27.333 76 76.666 76 147.999s-25.333 120.666 -76 147.999c-24 13.333 -49.5 21.833 -76.5 25.5s-75.167 5.5 -144.5 5.5
h-460v-358z" />
    <glyph glyph-name="S" unicode="S" horiz-adv-x="1475" 
d="M82 125l147.999 335l29 -14v-13c0 -30 14.333 -57.667 43 -83c43.333 -38.667 110.333 -72 201 -100s176.667 -42 258 -42c88.667 0 164.334 15 227.001 45c34.667 16.667 62.334 38.834 83.001 66.501s31 56.5 31 86.5c0 45.333 -24.333 77.666 -73 96.999
c-34 13.333 -102.667 25.666 -206 36.999l-154 16c-103.333 10.667 -176.333 20.834 -219 30.501s-85.334 25.167 -128.001 46.5c-60.667 30 -108.334 75 -143.001 135c-31.333 54 -47 116 -47 186c0 115.333 39.667 210.666 119 285.999c104 99.333 260 149 468 149
c87.333 0 168.666 -8.83301 243.999 -26.5s169.333 -50.167 282 -97.5c38.667 -15.333 62.334 -23 71.001 -23c14 0 30.333 7.66699 49 23l28 -15l-163 -321l-28 16c0.666992 6.66699 1 12 1 16c0 22.667 -19.333 47 -58 73c-118.667 82.667 -258 124 -418 124
c-70.667 0 -133 -8.66699 -187 -26c-39.333 -13.333 -71.166 -33.333 -95.499 -60s-36.5 -55.667 -36.5 -87c0 -51.333 31 -86.333 93 -105c32 -9.33301 100.667 -19.333 206 -30l157 -16c93.333 -10 168.833 -23.667 226.5 -41s108.834 -41.666 153.501 -72.999
c45.333 -32.667 81.166 -75.667 107.499 -129s39.5 -110.333 39.5 -171c0 -96 -31 -181.333 -93 -256c-56 -68 -143 -118.333 -261 -151c-88 -24.667 -182.333 -37 -283 -37c-180.667 0 -359 43.333 -535 130c-37.333 17.333 -59.666 26 -66.999 26
c-8.66699 0 -22.334 -7.33301 -41.001 -22z" />
    <glyph glyph-name="T" unicode="T" horiz-adv-x="1381" 
d="M14 1077l0.00195312 353h32c7.33301 -24.667 16.166 -41.667 26.499 -51s25.5 -14 45.5 -14h1145c20.667 0 36.334 4.66699 47.001 14s19.334 26.333 26.001 51h32v-353h-32c-6.66699 24 -15.334 40.5 -26.001 49.5s-26.334 13.5 -47.001 13.5h-423v-1035
c0 -20.667 4.66699 -36.334 14 -47.001s26 -19.334 50 -26.001v-32h-426v32c24 6.66699 40.667 15.334 50 26.001s14 26.334 14 47.001v1035h-424c-20 0 -35.333 -4.5 -46 -13.5s-19.334 -25.5 -26.001 -49.5h-32z" />
    <glyph glyph-name="U" unicode="U" horiz-adv-x="1671" 
d="M96 1333l-0.000976562 31.998h427v-32c-24 -6 -40.833 -14.5 -50.5 -25.5s-14.5 -26.833 -14.5 -47.5v-681c0 -78.667 4.33301 -136.834 13 -174.501s25 -69.167 49 -94.5c64 -68 173.333 -102 328 -102c155.333 0 265 34 329 102c23.333 25.333 39.333 56.833 48 94.5
s13 95.834 13 174.501v681c0 20.667 -4.66699 36.334 -14 47.001s-26 19.334 -50 26.001v32h402v-32c-24 -6.66699 -40.667 -15.334 -50 -26.001s-14 -26.334 -14 -47.001v-765c0 -144.667 -26.667 -253 -80 -325c-96 -129.333 -294.333 -194 -595 -194
c-217.333 0 -383.666 35 -498.999 105c-67.333 40.667 -114 96 -140 166c-25.333 69.333 -38 152 -38 248v765c0 20.667 -4.66699 36.334 -14 47.001s-26 19.334 -50 26.001z" />
    <glyph glyph-name="V" unicode="V" horiz-adv-x="1577" 
d="M-7 1333l-0.00195312 31.999h485v-32c-44 -8.66699 -66 -27.334 -66 -56.001c0 -18.667 7.66699 -45 23 -79l362 -802l362 802c15.333 34 23 60.333 23 79c0 28.667 -22 47.334 -66 56.001v32h467v-32c-29.333 -4 -49.666 -12.333 -60.999 -25s-31 -49.334 -59 -110.001
l-473 -1021c-20 -43.333 -30 -71.666 -30 -84.999c0 -34 21 -54 63 -60v-32h-470v32c42 6 63 26.333 63 61c0 12.667 -10 40.667 -30 84l-473 1021c-28 60.667 -47.667 97.334 -59 110.001s-31.666 21 -60.999 25z" />
    <glyph glyph-name="W" unicode="W" horiz-adv-x="2311" 
d="M-20 1333v32.0029h474v-32c-42 -9.33301 -63 -29 -63 -59c0 -15.333 5.33301 -37.333 16 -66l270 -722l292 726c12.667 31.333 19 52 19 62c0 30.667 -22.333 50.334 -67 59.001v32h496v-32c-45.333 -12 -68 -33.667 -68 -65c0 -10.667 5.66699 -30.667 17 -60l278 -725
l269 713c14 35.333 21 61.666 21 78.999c0 29.333 -24 48.666 -72 57.999v32h469v-32c-33.333 -9.33301 -56.333 -21.333 -69 -36s-29.334 -48.334 -50 -101.001l-391 -1007c-18.667 -48 -28 -80 -28 -96c0 -32.667 23.667 -53 71 -61v-32h-445v32
c46.667 7.33301 70 29.666 70 66.999c0 12.667 -10.333 42.667 -31 90l-301 772l-312 -788c-18 -40 -27 -65.333 -27 -76c0 -30.667 24.667 -52.334 74 -65.001v-32h-439v32c44.667 8.66699 67 31.334 67 68.001c0 10 -9.33301 39.667 -28 89l-391 1007
c-19.333 50 -36.833 83.833 -52.5 101.5s-38.5 29.5 -68.5 35.5z" />
    <glyph glyph-name="X" unicode="X" horiz-adv-x="1541" 
d="M7 0l-0.000976562 32c30.667 3.33301 54.5 12 71.5 26s51.167 53.333 102.5 118l412 520l-379 496c-49.333 64.667 -82.166 103.5 -98.499 116.5s-42.5 21.167 -78.5 24.5l-1 32h548v-32c-40 -10.667 -60 -31 -60 -61c0 -16 14.333 -42.667 43 -80l214 -275l217 275
c32 40.667 48 69.334 48 86.001c0 29.333 -23 47.666 -69 54.999v32h533v-32c-32 -3.33301 -54.833 -10.5 -68.5 -21.5s-48.834 -50.833 -105.501 -119.5l-393 -481l413 -535c45.333 -58.667 77.833 -96 97.5 -112s46.834 -26.667 81.501 -32v-32h-541v32
c40 8 60 25.333 60 52c0 14 -12 36.667 -36 68l-263 338l-250 -327c-27.333 -35.333 -41 -60.333 -41 -75c0 -33.333 22.333 -52 67 -56v-32h-524z" />
    <glyph glyph-name="Y" unicode="Y" horiz-adv-x="1460" 
d="M-27 1333v32h539v-32c-44.667 -7.33301 -67 -28 -67 -62c0 -12 13.667 -38.333 41 -79l246 -366l253 366c27.333 39.333 41 66 41 80c0 15.333 -6 28.5 -18 39.5s-28.333 18.167 -49 21.5v32h528v-32c-30 -4 -55.833 -15.167 -77.5 -33.5s-51.5 -54.166 -89.5 -107.499
l-441 -621v-466c0 -20.667 4.83301 -36.334 14.5 -47.001s26.5 -19.334 50.5 -26.001v-32h-429v32c24 6.66699 41 15.334 51 26.001s15 26.334 15 47.001v466l-441 621c-38 53.333 -67.833 89.166 -89.5 107.499s-47.5 29.5 -77.5 33.5z" />
    <glyph glyph-name="Z" unicode="Z" horiz-adv-x="1462" 
d="M82 0l0.00292969 70l794 1070h-683c-20.667 0 -36.334 -4.5 -47.001 -13.5s-19.334 -25.5 -26.001 -49.5h-32v353h32c7.33301 -24.667 16.166 -41.667 26.499 -51s25.833 -14 46.5 -14h1176v-57l-803 -1083h710c20 0 35.333 4.66699 46 14s19.334 26 26.001 50h32v-353
h-32c-6.66699 24 -15.334 40.667 -26.001 50s-26 14 -46 14h-1194z" />
    <glyph glyph-name="bracketleft" unicode="[" horiz-adv-x="683" 
d="M134 -85c23.333 6 39.833 14.168 49.5 24.501s14.5 25.166 14.5 44.499v1396c0 19.333 -4.83301 34.333 -14.5 45s-26.167 19 -49.5 25v25h430c21.333 0 37.333 4.66699 48 14s19.667 26 27 50h27v-268h-27c-6.66699 24 -15.5 40.833 -26.5 50.5s-27.167 14.5 -48.5 14.5
h-147v-1306h134c28 0 47.833 4.33301 59.5 13s21.167 26 28.5 52h27v-268h-27c-6.66699 23.333 -15.667 39.833 -27 49.5s-27.333 14.5 -48 14.5l-430 -1v25z" />
    <glyph glyph-name="backslash" unicode="\" horiz-adv-x="1555" 
d="M68 1333v32h467v-32c-40 -10.667 -60 -31 -60 -61c0 -16 14.667 -42.667 44 -80l788 -1016c46.667 -59.333 79.667 -96.833 99 -112.5s46 -26.167 80 -31.5v-32h-468v32c40 8 60 25.333 60 52c0 14 -12 36.667 -36 68l-804 1040c-48 63.333 -79.833 101.5 -95.5 114.5
s-40.5 21.833 -74.5 26.5z" />
    <glyph glyph-name="bracketright" unicode="]" horiz-adv-x="683" 
d="M16 95h27c7.33301 -26 16.833 -43.333 28.5 -52s31.5 -13 59.5 -13h134v1306h-147c-21.333 0 -37.5 -4.83301 -48.5 -14.5s-19.833 -26.5 -26.5 -50.5h-27v268h27c7.33301 -24 16.333 -40.667 27 -50s26.667 -14 48 -14h430v-25c-23.333 -6 -39.833 -14.333 -49.5 -25
s-14.5 -25.667 -14.5 -45v-1396c0 -19.333 4.83301 -34 14.5 -44s26.167 -18.333 49.5 -25v-25l-430 1c-20.667 0 -36.667 -4.83301 -48 -14.5s-20.333 -26.167 -27 -49.5h-27v268z" />
    <glyph glyph-name="asciicircum" unicode="^" horiz-adv-x="1024" 
d="M35 723l316 650h323l316 -650h-259l-219 453l-219 -453h-258z" />
    <glyph glyph-name="underscore" unicode="_" horiz-adv-x="1024" 
d="M0 -119h1024v-174h-1024v174z" />
    <glyph glyph-name="grave" unicode="`" horiz-adv-x="1024" 
d="M246 1506v27.001h304v-27c-18.667 -2 -28 -8.33301 -28 -19c0 -4 1.33301 -9 4 -15l66 -163c6 -14.667 12.333 -24.334 19 -29.001s18 -7 34 -7v-27h-217v27h5c13.333 0 20 5.33301 20 16c0 6 -2 11.333 -6 16l-142 174c-13.333 17.333 -33 26.333 -59 27z" />
    <glyph glyph-name="a" unicode="a" horiz-adv-x="1421" 
d="M5 0l0.00292969 28.0039c25.333 4 44.166 11.667 56.499 23s26.833 33.666 43.5 66.999l409 828c15.333 31.333 23 58.666 23 81.999c0 27.333 -18.667 48.666 -56 63.999v28h435v-28c-36.667 -14.667 -55 -37.334 -55 -68.001c0 -22 8.33301 -49 25 -81l424 -803
c23.333 -44 41.666 -72.5 54.999 -85.5s33.666 -22.167 60.999 -27.5v-27h-457v27c43.333 7.33301 65 27.666 65 60.999c0 20.667 -8.33301 46.334 -25 77.001l-62 115h-515l-58 -122c-14 -29.333 -21 -52.333 -21 -69c0 -32 21.333 -52.333 64 -61v-28h-412z
M509.003 437.004h357l-183 359z" />
    <glyph glyph-name="b" unicode="b" horiz-adv-x="1387" 
d="M98 0l0.000976562 27.9971c23.333 6 39.833 14.667 49.5 26s14.5 27.333 14.5 48v916c0 20.667 -4.66699 36.334 -14 47.001s-26 19.667 -50 27v28h784c137.333 0 238 -24.667 302 -74c68 -52 102 -123.333 102 -214c0 -53.333 -11.833 -97 -35.5 -131
s-64.834 -67 -123.501 -99c55.333 -25.333 96 -50.666 122 -75.999c48.667 -48 73 -112.667 73 -194c0 -109.333 -41.333 -193.666 -124 -252.999c-73.333 -52.667 -174.333 -79 -303 -79h-797zM430.001 202.997h417c134.667 0 202 49 202 147s-67.333 147 -202 147h-417
v-294zM430.001 699.997l407 0.000976562c64 0 109.333 8.16699 136 24.5s40 44.5 40 84.5c0 39.333 -13.167 67.166 -39.5 83.499s-71.833 24.5 -136.5 24.5h-407v-217z" />
    <glyph glyph-name="c" unicode="c" horiz-adv-x="1427" 
d="M73 560c0 131.333 37.999 247.335 113.999 348.002c119.333 157.333 302.333 236 549 236c91.333 0 172.5 -10.333 243.5 -31s151.833 -57.667 242.5 -111c41.333 -24.667 67.666 -37 78.999 -37c9.33301 0 22 5.66699 38 17l23 -18l-169 -245l-22 16
c0.666992 8 1.33398 13 2.00098 15c0.666992 6 1 10.333 1 13c0 32.667 -45 69.667 -135 111c-85.333 39.333 -171.333 59 -258 59c-121.333 0 -221.333 -32 -300 -96c-90 -72 -135 -164.333 -135 -277c0 -113.333 45 -206 135 -278c79.333 -63.333 179.333 -95 300 -95
c94.667 0 189 23.667 283 71c73.333 37.333 110 70 110 98c0 1.33301 -1 10.666 -3 27.999l22 17l169 -246l-23 -17c-16 11.333 -28.667 17 -38 17c-11.333 0 -37.666 -12.333 -78.999 -37c-91.333 -53.333 -172 -90.333 -242 -111s-150.667 -31 -242 -31
c-182.667 0 -331.667 43.667 -447 131c-65.333 50 -117.333 112.667 -156 188c-41.333 81.333 -62 169.666 -62 264.999z" />
    <glyph glyph-name="d" unicode="d" horiz-adv-x="1441" 
d="M98 0l-0.00195312 27.998c23.333 6 39.833 14.667 49.5 26s14.5 27.333 14.5 48v916c0 20.667 -4.66699 36.334 -14 47.001s-26 19.667 -50 27v28h657c136.667 0 244.334 -17 323.001 -51c110.667 -48 190.334 -127.333 239.001 -238c34 -77.333 51 -167.666 51 -270.999
c0 -191.333 -57 -336.333 -171 -435c-51.333 -44 -111.833 -75.833 -181.5 -95.5s-156.5 -29.5 -260.5 -29.5h-657zM429.998 202.998l286 0.000976562c131.333 0 226.666 30 285.999 90c62 62.667 93 151.667 93 267s-31 204.333 -93 267
c-30.667 31.333 -68.667 54.166 -114 68.499s-102.666 21.5 -171.999 21.5h-286v-714z" />
    <glyph glyph-name="e" unicode="e" horiz-adv-x="1314" 
d="M98 0v27.999c23.333 6 39.833 14.667 49.5 26s14.5 27.333 14.5 48v916c0 20.667 -4.66699 36.334 -14 47.001s-26 19.667 -50 27v28h1012c21.333 0 37.5 4.66699 48.5 14s19.833 26 26.5 50h27v-332h-27c-6.66699 24.667 -15.5 41.667 -26.5 51s-27.167 14 -48.5 14
h-680v-246h422c20.667 0 36.5 4.66699 47.5 14s20.167 26 27.5 50h27v-324h-27c-6.66699 24 -15.5 40.833 -26.5 50.5s-27.167 14.5 -48.5 14.5h-422v-273h711c20.667 0 36.5 4.66699 47.5 14s19.833 26.333 26.5 51h28v-332h-28c-6 23.333 -14.667 39.833 -26 49.5
s-27.333 14.5 -48 14.5h-1043z" />
    <glyph glyph-name="f" unicode="f" horiz-adv-x="1248" 
d="M98 0v27.999c23.333 6 39.833 14.667 49.5 26s14.5 27.333 14.5 48v916c0 20.667 -4.66699 36.334 -14 47.001s-26 19.667 -50 27v28h1004c21.333 0 37.5 4.66699 48.5 14s19.833 26 26.5 50h27v-332h-27c-6.66699 24 -15.5 40.833 -26.5 50.5s-27.167 14.5 -48.5 14.5
h-672v-246h422c21.333 0 37.333 4.66699 48 14s19.667 26 27 50h27v-324h-27c-6.66699 24 -15.5 40.833 -26.5 50.5s-27.167 14.5 -48.5 14.5h-422v-374c0 -20.667 4.66699 -36.5 14 -47.5s26 -20.167 50 -27.5v-27h-396z" />
    <glyph glyph-name="g" unicode="g" horiz-adv-x="1474" 
d="M73 554c0 132 40.6689 249.332 122.002 351.999c126.667 158.667 314 238 562 238c108.667 0 232.667 -24 372 -72c55.333 -18.667 87.666 -28 96.999 -28c11.333 0 24.666 5.33301 39.999 16l24 -13l-133 -282l-24 12v6c0 24.667 -24.667 50 -74 76
c-91.333 48.667 -189.333 73 -294 73c-120.667 0 -219.667 -33 -297 -99c-81.333 -69.333 -122 -162.666 -122 -279.999c0 -110 37 -198 111 -264c76 -67.333 182.667 -101 320 -101c130.667 0 241 24.333 331 73v171h-255c-21.333 0 -37.5 -4.66699 -48.5 -14
s-19.833 -26 -26.5 -50h-27v296h27c6.66699 -23.333 15.5 -39.666 26.5 -48.999s27.167 -14 48.5 -14h533v-29c-23.333 -6.66699 -39.833 -16.334 -49.5 -29.001s-14.5 -30.667 -14.5 -54v-236c0 -20.667 4.83301 -36.667 14.5 -48s26.167 -20.333 49.5 -27v-23
c-216 -119.333 -431.333 -179 -646 -179c-185.333 0 -335.333 43.667 -450 131c-62 48 -112 107.333 -150 178c-44.667 84 -67 173.667 -67 269z" />
    <glyph glyph-name="h" unicode="h" horiz-adv-x="1486" 
d="M98 0v27.998c23.333 6 39.833 14.667 49.5 26s14.5 27.333 14.5 48v916c0 20.667 -4.66699 36.334 -14 47.001s-26 19.667 -50 27v28h396v-28c-24 -6.66699 -40.667 -15.5 -50 -26.5s-14 -26.833 -14 -47.5v-328h625v328c0 20.667 -4.5 36.334 -13.5 47.001
s-25.833 19.667 -50.5 27v28h396v-28c-24 -6.66699 -40.667 -15.5 -50 -26.5s-14 -26.833 -14 -47.5v-916c0 -20.667 4.66699 -36.5 14 -47.5s26 -20.167 50 -27.5v-27h-396v28c23.333 6 39.833 14.667 49.5 26s14.5 27.333 14.5 48v385h-625v-385
c0 -20.667 4.66699 -36.5 14 -47.5s26 -20.167 50 -27.5v-27h-396z" />
    <glyph glyph-name="i" unicode="i" horiz-adv-x="593" 
d="M98 0v27.999c23.333 6 39.833 14.667 49.5 26s14.5 27.333 14.5 48v916c0 20.667 -4.66699 36.334 -14 47.001s-26 19.667 -50 27v28h396v-28c-24 -6.66699 -40.667 -15.5 -50 -26.5s-14 -26.833 -14 -47.5v-916c0 -20.667 4.66699 -36.5 14 -47.5s26 -20.167 50 -27.5
v-27h-396z" />
    <glyph glyph-name="j" unicode="j" horiz-adv-x="1035" 
d="M5 30l99.001 305l26 -9c0 -24 7.33301 -43 22 -57c21.333 -20.667 58.833 -39.334 112.5 -56.001s104.167 -25 151.5 -25c71.333 0 124.166 16 158.499 48s51.5 81.333 51.5 148v634c0 20.667 -4.66699 36.334 -14 47.001s-26 19.667 -50 27v28h396v-28
c-24 -6.66699 -40.667 -15.5 -50 -26.5s-14 -26.833 -14 -47.5v-639c0 -122.667 -20.667 -210.667 -62 -264c-34 -44 -84.333 -78.167 -151 -102.5s-142.334 -36.5 -227.001 -36.5c-93.333 0 -208.666 22 -345.999 66c-12.667 4 -23 6 -31 6
c-15.333 0 -30.333 -8.66699 -45 -26z" />
    <glyph glyph-name="k" unicode="k" horiz-adv-x="1403" 
d="M98 0v27.999c23.333 6 39.833 14.667 49.5 26s14.5 27.333 14.5 48v916c0 20.667 -4.66699 36.334 -14 47.001s-26 19.667 -50 27v28h396v-28c-24 -6.66699 -40.667 -15.5 -50 -26.5s-14 -26.833 -14 -47.5v-367l421 336c31.333 24.667 47 46.334 47 65.001
c0 20 -19.333 33.333 -58 40v28h504v-27c-25.333 -4 -46.5 -11.667 -63.5 -23s-59.167 -46.333 -126.5 -105l-378 -301l416 -478c53.333 -62 91.5 -102.333 114.5 -121s49.5 -31.334 79.5 -38.001v-27h-490v27c36.667 8.66699 55 22 55 40
c0 6.66699 -2.16699 13.167 -6.5 19.5s-19.833 24.833 -46.5 55.5l-309 369l-159 -130v-279c0 -20.667 4.66699 -36.5 14 -47.5s26 -20.167 50 -27.5v-27h-396z" />
    <glyph glyph-name="l" unicode="l" horiz-adv-x="1176" 
d="M98 0v27.999c23.333 6 39.833 14.667 49.5 26s14.5 27.333 14.5 48v916c0 20.667 -4.66699 36.334 -14 47.001s-26 19.667 -50 27v28h396v-28c-24 -6.66699 -40.667 -15.5 -50 -26.5s-14 -26.833 -14 -47.5v-815h627c21.333 0 37.333 4.66699 48 14s19.667 26.333 27 51
h27v-332h-27c-6.66699 24 -15.5 40.667 -26.5 50s-27.167 14 -48.5 14h-959z" />
    <glyph glyph-name="m" unicode="m" horiz-adv-x="1677" 
d="M98 0v28c23.333 6 39.833 14.667 49.5 26s14.5 27.333 14.5 48v916c0 20.667 -4.66699 36.5 -14 47.5s-26 19.833 -50 26.5v28h473v-28c-31.333 -10 -47 -29 -47 -57c0 -27.333 11.333 -60.666 34 -99.999l279 -471l281 464c32 52.667 48 90 48 112
c0 27.333 -16.333 44.666 -49 51.999v28h461v-28c-24 -6.66699 -40.667 -15.5 -50 -26.5s-14 -26.833 -14 -47.5v-916c0 -20.667 4.66699 -36.667 14 -48s26 -20.333 50 -27v-27h-396v28c23.333 6 39.833 14.667 49.5 26s14.5 27.333 14.5 48v634l-432 -701l-408 701v-634
c0 -20.667 4.66699 -36.5 14 -47.5s26 -20.167 50 -27.5v-27h-372z" />
    <glyph glyph-name="n" unicode="n" horiz-adv-x="1523" 
d="M98 0v27.999c23.333 6 39.833 14.667 49.5 26s14.5 27.333 14.5 48v916c0 20.667 -4.66699 36.334 -14 47.001s-26 19.667 -50 27v28h430v-28c-29.333 -7.33301 -44 -20.333 -44 -39c0 -16 10.667 -34.667 32 -56l600 -596v617c0 20.667 -4.66699 36.5 -14 47.5
s-26 19.833 -50 26.5v28h372v-28c-24 -6.66699 -40.667 -15.5 -50 -26.5s-14 -26.833 -14 -47.5v-916c0 -20.667 4.66699 -36.5 14 -47.5s26 -20.167 50 -27.5v-27h-401v27c29.333 6 44 18.333 44 37c0 9.33301 -4 19 -12 29s-26.333 29.667 -55 59l-594 586v-636
c0 -20.667 4.83301 -36.667 14.5 -48s26.167 -20.333 49.5 -27v-27h-372z" />
    <glyph glyph-name="o" unicode="o" horiz-adv-x="1460" 
d="M73 560c0 191.333 71.333 340.666 214 447.999c118 88.667 265 134 441 136c178 0 326.333 -45.333 445 -136c142 -109.333 213 -261.666 213 -456.999c0 -183.333 -71 -329.666 -213 -438.999c-117.333 -90.667 -265 -136 -443 -136s-325.667 45.333 -443 136
c-142.667 109.333 -214 258.666 -214 447.999zM346 560c0 -104 33.666 -190.667 100.999 -260c72.667 -74.667 167 -112 283 -112c115.333 0 209.333 37.333 282 112c67.333 68.667 101 153.667 101 255c0 110 -33.667 198.667 -101 266
c-73.333 72.667 -167.666 109.667 -282.999 111c-115.333 0 -209.333 -37 -282 -111c-67.333 -69.333 -101 -156.333 -101 -261z" />
    <glyph glyph-name="p" unicode="p" horiz-adv-x="1335" 
d="M98 0v27.998c23.333 6 39.833 14.667 49.5 26s14.5 27.333 14.5 48v916c0 20.667 -4.66699 36.334 -14 47.001s-26 19.667 -50 27v28h730c144.667 0 253.667 -21.667 327 -65c42.667 -25.333 76 -61.333 100 -108s36 -99 36 -157c0 -111.333 -38 -194.166 -114 -248.499
s-192.333 -81.5 -349 -81.5h-398v-358c0 -20.667 4.66699 -36.5 14 -47.5s26 -20.167 50 -27.5v-27h-396zM430 662.998h382.001c70 0 118.667 6.66699 146 20c40 19.333 60 55 60 107s-20 87.667 -60 107c-26.667 13.333 -75.334 20 -146.001 20h-382v-254z" />
    <glyph glyph-name="q" unicode="q" horiz-adv-x="1480" 
d="M73 560c0 188.667 71.3311 338.001 213.998 448.001c118 90.667 265.667 136 443 136c178 0 325.667 -45.333 443 -136c142.667 -110 214 -259.333 214 -448c0 -168 -57.333 -305.667 -172 -413l100 -107c26 -27.333 48.333 -41 67 -41h1c10 0.666992 22 6.66699 36 18
l18 -20l-242 -222l-18 20c12 14 18 26.667 18 38s-15.333 34.666 -46 69.999l-113 130c-89.333 -38 -191.666 -57 -306.999 -57c-177.333 0 -324.666 45.333 -441.999 136c-142.667 110 -214 259.333 -214 448zM345.998 560.001c0 -104 33.668 -190.667 101.001 -260
c72.667 -74.667 166.667 -112 282 -112c51.333 0 102.333 9 153 27c-74 92 -146.667 146.667 -218 164v17c43.333 30.667 86.666 46 129.999 46c72 0 153 -37.667 243 -113c51.333 64.667 77 142.334 77 233.001c0 103.333 -33.667 189.666 -101 258.999
c-72 74 -166.333 111 -283 111c-116 0 -210.333 -37 -283 -111c-67.333 -69.333 -101 -156.333 -101 -261z" />
    <glyph glyph-name="r" unicode="r" horiz-adv-x="1406" 
d="M98 0l0.000976562 28c23.333 6 39.833 14.667 49.5 26s14.5 27.333 14.5 48v916c0 20.667 -4.66699 36.334 -14 47.001s-26 19.667 -50 27v28h734c95.333 0 168 -4.83301 218 -14.5s94.667 -27.167 134 -52.5c80.667 -52.667 121 -138.667 121 -258
c0 -90.667 -24.833 -161.5 -74.5 -212.5s-129.834 -87.833 -240.501 -110.5l212 -296c38.667 -54.667 69.5 -91.834 92.5 -111.501s49.167 -32.167 78.5 -37.5v-27h-470v27c34.667 9.33301 52 24.333 52 45c0 14.667 -10.667 37 -32 67l-224 321h-269v-358
c0 -20.667 4.66699 -36.5 14 -47.5s26 -20.167 50 -27.5v-27h-396zM430.001 663h404.001c61.333 0 106.666 6.66699 135.999 20c41.333 18 62 53.667 62 107c0 47.333 -14.5 80.333 -43.5 99s-80.5 28 -154.5 28h-404v-254z" />
    <glyph glyph-name="s" unicode="s" horiz-adv-x="1261" 
d="M66 76l114.999 273.998l25 -10v-8c0 -17.333 6.66699 -32 20 -44c33.333 -29.333 91 -54.833 173 -76.5s163 -32.5 243 -32.5c70.667 0 134 9.33301 190 28c69.333 22.667 104 59.334 104 110.001c0 40.667 -24 69 -72 85c-32 10.667 -89.667 19.667 -173 27l-157 13
c-84.667 6.66699 -149.334 15.334 -194.001 26.001s-83.667 26.334 -117 47.001c-42.667 26.667 -76 63 -100 109s-36 96.333 -36 151c0 122.667 52.667 216.334 158 281.001c96 58.667 214.667 88 356 88c76.667 0 148.167 -8.5 214.5 -25.5s145.5 -46.833 237.5 -89.5
c27.333 -12.667 46.333 -19 57 -19s24.334 7.33301 41.001 22l24 -13l-135 -261l-24 13c0 22 -7 39.333 -21 52c-38 34 -94 62 -168 84s-149 33 -225 33c-64.667 0 -122 -9 -172 -27c-72 -26 -108 -63.667 -108 -113c0 -32.667 17.333 -55.834 52 -69.501
s101.667 -24.5 201 -32.5l158 -12c138 -10.667 243 -37.334 315 -80.001c40 -24 73 -56 99 -96c32.667 -50 49 -106.333 49 -169c0 -114 -51.333 -204 -154 -270c-98 -63.333 -230.667 -95 -398 -95c-168.667 0 -331.667 35.667 -489 107c-10.667 4.66699 -19.667 7 -27 7
c-13.333 0 -25.666 -8 -36.999 -24z" />
    <glyph glyph-name="t" unicode="t" horiz-adv-x="1165" 
d="M16 852v332h28c6 -23.333 14.5 -39.833 25.5 -49.5s27.167 -14.5 48.5 -14.5h928c21.333 0 37.5 4.66699 48.5 14s19.833 26 26.5 50h27v-332h-27c-6.66699 24 -15.5 40.833 -26.5 50.5s-27.167 14.5 -48.5 14.5h-330v-815c0 -20.667 4.66699 -36.5 14 -47.5
s26 -20.167 50 -27.5v-27h-396v28c23.333 6 39.833 14.667 49.5 26s14.5 27.333 14.5 48v815h-330c-21.333 0 -37.5 -4.83301 -48.5 -14.5s-19.833 -26.5 -26.5 -50.5h-27z" />
    <glyph glyph-name="u" unicode="u" horiz-adv-x="1414" 
d="M76 1092l-0.000976562 27.998h397v-28c-24.667 -6.66699 -41.667 -15.5 -51 -26.5s-14 -26.833 -14 -47.5v-539c0 -62.667 5.5 -110.667 16.5 -144s30.167 -60.666 57.5 -81.999c54.667 -43.333 133.667 -65 237 -65s182.333 21.667 237 65
c26.667 21.333 45.334 48.666 56.001 81.999s16 81.333 16 144v539c0 20.667 -4.5 36.334 -13.5 47.001s-25.833 19.667 -50.5 27v28h373v-28c-24 -6.66699 -40.667 -15.5 -50 -26.5s-14 -26.833 -14 -47.5v-593c0 -135.333 -26.667 -234.666 -80 -297.999
c-86 -100.667 -248 -151 -486 -151c-159.333 0 -288 24.333 -386 73c-70.667 35.333 -119 85.666 -145 150.999c-24 60 -36 135 -36 225v593c0 20.667 -4.66699 36.334 -14 47.001s-26 19.667 -50 27z" />
    <glyph glyph-name="v" unicode="v" horiz-adv-x="1331" 
d="M-5 1092l0.000976562 28.001h449v-28c-42.667 -13.333 -64 -36.333 -64 -69c0 -14.667 8.33301 -40 25 -76l269 -593l271 593c16 34 24 59.333 24 76c0 33.333 -21.667 56.333 -65 69v28h433v-28c-26.667 -8.66699 -46 -19.334 -58 -32.001s-27.333 -38.667 -46 -78
l-392 -825c-14 -29.333 -21 -51.666 -21 -66.999c0 -33.333 22 -54.333 66 -63v-27h-439v27c43.333 8.66699 65 29.667 65 63c0 15.333 -7 37.666 -21 66.999l-392 825c-18.667 40 -33.834 66.167 -45.501 78.5s-31.167 22.833 -58.5 31.5z" />
    <glyph glyph-name="w" unicode="w" horiz-adv-x="1965" 
d="M-16 1092l0.000976562 28.001h426v-28c-41.333 -13.333 -62 -34.333 -62 -63c0 -14 6.66699 -38 20 -72l210 -529l209 525c12.667 31.333 19 55.333 19 72c0 33.333 -22.333 55.666 -67 66.999v28h498v-28c-43.333 -14 -65 -37.333 -65 -70
c0 -14.667 5.66699 -36.334 17 -65.001l204 -529l204 534c8.66699 23.333 13 43.666 13 60.999c0 18.667 -4.66699 33 -14 43s-26.333 18.667 -51 26v28h436v-28c-32.667 -12 -56.5 -27.167 -71.5 -45.5s-33.833 -56.166 -56.5 -113.499l-300 -764
c-10.667 -27.333 -16 -51.333 -16 -72c0 -38.667 22.667 -62 68 -70v-27h-434v27c42.667 12 64 36.333 64 73c0 9.33301 -7.33301 32.333 -22 69l-233 609l-245 -609c-12 -30 -18 -54.667 -18 -74c0 -37.333 22 -60 66 -68v-27h-417v27c40 10 60 32.667 60 68
c0 18 -6 42.667 -18 74l-296 764c-22.667 58.667 -41.834 97.834 -57.501 117.501s-39.167 33.5 -70.5 41.5z" />
    <glyph glyph-name="x" unicode="x" horiz-adv-x="1300" 
d="M5 0l-0.000976562 27c32 7.33301 57 17.833 75 31.5s43 41.167 75 82.5l330 427l-290 388c-62 82.667 -116.667 128 -164 136v28h512v-28c-43.333 -12 -65 -32 -65 -60c0 -16.667 10.333 -39 31 -67l152 -203l140 190c27.333 37.333 41 64.333 41 81
c0 30 -22 49.667 -66 59v28h488v-28c-36 -7.33301 -62.5 -17.833 -79.5 -31.5s-47.167 -48.5 -90.5 -104.5l-295 -376l331 -439c28.667 -38 55.334 -65.5 80.001 -82.5s52.667 -27.5 84 -31.5v-27h-515v27c42 9.33301 63 27 63 53c0 13.333 -11 34.666 -33 63.999l-182 239
l-183 -239c-18 -23.333 -27 -43.666 -27 -60.999c0 -24 21.667 -42.667 65 -56v-27h-477z" />
    <glyph glyph-name="y" unicode="y" horiz-adv-x="1226" 
d="M-22 1092l-0.00195312 27.998h504v-28c-43.333 -11.333 -65 -31.666 -65 -60.999c0 -14.667 15.667 -44 47 -88l163 -226l159 226c31.333 44.667 47 74.334 47 89.001c0 28 -21.333 48 -64 60l-1 28h480v-28c-30.667 -6.66699 -57.167 -19.5 -79.5 -38.5
s-52.166 -54.167 -89.499 -105.5l-332 -457v-389c0 -20.667 4.66699 -36.5 14 -47.5s26 -20.167 50 -27.5v-27h-396v27c24 6.66699 40.667 15.5 50 26.5s14 27.167 14 48.5v389l-332 457c-37.333 51.333 -67.166 86.5 -89.499 105.5s-48.833 31.833 -79.5 38.5z" />
    <glyph glyph-name="z" unicode="z" horiz-adv-x="1247" 
d="M76 0v60l653 857h-543c-21.333 0 -37.333 -4.66699 -48 -14s-19.667 -26.333 -27 -51h-27v332h27c6.66699 -24 15.5 -40.667 26.5 -50s27.167 -14 48.5 -14h985v-49l-660 -868h568c21.333 0 37.333 4.83301 48 14.5s19.667 26.5 27 50.5h27v-332h-28
c-6 23.333 -14.5 39.833 -25.5 49.5s-27.167 14.5 -48.5 14.5h-1003z" />
    <glyph glyph-name="braceleft" unicode="{" horiz-adv-x="683" 
d="M-58 526l0.00488281 313.001h24c5.33301 -24.667 11.666 -41.5 18.999 -50.5s18.666 -13.5 33.999 -13.5h62c26 0 42.5 10 49.5 30s11.167 67.333 12.5 142v374c0 38.667 18.833 74 56.5 106s79.167 48 124.5 48h232c28 0 47.833 4.33301 59.5 13s20.5 25.667 26.5 51h27
v-279h-27c-6.66699 26 -15.667 43.333 -27 52s-31 13 -59 13h-82c-73.333 -6.66699 -109.333 -54.667 -108 -144v-355c0 -30 -5.83301 -55 -17.5 -75s-33.5 -42.667 -65.5 -68c32 -25.333 53.833 -48 65.5 -68s17.5 -45.333 17.5 -76v-354
c-1.33301 -89.333 34.667 -137.333 108 -144h82c28 0 47.667 4.33301 59 13s20.333 26 27 52h27v-279h-27c-6.66699 25.333 -15.834 42.333 -27.501 51s-31.167 13 -58.5 13h-232c-40.667 0 -79.334 14 -116.001 42c-44 33.333 -65.667 70.666 -65 111.999v373
c-1.33301 74.667 -5.5 122.167 -12.5 142.5s-23.5 30.5 -49.5 30.5h-62c-14.667 0 -25.834 -4.66699 -33.501 -14s-14.167 -26.333 -19.5 -51h-24z" />
    <glyph glyph-name="bar" unicode="|" horiz-adv-x="1024" 
d="M366 -341v1706h292v-1706h-292z" />
    <glyph glyph-name="braceright" unicode="}" horiz-adv-x="683" 
d="M14 106h27.001c6.66699 -26 15.667 -43.333 27 -52s31 -13 59 -13h82c74 7.33301 110.333 55.333 109 144v354c0 30.667 5.83301 56 17.5 76s33.5 42.667 65.5 68c-32 25.333 -53.833 48 -65.5 68s-17.5 45 -17.5 75v355c1.33301 88.667 -35 136.667 -109 144h-82
c-27.333 0 -46.833 -4.33301 -58.5 -13s-20.834 -26 -27.501 -52h-27v279h27c6.66699 -25.333 15.667 -42.333 27 -51s31 -13 59 -13h233c40.667 0 79.334 -14 116.001 -42c43.333 -32.667 65 -70 65 -112v-374c1.33301 -74.667 5.5 -122 12.5 -142s23.167 -30 48.5 -30h62
c15.333 0 26.666 4.5 33.999 13.5s13.666 25.833 18.999 50.5h24v-313h-24c-5.33301 25.333 -11.666 42.5 -18.999 51.5s-18.666 13.5 -33.999 13.5h-62c-25.333 0 -41.5 -10.167 -48.5 -30.5s-11.167 -67.833 -12.5 -142.5v-373c0 -38 -18.833 -73.167 -56.5 -105.5
s-79.167 -48.5 -124.5 -48.5h-233c-27.333 0 -46.833 -4.33301 -58.5 -13s-20.834 -25.667 -27.501 -51h-27v279z" />
    <glyph glyph-name="asciitilde" unicode="~" horiz-adv-x="1365" 
d="M190 602c26.667 64 55.6689 116.667 87.002 158c58.667 77.333 129.667 116 213 116c48 0 123 -22.667 225 -68c84.667 -37.333 142 -56 172 -56c52 0 102 43 150 129l142 -118c-32 -73.333 -63 -128.333 -93 -165c-58.667 -73.333 -128.334 -110 -209.001 -110
c-26 0 -51.833 4.33301 -77.5 13s-92.834 36 -201.501 82c-48.667 20.667 -87.667 31 -117 31c-28.667 0 -54 -9.66699 -76 -29s-46.333 -53 -73 -101z" />
    <glyph glyph-name="uni00A0" unicode="&#xa0;" horiz-adv-x="512" 
 />
    <glyph glyph-name="exclamdown" unicode="&#xa1;" horiz-adv-x="774" 
d="M177 0l-0.00195312 32c26 4.66699 42.5 11.667 49.5 21s12.5 31.666 16.5 66.999l73 615c2 16 3 31 3 45c0 23.333 -3.66699 39.333 -11 48s-24.666 17 -51.999 25v32h262v-32c-27.333 -7.33301 -44.666 -15.333 -51.999 -24s-11 -25 -11 -49c0 -14 1 -29 3 -45l73 -615
c4 -35.333 9.5 -57.666 16.5 -66.999s23.5 -16.333 49.5 -21v-32h-420zM222.998 1224c0 45.333 15.833 84 47.5 116s70.5 48.333 116.5 49c45.333 0 84 -16.167 116 -48.5s48 -71.833 48 -118.5c0 -44 -16.167 -81.833 -48.5 -113.5s-70.833 -47.5 -115.5 -47.5
c-45.333 0 -84 16 -116 48s-48 70.333 -48 115z" />
    <glyph glyph-name="cent" unicode="&#xa2;" 
d="M118 686c0 150.667 48.668 279.336 146.001 386.003c103.333 114 250.666 178.667 441.999 194v53c0 21.333 -4.66699 37.5 -14 48.5s-26 19.833 -50 26.5v27h273v-27c-24 -7.33301 -40.667 -16.333 -50 -27s-14 -26.667 -14 -48v-52
c74.667 -2.66699 141.834 -14.667 201.501 -36s146.5 -64.333 260.5 -129c12.667 -7.33301 23.667 -11 33 -11s22.333 5.66699 39 17l22 -18l-169 -245l-22 17c1.33301 9.33301 2 16.333 2 21c0 29.333 -20.333 55.333 -61 78c-58 33.333 -108.333 56.666 -151 69.999
s-94.334 22.333 -155.001 27v-744c92.667 6.66699 178.667 30 258 70c73.333 37.333 110 70 110 98c0 1.33301 -1 10.666 -3 27.999l22 17l169 -246l-23 -17c-15.333 11.333 -28.333 17 -39 17c-9.33301 0 -49.333 -20.333 -120 -61c-64 -36.667 -123 -63.334 -177 -80.001
s-119.667 -28.667 -197 -36v-58c0 -21.333 4.66699 -37.5 14 -48.5s26 -19.833 50 -26.5v-27h-273v27c24 7.33301 40.667 16.333 50 27s14 26.667 14 48v59c-108 8.66699 -203.333 34 -286 76c-90 45.333 -161.667 111 -215 197c-58 92 -87 194.667 -87 308z
M394.001 686.002c0 -112.667 44.667 -205 134 -277c44.667 -36 104 -63.667 178 -83v720c-74 -19.333 -133.333 -47 -178 -83c-89.333 -72.667 -134 -165 -134 -277z" />
    <glyph glyph-name="sterling" unicode="&#xa3;" 
d="M142 179c74.667 40 126.171 83.167 154.504 129.5s42.5 110.5 42.5 192.5c0 28 -1.66699 64.333 -5 109h-81c-20.667 0 -36.334 -4.83301 -47.001 -14.5s-19.334 -26.5 -26.001 -50.5h-32v324h32c6.66699 -24 15.334 -40.667 26.001 -50s26.334 -14 47.001 -14h56
c-10 80 -15 138.333 -15 175c0 108 34.667 195.333 104 262c48.667 46 111 82 187 108s158 39 246 39c122 0 228.333 -22.333 319 -67c39.333 -19.333 90 -52.333 152 -99c34.667 -26 62.667 -39 84 -39c8 0 17.667 3.33301 29 10l20 -25l-292 -211l-20 26c12 8 18 19 18 33
c0 24 -21 50.667 -63 80c-58.667 40 -132 60 -220 60c-86 0 -152.5 -17.667 -199.5 -53s-70.5 -85 -70.5 -149c0 -23.333 3.33301 -73.333 10 -150h228c20.667 0 36.334 4.66699 47.001 14s19.334 26 26.001 50h32v-324h-32c-6.66699 24 -15.334 40.833 -26.001 50.5
s-26.334 14.5 -47.001 14.5h-206c4.66699 -44.667 7 -80.667 7 -108c0 -61.333 -7.33301 -109.333 -22 -144s-44.334 -73.667 -89.001 -117c70 20 132 30 186 30c47.333 0 106.333 -8.66699 177 -26c58 -14.667 98.333 -22 121 -22c31.333 0 60.166 9 86.499 27
s39.5 38.333 39.5 61c0 15.333 -7 29 -21 41l22 23l288 -221l-19 -23c-14.667 8 -27 12 -37 12c-16.667 0 -53.667 -19.333 -111 -58c-48 -32 -91 -54.667 -129 -68s-80 -20 -126 -20c-27.333 0 -51.833 1.5 -73.5 4.5s-83.834 13.5 -186.501 31.5
c-36.667 6.66699 -83 10 -139 10c-132.667 0 -251.334 -27 -356.001 -81z" />
    <glyph glyph-name="currency" unicode="&#xa4;" horiz-adv-x="1570" 
d="M43 176l23 21.999c20 -11.333 36.333 -17 49 -17c16 0 31.667 7.66699 47 23l103 103c-72.667 104 -109 229 -109 375s36.333 271.667 109 377l-103 102c-15.333 16 -31 24 -47 24c-12.667 0 -29 -6 -49 -18l-23 23l235 234l23 -22c-12 -20 -18 -36.667 -18 -50
c0 -16 7.66699 -31.667 23 -47l121 -120c103.333 54 223 81 359 81c135.333 0 254.333 -27.333 357 -82l120 121c16 16 24 31.667 24 47c0 12.667 -6 29.334 -18 50.001l23 22l235 -234l-23 -23c-20.667 12 -37 18 -49 18c-16 0 -32 -8 -48 -24l-101 -101
c72 -103.333 108 -229.333 108 -378c0 -146.667 -36.333 -272 -109 -376l102 -102c15.333 -15.333 31 -23 47 -23c13.333 0 30 5.66699 50 17l23 -22l-235 -235l-23 23c12 20 18 36.333 18 49c0 16 -8 31.667 -24 47l-120 120c-106.667 -54 -225.667 -81 -357 -81
c-134.667 0 -254.667 27 -360 81l-120 -120c-15.333 -15.333 -23 -31 -23 -47c0 -12.667 6 -29 18 -49l-23 -23zM429 682.999c0 -104.667 31.335 -191.332 94.002 -259.999c67.333 -74.667 154.666 -112 261.999 -112s194.666 37.333 261.999 112c62.667 68 94 153 94 255
c0 108 -31.333 196.333 -94 265c-66 72.667 -153.667 109.667 -263 111c-106.667 0 -193.667 -37 -261 -111c-62.667 -68.667 -94 -155.334 -94 -260.001z" />
    <glyph glyph-name="yen" unicode="&#xa5;" 
d="M82 1333l-0.00195312 32h540v-32c-44.667 -7.33301 -67 -27.666 -67 -60.999c0 -7.33301 1.5 -14.5 4.5 -21.5s13.5 -27.5 31.5 -61.5l143 -363l148 363c18 33.333 28.5 53.5 31.5 60.5s4.5 14.5 4.5 22.5c0 33.333 -22.333 53.666 -67 60.999v32h527v-32
c-30 -4 -58.333 -17.333 -85 -40s-54 -56.334 -82 -101.001l-98 -158h139c20 0 35.5 4.83301 46.5 14.5s19.5 26.167 25.5 49.5h32v-340h-32c-6 29.333 -14.5 49.833 -25.5 61.5s-26.5 17.5 -46.5 17.5h-234l-119 -236h271c20.667 0 36.334 4.83301 47.001 14.5
s19 26.167 25 49.5h32v-340h-32c-6 29.333 -14.5 49.833 -25.5 61.5s-26.5 17.5 -46.5 17.5h-290v-299c0 -20.667 4.83301 -36.334 14.5 -47.001s26.5 -19.334 50.5 -26.001v-32h-429v32c24.667 6.66699 41.834 15.334 51.501 26.001s14.5 26.334 14.5 47.001v299h-291
c-20.667 0 -36.334 -5.83301 -47.001 -17.5s-19.334 -32.167 -26.001 -61.5h-32v340h32c6.66699 -24 15.334 -40.667 26.001 -50s26.334 -14 47.001 -14h272l-119 236h-235c-20.667 0 -36.334 -5.83301 -47.001 -17.5s-19.334 -32.167 -26.001 -61.5h-32v340h32
c6.66699 -24 15.334 -40.667 26.001 -50s26.334 -14 47.001 -14h139l-99 158c-28 44.667 -55.333 78.334 -82 101.001s-55 36 -85 40z" />
    <glyph glyph-name="brokenbar" unicode="&#xa6;" horiz-adv-x="1024" 
d="M366 314h292v-655h-292v655zM366 649v716h292v-716h-292z" />
    <glyph glyph-name="section" unicode="&#xa7;" horiz-adv-x="1374" 
d="M96 -12l173.998 265.997l22 -14c-6 -15.333 -9 -27 -9 -35c0 -24.667 25.333 -53 76 -85c91.333 -58 215 -87 371 -87c114 0 200.667 19.667 260 59c48.667 32.667 73 70.334 73 113.001c0 36.667 -21.167 64.167 -63.5 82.5s-118.5 33.5 -228.5 45.5l-197 20
c-132 14 -231.333 43.667 -298 89c-34 22.667 -60.667 53.167 -80 91.5s-29 79.833 -29 124.5c0 85.333 25.667 153 77 203c18.667 18 48.334 39 89.001 63c-51.333 26.667 -88.666 54.334 -111.999 83.001c-35.333 44 -53 98.667 -53 164c0 112 43.5 199.833 130.5 263.5
s207.5 95.5 361.5 95.5c71.333 0 139.333 -6.33301 204 -19s141.667 -34.667 231 -66c22 -7.33301 40.333 -11 55 -11c8 0 21 8.33301 39 25l23 -10l-137 -278l-23 11c4 15.333 6 26.333 6 33c0 19.333 -25.333 40 -76 62c-49.333 21.333 -96.166 36 -140.499 44
s-100.833 12 -169.5 12c-92.667 0 -164 -12.333 -214 -37c-55.333 -26.667 -83 -61 -83 -103c0 -30 15.833 -52.667 47.5 -68s87.834 -27.333 168.501 -36l192 -21c150.667 -16 265.667 -44.667 345 -86c101.333 -52.667 152 -139.667 152 -261
c0 -59.333 -12.333 -112 -37 -158s-60 -81.333 -106 -106c57.333 -40 95.5 -76.333 114.5 -109s28.5 -78 28.5 -136c0 -101.333 -37 -185.666 -111 -252.999c-90 -82 -236 -123 -438 -123c-103.333 0 -195.333 11.167 -276 33.5s-167 60.833 -259 115.5
c-14.667 8.66699 -26.334 13 -35.001 13s-23.334 -7.66699 -44.001 -23zM373.998 689.997c0 -38.667 21.668 -66.665 65.001 -83.998c20 -8 71 -17.667 153 -29l289 -42c64 25.333 107.333 47.666 130 66.999c34 29.333 51 64.333 51 105
c0 39.333 -16.833 68.166 -50.5 86.499s-95.834 32.833 -186.501 43.5l-263 30c-125.333 -48 -188 -107 -188 -177z" />
    <glyph glyph-name="dieresis" unicode="&#xa8;" horiz-adv-x="1024" 
d="M183 1379c0 36 12.333 66.499 37 91.499s55 38.167 91 39.5c38 0 69.667 -12.667 95 -38c25.333 -26 38 -57.667 38 -95c0 -34.667 -12.667 -64.667 -38 -90s-56.333 -38 -93 -38c-35.333 0 -66 12.667 -92 38c-25.333 24.667 -38 55.334 -38 92.001zM580 1380
c0 35.333 12.5 65.667 37.5 91s55.833 38.333 92.5 39c36.667 0 67.667 -12.667 93 -38c25.333 -26 38 -56 38 -90c0 -38 -12.667 -69.667 -38 -95s-57 -38 -95 -38c-35.333 0 -65.5 12.833 -90.5 38.5s-37.5 56.5 -37.5 92.5z" />
    <glyph glyph-name="copyright" unicode="&#xa9;" horiz-adv-x="1808" 
d="M93 683c0 135.333 36.667 259.998 110 373.998c80 123.333 193.333 213.333 340 270c102.667 39.333 224 60 364 62c240.667 0 434.667 -63 582 -189c82.667 -70 144.667 -155.667 186 -257c34 -83.333 51 -173 51 -269c0 -130 -37 -251.667 -111 -365
c-81.333 -125.333 -194.333 -215.666 -339 -270.999c-108 -41.333 -230.333 -62 -367 -62c-239.333 0 -432.333 63 -579 189c-82 70.667 -144 156.334 -186 257.001c-34 82.667 -51 169.667 -51 261zM233 681.998c0 -164 56.666 -300.668 169.999 -410.001
c123.333 -118.667 292 -178 506 -178c214.667 0 383.667 59.333 507 178c113.333 108.667 170 242.667 170 402c0 173.333 -56.667 313 -170 419c-67.333 63.333 -139.666 108 -216.999 134c-86 28.667 -183.333 43.334 -292 44.001c-212.667 0 -380.667 -59.333 -504 -178
c-113.333 -108.667 -170 -245.667 -170 -411zM431.999 682.997c0 141.333 54.667 252.333 164 333c82 60.667 187.667 91 317 91c60.667 0 114.5 -6.5 161.5 -19.5s99.5 -36.167 157.5 -69.5l20 -11c31.333 -18 50 -27 56 -27c5.33301 0 14 5.66699 26 17l25 -18l-119 -179
l-25 17c1.33301 8.66699 2 15.334 2 20.001c0 16.667 -21.333 37 -64 61c-68.667 38.667 -141 58 -217 58c-90.667 0 -162.667 -22.333 -216 -67c-63.333 -52.667 -95 -121.334 -95 -206.001c0 -82.667 28.333 -148.834 85 -198.501s132 -74.5 226 -74.5
c76 0 148.333 19.333 217 58c42.667 24 64 44.333 64 61c0 4.66699 -0.666992 11.334 -2 20.001l25 17l119 -179l-25 -18c-11.333 12 -20 18 -26 18s-24.667 -9 -56 -27c-66 -38.667 -123 -65.167 -171 -79.5s-104 -21.5 -168 -21.5c-129.333 0 -235 30.333 -317 91
c-109.333 80.667 -164 191.667 -164 333z" />
    <glyph glyph-name="ordfeminine" unicode="&#xaa;" horiz-adv-x="1046" 
d="M193 513l-0.00195312 258h23c5.33301 -24.667 11.833 -41.5 19.5 -50.5s18.834 -13.5 33.501 -13.5h502c14.667 0 26 4.66699 34 14s14.333 26 19 50h24v-258h-24c-5.33301 24.667 -11.666 41.5 -18.999 50.5s-18.666 13.5 -33.999 13.5h-502
c-14.667 0 -25.834 -4.5 -33.501 -13.5s-14.167 -25.833 -19.5 -50.5h-23zM193.998 1337l29.001 18.001c7.33301 -7.33301 13.333 -11 18 -11c2.66699 0 7 1.33301 13 4c56.667 27.333 132.667 41 228 41c98 0 176.167 -19.333 234.5 -58s87.5 -90.667 87.5 -156v-300
c0 -12 3.16699 -20.5 9.5 -25.5s19.166 -8.83301 38.499 -11.5v-27h-169v63c-28 -30 -55.5 -50.667 -82.5 -62s-61.5 -17 -103.5 -17c-78 0 -147.333 19.333 -208 58c-57.333 36.667 -86 85.334 -86 146.001c0 59.333 28.667 107.666 86 144.999
c59.333 38.667 130 58 212 58c40.667 0 74.167 -5 100.5 -15s53.5 -28.667 81.5 -56v52c0 35.333 -18 63.666 -54 84.999s-83.667 32 -143 32c-42.667 0 -85.167 -4.66699 -127.5 -14s-63.5 -19 -63.5 -29c0 -1.33301 3 -8 9 -20l-29 -17zM321.999 994.001
c0 -28.667 18.333 -53.002 55 -73.002s81.334 -30 134.001 -30c49.333 0 90.5 9.83301 123.5 29.5s49.5 44.167 49.5 73.5c0 32.667 -15.5 59.334 -46.5 80.001s-72.5 31.334 -124.5 32.001c-62.667 0 -112.334 -12.667 -149.001 -38c-28 -19.333 -42 -44 -42 -74z" />
    <glyph glyph-name="guillemotleft" unicode="&#xab;" horiz-adv-x="997" 
d="M123 580l194 403h173l-196 -403l196 -403h-173zM480 580l194 403h173l-197 -403l197 -403h-173z" />
    <glyph glyph-name="logicalnot" unicode="&#xac;" horiz-adv-x="1024" 
d="M68 338v254h887v-592h-283v338h-604z" />
    <glyph glyph-name="uni00AD" unicode="&#xad;" horiz-adv-x="455" 
d="M0 387v346h32c6 -24 14.5 -40.833 25.5 -50.5s26.5 -14.5 46.5 -14.5h246c20.667 0 36.334 4.66699 47.001 14s19.334 26.333 26.001 51h32v-346h-32c-6.66699 24 -15.334 40.667 -26.001 50s-26.334 14 -47.001 14h-246c-20 0 -35.5 -4.83301 -46.5 -14.5
s-19.5 -26.167 -25.5 -49.5h-32z" />
    <glyph glyph-name="registered" unicode="&#xae;" horiz-adv-x="1818" 
d="M93 683c0 135.333 36.667 259.998 110 373.998c80 123.333 193.333 213.333 340 270c102.667 39.333 224 60 364 62c240.667 0 434.667 -63 582 -189c82.667 -70 144.667 -155.667 186 -257c34 -83.333 51 -173 51 -269c0 -130 -37 -251.667 -111 -365
c-81.333 -125.333 -194.333 -215.666 -339 -270.999c-108 -41.333 -230.333 -62 -367 -62c-239.333 0 -432.333 63 -579 189c-82 70.667 -144 156.334 -186 257.001c-34 82.667 -51 169.667 -51 261zM233 681.998c0 -164 56.666 -300.668 169.999 -410.001
c123.333 -118.667 292 -178 506 -178c214.667 0 383.667 59.333 507 178c113.333 108.667 170 242.667 170 402c0 173.333 -56.667 313 -170 419c-67.333 63.333 -139.666 108 -216.999 134c-86 28.667 -183.333 43.334 -292 44.001c-212.667 0 -380.667 -59.333 -504 -178
c-113.333 -108.667 -170 -245.667 -170 -411zM482.999 272.997l-0.00195312 31c14.667 3.33301 24.667 7.66602 30 12.999s8 13.333 8 24v683c0 11.333 -2.5 19.5 -7.5 24.5s-15.167 9.5 -30.5 13.5v31l510 -1c62.667 0 112.334 -3.66699 149.001 -11s68.334 -20 95.001 -38
c63.333 -42 95 -108 95 -198c0 -134.667 -71.333 -213.334 -214 -236.001l150 -213c28 -39.333 48.167 -64.166 60.5 -74.499s28.5 -15.833 48.5 -16.5v-32h-305v32c20 2 30 7 30 15c0 4 -9 19.667 -27 47l-160 234h-205v-260c0 -10.667 2.66699 -18.667 8 -24
s15.333 -9.66602 30 -12.999v-31h-265zM709.997 747.997l265 0.000976562c63.333 0 105.666 5.66699 126.999 17c27.333 15.333 41 42.666 41 81.999c0 38.667 -13.667 65.667 -41 81c-21.333 11.333 -63.666 17 -126.999 17h-265v-197z" />
    <glyph glyph-name="macron" unicode="&#xaf;" horiz-adv-x="1024" 
d="M0 1485v174h1024v-174h-1024z" />
    <glyph glyph-name="degree" unicode="&#xb0;" horiz-adv-x="945" 
d="M150 1080c0 46.667 9.83301 92.001 29.5 136.001s46.5 80.333 80.5 109c61.333 51.333 132.333 77.666 213 78.999c92 0 170.333 -34.333 235 -103c57.333 -60.667 86 -135 86 -223c0 -88.667 -32.333 -164.667 -97 -228c-63.333 -60.667 -138.333 -91 -225 -91
c-95.333 0 -175 35 -239 105c-55.333 61.333 -83 133.333 -83 216zM271 1081c0 -50 16.334 -94.668 49.001 -134.001c39.333 -47.333 89.666 -71 150.999 -71c54 0 101.167 20 141.5 60s60.5 86.667 60.5 140c0 58 -18.667 106.667 -56 146
c-40.667 42.667 -89.667 64.334 -147 65.001c-50.667 0 -95 -18.333 -133 -55c-44 -42 -66 -92.333 -66 -151z" />
    <glyph glyph-name="plusminus" unicode="&#xb1;" horiz-adv-x="1570" 
d="M234 134l29.999 -0.000976562c5.33301 -23.333 13 -39.666 23 -48.999s24.333 -14 43 -14h910c18.667 0 32.834 4.5 42.501 13.5s17.5 25.5 23.5 49.5h30v-324h-30c-6 24.667 -13.833 41.667 -23.5 51s-23.834 14 -42.501 14h-910
c-19.333 0 -33.666 -4.66699 -42.999 -14s-17.333 -26.333 -24 -51h-29v324zM233.999 520.999l0.00195312 324.001h30c5.33301 -24 13 -40.667 23 -50s24.333 -14 43 -14h357v356c0 18.667 -4.66699 32.834 -14 42.501s-26 17.5 -50 23.5v30h324v-29
c-24 -6.66699 -40.667 -14.834 -50 -24.501s-14 -23.834 -14 -42.501v-356h357c18.667 0 32.834 4.66699 42.501 14s17.5 26 23.5 50h30v-324h-30c-6 24 -13.833 40.667 -23.5 50s-23.834 14 -42.501 14h-357v-289c0 -18.667 4.66699 -33 14 -43s26 -18 50 -24v-29h-324v30
c24 5.33301 40.667 13 50 23s14 24.333 14 43v289h-357c-18.667 0 -32.834 -4.66699 -42.501 -14s-17.834 -26 -24.501 -50h-29z" />
    <glyph glyph-name="uni00B2" unicode="&#xb2;" horiz-adv-x="969" 
d="M63 552c0 83.333 21.001 152.334 63.001 207.001c28.667 36.667 62.167 67.5 100.5 92.5s96.166 53.833 173.499 86.5l108 45c49.333 21.333 84.833 43 106.5 65s32.5 48 32.5 78c0 68 -49.333 102 -148 102c-60.667 0 -117.667 -13.667 -171 -41
c-48.667 -25.333 -73 -51 -73 -77c0 -5.33301 3.66699 -18 11 -38l-22 -21l-180 179l24 20c17.333 -8 29.666 -12 36.999 -12c8 0 23 8.66699 45 26c95.333 76.667 212.333 115 351 115c101.333 0 182.333 -23 243 -69c61.333 -46.667 92 -109 92 -187
c0 -62 -19.5 -115.333 -58.5 -160s-100.5 -84.334 -184.5 -119.001l-99 -41c-6 -2.66699 -29.333 -11.667 -70 -27c-68.667 -25.333 -112.334 -49 -131.001 -71h520c12.667 0 21.667 2.5 27 7.5s10.333 15.167 15 30.5h32v-234h-32c-4.66699 14.667 -9.66699 24.5 -15 29.5
s-14.333 7.5 -27 7.5h-680c-21.333 0 -35.166 -2 -41.499 -6s-11.166 -14.333 -14.499 -31h-33c-0.666992 22.667 -1 37 -1 43z" />
    <glyph glyph-name="uni00B3" unicode="&#xb3;" horiz-adv-x="969" 
d="M36 613l108.002 229.001l31 -12c-2.66699 -6.66699 -4 -12 -4 -16c0 -33.333 33.667 -63.333 101 -90s142.666 -40 225.999 -40c63.333 0 113.166 10.167 149.499 30.5s54.5 47.833 54.5 82.5c0 72 -65 108 -195 108c-42 0 -70.167 -2.66699 -84.5 -8
s-23.5 -16.333 -27.5 -33h-32v211h32c5.33301 -18.667 14.166 -30.5 26.499 -35.5s39.833 -7.5 82.5 -7.5c56 0 100 8.66699 132 26s48 41.333 48 72c0 31.333 -15.833 55.5 -47.5 72.5s-77.167 25.5 -136.5 25.5c-64.667 0 -125.5 -10.5 -182.5 -31.5
s-85.5 -43.5 -85.5 -67.5c0 -7.33301 3.33301 -17 10 -29l-26 -19l-156 177l25 19c17.333 -7.33301 29.333 -11 36 -11c8 0 18.333 4 31 12c108.667 67.333 229.667 101 363 101c93.333 0 172.333 -17 237 -51c80 -42 120 -104.333 120 -187
c0 -70.667 -33.667 -125.334 -101 -164.001c90 -33.333 135 -93 135 -179c0 -90 -42.667 -158 -128 -204c-74.667 -40.667 -167 -61 -277 -61c-117.333 0 -223.666 21.333 -318.999 64c-39.333 17.333 -64.333 26 -75 26c-9.33301 0 -23.333 -8 -42 -24z" />
    <glyph glyph-name="acute" unicode="&#xb4;" horiz-adv-x="1024" 
d="M379 1246v26.999c16 0 27.333 2.33301 34 7s13 14.334 19 29.001l66 163c2.66699 6 4 11 4 15c0 10.667 -9.33301 17 -28 19v27h304v-27c-26 -0.666992 -45.667 -9.66699 -59 -27l-142 -174c-4 -4.66699 -6 -10 -6 -16c0 -10.667 7 -16 21 -16h4v-27h-217z" />
    <glyph glyph-name="mu" unicode="&#xb5;" horiz-adv-x="984" 
d="M-14 -284c0 32 6 76.666 18 133.999c40.667 195.333 62 411 64 647v439h269v-588c0 -100 10.333 -168 31 -204c8.66699 -14 21.667 -25.833 39 -35.5s35 -14.5 53 -14.5c28 0 54.333 8.33301 79 25s53 45.334 85 86.001v731h267v-666
c0 -69.333 5.5 -115.166 16.5 -137.499s33.833 -33.5 68.5 -33.5c16 0 34.667 3.66699 56 11v-40l-261 -93c-4.66699 -1.33301 -8.66699 -2 -12 -2c-29.333 0 -53.333 12 -72 36c-11.333 16 -26.333 52 -45 108c-38.667 -42 -68 -71 -88 -87
c-50.667 -42 -107.667 -63 -171 -63c-56.667 0 -101.334 12.667 -134.001 38s-62 69.666 -88 132.999c-0.666992 -16 -1 -26.333 -1 -31c0 -40 4.5 -80.5 13.5 -121.5s25.5 -96.833 49.5 -167.5c15.333 -46 23 -82.667 23 -110c0 -26 -8.66699 -48.667 -26 -68
c-25.333 -29.333 -58.666 -44 -99.999 -44c-40.667 0 -73.167 10.667 -97.5 32s-36.5 50 -36.5 86z" />
    <glyph glyph-name="paragraph" unicode="&#xb6;" horiz-adv-x="1307" 
d="M41 1010c0 76 23 142.665 69 199.998c32 40 67.167 70.833 105.5 92.5s84.5 36.834 138.5 45.501c67.333 11.333 108.333 17 123 17h775v-32c-25.333 -6.66699 -42.333 -15.667 -51 -27s-13 -31 -13 -59v-1293c0 -28 4.33301 -47.667 13 -59s25.667 -20.333 51 -27v-32
h-255v1406h-165v-1406h-255v32c26 6.66699 43.167 15.667 51.5 27s12.5 31 12.5 59v681h-181c-40.667 0 -86 7.33301 -136 22s-90 32.334 -120 53.001c-108.667 75.333 -163 175.333 -163 300z" />
    <glyph glyph-name="cedilla" unicode="&#xb8;" horiz-adv-x="1024" 
d="M290 -392l23.001 47c36.667 -10.667 70.667 -16 102 -16c43.333 0 77.666 7.5 102.999 22.5s38 35.5 38 61.5c0 19.333 -7 35.833 -21 49.5s-31 20.5 -51 20.5c-30 0 -55.333 -11.667 -76 -35l-30 18l53 99c8 14.667 13.667 23.167 17 25.5s10.333 3.5 21 3.5
c84.667 0 150 -13.667 196 -41s69 -66 69 -116c0 -48 -19.667 -87.333 -59 -118c-42 -32.667 -103 -49 -183 -49c-78.667 0 -146 9.33301 -202 28z" />
    <glyph glyph-name="uni00B9" unicode="&#xb9;" horiz-adv-x="969" 
d="M293 1061l0.000976562 227.999h32l5 -14c4 -14 11.667 -21 23 -21c3.33301 0 8.66602 1 15.999 3l50 11v29c0 10.667 -2.83301 18.667 -8.5 24s-16.5 9.66602 -32.5 12.999v31h281v-31c-16 -3.33301 -26.833 -7.5 -32.5 -12.5s-8.5 -13.167 -8.5 -24.5v-682
c0 -11.333 2.83301 -19.5 8.5 -24.5s16.5 -9.5 32.5 -13.5v-31h-281v31c16.667 4 27.667 8.5 33 13.5s8 13.167 8 24.5v501l-51 -11c-14 -3.33301 -23.5 -7.66602 -28.5 -12.999s-9.83301 -15.666 -14.5 -30.999h-32z" />
    <glyph glyph-name="ordmasculine" unicode="&#xba;" horiz-adv-x="1046" 
d="M195 513l-0.00195312 258h23c5.33301 -24.667 11.833 -41.5 19.5 -50.5s18.834 -13.5 33.501 -13.5h502c14.667 0 26 4.66699 34 14s14.333 26 19 50h24v-258h-24c-5.33301 24.667 -11.666 41.5 -18.999 50.5s-18.666 13.5 -33.999 13.5h-502
c-14.667 0 -25.834 -4.5 -33.501 -13.5s-14.167 -25.833 -19.5 -50.5h-23zM202.998 1106c0 84 29.167 151.998 87.5 203.998s135.5 78.667 231.5 80c86 0 158 -22 216 -66c69.333 -53.333 104 -127.666 104 -222.999c0 -89.333 -34.667 -160.666 -104 -213.999
c-57.333 -44 -129 -66 -215 -66c-86.667 0 -158.667 22 -216 66c-69.333 53.333 -104 126.333 -104 219zM343.998 1106c0 -50.667 16.833 -92.167 50.5 -124.5s76.5 -48.5 128.5 -48.5c51.333 0 93.833 16.167 127.5 48.5s50.5 72.833 50.5 121.5c0 52 -16.5 94 -49.5 126
s-76.167 48.333 -129.5 49c-52 0 -94.667 -16.167 -128 -48.5s-50 -73.5 -50 -123.5z" />
    <glyph glyph-name="guillemotright" unicode="&#xbb;" horiz-adv-x="997" 
d="M150 177l196 403l-196 403h173l194 -403l-194 -403h-173zM507 177l196 403l-196 403h172l195 -403l-195 -403h-172z" />
    <glyph glyph-name="onequarter" unicode="&#xbc;" horiz-adv-x="2526" 
d="M293 1061l0.000976562 227.999h32l5 -14c4 -14 11.667 -21 23 -21c3.33301 0 8.66602 1 15.999 3l50 11v29c0 10.667 -2.83301 18.667 -8.5 24s-16.5 9.66602 -32.5 12.999v31h281v-31c-16 -3.33301 -26.833 -7.5 -32.5 -12.5s-8.5 -13.167 -8.5 -24.5v-682
c0 -11.333 2.83301 -19.5 8.5 -24.5s16.5 -9.5 32.5 -13.5v-31h-281v31c16.667 4 27.667 8.5 33 13.5s8 13.167 8 24.5v501l-51 -11c-14 -3.33301 -23.5 -7.66602 -28.5 -12.999s-9.83301 -15.666 -14.5 -30.999h-32zM697.001 -0.000976562l0.00195312 32.001
c33.333 5.33301 58.166 15.833 74.499 31.5s42.5 53.167 78.5 112.5l609 1016c20 32.667 30 57 30 73s-7.33301 30.5 -22 43.5s-33 21.167 -55 24.5v32h420v-32c-32.667 -4.66699 -55.334 -12.834 -68.001 -24.501s-39.667 -50.5 -81 -116.5l-618 -1040
c-16.667 -28 -25 -48.333 -25 -61c0 -16 6.83301 -29.167 20.5 -39.5s32.5 -16.833 56.5 -19.5v-32h-420zM1625 98v179.999l436 452c18 18.667 27 31.334 27 38.001c0 10 -11 16.333 -33 19v32h356v-31c-16 -4 -26.833 -8.5 -32.5 -13.5s-8.5 -12.833 -8.5 -23.5v-469h42
c12 0 20.667 2.5 26 7.5s10.333 15.167 15 30.5h32v-222h-32c-4.66699 15.333 -9.66699 25.5 -15 30.5s-14 7.5 -26 7.5h-42v-67c0 -11.333 2.83301 -19.5 8.5 -24.5s16.5 -9.5 32.5 -13.5v-31h-281v31c16.667 4 27.667 8.5 33 13.5s8 13.167 8 24.5v67h-453
c-24 0 -39.333 -2 -46 -6s-11.667 -14.667 -15 -32h-32zM1857 281.999h314v330z" />
    <glyph glyph-name="onehalf" unicode="&#xbd;" horiz-adv-x="2527" 
d="M293 1061v228h32l5 -14c4.66699 -14 12.334 -21 23.001 -21c3.33301 0 8.66602 1 15.999 3l50 11v29c0 11.333 -2.83301 19.333 -8.5 24s-16.5 9 -32.5 13v31h281v-31c-16.667 -3.33301 -27.667 -7.5 -33 -12.5s-8 -13.167 -8 -24.5v-682
c0 -11.333 2.83301 -19.5 8.5 -24.5s16.5 -9.5 32.5 -13.5v-31h-281v31c16.667 4 27.667 8.5 33 13.5s8 13.167 8 24.5v501l-51 -11c-14 -3.33301 -23.5 -7.5 -28.5 -12.5s-9.83301 -15.5 -14.5 -31.5h-32zM697 0l0.00195312 32.001
c33.333 5.33301 58.166 15.833 74.499 31.5s42.5 53.167 78.5 112.5l609 1016c20 32.667 30 57 30 73s-7.33301 30.5 -22 43.5s-33 21.167 -55 24.5v32h420v-32c-32.667 -4.66699 -55.334 -12.834 -68.001 -24.501s-39.667 -50.5 -81 -116.5l-618 -1040
c-16.667 -28 -25 -48.333 -25 -61c0 -16 6.83301 -29.167 20.5 -39.5s32.5 -16.833 56.5 -19.5v-32h-420zM1620 6.00098c0 82.667 21.3311 151.338 63.998 206.005c28 36.667 61 67.5 99 92.5s96 53.833 174 86.5l108 46c49.333 20.667 84.833 42.167 106.5 64.5
s32.5 48.166 32.5 77.499c0 68.667 -49.333 103 -148 103c-60.667 0 -117.334 -13.667 -170.001 -41c-49.333 -25.333 -74 -51.333 -74 -78c0 -4.66699 3.66699 -17.334 11 -38.001l-22 -21l-180 179l24 21c18 -8 30.333 -12 37 -12c8 0 23 9 45 27
c95.333 76 212.333 114 351 114c101.333 0 182.333 -23 243 -69c61.333 -46.667 92 -109.334 92 -188.001c0 -62 -19.5 -115.333 -58.5 -160s-100.5 -84.334 -184.5 -119.001l-99 -41c-3.33301 -1.33301 -26.666 -10 -69.999 -26c-69.333 -26.667 -113 -50.334 -131 -71.001
h520c12.667 0 21.667 2.5 27 7.5s10.333 14.833 15 29.5h32v-234h-32c-4.66699 15.333 -9.66699 25.5 -15 30.5s-14.333 7.5 -27 7.5h-680c-21.333 0 -35.166 -2 -41.499 -6s-11.166 -14.667 -14.499 -32h-33c-0.666992 23.333 -1 38 -1 44z" />
    <glyph glyph-name="threequarters" unicode="&#xbe;" horiz-adv-x="2526" 
d="M36 613l108.001 229.001l31 -12c-2.66699 -6.66699 -4 -12 -4 -16c0 -33.333 33.667 -63.333 101 -90s142.666 -40 225.999 -40c63.333 0 113.166 10.167 149.499 30.5s54.5 47.833 54.5 82.5c0 72 -65 108 -195 108c-42 0 -70.167 -2.66699 -84.5 -8
s-23.5 -16.333 -27.5 -33h-32v211h32c5.33301 -18.667 14.166 -30.5 26.499 -35.5s39.833 -7.5 82.5 -7.5c56.667 0 100.834 8.66699 132.501 26s47.5 41.333 47.5 72c0 31.333 -15.833 55.5 -47.5 72.5s-77.167 25.5 -136.5 25.5c-64.667 0 -125.5 -10.5 -182.5 -31.5
s-85.5 -43.5 -85.5 -67.5c0 -7.33301 3.33301 -17 10 -29l-26 -19l-156 177l25 19c17.333 -7.33301 29.333 -11 36 -11c8 0 18.333 4 31 12c107.333 67.333 228.333 101 363 101c93.333 0 172.333 -17 237 -51c80 -42 120 -104.333 120 -187
c0 -70.667 -33.667 -125.334 -101 -164.001c90 -33.333 135 -93 135 -179c0 -90 -42.667 -158 -128 -204c-74.667 -40.667 -167 -61 -277 -61c-117.333 0 -223.666 21.333 -318.999 64c-39.333 17.333 -64.333 26 -75 26c-9.33301 0 -23.333 -8 -42 -24z
M697.001 0.000976562l0.000976562 32.002c33.333 6 58.166 16.667 74.499 32s42.5 52.666 78.5 111.999l609 1016c20 32.667 30 57 30 73s-7.33301 30.5 -22 43.5s-33 21.167 -55 24.5v32h420v-32c-33.333 -4.66699 -56 -12.834 -68 -24.501s-39 -50.5 -81 -116.5
l-618 -1040c-16.667 -28 -25 -48.333 -25 -61c0 -16 6.83301 -29.167 20.5 -39.5s32.5 -16.833 56.5 -19.5v-32h-420zM1625 98.0029v179.999l436 452c18 18.667 27 31.334 27 38.001c0 10 -11 16.333 -33 19v32h356v-31c-16 -4 -26.833 -8.5 -32.5 -13.5
s-8.5 -12.833 -8.5 -23.5v-469h42c12 0 20.667 2.5 26 7.5s10.333 15.167 15 30.5h32v-222h-32c-4.66699 15.333 -9.66699 25.5 -15 30.5s-14 7.5 -26 7.5h-42v-67c0 -11.333 2.66699 -19.5 8 -24.5s16.333 -9.5 33 -13.5v-31h-281v31c16.667 4 27.667 8.5 33 13.5
s8 13.167 8 24.5v67h-453c-24 0 -39.333 -2 -46 -6s-11.667 -14.667 -15 -32h-32zM1857 282.002h314v330z" />
    <glyph glyph-name="questiondown" unicode="&#xbf;" horiz-adv-x="1000" 
d="M123 279c0 52.667 13.335 103.001 40.002 151.001s72.667 104 138 168c45.333 44.667 74.833 79.834 88.5 105.501s20.5 58.834 20.5 99.501c0 17.333 -4 30.166 -12 38.499s-23.333 15.5 -46 21.5v32h329v-32c-26.667 -8.66699 -44.334 -19.834 -53.001 -33.501
s-16.667 -44.167 -24 -91.5c-7.33301 -42.667 -17.5 -76.5 -30.5 -101.5s-40.167 -63.5 -81.5 -115.5c-37.333 -46.667 -62.5 -82.834 -75.5 -108.501s-19.5 -52.5 -19.5 -80.5c0 -43.333 14.167 -78.166 42.5 -104.499s66.166 -39.5 113.499 -39.5
c70.667 0 131 25.333 181 76c23.333 24 35 47 35 69c0 7.33301 -3 18.666 -9 33.999l27 18l172 -252l-26 -18l-8 4c-14.667 7.33301 -26 11 -34 11c-15.333 0 -44 -13.667 -86 -41c-62.667 -41.333 -118.5 -70.5 -167.5 -87.5s-101.833 -25.5 -158.5 -25.5
c-92 0 -169 21.667 -231 65c-83.333 58 -125 137.333 -125 238zM336.002 1226c0 44.667 16 82.8311 48 114.498s70.667 47.834 116 48.501c45.333 0 84 -16.167 116 -48.5s48 -71.166 48 -116.499c0 -44.667 -16 -83 -48 -115s-70.667 -48 -116 -48
c-46 0 -84.833 16 -116.5 48s-47.5 71 -47.5 117z" />
    <glyph glyph-name="Agrave" unicode="&#xc0;" horiz-adv-x="1666" 
d="M7 0v31.999c26.667 5.33301 47 14.666 61 27.999s30 39.333 48 78l502 1049c16 33.333 24 60 24 80c0 30.667 -19.333 52.667 -58 66v32h484v-32c-39.333 -11.333 -59 -31 -59 -59c0 -19.333 6.33301 -41.333 19 -66l520 -1052c22 -44.667 41.333 -75.167 58 -91.5
s39 -27.166 67 -32.499v-32h-502v32c44 7.33301 66 28 66 62c0 14 -6.66699 34.667 -20 62l-94 192h-620l-92 -192c-12.667 -26.667 -19 -47.667 -19 -63c0 -29.333 22.333 -49.666 67 -60.999v-32h-452zM543 1738v27.001h304v-27c-18.667 -2 -28 -8.33301 -28 -19
c0 -4 1.33301 -9 4 -15l66 -163c6 -14.667 12.333 -24.334 19 -29.001s18 -7 34 -7v-27h-217v27h5c13.333 0 20 5.33301 20 16c0 6 -2 11.333 -6 16l-142 173c-13.333 18 -33 27.333 -59 28zM592 535h445l-221 486z" />
    <glyph glyph-name="Aacute" unicode="&#xc1;" horiz-adv-x="1666" 
d="M7 0v31.999c26.667 5.33301 47 14.666 61 27.999s30 39.333 48 78l502 1049c16 33.333 24 60 24 80c0 30.667 -19.333 52.667 -58 66v32h484v-32c-39.333 -11.333 -59 -31 -59 -59c0 -19.333 6.33301 -41.333 19 -66l520 -1052c22 -44.667 41.333 -75.167 58 -91.5
s39 -27.166 67 -32.499v-32h-502v32c44 7.33301 66 28 66 62c0 14 -6.66699 34.667 -20 62l-94 192h-620l-92 -192c-12.667 -26.667 -19 -47.667 -19 -63c0 -29.333 22.333 -49.666 67 -60.999v-32h-452zM592 534.999h445l-221 486zM709 1478v26.999
c16 0 27.333 2.33301 34 7s13 14.334 19 29.001l66 163c2.66699 6 4 11 4 15c0 10.667 -9.33301 17 -28 19v27h304v-27c-26 -0.666992 -45.667 -10 -59 -28l-142 -173c-4 -4.66699 -6 -10 -6 -16c0 -10.667 7 -16 21 -16h4v-27h-217z" />
    <glyph glyph-name="Acircumflex" unicode="&#xc2;" horiz-adv-x="1666" 
d="M7 0v31.999c26.667 5.33301 47 14.666 61 27.999s30 39.333 48 78l502 1049c16 33.333 24 60 24 80c0 30.667 -19.333 52.667 -58 66v32h484v-32c-39.333 -11.333 -59 -31 -59 -59c0 -19.333 6.33301 -41.333 19 -66l520 -1052c22 -44.667 41.333 -75.167 58 -91.5
s39 -27.166 67 -32.499v-32h-502v32c44 7.33301 66 28 66 62c0 14 -6.66699 34.667 -20 62l-94 192h-620l-92 -192c-12.667 -26.667 -19 -47.667 -19 -63c0 -29.333 22.333 -49.666 67 -60.999v-32h-452zM487 1478l-0.000976562 26.999c16 0.666992 26.333 2.5 31 5.5
s17.334 15.167 38.001 36.5l134 149c7.33301 8 11 16.333 11 25c0 11.333 -11 17 -33 17v27h316v-27c-20 -2 -30 -8 -30 -18c0 -7.33301 5.33301 -16.666 16 -27.999l150 -167c10.667 -12.667 25.667 -19.334 45 -20.001v-27h-287v27c20.667 1.33301 31 6.33301 31 15
c0 2.66699 -5.33301 10.334 -16 23.001l-84 103l-92 -106c-6 -6 -9 -12 -9 -18c0 -10 9.66699 -15.667 29 -17v-27h-250zM591.999 534.998h445l-221 486z" />
    <glyph glyph-name="Atilde" unicode="&#xc3;" horiz-adv-x="1666" 
d="M7 0v31.999c26.667 5.33301 47 14.666 61 27.999s30 39.333 48 78l502 1049c16 33.333 24 60 24 80c0 30.667 -19.333 52.667 -58 66v32h484v-32c-39.333 -11.333 -59 -31 -59 -59c0 -19.333 6.33301 -41.333 19 -66l520 -1052c22 -44.667 41.333 -75.167 58 -91.5
s39 -27.166 67 -32.499v-32h-502v32c44 7.33301 66 28 66 62c0 14 -6.66699 34.667 -20 62l-94 192h-620l-92 -192c-12.667 -26.667 -19 -47.667 -19 -63c0 -29.333 22.333 -49.666 67 -60.999v-32h-452zM479 1621l13.999 17c16 -5.33301 27.333 -8 34 -8
c14 0 26.667 7.66699 38 23c40.667 53.333 91.334 80 152.001 80c20.667 0 42.334 -4.33301 65.001 -13l149 -59c17.333 -6.66699 34.333 -10 51 -10c13.333 0 26 5.33301 38 16s18 22 18 34c0 8.66699 -5.66699 19.667 -17 33l21 15l145 -134l-16 -20
c-19.333 6 -31.666 9 -36.999 9c-8.66699 0 -17.334 -5.66699 -26.001 -17c-44.667 -60.667 -92 -91 -142 -91c-26.667 0 -55 5.66699 -85 17l-148 57c-14.667 5.33301 -29.334 8 -44.001 8c-13.333 0 -26.333 -5.5 -39 -16.5s-19 -22.167 -19 -33.5c0 -8 5 -18.333 15 -31
l-18 -14zM591.999 534.999h445l-221 486z" />
    <glyph glyph-name="Adieresis" unicode="&#xc4;" horiz-adv-x="1666" 
d="M7 0l0.000976562 31.998c27.333 5.33301 47.666 14.333 60.999 27s29.333 39 48 79l502 1049c16 33.333 24 60 24 80c0 30.667 -19.333 52.667 -58 66v32h484v-32c-39.333 -11.333 -59 -31 -59 -59c0 -19.333 6.33301 -41.333 19 -66l520 -1052
c22 -44.667 41.333 -75.167 58 -91.5s39 -27.166 67 -32.499v-32h-502v32c44 7.33301 66 28 66 62c0 14 -6.66699 34.667 -20 62l-94 192h-620l-92 -192c-12.667 -26.667 -19 -47.667 -19 -63c0 -29.333 22.333 -49.666 67 -60.999v-32h-452zM497.001 1611
c0 36 12.332 66.499 36.999 91.499s55 38.167 91 39.5c38.667 0 70.334 -12.667 95.001 -38c25.333 -26 38 -58 38 -96c0 -34 -12.667 -63.667 -38 -89s-56.333 -38 -93 -38c-35.333 0 -66 12.667 -92 38c-25.333 24.667 -38 55.334 -38 92.001zM592 534.997h445l-221 486z
M894 1612c0 36 12.5 66.5 37.5 91.5s55.833 37.833 92.5 38.5c36.667 0 67.667 -12.667 93 -38c25.333 -26 38 -56 38 -90c0 -38 -12.667 -69.667 -38 -95s-57.333 -38 -96 -38c-34.667 0 -64.5 12.833 -89.5 38.5s-37.5 56.5 -37.5 92.5z" />
    <glyph glyph-name="Aring" unicode="&#xc5;" horiz-adv-x="1666" 
d="M7 0v31.999c26.667 5.33301 47 14.666 61 27.999s30 39.333 48 78l502 1049c16 33.333 24 60 24 80c0 30.667 -19.333 52.667 -58 66v32h484v-32c-39.333 -11.333 -59 -31 -59 -59c0 -19.333 6.33301 -41.333 19 -66l520 -1052c22 -44.667 41.333 -75.167 58 -91.5
s39 -27.166 67 -32.499v-32h-502v32c44 7.33301 66 28 66 62c0 14 -6.66699 34.667 -20 62l-94 192h-620l-92 -192c-12.667 -26.667 -19 -47.667 -19 -63c0 -29.333 22.333 -49.666 67 -60.999v-32h-452zM592 534.999h445l-221 486zM598 1626
c0 52.667 21.832 96.8311 65.499 132.498s97.834 53.834 162.501 54.501c64.667 0 119 -18.333 163 -55c44.667 -37.333 67 -82 67 -134c0 -53.333 -22.333 -97.666 -67 -132.999c-46 -36 -100 -54 -162 -54c-63.333 0 -117.333 18.333 -162 55
c-44.667 37.333 -67 82 -67 134zM725.999 1625c0 -23.333 9.83301 -43.166 29.5 -59.499s43.5 -24.5 71.5 -24.5c27.333 0 51 8.16699 71 24.5s30 35.833 30 58.5c0 24.667 -9.33301 45 -28 61s-43 24 -73 24c-29.333 0 -53.5 -7.83301 -72.5 -23.5
s-28.5 -35.834 -28.5 -60.501z" />
    <glyph glyph-name="AE" unicode="&#xc6;" horiz-adv-x="2381" 
d="M-26 0l-0.000976562 32.001c28 6 49.333 15.333 64 28s33.334 38.667 56.001 78l604 1049c22 37.333 33 65.666 33 84.999c0 28 -20 48.333 -60 61v32h1493c20.667 0 36.334 4.83301 47 14.5c10.667 9.66699 19.334 26.5 26 50.5h32v-353h-32
c-6.66699 23.333 -15.334 39.666 -26 48.999c-10.667 9.33301 -26.334 14 -47 14h-853v-324h553c20 0 35.333 4.66699 46 14s19.334 26 26.001 50h32v-345h-32c-6.66699 24 -15.334 40.667 -26.001 50s-26 14 -46 14h-553v-374h877c20.667 0 36.334 4.66699 47 14
c10.667 9.33301 19.334 26 26 50h32v-353h-32c-6.66699 24 -15.334 40.667 -26 50c-10.667 9.33301 -26.334 14 -47 14h-1239v32c24 6.66699 40.667 15.334 50 26.001s14 26.334 14 47.001v243h-489l-112 -192c-17.333 -29.333 -26 -52 -26 -68
c0 -26.667 20 -45.334 60 -56.001v-32h-472zM631.999 535.001h381v605h-43z" />
    <glyph glyph-name="Ccedilla" unicode="&#xc7;" horiz-adv-x="1718" 
d="M91 683c0 165.333 48.333 308.999 145 430.999c145.333 183.333 365 275 659 275c108 0 200.667 -11.333 278 -34s174 -67.334 290 -134.001c55.333 -31.333 89 -47 101 -47s27.333 8.66699 46 26l26 -18l-190 -285l-27 18c1.33301 10.667 2 19.667 2 27
c0 19.333 -8.33301 37.5 -25 54.5s-46.334 37.5 -89.001 61.5c-118 66.667 -243 100 -375 100c-156 0 -280.333 -39 -373 -117c-109.333 -91.333 -164 -210.666 -164 -357.999s54.667 -266.666 164 -357.999c92.667 -78 217 -117 373 -117c132 0 257 33.333 375 100
c42.667 24 72.334 44.5 89.001 61.5s25 35.167 25 54.5c0 7.33301 -0.666992 16 -2 26l27 19l190 -285l-26 -18c-18.667 17.333 -34 26 -46 26s-45.667 -16 -101 -48c-114.667 -66 -211.167 -110.5 -289.5 -133.5s-171.5 -34.5 -279.5 -34.5c-215.333 0 -392 51 -530 153
c-81.333 59.333 -145.333 133 -192 221c-54 100.667 -81 211.667 -81 333zM617 -435.001l24.9971 51.999c40 -10.667 77.333 -16 112 -16c46 0 82.667 8.33301 110 25s41 39.334 41 68.001c0 21.333 -7.66699 39.666 -23 54.999s-33.666 23 -54.999 23
c-32 0 -59.667 -13 -83 -39l-32 21l57 110c8.66699 16.667 14.834 26.334 18.501 29.001s11.167 4 22.5 4c91.333 0 162 -15.333 212 -46s75 -74 75 -130c0 -53.333 -21.333 -97.333 -64 -132c-45.333 -36.667 -110.666 -55 -195.999 -55c-88 0 -161.333 10.333 -220 31z
" />
    <glyph glyph-name="Egrave" unicode="&#xc8;" horiz-adv-x="1556" 
d="M123 0v31.9971c24 6.66699 40.667 15.334 50 26.001s14 26.334 14 47.001v1155c0 20.667 -4.66699 36.334 -14 47.001s-26 19.334 -50 26.001v32h1216c20 0 35.333 4.83301 46 14.5s19.334 26.5 26.001 50.5h32v-353h-32c-6.66699 23.333 -15.334 39.666 -26.001 48.999
s-26 14 -46 14h-854v-324h554c20 0 35.333 4.66699 46 14s19.334 26 26.001 50h32v-345h-32c-6.66699 23.333 -15.334 39.833 -26.001 49.5s-26 14.5 -46 14.5h-554v-374h878c20 0 35.333 4.66699 46 14s19.334 26 26.001 50h32v-353h-32
c-6.66699 24 -15.334 40.667 -26.001 50s-26 14 -46 14h-1240zM534 1738v27.001h304v-27c-18.667 -2 -28 -8.33301 -28 -19c0 -4 1.33301 -9 4 -15l66 -163c6 -14.667 12.333 -24.334 19 -29.001s18 -7 34 -7v-27h-217v27h5c13.333 0 20 5.33301 20 16c0 6 -2 11.333 -6 16
l-142 173c-13.333 18 -33 27.333 -59 28z" />
    <glyph glyph-name="Eacute" unicode="&#xc9;" horiz-adv-x="1556" 
d="M123 0v31.9971c24 6.66699 40.667 15.334 50 26.001s14 26.334 14 47.001v1155c0 20.667 -4.66699 36.334 -14 47.001s-26 19.334 -50 26.001v32h1216c20 0 35.333 4.83301 46 14.5s19.334 26.5 26.001 50.5h32v-353h-32c-6.66699 23.333 -15.334 39.666 -26.001 48.999
s-26 14 -46 14h-854v-324h554c20 0 35.333 4.66699 46 14s19.334 26 26.001 50h32v-345h-32c-6.66699 23.333 -15.334 39.833 -26.001 49.5s-26 14.5 -46 14.5h-554v-374h878c20 0 35.333 4.66699 46 14s19.334 26 26.001 50h32v-353h-32
c-6.66699 24 -15.334 40.667 -26.001 50s-26 14 -46 14h-1240zM671 1478v26.999c16 0 27.333 2.33301 34 7s13 14.334 19 29.001l66 163c2.66699 6 4 11 4 15c0 10.667 -9.33301 17 -28 19v27h304v-27c-26 -0.666992 -45.667 -10 -59 -28l-142 -173
c-4 -4.66699 -6 -10 -6 -16c0 -10.667 7 -16 21 -16h4v-27h-217z" />
    <glyph glyph-name="Ecircumflex" unicode="&#xca;" horiz-adv-x="1556" 
d="M123 0v31.9971c24 6.66699 40.667 15.334 50 26.001s14 26.334 14 47.001v1155c0 20.667 -4.66699 36.334 -14 47.001s-26 19.334 -50 26.001v32h1216c20 0 35.333 4.83301 46 14.5s19.334 26.5 26.001 50.5h32v-353h-32c-6.66699 23.333 -15.334 39.666 -26.001 48.999
s-26 14 -46 14h-854v-324h554c20 0 35.333 4.66699 46 14s19.334 26 26.001 50h32v-345h-32c-6.66699 23.333 -15.334 39.833 -26.001 49.5s-26 14.5 -46 14.5h-554v-374h878c20 0 35.333 4.66699 46 14s19.334 26 26.001 50h32v-353h-32
c-6.66699 24 -15.334 40.667 -26.001 50s-26 14 -46 14h-1240zM463 1478l-0.000976562 26.999c16 0.666992 26.333 2.5 31 5.5s17.334 15.167 38.001 36.5l134 149c7.33301 8 11 16.333 11 25c0 11.333 -11 17 -33 17v27h316v-27c-20 -2 -30 -8 -30 -18
c0 -7.33301 5.33301 -16.666 16 -27.999l150 -167c10.667 -12.667 25.667 -19.334 45 -20.001v-27h-287v27c20.667 1.33301 31 6.33301 31 15c0 2.66699 -5.33301 10.334 -16 23.001l-84 103l-92 -106c-6 -6 -9 -12 -9 -18c0 -10 9.66699 -15.667 29 -17v-27h-250z" />
    <glyph glyph-name="Edieresis" unicode="&#xcb;" horiz-adv-x="1556" 
d="M123 0v31.9971c24 6.66699 40.667 15.334 50 26.001s14 26.334 14 47.001v1155c0 20.667 -4.66699 36.334 -14 47.001s-26 19.334 -50 26.001v32h1216c20 0 35.333 4.83301 46 14.5s19.334 26.5 26.001 50.5h32v-353h-32c-6.66699 23.333 -15.334 39.666 -26.001 48.999
s-26 14 -46 14h-854v-324h554c20 0 35.333 4.66699 46 14s19.334 26 26.001 50h32v-345h-32c-6.66699 23.333 -15.334 39.833 -26.001 49.5s-26 14.5 -46 14.5h-554v-374h878c20 0 35.333 4.66699 46 14s19.334 26 26.001 50h32v-353h-32
c-6.66699 24 -15.334 40.667 -26.001 50s-26 14 -46 14h-1240zM473 1611c0 36 12.333 66.499 37 91.499s55 38.167 91 39.5c38 0 69.667 -12.667 95 -38c25.333 -26 38 -58 38 -96c0 -34 -12.667 -63.667 -38 -89s-56.333 -38 -93 -38c-35.333 0 -66 12.667 -92 38
c-25.333 24.667 -38 55.334 -38 92.001zM870 1612c0 35.333 12.5 65.667 37.5 91s55.833 38.333 92.5 39c36.667 0 67.667 -12.667 93 -38c25.333 -26 38 -56 38 -90c0 -38 -12.667 -69.667 -38 -95s-57 -38 -95 -38c-35.333 0 -65.5 12.833 -90.5 38.5
s-37.5 56.5 -37.5 92.5z" />
    <glyph glyph-name="Igrave" unicode="&#xcc;" horiz-adv-x="672" 
d="M52 1738v27.001h304v-27c-18.667 -2 -28 -8.33301 -28 -19c0 -4 1.33301 -9 4 -15l66 -163c6 -14.667 12.333 -24.334 19 -29.001s18 -7 34 -7v-27h-217v27h5c13.333 0 20 5.33301 20 16c0 6 -2 11.333 -6 16l-142 173c-13.333 18 -33 27.333 -59 28zM123 0.000976562
v31.9971c24 6.66699 40.667 15.334 50 26.001s14 26.334 14 47.001v1156c0 20 -4.66699 35.333 -14 46s-26 19.334 -50 26.001v32h426v-32c-24 -6 -40.667 -14.5 -50 -25.5s-14 -26.5 -14 -46.5v-1156c0 -20.667 4.83301 -36.5 14.5 -47.5s26.167 -19.5 49.5 -25.5v-32h-426
z" />
    <glyph glyph-name="Iacute" unicode="&#xcd;" horiz-adv-x="672" 
d="M123 0v31.9971c24 6.66699 40.667 15.334 50 26.001s14 26.334 14 47.001v1156c0 20 -4.66699 35.333 -14 46s-26 19.334 -50 26.001v32h426v-32c-24 -6 -40.667 -14.5 -50 -25.5s-14 -26.5 -14 -46.5v-1156c0 -20.667 4.83301 -36.5 14.5 -47.5s26.167 -19.5 49.5 -25.5
v-32h-426zM220 1478v26.999c16 0 27.333 2.33301 34 7s13 14.334 19 29.001l66 163c2.66699 6 4 11 4 15c0 10.667 -9.33301 17 -28 19v27h304v-27c-26 -0.666992 -45.667 -10 -59 -28l-142 -173c-4 -4.66699 -6 -10 -6 -16c0 -10.667 7 -16 21 -16h4v-27h-217z" />
    <glyph glyph-name="Icircumflex" unicode="&#xce;" horiz-adv-x="671" 
d="M3 1478l-0.000976562 26.999c16 0.666992 26.333 2.5 31 5.5s17.334 15.167 38.001 36.5l134 149c7.33301 8 11 16.333 11 25c0 11.333 -11 17 -33 17v27h316v-27c-20 -2 -30 -8 -30 -18c0 -7.33301 5.33301 -16.666 16 -27.999l150 -167
c10.667 -12.667 25.667 -19.334 45 -20.001v-27h-287v27c20.667 1.33301 31 6.33301 31 15c0 2.66699 -5.33301 10.334 -16 23.001l-84 103l-92 -106c-6 -6 -9 -12 -9 -18c0 -10 9.66699 -15.667 29 -17v-27h-250zM122.999 -0.000976562v31.9971
c24 6.66699 40.667 15.334 50 26.001s14 26.334 14 47.001v1156c0 20 -4.66699 35.333 -14 46s-26 19.334 -50 26.001v32h426v-32c-24 -6 -40.667 -14.5 -50 -25.5s-14 -26.5 -14 -46.5v-1156c0 -20.667 4.83301 -36.5 14.5 -47.5s26.167 -19.5 49.5 -25.5v-32h-426z" />
    <glyph glyph-name="Idieresis" unicode="&#xcf;" horiz-adv-x="671" 
d="M41 1611c0 36 12.333 66.499 37 91.499s55 38.167 91 39.5c38 0 69.667 -12.667 95 -38c25.333 -26 38 -58 38 -96c0 -34 -12.667 -63.667 -38 -89s-56.333 -38 -93 -38c-35.333 0 -66 12.667 -92 38c-25.333 24.667 -38 55.334 -38 92.001zM123 -0.000976562v31.9971
c24 6.66699 40.667 15.334 50 26.001s14 26.334 14 47.001v1156c0 20 -4.66699 35.333 -14 46s-26 19.334 -50 26.001v32h426v-32c-24 -6 -40.667 -14.5 -50 -25.5s-14 -26.5 -14 -46.5v-1156c0 -20.667 4.83301 -36.5 14.5 -47.5s26.167 -19.5 49.5 -25.5v-32h-426z
M370 1612c0 35.333 12.5 65.667 37.5 91s55.833 38.333 92.5 39c36.667 0 67.667 -12.667 93 -38c25.333 -26 38 -56 38 -90c0 -38 -12.667 -69.667 -38 -95s-57.333 -38 -96 -38c-34.667 0 -64.5 12.833 -89.5 38.5s-37.5 56.5 -37.5 92.5z" />
    <glyph glyph-name="Eth" unicode="&#xd0;" horiz-adv-x="1717" 
d="M17 543l0.000976562 326.995h32c7.33301 -24.667 16.166 -41.5 26.499 -50.5s25.833 -13.5 46.5 -13.5h66v454c0 20.667 -4.66699 36.334 -14 47.001s-26 19.334 -50 26.001v32h760c167.333 0 295.666 -19 384.999 -57c128 -55.333 223 -146.666 285 -273.999
c48 -100 72 -217 72 -351c0 -236 -72.333 -415.333 -217 -538c-60.667 -52 -131.667 -89.167 -213 -111.5s-185.333 -33.5 -312 -33.5h-760v32c24 6.66699 40.667 15.334 50 26.001s14 26.334 14 47.001v503h-66c-20.667 0 -36.167 -4.66699 -46.5 -14
s-19.166 -26.333 -26.499 -51h-32zM486.001 224.995l373 0.000976562c120 0 210 16.333 270 49c128.667 70 193 206.333 193 409c0 146.667 -34.667 259 -104 337c-38.667 43.333 -85.5 74.166 -140.5 92.499s-127.833 27.5 -218.5 27.5h-373v-334h305
c20 0 35.333 4.83301 46 14.5s19.334 26.167 26.001 49.5h32v-327h-32c-6.66699 24 -15.334 40.833 -26.001 50.5s-26 14.5 -46 14.5h-305v-383z" />
    <glyph glyph-name="Ntilde" unicode="&#xd1;" horiz-adv-x="1785" 
d="M123 0v32.001c24 6.66699 40.667 15.334 50 26.001s14 26.334 14 47.001v1156c0 20 -4.66699 35.333 -14 46s-26 19.334 -50 26.001v32h464v-32c-28.667 -7.33301 -43 -22.666 -43 -45.999c0 -16 9.33301 -33.667 28 -53l753 -783v810c0 20 -4.66699 35.333 -14 46
s-26 19.334 -50 26.001v32h401v-32c-24 -6.66699 -40.667 -15.334 -50 -26.001s-14 -26 -14 -46v-1156c0 -20.667 4.66699 -36.334 14 -47.001s26 -19.334 50 -26.001v-32h-430v32c28 6 42 20.333 42 43c0 13.333 -16.333 36.666 -49 69.999l-765 790v-830
c0 -20.667 4.66699 -36.334 14 -47.001s26 -19.334 50 -26.001v-32h-401zM552 1621l13.999 17c16 -5.33301 27.333 -8 34 -8c14 0 26.667 7.66699 38 23c40.667 53.333 91.334 80 152.001 80c20.667 0 42.334 -4.33301 65.001 -13l149 -59
c17.333 -6.66699 34.333 -10 51 -10c13.333 0 26 5.33301 38 16s18 22 18 34c0 8.66699 -5.66699 19.667 -17 33l21 15l145 -134l-16 -20c-19.333 6 -31.666 9 -36.999 9c-8.66699 0 -17.334 -5.66699 -26.001 -17c-44.667 -60.667 -92 -91 -142 -91
c-26.667 0 -55 5.66699 -85 17l-148 57c-14.667 5.33301 -29.334 8 -44.001 8c-13.333 0 -26.333 -5.5 -39 -16.5s-19 -22.167 -19 -33.5c0 -8 5 -18.333 15 -31l-18 -14z" />
    <glyph glyph-name="Ograve" unicode="&#xd2;" horiz-adv-x="1752" 
d="M91 683c0 136.667 35.001 261.667 105.001 375c134 216.667 359.667 327 677 331c238 0 426.667 -64.333 566 -193c147.333 -134.667 221 -308.667 221 -522c0 -130.667 -35.333 -252.667 -106 -366c-138 -221.333 -364.333 -332 -679 -332
c-236 0 -423.667 64.333 -563 193c-74.667 68.667 -131.334 151 -170.001 247c-34 84.667 -51 173.667 -51 267zM395.001 683c0 -148 51.333 -267.667 154 -359c86.667 -77.333 195.667 -116 327 -116s240 38.667 326 116c51.333 46 90.666 102.333 117.999 169
c24 59.333 36 120.666 36 183.999c0 154.667 -51.333 276.334 -154 365.001c-87.333 76 -196.666 114.667 -327.999 116c-130 0 -238.333 -38.667 -325 -116c-102.667 -91.333 -154 -211 -154 -359zM608.001 1738v27.001h304v-27c-18.667 -2 -28 -8.33301 -28 -19
c0 -4 1.33301 -9 4 -15l66 -163c6 -14.667 12.333 -24.334 19 -29.001s18 -7 34 -7v-27h-217v27h5c13.333 0 20 5.33301 20 16c0 6 -2 11.333 -6 16l-142 173c-13.333 18 -33 27.333 -59 28z" />
    <glyph glyph-name="Oacute" unicode="&#xd3;" horiz-adv-x="1752" 
d="M91 683c0 136.667 35.001 261.667 105.001 375c134 216.667 359.667 327 677 331c238 0 426.667 -64.333 566 -193c147.333 -134.667 221 -308.667 221 -522c0 -130.667 -35.333 -252.667 -106 -366c-138 -221.333 -364.333 -332 -679 -332
c-236 0 -423.667 64.333 -563 193c-74.667 68.667 -131.334 151 -170.001 247c-34 84.667 -51 173.667 -51 267zM395.001 683c0 -148 51.333 -267.667 154 -359c86.667 -77.333 195.667 -116 327 -116s240 38.667 326 116c51.333 46 90.666 102.333 117.999 169
c24 59.333 36 120.666 36 183.999c0 154.667 -51.333 276.334 -154 365.001c-87.333 76 -196.666 114.667 -327.999 116c-130 0 -238.333 -38.667 -325 -116c-102.667 -91.333 -154 -211 -154 -359zM751.001 1478v26.999c16 0 27.333 2.33301 34 7s13 14.334 19 29.001
l66 163c2.66699 6 4 11 4 15c0 10.667 -9.33301 17 -28 19v27h304v-27c-26 -0.666992 -45.667 -10 -59 -28l-142 -173c-4 -4.66699 -6 -10 -6 -16c0 -10.667 7 -16 21 -16h4v-27h-217z" />
    <glyph glyph-name="Ocircumflex" unicode="&#xd4;" horiz-adv-x="1752" 
d="M91 683c0 136.667 35.001 261.667 105.001 375c134 216.667 359.667 327 677 331c238 0 426.667 -64.333 566 -193c147.333 -134.667 221 -308.667 221 -522c0 -130.667 -35.333 -252.667 -106 -366c-138 -221.333 -364.333 -332 -679 -332
c-236 0 -423.667 64.333 -563 193c-74.667 68.667 -131.334 151 -170.001 247c-34 84.667 -51 173.667 -51 267zM395.001 683c0 -148 51.333 -267.667 154 -359c86.667 -77.333 195.667 -116 327 -116s240 38.667 326 116c51.333 46 90.666 102.333 117.999 169
c24 59.333 36 120.666 36 183.999c0 154.667 -51.333 276.334 -154 365.001c-87.333 76 -196.666 114.667 -327.999 116c-130 0 -238.333 -38.667 -325 -116c-102.667 -91.333 -154 -211 -154 -359zM537.001 1478l-0.000976562 26.999c16 0.666992 26.333 2.5 31 5.5
s17.334 15.167 38.001 36.5l134 149c7.33301 8 11 16.333 11 25c0 11.333 -11 17 -33 17v27h316v-27c-20 -2 -30 -8 -30 -18c0 -7.33301 5.33301 -16.666 16 -27.999l150 -167c10.667 -12.667 25.667 -19.334 45 -20.001v-27h-287v27c20.667 1.33301 31 6.33301 31 15
c0 2.66699 -5.33301 10.334 -16 23.001l-84 103l-92 -106c-6 -6 -9 -12 -9 -18c0 -10 9.66699 -15.667 29 -17v-27h-250z" />
    <glyph glyph-name="Otilde" unicode="&#xd5;" horiz-adv-x="1752" 
d="M91 683c0 136.667 35.001 261.667 105.001 375c134 216.667 359.667 327 677 331c238 0 426.667 -64.333 566 -193c147.333 -134.667 221 -308.667 221 -522c0 -130.667 -35.333 -252.667 -106 -366c-138 -221.333 -364.333 -332 -679 -332
c-236 0 -423.667 64.333 -563 193c-74.667 68.667 -131.334 151 -170.001 247c-34 84.667 -51 173.667 -51 267zM395.001 683c0 -148 51.333 -267.667 154 -359c86.667 -77.333 195.667 -116 327 -116s240 38.667 326 116c51.333 46 90.666 102.333 117.999 169
c24 59.333 36 120.666 36 183.999c0 154.667 -51.333 276.334 -154 365.001c-87.333 76 -196.666 114.667 -327.999 116c-130 0 -238.333 -38.667 -325 -116c-102.667 -91.333 -154 -211 -154 -359zM536.001 1621l13.999 17c16 -5.33301 27.333 -8 34 -8
c14 0 26.667 7.66699 38 23c40.667 53.333 91.334 80 152.001 80c20.667 0 42.334 -4.33301 65.001 -13l149 -59c17.333 -6.66699 34.333 -10 51 -10c13.333 0 26 5.33301 38 16s18 22 18 34c0 8.66699 -5.66699 19.667 -17 33l21 15l145 -134l-16 -20
c-19.333 6 -31.666 9 -36.999 9c-8.66699 0 -17.334 -5.66699 -26.001 -17c-44.667 -60.667 -92 -91 -142 -91c-26.667 0 -55 5.66699 -85 17l-148 57c-14.667 5.33301 -29.334 8 -44.001 8c-13.333 0 -26.333 -5.5 -39 -16.5s-19 -22.167 -19 -33.5c0 -8 5 -18.333 15 -31
l-18 -14z" />
    <glyph glyph-name="Odieresis" unicode="&#xd6;" horiz-adv-x="1752" 
d="M91 683c0 136.667 35.001 261.667 105.001 375c134 216.667 359.667 327 677 331c238 0 426.667 -64.333 566 -193c147.333 -134.667 221 -308.667 221 -522c0 -130.667 -35.333 -252.667 -106 -366c-138 -221.333 -364.333 -332 -679 -332
c-236 0 -423.667 64.333 -563 193c-74.667 68.667 -131.334 151 -170.001 247c-34 84.667 -51 173.667 -51 267zM395.001 683c0 -148 51.333 -267.667 154 -359c86.667 -77.333 195.667 -116 327 -116s240 38.667 326 116c51.333 46 90.666 102.333 117.999 169
c24 59.333 36 120.666 36 183.999c0 154.667 -51.333 276.334 -154 365.001c-87.333 76 -196.666 114.667 -327.999 116c-130 0 -238.333 -38.667 -325 -116c-102.667 -91.333 -154 -211 -154 -359zM547.001 1611c0 36 12.333 66.499 37 91.499s55 38.167 91 39.5
c38 0 69.667 -12.667 95 -38c25.333 -26 38 -58 38 -96c0 -34 -12.667 -63.667 -38 -89s-56.333 -38 -93 -38c-35.333 0 -66 12.667 -92 38c-25.333 24.667 -38 55.334 -38 92.001zM944.001 1612c0 35.333 12.5 65.667 37.5 91s55.833 38.333 92.5 39
c36.667 0 67.667 -12.667 93 -38c25.333 -26 38 -56 38 -90c0 -38 -12.667 -69.667 -38 -95s-57.333 -38 -96 -38c-34.667 0 -64.5 12.833 -89.5 38.5s-37.5 56.5 -37.5 92.5z" />
    <glyph glyph-name="multiply" unicode="&#xd7;" horiz-adv-x="1570" 
d="M257 384l21 20.999c20.667 -12.667 37.334 -19 50.001 -19c14.667 0 28.667 6.66699 42 20l277 277l-277 276c-13.333 13.333 -27.333 20 -42 20c-12.667 0 -29.334 -6 -50.001 -18l-21 21l229 229l21 -21c-12.667 -21.333 -19 -38 -19 -50c0 -14.667 7 -28.667 21 -42
l276 -277l276 276c14 14 21 28.333 21 43c0 12 -6.33301 28.667 -19 50l21 21l229 -229l-20 -21c-21.333 12.667 -38.333 19 -51 19c-14 0 -28 -7 -42 -21l-276 -276l276 -277c14 -13.333 28 -20 42 -20c12 0 29 6.33301 51 19l20 -21l-229 -230l-21 21
c12.667 20.667 19 37.334 19 50.001c0 14.667 -7 29 -21 43l-276 276l-276 -276c-14 -14 -21 -28.333 -21 -43c0 -12 6.33301 -28.667 19 -50l-21 -21z" />
    <glyph glyph-name="Oslash" unicode="&#xd8;" horiz-adv-x="1752" 
d="M91 683c0 136.667 35.3359 261.333 106.003 374c137.333 221.333 363.666 332 678.999 332c75.333 0 139.666 -4.83301 192.999 -14.5s113.666 -27.5 180.999 -53.5l33 43c12.667 16.667 19 32.334 19 47.001c0 30 -19.333 47.333 -58 52v39h400v-39
c-32.667 -4.66699 -58.667 -15.5 -78 -32.5s-57 -62.5 -113 -136.5l-50 -66c171.333 -142.667 257 -324.334 257 -545.001c0 -136.667 -35.333 -261.334 -106 -374.001c-138 -222 -364 -333 -678 -333c-74.667 0 -138.5 4.83301 -191.5 14.5s-112.5 26.834 -178.5 51.501
l-34 -45c-16.667 -22.667 -25 -40.334 -25 -53.001c0 -27.333 20.333 -41.333 61 -42v-39h-401v39c34.667 7.33301 64.667 21.833 90 43.5s62.333 64.834 111 129.501l45 59c-174.667 144.667 -262 327.667 -262 549zM395.003 683.999c0 -125.333 41.333 -235.333 124 -330
l574 760c-70.667 28.667 -142.667 43 -216 43c-132.667 0 -242 -38.333 -328 -115c-102.667 -92 -154 -211.333 -154 -358zM664.003 249.999c68 -28 138 -42 210 -42c132.667 0 242 38.667 328 116c102.667 91.333 154 211 154 359c0 120.667 -40 229 -120 325z" />
    <glyph glyph-name="Ugrave" unicode="&#xd9;" horiz-adv-x="1671" 
d="M96 1333l-0.000976562 31.998h427v-32c-24 -6 -40.833 -14.5 -50.5 -25.5s-14.5 -26.833 -14.5 -47.5v-681c0 -78.667 4.33301 -136.834 13 -174.501s25 -69.167 49 -94.5c64 -68 173.333 -102 328 -102c155.333 0 265 34 329 102c23.333 25.333 39.333 56.833 48 94.5
s13 95.834 13 174.501v681c0 20.667 -4.66699 36.334 -14 47.001s-26 19.334 -50 26.001v32h402v-32c-24 -6.66699 -40.667 -15.334 -50 -26.001s-14 -26.334 -14 -47.001v-765c0 -144.667 -26.667 -253 -80 -325c-96 -129.333 -294.333 -194 -595 -194
c-217.333 0 -383.666 35 -498.999 105c-67.333 40.667 -114 96 -140 166c-25.333 69.333 -38 152 -38 248v765c0 20.667 -4.66699 36.334 -14 47.001s-26 19.334 -50 26.001zM574.999 1738v27.001h304v-27c-18.667 -2 -28 -8.33301 -28 -19c0 -4 1.33301 -9 4 -15l66 -163
c6 -14.667 12.333 -24.334 19 -29.001s18 -7 34 -7v-27h-217v27h5c13.333 0 20 5.33301 20 16c0 6 -2 11.333 -6 16l-142 173c-13.333 18 -33 27.333 -59 28z" />
    <glyph glyph-name="Uacute" unicode="&#xda;" horiz-adv-x="1671" 
d="M96 1333l-0.000976562 31.998h427v-32c-24 -6 -40.833 -14.5 -50.5 -25.5s-14.5 -26.833 -14.5 -47.5v-681c0 -78.667 4.33301 -136.834 13 -174.501s25 -69.167 49 -94.5c64 -68 173.333 -102 328 -102c155.333 0 265 34 329 102c23.333 25.333 39.333 56.833 48 94.5
s13 95.834 13 174.501v681c0 20.667 -4.66699 36.334 -14 47.001s-26 19.334 -50 26.001v32h402v-32c-24 -6.66699 -40.667 -15.334 -50 -26.001s-14 -26.334 -14 -47.001v-765c0 -144.667 -26.667 -253 -80 -325c-96 -129.333 -294.333 -194 -595 -194
c-217.333 0 -383.666 35 -498.999 105c-67.333 40.667 -114 96 -140 166c-25.333 69.333 -38 152 -38 248v765c0 20.667 -4.66699 36.334 -14 47.001s-26 19.334 -50 26.001zM710.999 1478v26.999c16 0 27.333 2.33301 34 7s13 14.334 19 29.001l66 163c2.66699 6 4 11 4 15
c0 10.667 -9.33301 17 -28 19v27h304v-27c-26 -0.666992 -45.667 -10 -59 -28l-142 -173c-4 -4.66699 -6 -10 -6 -16c0 -10.667 7 -16 21 -16h4v-27h-217z" />
    <glyph glyph-name="Ucircumflex" unicode="&#xdb;" horiz-adv-x="1671" 
d="M96 1333l-0.000976562 31.998h427v-32c-24 -6 -40.833 -14.5 -50.5 -25.5s-14.5 -26.833 -14.5 -47.5v-681c0 -78.667 4.33301 -136.834 13 -174.501s25 -69.167 49 -94.5c64 -68 173.333 -102 328 -102c155.333 0 265 34 329 102c23.333 25.333 39.333 56.833 48 94.5
s13 95.834 13 174.501v681c0 20.667 -4.66699 36.334 -14 47.001s-26 19.334 -50 26.001v32h402v-32c-24 -6.66699 -40.667 -15.334 -50 -26.001s-14 -26.334 -14 -47.001v-765c0 -144.667 -26.667 -253 -80 -325c-96 -129.333 -294.333 -194 -595 -194
c-217.333 0 -383.666 35 -498.999 105c-67.333 40.667 -114 96 -140 166c-25.333 69.333 -38 152 -38 248v765c0 20.667 -4.66699 36.334 -14 47.001s-26 19.334 -50 26.001zM503.999 1478l-0.000976562 26.999c16 0.666992 26.333 2.5 31 5.5s17.334 15.167 38.001 36.5
l134 149c7.33301 8 11 16.333 11 25c0 11.333 -11 17 -33 17v27h316v-27c-20 -2 -30 -8 -30 -18c0 -7.33301 5.33301 -16.666 16 -27.999l150 -167c10.667 -12.667 25.667 -19.334 45 -20.001v-27h-287v27c20.667 1.33301 31 6.33301 31 15
c0 2.66699 -5.33301 10.334 -16 23.001l-84 103l-92 -106c-6 -6 -9 -12 -9 -18c0 -10 9.66699 -15.667 29 -17v-27h-250z" />
    <glyph glyph-name="Udieresis" unicode="&#xdc;" horiz-adv-x="1671" 
d="M96 1333l-0.000976562 31.998h427v-32c-24 -6 -40.833 -14.5 -50.5 -25.5s-14.5 -26.833 -14.5 -47.5v-681c0 -78.667 4.33301 -136.834 13 -174.501s25 -69.167 49 -94.5c64 -68 173.333 -102 328 -102c155.333 0 265 34 329 102c23.333 25.333 39.333 56.833 48 94.5
s13 95.834 13 174.501v681c0 20.667 -4.66699 36.334 -14 47.001s-26 19.334 -50 26.001v32h402v-32c-24 -6.66699 -40.667 -15.334 -50 -26.001s-14 -26.334 -14 -47.001v-765c0 -144.667 -26.667 -253 -80 -325c-96 -129.333 -294.333 -194 -595 -194
c-217.333 0 -383.666 35 -498.999 105c-67.333 40.667 -114 96 -140 166c-25.333 69.333 -38 152 -38 248v765c0 20.667 -4.66699 36.334 -14 47.001s-26 19.334 -50 26.001zM513.999 1611c0 36 12.332 66.499 36.999 91.499s55 38.167 91 39.5
c38.667 0 70.334 -12.667 95.001 -38c25.333 -26 38 -58 38 -96c0 -34 -12.667 -63.667 -38 -89s-56.333 -38 -93 -38c-35.333 0 -66 12.667 -92 38c-25.333 24.667 -38 55.334 -38 92.001zM910.998 1612c0 35.333 12.5 65.667 37.5 91s55.833 38.333 92.5 39
c36.667 0 67.667 -12.667 93 -38c25.333 -26 38 -56 38 -90c0 -38 -12.667 -69.667 -38 -95s-57.333 -38 -96 -38c-34.667 0 -64.5 12.833 -89.5 38.5s-37.5 56.5 -37.5 92.5z" />
    <glyph glyph-name="Yacute" unicode="&#xdd;" horiz-adv-x="1460" 
d="M-27 1333v32h539v-32c-44.667 -7.33301 -67 -28 -67 -62c0 -12 13.667 -38.333 41 -79l246 -366l253 366c27.333 39.333 41 66 41 80c0 15.333 -6 28.5 -18 39.5s-28.333 18.167 -49 21.5v32h528v-32c-30 -4 -55.833 -15.167 -77.5 -33.5s-51.5 -54.166 -89.5 -107.499
l-441 -621v-466c0 -20.667 4.83301 -36.334 14.5 -47.001s26.5 -19.334 50.5 -26.001v-32h-429v32c24 6.66699 41 15.334 51 26.001s15 26.334 15 47.001v466l-441 621c-38 53.333 -67.833 89.166 -89.5 107.499s-47.5 29.5 -77.5 33.5zM599 1478v26.999
c16 0 27.333 2.33301 34 7s13 14.334 19 29.001l66 163c2.66699 6 4 11 4 15c0 10.667 -9.33301 17 -28 19v27h304v-27c-26 -0.666992 -45.667 -10 -59 -28l-142 -173c-4 -4.66699 -6 -10 -6 -16c0 -10.667 7 -16 21 -16h4v-27h-217z" />
    <glyph glyph-name="Thorn" unicode="&#xde;" horiz-adv-x="1465" 
d="M123 0l0.000976562 31.999c24 6.66699 40.667 15.334 50 26.001s14 26.334 14 47.001v1156c0 20 -4.66699 35.333 -14 46s-26 19.334 -50 26.001v32h426v-32c-24 -6 -40.667 -14.5 -50 -25.5s-14 -26.5 -14 -46.5v-100h388c99.333 0 178.166 -6.66699 236.499 -20
s109.5 -36.333 153.5 -69c46.667 -34 82.667 -79 108 -135c26 -56.667 39 -117.334 39 -182.001c0 -92.667 -24.667 -173.334 -74 -242.001c-42 -59.333 -98.333 -101.5 -169 -126.5s-168.667 -37.5 -294 -37.5h-388v-244c0 -20.667 4.83301 -36.5 14.5 -47.5
s26.167 -19.5 49.5 -25.5v-32h-426zM485.001 573.999l360 -0.00195312c90 0 153 9.66699 189 29c24 12.667 43 32.834 57 60.501s21 58.167 21 91.5s-7 63.833 -21 91.5s-33 47.834 -57 60.501c-35.333 19.333 -98.333 29 -189 29h-360v-362z" />
    <glyph glyph-name="germandbls" unicode="&#xdf;" horiz-adv-x="2522" 
d="M66 76l114.999 273.998l25 -10v-8c0 -17.333 6.66699 -32 20 -44c33.333 -29.333 91 -54.833 173 -76.5s163 -32.5 243 -32.5c70.667 0 134 9.33301 190 28c69.333 22.667 104 59.334 104 110.001c0 40.667 -24 69 -72 85c-32 10.667 -89.667 19.667 -173 27l-157 13
c-84.667 6.66699 -149.334 15.334 -194.001 26.001s-83.667 26.334 -117 47.001c-42.667 26.667 -76 63 -100 109s-36 96.333 -36 151c0 122.667 52.667 216.334 158 281.001c96 58.667 214.667 88 356 88c76.667 0 148.167 -8.5 214.5 -25.5s145.5 -46.833 237.5 -89.5
c27.333 -12.667 46.333 -19 57 -19s24.334 7.33301 41.001 22l24 -13l-135 -261l-24 13c0 22 -7 39.333 -21 52c-38 34 -94 62 -168 84s-149 33 -225 33c-64.667 0 -122 -9 -172 -27c-72 -26 -108 -63.667 -108 -113c0 -32.667 17.333 -55.834 52 -69.501
s101.667 -24.5 201 -32.5l158 -12c138 -10.667 243 -37.334 315 -80.001c40 -24 73 -56 99 -96c32.667 -50 49 -106.333 49 -169c0 -114 -51.333 -204 -154 -270c-98 -63.333 -230.667 -95 -398 -95c-168.667 0 -331.667 35.667 -489 107c-10.667 4.66699 -19.667 7 -27 7
c-13.333 0 -25.666 -8 -36.999 -24zM1327 75.998l115 273.998l26 -10c-0.666992 -4 -1 -6.66699 -1 -8c0 -17.333 6.66699 -32 20 -44c33.333 -29.333 91 -54.833 173 -76.5s163 -32.5 243 -32.5c70.667 0 134 9.33301 190 28c69.333 22.667 104 59.334 104 110.001
c0 40.667 -24 69 -72 85c-32 10.667 -89.667 19.667 -173 27l-157 13c-84.667 6.66699 -149.334 15.334 -194.001 26.001s-83.667 26.334 -117 47.001c-42.667 26.667 -76 63 -100 109s-36 96.333 -36 151c0 122.667 52.667 216.334 158 281.001
c96 58.667 214.667 88 356 88c76.667 0 148.167 -8.5 214.5 -25.5s145.5 -46.833 237.5 -89.5c27.333 -12.667 46.333 -19 57 -19s24.334 7.33301 41 22l25 -13l-136 -261l-24 13c0.666992 4.66699 1 8.33398 1 11.001c0 18 -13.333 36.667 -40 56
c-44.667 31.333 -100.667 56.166 -168 74.499s-136.333 27.5 -207 27.5c-64.667 0 -122 -9 -172 -27c-72 -26 -108 -63.667 -108 -113c0 -32.667 17.333 -55.834 52 -69.501s102 -24.5 202 -32.5l157 -12c138 -10.667 243.333 -37.334 316 -80.001c39.333 -24 72 -56 98 -96
c32.667 -50 49 -106.333 49 -169c0 -114 -51 -204 -153 -270c-98.667 -63.333 -231.334 -95 -398.001 -95c-169.333 0 -332.333 35.667 -489 107c-11.333 4.66699 -20.666 7 -27.999 7c-13.333 0 -25.666 -8 -36.999 -24z" />
    <glyph glyph-name="agrave" unicode="&#xe0;" horiz-adv-x="1421" 
d="M5 0l0.00292969 28.0039c25.333 4 44.166 11.667 56.499 23s26.833 33.666 43.5 66.999l409 828c15.333 31.333 23 58.666 23 81.999c0 27.333 -18.667 48.666 -56 63.999v28h435v-28c-36.667 -14.667 -55 -37.334 -55 -68.001c0 -22 8.33301 -49 25 -81l424 -803
c23.333 -44 41.666 -72.5 54.999 -85.5s33.666 -22.167 60.999 -27.5v-27h-457v27c43.333 7.33301 65 27.666 65 60.999c0 20.667 -8.33301 46.334 -25 77.001l-62 115h-515l-58 -122c-14 -29.333 -21 -52.333 -21 -69c0 -32 21.333 -52.333 64 -61v-28h-412zM413.003 1506
v27.001h304v-27c-18.667 -2 -28 -8.33301 -28 -19c0 -4 1.33301 -9 4 -15l66 -163c6 -14.667 12.333 -24.334 19 -29.001s18 -7 34 -7v-27h-217v27h5c13.333 0 20 5.33301 20 16c0 6 -2 11.333 -6 16l-142 174c-13.333 17.333 -33 26.333 -59 27zM509.003 437.005h357
l-183 359z" />
    <glyph glyph-name="aacute" unicode="&#xe1;" horiz-adv-x="1421" 
d="M5 0l0.00292969 28.0039c25.333 4 44.166 11.667 56.499 23s26.833 33.666 43.5 66.999l409 828c15.333 31.333 23 58.666 23 81.999c0 27.333 -18.667 48.666 -56 63.999v28h435v-28c-36.667 -14.667 -55 -37.334 -55 -68.001c0 -22 8.33301 -49 25 -81l424 -803
c23.333 -44 41.666 -72.5 54.999 -85.5s33.666 -22.167 60.999 -27.5v-27h-457v27c43.333 7.33301 65 27.666 65 60.999c0 20.667 -8.33301 46.334 -25 77.001l-62 115h-515l-58 -122c-14 -29.333 -21 -52.333 -21 -69c0 -32 21.333 -52.333 64 -61v-28h-412z
M509.003 437.004h357l-183 359zM581.003 1246v26.999c16 0 27.333 2.33301 34 7s13 14.334 19 29.001l66 163c2.66699 6 4 11 4 15c0 10.667 -9.33301 17 -28 19v27h304v-27c-26 -0.666992 -45.667 -9.66699 -59 -27l-142 -174c-4 -4.66699 -6 -10 -6 -16
c0 -10.667 7 -16 21 -16h4v-27h-217z" />
    <glyph glyph-name="acircumflex" unicode="&#xe2;" horiz-adv-x="1421" 
d="M5 0l0.00292969 28.0039c25.333 4 44.166 11.667 56.499 23s26.833 33.666 43.5 66.999l409 828c15.333 31.333 23 58.666 23 81.999c0 27.333 -18.667 48.666 -56 63.999v28h435v-28c-36.667 -14.667 -55 -37.334 -55 -68.001c0 -22 8.33301 -49 25 -81l424 -803
c23.333 -44 41.666 -72.5 54.999 -85.5s33.666 -22.167 60.999 -27.5v-27h-457v27c43.333 7.33301 65 27.666 65 60.999c0 20.667 -8.33301 46.334 -25 77.001l-62 115h-515l-58 -122c-14 -29.333 -21 -52.333 -21 -69c0 -32 21.333 -52.333 64 -61v-28h-412zM359.003 1246
l-0.000976562 26.999c16 0.666992 26.333 2.5 31 5.5s17.334 15.167 38.001 36.5l134 149c7.33301 8 11 16.333 11 25c0 11.333 -11 17 -33 17v27h316v-27c-20 -2 -30 -8 -30 -18c0 -7.33301 5.33301 -16.666 16 -27.999l150 -167c10.667 -12.667 25.667 -19.334 45 -20.001
v-27h-287v27c20.667 2 31 7 31 15c0 2.66699 -5.33301 10.334 -16 23.001l-84 103l-92 -106c-6 -6 -9 -12 -9 -18c0 -10 9.66699 -15.667 29 -17v-27h-250zM509.002 437.003h357l-183 359z" />
    <glyph glyph-name="atilde" unicode="&#xe3;" horiz-adv-x="1421" 
d="M5 0l0.00292969 28.0039c25.333 4 44.166 11.667 56.499 23s26.833 33.666 43.5 66.999l409 828c15.333 31.333 23 58.666 23 81.999c0 27.333 -18.667 48.666 -56 63.999v28h435v-28c-36.667 -14.667 -55 -37.334 -55 -68.001c0 -22 8.33301 -49 25 -81l424 -803
c23.333 -44 41.666 -72.5 54.999 -85.5s33.666 -22.167 60.999 -27.5v-27h-457v27c43.333 7.33301 65 27.666 65 60.999c0 20.667 -8.33301 46.334 -25 77.001l-62 115h-515l-58 -122c-14 -29.333 -21 -52.333 -21 -69c0 -32 21.333 -52.333 64 -61v-28h-412zM355.003 1389
l14.001 17c15.333 -5.33301 26.666 -8 33.999 -8c14 0 26.667 7.33301 38 22c41.333 53.333 92 80 152 80c22 0 43.667 -4.33301 65 -13l149 -58c18.667 -7.33301 35.667 -11 51 -11c13.333 0 26 5.33301 38 16s18 22 18 34c0 9.33301 -5.66699 20.333 -17 33l21 16
l145 -134l-16 -20c-19.333 6 -31.666 9 -36.999 9c-8.66699 0 -17.334 -5.66699 -26.001 -17c-44.667 -61.333 -92 -92 -142 -92c-26 0 -54.333 6 -85 18l-148 57c-13.333 4.66699 -28 7 -44 7c-13.333 0 -26.333 -5.5 -39 -16.5s-19 -22.167 -19 -33.5c0 -8 5 -18 15 -30
l-18 -15zM509.004 437.004h357l-183 359z" />
    <glyph glyph-name="adieresis" unicode="&#xe4;" horiz-adv-x="1421" 
d="M5 0l0.00292969 28.0039c25.333 4 44.166 11.667 56.499 23s26.833 33.666 43.5 66.999l409 828c15.333 31.333 23 58.666 23 81.999c0 27.333 -18.667 48.666 -56 63.999v28h435v-28c-36.667 -14.667 -55 -37.334 -55 -68.001c0 -22 8.33301 -49 25 -81l424 -803
c23.333 -44 41.666 -72.5 54.999 -85.5s33.666 -22.167 60.999 -27.5v-27h-457v27c43.333 7.33301 65 27.666 65 60.999c0 20.667 -8.33301 46.334 -25 77.001l-62 115h-515l-58 -122c-14 -29.333 -21 -52.333 -21 -69c0 -32 21.333 -52.333 64 -61v-28h-412zM373.003 1379
c0 36 12.333 66.499 37 91.499s55 38.167 91 39.5c38 0 69.667 -12.667 95 -38c25.333 -26 38 -57.667 38 -95c0 -34.667 -12.667 -64.667 -38 -90s-56.333 -38 -93 -38c-35.333 0 -66 12.667 -92 38c-25.333 24.667 -38 55.334 -38 92.001zM509.003 437.003h357l-183 359z
M770.003 1380c0 35.333 12.5 65.667 37.5 91s55.833 38.333 92.5 39c36.667 0 67.667 -12.667 93 -38c25.333 -26 38 -56 38 -90c0 -38 -12.667 -69.667 -38 -95s-57 -38 -95 -38c-35.333 0 -65.5 12.833 -90.5 38.5s-37.5 56.5 -37.5 92.5z" />
    <glyph glyph-name="aring" unicode="&#xe5;" horiz-adv-x="1421" 
d="M5 0l0.00292969 28.0039c25.333 4 44.166 11.667 56.499 23s26.833 33.666 43.5 66.999l409 828c15.333 31.333 23 58.666 23 81.999c0 27.333 -18.667 48.666 -56 63.999v28h435v-28c-36.667 -14.667 -55 -37.334 -55 -68.001c0 -22 8.33301 -49 25 -81l424 -803
c23.333 -44 41.666 -72.5 54.999 -85.5s33.666 -22.167 60.999 -27.5v-27h-457v27c43.333 7.33301 65 27.666 65 60.999c0 20.667 -8.33301 46.334 -25 77.001l-62 115h-515l-58 -122c-14 -29.333 -21 -52.333 -21 -69c0 -32 21.333 -52.333 64 -61v-28h-412zM473.003 1394
c0 52.667 21.832 96.8311 65.499 132.498s97.834 53.834 162.501 54.501c64.667 0 119 -18.333 163 -55c44.667 -37.333 67 -82 67 -134c0 -53.333 -22.333 -97.666 -67 -132.999c-46 -36 -100 -54 -162 -54c-63.333 0 -117.333 18.333 -162 55
c-44.667 37.333 -67 82 -67 134zM509.002 437.001h357l-183 359zM601.002 1393c0 -23.333 9.83301 -43.166 29.5 -59.499s43.5 -24.5 71.5 -24.5c27.333 0 51 8.16699 71 24.5s30 35.833 30 58.5c0 24.667 -9.33301 45 -28 61s-43 24 -73 24
c-29.333 0 -53.5 -7.83301 -72.5 -23.5s-28.5 -35.834 -28.5 -60.501z" />
    <glyph glyph-name="ae" unicode="&#xe6;" horiz-adv-x="2090" 
d="M58 0v27.001c26.667 4.66699 47 12.667 61 24s31 33.666 51 66.999l501 825c24 40 36 70.333 36 91c0 22.667 -18.667 42 -56 58v28h1250c21.333 0 37.5 4.66699 48.5 14s19.833 26 26.5 50h27v-332h-28c-6 24 -14.5 40.833 -25.5 50.5s-27.167 14.5 -48.5 14.5h-680
v-246h421c20.667 0 36.834 4.83301 48.501 14.5s20.5 26.167 26.5 49.5h27v-324h-27c-6.66699 24 -15.5 40.833 -26.5 50.5s-27.167 14.5 -48.5 14.5h-421v-273h711c20.667 0 36.5 4.83301 47.5 14.5s19.833 26.5 26.5 50.5h27v-332h-27
c-6.66699 23.333 -15.5 39.833 -26.5 49.5s-26.833 14.5 -47.5 14.5h-1043v28c41.333 9.33301 62.666 34 63.999 74v178h-406l-77 -127c-18.667 -30.667 -28 -53.667 -28 -69c0 -29.333 19 -48.333 57 -57v-27h-441zM644 437.001h309v480h-33z" />
    <glyph glyph-name="ccedilla" unicode="&#xe7;" horiz-adv-x="1427" 
d="M73 560c0 131.333 37.999 247.335 113.999 348.002c119.333 157.333 302.333 236 549 236c91.333 0 172.5 -10.333 243.5 -31s151.833 -57.667 242.5 -111c41.333 -24.667 67.666 -37 78.999 -37c9.33301 0 22 5.66699 38 17l23 -18l-169 -245l-22 16
c0.666992 8 1.33398 13 2.00098 15c0.666992 6 1 10.333 1 13c0 32.667 -45 69.667 -135 111c-85.333 39.333 -171.333 59 -258 59c-121.333 0 -221.333 -32 -300 -96c-90 -72 -135 -164.333 -135 -277c0 -113.333 45 -206 135 -278c79.333 -63.333 179.333 -95 300 -95
c94.667 0 189 23.667 283 71c73.333 37.333 110 70 110 98c0 1.33301 -1 10.666 -3 27.999l22 17l169 -246l-23 -17c-16 11.333 -28.667 17 -38 17c-11.333 0 -37.666 -12.333 -78.999 -37c-91.333 -53.333 -172 -90.333 -242 -111s-150.667 -31 -242 -31
c-182.667 0 -331.667 43.667 -447 131c-65.333 50 -117.333 112.667 -156 188c-41.333 81.333 -62 169.666 -62 264.999zM481.999 -391.998l23.001 47c36.667 -10.667 70.667 -16 102 -16c43.333 0 77.666 7.5 102.999 22.5s38 35.5 38 61.5c0 19.333 -7 35.833 -21 49.5
s-31 20.5 -51 20.5c-30 0 -55.333 -11.667 -76 -35l-30 18l53 99c8 14.667 13.667 23.167 17 25.5s10.333 3.5 21 3.5c84.667 0 150 -13.667 196 -41s69 -66 69 -116c0 -48 -19.667 -87.333 -59 -118c-42 -32.667 -103 -49 -183 -49c-78.667 0 -146 9.33301 -202 28z" />
    <glyph glyph-name="egrave" unicode="&#xe8;" horiz-adv-x="1314" 
d="M98 0v27.999c23.333 6 39.833 14.667 49.5 26s14.5 27.333 14.5 48v916c0 20.667 -4.66699 36.334 -14 47.001s-26 19.667 -50 27v28h1012c21.333 0 37.5 4.66699 48.5 14s19.833 26 26.5 50h27v-332h-27c-6.66699 24.667 -15.5 41.667 -26.5 51s-27.167 14 -48.5 14
h-680v-246h422c20.667 0 36.5 4.66699 47.5 14s20.167 26 27.5 50h27v-324h-27c-6.66699 24 -15.5 40.833 -26.5 50.5s-27.167 14.5 -48.5 14.5h-422v-273h711c20.667 0 36.5 4.66699 47.5 14s19.833 26.333 26.5 51h28v-332h-28c-6 23.333 -14.667 39.833 -26 49.5
s-27.333 14.5 -48 14.5h-1043zM403 1506v27.001h304v-27c-18.667 -2 -28 -8.33301 -28 -19c0 -4 1.33301 -9 4 -15l66 -163c6 -14.667 12.333 -24.334 19 -29.001s18 -7 34 -7v-27h-217v27h5c13.333 0 20 5.33301 20 16c0 6 -2 11.333 -6 16l-142 174
c-13.333 17.333 -33 26.333 -59 27z" />
    <glyph glyph-name="eacute" unicode="&#xe9;" horiz-adv-x="1314" 
d="M98 0v27.999c23.333 6 39.833 14.667 49.5 26s14.5 27.333 14.5 48v916c0 20.667 -4.66699 36.334 -14 47.001s-26 19.667 -50 27v28h1012c21.333 0 37.5 4.66699 48.5 14s19.833 26 26.5 50h27v-332h-27c-6.66699 24.667 -15.5 41.667 -26.5 51s-27.167 14 -48.5 14
h-680v-246h422c20.667 0 36.5 4.66699 47.5 14s20.167 26 27.5 50h27v-324h-27c-6.66699 24 -15.5 40.833 -26.5 50.5s-27.167 14.5 -48.5 14.5h-422v-273h711c20.667 0 36.5 4.66699 47.5 14s19.833 26.333 26.5 51h28v-332h-28c-6 23.333 -14.667 39.833 -26 49.5
s-27.333 14.5 -48 14.5h-1043zM546 1246v26.999c16 0 27.333 2.33301 34 7s13 14.334 19 29.001l66 163c2.66699 6 4 11 4 15c0 10.667 -9.33301 17 -28 19v27h304v-27c-26 -0.666992 -45.667 -9.66699 -59 -27l-142 -174c-4 -4.66699 -6 -10 -6 -16c0 -10.667 7 -16 21 -16
h4v-27h-217z" />
    <glyph glyph-name="ecircumflex" unicode="&#xea;" horiz-adv-x="1314" 
d="M98 0v27.999c23.333 6 39.833 14.667 49.5 26s14.5 27.333 14.5 48v916c0 20.667 -4.66699 36.334 -14 47.001s-26 19.667 -50 27v28h1012c21.333 0 37.5 4.66699 48.5 14s19.833 26 26.5 50h27v-332h-27c-6.66699 24.667 -15.5 41.667 -26.5 51s-27.167 14 -48.5 14
h-680v-246h422c20.667 0 36.5 4.66699 47.5 14s20.167 26 27.5 50h27v-324h-27c-6.66699 24 -15.5 40.833 -26.5 50.5s-27.167 14.5 -48.5 14.5h-422v-273h711c20.667 0 36.5 4.66699 47.5 14s19.833 26.333 26.5 51h28v-332h-28c-6 23.333 -14.667 39.833 -26 49.5
s-27.333 14.5 -48 14.5h-1043zM338 1246l-0.000976562 26.999c16 0.666992 26.333 2.5 31 5.5s17.334 15.167 38.001 36.5l134 149c7.33301 8 11 16.333 11 25c0 11.333 -11 17 -33 17v27h316v-27c-20 -2 -30 -8 -30 -18c0 -7.33301 5.33301 -16.666 16 -27.999l150 -167
c10.667 -12.667 25.667 -19.334 45 -20.001v-27h-287v27c20.667 2 31 7 31 15c0 2.66699 -5.33301 10.334 -16 23.001l-84 103l-92 -106c-6 -6 -9 -12 -9 -18c0 -10 9.66699 -15.667 29 -17v-27h-250z" />
    <glyph glyph-name="edieresis" unicode="&#xeb;" horiz-adv-x="1314" 
d="M98 0v27.999c23.333 6 39.833 14.667 49.5 26s14.5 27.333 14.5 48v916c0 20.667 -4.66699 36.334 -14 47.001s-26 19.667 -50 27v28h1012c21.333 0 37.5 4.66699 48.5 14s19.833 26 26.5 50h27v-332h-27c-6.66699 24.667 -15.5 41.667 -26.5 51s-27.167 14 -48.5 14
h-680v-246h422c20.667 0 36.5 4.66699 47.5 14s20.167 26 27.5 50h27v-324h-27c-6.66699 24 -15.5 40.833 -26.5 50.5s-27.167 14.5 -48.5 14.5h-422v-273h711c20.667 0 36.5 4.66699 47.5 14s19.833 26.333 26.5 51h28v-332h-28c-6 23.333 -14.667 39.833 -26 49.5
s-27.333 14.5 -48 14.5h-1043zM348 1379c0 36 12.333 66.499 37 91.499s55 38.167 91 39.5c38 0 69.667 -12.667 95 -38c25.333 -26 38 -57.667 38 -95c0 -34.667 -12.667 -64.667 -38 -90s-56.333 -38 -93 -38c-35.333 0 -66 12.667 -92 38
c-25.333 24.667 -38 55.334 -38 92.001zM745 1380c0 35.333 12.5 65.667 37.5 91s55.833 38.333 92.5 39c36.667 0 67.667 -12.667 93 -38c25.333 -26 38 -56 38 -90c0 -38 -12.667 -69.667 -38 -95s-57 -38 -95 -38c-35.333 0 -65.5 12.833 -90.5 38.5
s-37.5 56.5 -37.5 92.5z" />
    <glyph glyph-name="igrave" unicode="&#xec;" horiz-adv-x="593" 
d="M15 1506v27.001h304v-27c-18.667 -2 -28 -8.33301 -28 -19c0 -4 1.33301 -9 4 -15l66 -163c6 -14.667 12.333 -24.334 19 -29.001s18 -7 34 -7v-27h-217v27h5c13.333 0 20 5.33301 20 16c0 6 -2 11.333 -6 16l-142 174c-13.333 17.333 -33 26.333 -59 27zM99 0.000976562
v27.999c23.333 6 39.833 14.667 49.5 26s14.5 27.333 14.5 48v916c0 20.667 -4.66699 36.334 -14 47.001s-26 19.667 -50 27v28h396v-28c-24 -6.66699 -40.667 -15.5 -50 -26.5s-14 -26.833 -14 -47.5v-916c0 -20.667 4.66699 -36.5 14 -47.5s26 -20.167 50 -27.5v-27h-396z
" />
    <glyph glyph-name="iacute" unicode="&#xed;" horiz-adv-x="593" 
d="M98 0v27.999c23.333 6 39.833 14.667 49.5 26s14.5 27.333 14.5 48v916c0 20.667 -4.66699 36.334 -14 47.001s-26 19.667 -50 27v28h396v-28c-24 -6.66699 -40.667 -15.5 -50 -26.5s-14 -26.833 -14 -47.5v-916c0 -20.667 4.66699 -36.5 14 -47.5s26 -20.167 50 -27.5
v-27h-396zM178 1246v26.999c16 0 27.333 2.33301 34 7s13 14.334 19 29.001l66 163c2.66699 6 4 11 4 15c0 10.667 -9.33301 17 -28 19v27h304v-27c-26 -0.666992 -45.667 -9.66699 -59 -27l-142 -174c-4 -4.66699 -6 -10 -6 -16c0 -10.667 7 -16 21 -16h4v-27h-217z" />
    <glyph glyph-name="icircumflex" unicode="&#xee;" horiz-adv-x="592" 
d="M-22 1246v27c16 0.666992 28.333 3.66699 37 9s19.334 16.333 32.001 33l113 149c8 10 12 18.333 12 25c0 11.333 -11.333 17 -34 17v27h316v-27c-20 -2 -30 -8 -30 -18c0 -5.33301 5.33301 -14.666 16 -27.999l129 -167c10.667 -13.333 26 -20 46 -20v-27h-280v27
c21.333 2 31.666 7 30.999 15c0 4 -2.33301 8.33301 -7 13c-4.66699 5.33301 -7.66699 8.66602 -9 9.99902l-70 110l-80 -113c-5.33301 -8 -8 -14 -8 -18c0 -10 9.66699 -15.667 29 -17v-27h-243zM99 0v27.999c23.333 6 39.833 14.667 49.5 26s14.5 27.333 14.5 48v916
c0 20.667 -4.66699 36.334 -14 47.001s-26 19.667 -50 27v28h396v-28c-24 -6.66699 -40.667 -15.5 -50 -26.5s-14 -26.833 -14 -47.5v-916c0 -20.667 4.83301 -36.667 14.5 -48s26.167 -20.333 49.5 -27v-27h-396z" />
    <glyph glyph-name="idieresis" unicode="&#xef;" horiz-adv-x="593" 
d="M1 1379c0 36 12.333 66.499 37 91.499s55 38.167 91 39.5c38 0 69.667 -12.667 95 -38c25.333 -26 38 -57.667 38 -95c0 -34.667 -12.667 -64.667 -38 -90s-56.333 -38 -93 -38c-35.333 0 -66 12.667 -92 38c-25.333 24.667 -38 55.334 -38 92.001zM98 -0.000976562
v27.999c23.333 6 39.833 14.667 49.5 26s14.5 27.333 14.5 48v916c0 20.667 -4.66699 36.334 -14 47.001s-26 19.667 -50 27v28h396v-28c-24 -6.66699 -40.667 -15.5 -50 -26.5s-14 -26.833 -14 -47.5v-916c0 -20.667 4.66699 -36.5 14 -47.5s26 -20.167 50 -27.5v-27h-396z
M330 1380c0 35.333 12.5 65.667 37.5 91s55.833 38.333 92.5 39c36.667 0 67.667 -12.667 93 -38c25.333 -26 38 -56 38 -90c0 -38 -12.667 -69.667 -38 -95s-57.333 -38 -96 -38c-34.667 0 -64.5 12.833 -89.5 38.5s-37.5 56.5 -37.5 92.5z" />
    <glyph glyph-name="eth" unicode="&#xf0;" horiz-adv-x="1463" 
d="M27 438l-0.00195312 298.999h32c6 -23.333 14.5 -39.833 25.5 -49.5s26.5 -14.5 46.5 -14.5h53v345c0 20.667 -4.66699 36.334 -14 47.001s-26 19.667 -50 27v28h657c136.667 0 244.334 -17 323.001 -51c110.667 -48 190.334 -127.333 239.001 -238
c34 -78 51 -168.333 51 -271c0 -191.333 -57 -336.333 -171 -435c-51.333 -44 -111.833 -75.833 -181.5 -95.5s-156.5 -29.5 -260.5 -29.5h-657v28c23.333 6 39.833 14.667 49.5 26s14.5 27.333 14.5 48v400h-53c-20 0 -35.5 -4.83301 -46.5 -14.5
s-19.5 -26.167 -25.5 -49.5h-32zM451.998 202.999l286 -0.000976562c131.333 0 226.666 30 285.999 90c62 62.667 93 151.667 93 267c0 114.667 -31 203.334 -93 266.001c-30.667 32 -68.667 55.167 -114 69.5s-102.666 21.5 -171.999 21.5h-286v-244h209
c20.667 0 36.334 4.66699 47.001 14s19.334 26 26.001 50h32v-299h-32c-6.66699 24 -15.334 40.667 -26.001 50s-26.334 14 -47.001 14h-209v-299z" />
    <glyph glyph-name="ntilde" unicode="&#xf1;" horiz-adv-x="1523" 
d="M98 0v27.999c23.333 6 39.833 14.667 49.5 26s14.5 27.333 14.5 48v916c0 20.667 -4.66699 36.334 -14 47.001s-26 19.667 -50 27v28h430v-28c-29.333 -7.33301 -44 -20.333 -44 -39c0 -16 10.667 -34.667 32 -56l600 -596v617c0 20.667 -4.66699 36.5 -14 47.5
s-26 19.833 -50 26.5v28h372v-28c-24 -6.66699 -40.667 -15.5 -50 -26.5s-14 -26.833 -14 -47.5v-916c0 -20.667 4.66699 -36.5 14 -47.5s26 -20.167 50 -27.5v-27h-401v27c29.333 6 44 18.333 44 37c0 9.33301 -4 19 -12 29s-26.333 29.667 -55 59l-594 586v-636
c0 -20.667 4.83301 -36.667 14.5 -48s26.167 -20.333 49.5 -27v-27h-372zM421 1389l14.001 17c15.333 -5.33301 26.666 -8 33.999 -8c14 0 26.667 7.33301 38 22c41.333 53.333 92 80 152 80c22 0 43.667 -4.33301 65 -13l149 -58c18.667 -7.33301 35.667 -11 51 -11
c13.333 0 26 5.33301 38 16s18 22 18 34c0 9.33301 -5.66699 20.333 -17 33l21 16l145 -134l-16 -20c-19.333 6 -31.666 9 -36.999 9c-8.66699 0 -17.334 -5.66699 -26.001 -17c-44.667 -61.333 -92 -92 -142 -92c-26 0 -54.333 6 -85 18l-148 57
c-13.333 4.66699 -28 7 -44 7c-13.333 0 -26.333 -5.5 -39 -16.5s-19 -22.167 -19 -33.5c0 -8 5 -18 15 -30l-18 -15z" />
    <glyph glyph-name="ograve" unicode="&#xf2;" horiz-adv-x="1460" 
d="M73 560c0 191.333 71.333 340.666 214 447.999c118 88.667 265 134 441 136c178 0 326.333 -45.333 445 -136c142 -109.333 213 -261.666 213 -456.999c0 -183.333 -71 -329.666 -213 -438.999c-117.333 -90.667 -265 -136 -443 -136s-325.667 45.333 -443 136
c-142.667 109.333 -214 258.666 -214 447.999zM346 560c0 -104 33.666 -190.667 100.999 -260c72.667 -74.667 167 -112 283 -112c115.333 0 209.333 37.333 282 112c67.333 68.667 101 153.667 101 255c0 110 -33.667 198.667 -101 266
c-73.333 72.667 -167.666 109.667 -282.999 111c-115.333 0 -209.333 -37 -282 -111c-67.333 -69.333 -101 -156.333 -101 -261zM454.999 1506v27.001h304v-27c-18.667 -2 -28 -8.33301 -28 -19c0 -4 1.33301 -9 4 -15l66 -163c6 -14.667 12.333 -24.334 19 -29.001
s18 -7 34 -7v-27h-217v27h5c13.333 0 20 5.33301 20 16c0 6 -2 11.333 -6 16l-142 174c-13.333 17.333 -33 26.333 -59 27z" />
    <glyph glyph-name="oacute" unicode="&#xf3;" horiz-adv-x="1460" 
d="M73 560c0 191.333 71.333 340.666 214 447.999c118 88.667 265 134 441 136c178 0 326.333 -45.333 445 -136c142 -109.333 213 -261.666 213 -456.999c0 -183.333 -71 -329.666 -213 -438.999c-117.333 -90.667 -265 -136 -443 -136s-325.667 45.333 -443 136
c-142.667 109.333 -214 258.666 -214 447.999zM346 560c0 -104 33.666 -190.667 100.999 -260c72.667 -74.667 167 -112 283 -112c115.333 0 209.333 37.333 282 112c67.333 68.667 101 153.667 101 255c0 110 -33.667 198.667 -101 266
c-73.333 72.667 -167.666 109.667 -282.999 111c-115.333 0 -209.333 -37 -282 -111c-67.333 -69.333 -101 -156.333 -101 -261zM618.999 1246v26.999c16 0 27.333 2.33301 34 7s13 14.334 19 29.001l66 163c2.66699 6 4 11 4 15c0 10.667 -9.33301 17 -28 19v27h304v-27
c-26 -0.666992 -45.667 -9.66699 -59 -27l-142 -174c-4 -4.66699 -6 -10 -6 -16c0 -10.667 7 -16 21 -16h4v-27h-217z" />
    <glyph glyph-name="ocircumflex" unicode="&#xf4;" horiz-adv-x="1460" 
d="M73 560c0 191.333 71.333 340.666 214 447.999c118 88.667 265 134 441 136c178 0 326.333 -45.333 445 -136c142 -109.333 213 -261.666 213 -456.999c0 -183.333 -71 -329.666 -213 -438.999c-117.333 -90.667 -265 -136 -443 -136s-325.667 45.333 -443 136
c-142.667 109.333 -214 258.666 -214 447.999zM346 560c0 -104 33.666 -190.667 100.999 -260c72.667 -74.667 167 -112 283 -112c115.333 0 209.333 37.333 282 112c67.333 68.667 101 153.667 101 255c0 110 -33.667 198.667 -101 266
c-73.333 72.667 -167.666 109.667 -282.999 111c-115.333 0 -209.333 -37 -282 -111c-67.333 -69.333 -101 -156.333 -101 -261zM396.999 1246l-0.000976562 26.999c16 0.666992 26.333 2.5 31 5.5s17.334 15.167 38.001 36.5l134 149c7.33301 8 11 16.333 11 25
c0 11.333 -11 17 -33 17v27h316v-27c-20 -2 -30 -8 -30 -18c0 -7.33301 5.33301 -16.666 16 -27.999l150 -167c10.667 -12.667 25.667 -19.334 45 -20.001v-27h-287v27c20.667 2 31 7 31 15c0 2.66699 -5.33301 10.334 -16 23.001l-84 103l-92 -106c-6 -6 -9 -12 -9 -18
c0 -10 9.66699 -15.667 29 -17v-27h-250z" />
    <glyph glyph-name="otilde" unicode="&#xf5;" horiz-adv-x="1460" 
d="M73 560c0 191.333 71.333 340.666 214 447.999c118 88.667 265 134 441 136c178 0 326.333 -45.333 445 -136c142 -109.333 213 -261.666 213 -456.999c0 -183.333 -71 -329.666 -213 -438.999c-117.333 -90.667 -265 -136 -443 -136s-325.667 45.333 -443 136
c-142.667 109.333 -214 258.666 -214 447.999zM346 560c0 -104 33.666 -190.667 100.999 -260c72.667 -74.667 167 -112 283 -112c115.333 0 209.333 37.333 282 112c67.333 68.667 101 153.667 101 255c0 110 -33.667 198.667 -101 266
c-73.333 72.667 -167.666 109.667 -282.999 111c-115.333 0 -209.333 -37 -282 -111c-67.333 -69.333 -101 -156.333 -101 -261zM388.999 1389l14.001 17c15.333 -5.33301 26.666 -8 33.999 -8c14 0 26.667 7.33301 38 22c41.333 53.333 92 80 152 80
c22 0 43.667 -4.33301 65 -13l149 -58c18.667 -7.33301 35.667 -11 51 -11c13.333 0 26 5.33301 38 16s18 22 18 34c0 9.33301 -5.66699 20.333 -17 33l21 16l145 -134l-16 -20c-19.333 6 -31.666 9 -36.999 9c-8.66699 0 -17.334 -5.66699 -26.001 -17
c-44.667 -61.333 -92 -92 -142 -92c-26 0 -54.333 6 -85 18l-148 57c-13.333 4.66699 -28 7 -44 7c-13.333 0 -26.333 -5.5 -39 -16.5s-19 -22.167 -19 -33.5c0 -8 5 -18 15 -30l-18 -15z" />
    <glyph glyph-name="odieresis" unicode="&#xf6;" horiz-adv-x="1460" 
d="M73 560c0 191.333 71.333 340.666 214 447.999c118 88.667 265 134 441 136c178 0 326.333 -45.333 445 -136c142 -109.333 213 -261.666 213 -456.999c0 -183.333 -71 -329.666 -213 -438.999c-117.333 -90.667 -265 -136 -443 -136s-325.667 45.333 -443 136
c-142.667 109.333 -214 258.666 -214 447.999zM346 560c0 -104 33.666 -190.667 100.999 -260c72.667 -74.667 167 -112 283 -112c115.333 0 209.333 37.333 282 112c67.333 68.667 101 153.667 101 255c0 110 -33.667 198.667 -101 266
c-73.333 72.667 -167.666 109.667 -282.999 111c-115.333 0 -209.333 -37 -282 -111c-67.333 -69.333 -101 -156.333 -101 -261zM407.999 1379c0 36 12.333 66.499 37 91.499s55 38.167 91 39.5c38 0 69.667 -12.667 95 -38c25.333 -26 38 -57.667 38 -95
c0 -34.667 -12.667 -64.667 -38 -90s-56.333 -38 -93 -38c-35.333 0 -66 12.667 -92 38c-25.333 24.667 -38 55.334 -38 92.001zM804.999 1380c0 35.333 12.5 65.667 37.5 91s55.833 38.333 92.5 39c36.667 0 67.667 -12.667 93 -38c25.333 -26 38 -56 38 -90
c0 -38 -12.667 -69.667 -38 -95s-57 -38 -95 -38c-35.333 0 -65.5 12.833 -90.5 38.5s-37.5 56.5 -37.5 92.5z" />
    <glyph glyph-name="divide" unicode="&#xf7;" horiz-adv-x="1570" 
d="M234 521v324h30c5.33301 -24 13 -40.667 23 -50s24.333 -14 43 -14h910c18.667 0 32.834 4.66699 42.501 14s17.5 26 23.5 50h30v-324h-30c-6 24 -13.833 40.667 -23.5 50s-23.834 14 -42.501 14h-910c-19.333 0 -33.833 -4.66699 -43.5 -14s-17.5 -26 -23.5 -50h-29z
M621 264c0 44.667 15.833 82.833 47.5 114.5s70.5 47.834 116.5 48.501c46 0 84.833 -16 116.5 -48s47.5 -71 47.5 -117c0 -44.667 -16.167 -83 -48.5 -115s-70.833 -48 -115.5 -48c-45.333 0 -84 16.167 -116 48.5s-48 71.166 -48 116.499zM621 1104
c0 44.667 15.833 82.833 47.5 114.5s70.5 47.834 116.5 48.501c46 0 84.833 -16 116.5 -48s47.5 -71 47.5 -117c0 -44.667 -16.167 -83 -48.5 -115s-70.833 -48 -115.5 -48c-45.333 0 -84 16.167 -116 48.5s-48 71.166 -48 116.499z" />
    <glyph glyph-name="oslash" unicode="&#xf8;" horiz-adv-x="1460" 
d="M73 559c0 189.333 71.333 339 214 449c117.333 90.667 265.666 136 444.999 136c99.333 0 198 -18 296 -54l17 24c11.333 15.333 17 30.666 17 45.999c0 12.667 -5.66699 24.5 -17 35.5s-25.666 18.5 -42.999 22.5v24h368v-24c-32.667 0 -58 -7.16699 -76 -21.5
s-48.667 -51.5 -92 -111.5l-47 -64c154 -107.333 231 -261.333 231 -462c0 -188.667 -71 -337.667 -213 -447c-117.333 -90.667 -265.333 -136 -444 -136c-98 0 -195 17 -291 51l-16 -21c-16 -22 -24 -39.333 -24 -52c0 -28 20 -46 60 -54v-23h-368v23
c34 9.33301 61.167 22.833 81.5 40.5s49.5 51.834 87.5 102.501l42 58c-56 46 -99.333 90.333 -130 133c-65.333 90.667 -98 199 -98 325zM346 561c0 -100.667 33.667 -187.667 101 -261l443 602c-47.333 20.667 -98 31 -152 31c-121.333 0 -218.333 -37 -291 -111
c-67.333 -70 -101 -157 -101 -261zM574 217c52.667 -19.333 103.667 -29.001 153 -29.001c118 0 213 37.333 285 112c67.333 68.667 101 155.334 101 260.001c0 102 -33.667 189.333 -101 262z" />
    <glyph glyph-name="ugrave" unicode="&#xf9;" horiz-adv-x="1414" 
d="M76 1092l-0.000976562 27.998h397v-28c-24.667 -6.66699 -41.667 -15.5 -51 -26.5s-14 -26.833 -14 -47.5v-539c0 -62.667 5.5 -110.667 16.5 -144s30.167 -60.666 57.5 -81.999c54.667 -43.333 133.667 -65 237 -65s182.333 21.667 237 65
c26.667 21.333 45.334 48.666 56.001 81.999s16 81.333 16 144v539c0 20.667 -4.5 36.334 -13.5 47.001s-25.833 19.667 -50.5 27v28h373v-28c-24 -6.66699 -40.667 -15.5 -50 -26.5s-14 -26.833 -14 -47.5v-593c0 -135.333 -26.667 -234.666 -80 -297.999
c-86 -100.667 -248 -151 -486 -151c-159.333 0 -288 24.333 -386 73c-70.667 35.333 -119 85.666 -145 150.999c-24 60 -36 135 -36 225v593c0 20.667 -4.66699 36.334 -14 47.001s-26 19.667 -50 27zM438.999 1506v27.001h304v-27c-18.667 -2 -28 -8.33301 -28 -19
c0 -4 1.33301 -9 4 -15l66 -163c6 -14.667 12.333 -24.334 19 -29.001s18 -7 34 -7v-27h-217v27h5c13.333 0 20 5.33301 20 16c0 6 -2 11.333 -6 16l-142 174c-13.333 17.333 -33 26.333 -59 27z" />
    <glyph glyph-name="uacute" unicode="&#xfa;" horiz-adv-x="1414" 
d="M76 1092l-0.000976562 27.998h397v-28c-24.667 -6.66699 -41.667 -15.5 -51 -26.5s-14 -26.833 -14 -47.5v-539c0 -62.667 5.5 -110.667 16.5 -144s30.167 -60.666 57.5 -81.999c54.667 -43.333 133.667 -65 237 -65s182.333 21.667 237 65
c26.667 21.333 45.334 48.666 56.001 81.999s16 81.333 16 144v539c0 20.667 -4.5 36.334 -13.5 47.001s-25.833 19.667 -50.5 27v28h373v-28c-24 -6.66699 -40.667 -15.5 -50 -26.5s-14 -26.833 -14 -47.5v-593c0 -135.333 -26.667 -234.666 -80 -297.999
c-86 -100.667 -248 -151 -486 -151c-159.333 0 -288 24.333 -386 73c-70.667 35.333 -119 85.666 -145 150.999c-24 60 -36 135 -36 225v593c0 20.667 -4.66699 36.334 -14 47.001s-26 19.667 -50 27zM581.999 1246v26.999c16 0 27.333 2.33301 34 7s13 14.334 19 29.001
l66 163c2.66699 6 4 11 4 15c0 10.667 -9.33301 17 -28 19v27h304v-27c-26 -0.666992 -45.667 -9.66699 -59 -27l-142 -174c-4 -4.66699 -6 -10 -6 -16c0 -10.667 7 -16 21 -16h4v-27h-217z" />
    <glyph glyph-name="ucircumflex" unicode="&#xfb;" horiz-adv-x="1414" 
d="M76 1092l-0.000976562 27.998h397v-28c-24.667 -6.66699 -41.667 -15.5 -51 -26.5s-14 -26.833 -14 -47.5v-539c0 -62.667 5.5 -110.667 16.5 -144s30.167 -60.666 57.5 -81.999c54.667 -43.333 133.667 -65 237 -65s182.333 21.667 237 65
c26.667 21.333 45.334 48.666 56.001 81.999s16 81.333 16 144v539c0 20.667 -4.5 36.334 -13.5 47.001s-25.833 19.667 -50.5 27v28h373v-28c-24 -6.66699 -40.667 -15.5 -50 -26.5s-14 -26.833 -14 -47.5v-593c0 -135.333 -26.667 -234.666 -80 -297.999
c-86 -100.667 -248 -151 -486 -151c-159.333 0 -288 24.333 -386 73c-70.667 35.333 -119 85.666 -145 150.999c-24 60 -36 135 -36 225v593c0 20.667 -4.66699 36.334 -14 47.001s-26 19.667 -50 27zM373.999 1246l-0.000976562 26.999c16 0.666992 26.333 2.5 31 5.5
s17.334 15.167 38.001 36.5l134 149c7.33301 8 11 16.333 11 25c0 11.333 -11 17 -33 17v27h316v-27c-20 -2 -30 -8 -30 -18c0 -7.33301 5.33301 -16.666 16 -27.999l150 -167c10.667 -12.667 25.667 -19.334 45 -20.001v-27h-287v27c20.667 2 31 7 31 15
c0 2.66699 -5.33301 10.334 -16 23.001l-84 103l-92 -106c-6 -6 -9 -12 -9 -18c0 -10 9.66699 -15.667 29 -17v-27h-250z" />
    <glyph glyph-name="udieresis" unicode="&#xfc;" horiz-adv-x="1414" 
d="M76 1092l-0.000976562 27.998h397v-28c-24.667 -6.66699 -41.667 -15.5 -51 -26.5s-14 -26.833 -14 -47.5v-539c0 -62.667 5.5 -110.667 16.5 -144s30.167 -60.666 57.5 -81.999c54.667 -43.333 133.667 -65 237 -65s182.333 21.667 237 65
c26.667 21.333 45.334 48.666 56.001 81.999s16 81.333 16 144v539c0 20.667 -4.5 36.334 -13.5 47.001s-25.833 19.667 -50.5 27v28h373v-28c-24 -6.66699 -40.667 -15.5 -50 -26.5s-14 -26.833 -14 -47.5v-593c0 -135.333 -26.667 -234.666 -80 -297.999
c-86 -100.667 -248 -151 -486 -151c-159.333 0 -288 24.333 -386 73c-70.667 35.333 -119 85.666 -145 150.999c-24 60 -36 135 -36 225v593c0 20.667 -4.66699 36.334 -14 47.001s-26 19.667 -50 27zM383.999 1379c0 36 12.333 66.499 37 91.499s55 38.167 91 39.5
c38 0 69.667 -12.667 95 -38c25.333 -26 38 -57.667 38 -95c0 -34.667 -12.667 -64.667 -38 -90s-56.333 -38 -93 -38c-35.333 0 -66 12.667 -92 38c-25.333 24.667 -38 55.334 -38 92.001zM780.999 1380c0 35.333 12.5 65.667 37.5 91s55.833 38.333 92.5 39
c36.667 0 67.667 -12.667 93 -38c25.333 -26 38 -56 38 -90c0 -38 -12.667 -69.667 -38 -95s-57 -38 -95 -38c-35.333 0 -65.5 12.833 -90.5 38.5s-37.5 56.5 -37.5 92.5z" />
    <glyph glyph-name="yacute" unicode="&#xfd;" horiz-adv-x="1226" 
d="M-22 1092l-0.00195312 27.998h504v-28c-43.333 -11.333 -65 -31.666 -65 -60.999c0 -14.667 15.667 -44 47 -88l163 -226l159 226c31.333 44.667 47 74.334 47 89.001c0 28 -21.333 48 -64 60l-1 28h480v-28c-30.667 -6.66699 -57.167 -19.5 -79.5 -38.5
s-52.166 -54.167 -89.499 -105.5l-332 -457v-389c0 -20.667 4.66699 -36.5 14 -47.5s26 -20.167 50 -27.5v-27h-396v27c24 6.66699 40.667 15.5 50 26.5s14 27.167 14 48.5v389l-332 457c-37.333 51.333 -67.166 86.5 -89.499 105.5s-48.833 31.833 -79.5 38.5z
M494.998 1246v26.999c16 0 27.333 2.33301 34 7s13 14.334 19 29.001l66 163c2.66699 6 4 11 4 15c0 10.667 -9.33301 17 -28 19v27h304v-27c-26 -0.666992 -45.667 -9.66699 -59 -27l-142 -174c-4 -4.66699 -6 -10 -6 -16c0 -10.667 7 -16 21 -16h4v-27h-217z" />
    <glyph glyph-name="thorn" unicode="&#xfe;" horiz-adv-x="1239" 
d="M98 0l0.000976562 27.998c23.333 6 39.833 14.667 49.5 26s14.5 27.333 14.5 48v916c0 20.667 -4.66699 36.334 -14 47.001s-26 19.667 -50 27v28h396v-28c-24 -6.66699 -40.667 -15.5 -50 -26.5s-14 -26.833 -14 -47.5v-76h295c145.333 0 254.666 -21.667 327.999 -65
c42.667 -25.333 76 -61.333 100 -108s36 -99 36 -157c0 -111.333 -38.167 -194.166 -114.5 -248.499s-192.833 -81.5 -349.5 -81.5h-295v-180c0 -20.667 4.66699 -36.5 14 -47.5s26 -20.167 50 -27.5v-27h-396zM430.001 484.998h286c70.667 0 119.667 6.66699 147 20
c40 20 60 55.667 60 107c0 52 -20 87.667 -60 107c-26.667 13.333 -75.667 20 -147 20h-286v-254z" />
    <glyph glyph-name="ydieresis" unicode="&#xff;" horiz-adv-x="1226" 
d="M-22 1092l-0.00195312 27.998h504v-28c-43.333 -11.333 -65 -31.666 -65 -60.999c0 -14.667 15.667 -44 47 -88l163 -226l159 226c31.333 44.667 47 74.334 47 89.001c0 28 -21.333 48 -64 60l-1 28h480v-28c-30.667 -6.66699 -57.167 -19.5 -79.5 -38.5
s-52.166 -54.167 -89.499 -105.5l-332 -457v-389c0 -20.667 4.66699 -36.5 14 -47.5s26 -20.167 50 -27.5v-27h-396v27c24 6.66699 40.667 15.5 50 26.5s14 27.167 14 48.5v389l-332 457c-37.333 51.333 -67.166 86.5 -89.499 105.5s-48.833 31.833 -79.5 38.5z
M283.998 1379c0 36 12.333 66.499 37 91.499s55 38.167 91 39.5c38 0 69.667 -12.667 95 -38c25.333 -26 38 -57.667 38 -95c0 -34.667 -12.667 -64.667 -38 -90s-56.333 -38 -93 -38c-35.333 0 -66 12.667 -92 38c-25.333 24.667 -38 55.334 -38 92.001zM680.998 1380
c0 35.333 12.5 65.667 37.5 91s55.833 38.333 92.5 39c36.667 0 67.667 -12.667 93 -38c25.333 -26 38 -56 38 -90c0 -38 -12.667 -69.667 -38 -95s-57 -38 -95 -38c-35.333 0 -65.5 12.833 -90.5 38.5s-37.5 56.5 -37.5 92.5z" />
    <glyph glyph-name="OE" unicode="&#x152;" horiz-adv-x="2435" 
d="M91 682c0 133.333 35.334 255.665 106.001 366.998c80.667 126.667 198.667 217.334 354 272.001c97.333 34.667 201.666 52 312.999 52l202 -8h1152c20 0 35.333 4.66699 46 14s19.334 26.333 26 51h32v-353h-32c-6.66699 24 -15.167 40.5 -25.5 49.5
s-25.833 13.5 -46.5 13.5h-854v-324h553c20.667 0 36.334 4.66699 47.001 14s19.334 26 26.001 50h32v-345h-32c-6.66699 24 -15.334 40.667 -26.001 50s-26.334 14 -47.001 14h-553v-374h878c20.667 0 36.167 4.66699 46.5 14s18.833 26 25.5 50h32v-353h-32
c-6.66699 24 -15.167 40.667 -25.5 50s-25.833 14 -46.5 14h-1176c-6 0 -23.667 -0.666992 -53 -2c-78 -4 -130.333 -6 -157 -6c-221.333 0 -402.666 63 -543.999 189c-74.667 66.667 -131.334 147 -170.001 241c-34 82.667 -51 169.334 -51 260.001zM395.001 681.999
c0 -141.333 43.998 -255 131.998 -341c87.333 -84.667 210.333 -127 369 -127c48.667 0 105.334 3.66699 170.001 11v915c-59.333 7.33301 -114.666 11 -165.999 11c-162.667 0 -287 -42.333 -373 -127c-88 -86.667 -132 -200.667 -132 -342z" />
    <glyph glyph-name="oe" unicode="&#x153;" horiz-adv-x="2007" 
d="M57 560c0 126 39.667 239.667 119 341c65.333 84 152.333 145 261 183c82 29.333 170 44 264 44l166 -8h954c21.333 0 37.5 4.66699 48.5 14s19.833 26 26.5 50h27v-332h-27c-7.33301 24.667 -16.333 41.667 -27 51s-26.667 14 -48 14h-683v-246h421
c21.333 0 37.5 4.66699 48.5 14s19.833 26 26.5 50h27v-324h-27c-6.66699 24 -15.5 40.833 -26.5 50.5s-27.167 14.5 -48.5 14.5h-421v-273h710c21.333 0 37.333 4.66699 48 14s19.667 26.333 27 51h27v-332h-27c-6.66699 24 -15.5 40.667 -26.5 50s-27.167 14 -48.5 14
h-981c-12.667 -0 -43.334 -1.66699 -92.001 -5c-24.667 -2 -49.667 -3 -75 -3c-171.333 0 -312.666 42.333 -423.999 127c-63.333 48 -114 107.667 -152 179c-44.667 82.667 -67 170 -67 262zM330 560c0 -112.667 39.334 -204.333 118.001 -275c68.667 -62 162 -93 280 -93
c46.667 0 94 3.66699 142 11v714c-46.667 7.33301 -93.334 11 -140.001 11c-119.333 0 -213.333 -31 -282 -93c-78.667 -71.333 -118 -163 -118 -275z" />
    <glyph glyph-name="Ydieresis" unicode="&#x178;" horiz-adv-x="1460" 
d="M-27 1333v32h539v-32c-44.667 -7.33301 -67 -28 -67 -62c0 -12 13.667 -38.333 41 -79l246 -366l253 366c27.333 39.333 41 66 41 80c0 15.333 -6 28.5 -18 39.5s-28.333 18.167 -49 21.5v32h528v-32c-30 -4 -55.833 -15.167 -77.5 -33.5s-51.5 -54.166 -89.5 -107.499
l-441 -621v-466c0 -20.667 4.83301 -36.334 14.5 -47.001s26.5 -19.334 50.5 -26.001v-32h-429v32c24 6.66699 41 15.334 51 26.001s15 26.334 15 47.001v466l-441 621c-38 53.333 -67.833 89.166 -89.5 107.499s-47.5 29.5 -77.5 33.5zM400 1611
c0 36 12.332 66.499 36.999 91.499s55.334 38.167 92.001 39.5c38 0 69.333 -12.667 94 -38c25.333 -26 38 -58 38 -96c0 -34 -12.667 -63.667 -38 -89s-56.333 -38 -93 -38c-35.333 0 -66 12.667 -92 38c-25.333 24.667 -38 55.334 -38 92.001zM797.999 1612
c0 36 12.5 66.5 37.5 91.5s55.833 37.833 92.5 38.5c36.667 0 67.667 -12.667 93 -38c25.333 -26 38 -56 38 -90c0 -38 -12.667 -69.667 -38 -95s-57 -38 -95 -38c-35.333 0 -65.5 12.833 -90.5 38.5s-37.5 56.5 -37.5 92.5z" />
    <glyph glyph-name="circumflex" unicode="&#x2c6;" horiz-adv-x="1024" 
d="M173 1246l-0.000976562 26.999c16 0.666992 26.333 2.5 31 5.5s17.334 15.167 38.001 36.5l134 149c7.33301 8 11 16.333 11 25c0 11.333 -11 17 -33 17v27h316v-27c-20 -2 -30 -8 -30 -18c0 -7.33301 5.33301 -16.666 16 -27.999l150 -167
c10.667 -12.667 25.667 -19.334 45 -20.001v-27h-287v27c20.667 2 31 7 31 15c0 2.66699 -5.33301 10.334 -16 23.001l-84 103l-92 -106c-6 -6 -9 -12 -9 -18c0 -10 9.66699 -15.667 29 -17v-27h-250z" />
    <glyph glyph-name="tilde" unicode="&#x2dc;" horiz-adv-x="1024" 
d="M158 1389l14.001 17c15.333 -5.33301 26.666 -8 33.999 -8c14 0 26.667 7.33301 38 22c41.333 53.333 92 80 152 80c22 0 43.667 -4.33301 65 -13l149 -58c18.667 -7.33301 35.667 -11 51 -11c13.333 0 26 5.33301 38 16s18 22 18 34c0 9.33301 -5.66699 20.333 -17 33
l21 16l145 -134l-16 -20c-19.333 6 -31.666 9 -36.999 9c-8.66699 0 -17.334 -5.66699 -26.001 -17c-44.667 -61.333 -92 -92 -142 -92c-26 0 -54.333 6 -85 18l-148 57c-13.333 4.66699 -28 7 -44 7c-13.333 0 -26.333 -5.5 -39 -16.5s-19 -22.167 -19 -33.5
c0 -8 5 -18 15 -30l-18 -15z" />
    <glyph glyph-name="uni2000" unicode="&#x2000;" horiz-adv-x="906" 
 />
    <glyph glyph-name="uni2001" unicode="&#x2001;" horiz-adv-x="1813" 
 />
    <glyph glyph-name="uni2002" unicode="&#x2002;" horiz-adv-x="906" 
 />
    <glyph glyph-name="uni2003" unicode="&#x2003;" horiz-adv-x="1813" 
 />
    <glyph glyph-name="uni2004" unicode="&#x2004;" horiz-adv-x="604" 
 />
    <glyph glyph-name="uni2005" unicode="&#x2005;" horiz-adv-x="453" 
 />
    <glyph glyph-name="uni2006" unicode="&#x2006;" horiz-adv-x="302" 
 />
    <glyph glyph-name="uni2007" unicode="&#x2007;" horiz-adv-x="302" 
 />
    <glyph glyph-name="uni2008" unicode="&#x2008;" horiz-adv-x="226" 
 />
    <glyph glyph-name="uni2009" unicode="&#x2009;" horiz-adv-x="362" 
 />
    <glyph glyph-name="uni200A" unicode="&#x200a;" horiz-adv-x="100" 
 />
    <glyph glyph-name="uni2010" unicode="&#x2010;" horiz-adv-x="455" 
d="M0 387v346h32c6 -24 14.5 -40.833 25.5 -50.5s26.5 -14.5 46.5 -14.5h246c20.667 0 36.334 4.66699 47.001 14s19.334 26.333 26.001 51h32v-346h-32c-6.66699 24 -15.334 40.667 -26.001 50s-26.334 14 -47.001 14h-246c-20 0 -35.5 -4.83301 -46.5 -14.5
s-19.5 -26.167 -25.5 -49.5h-32z" />
    <glyph glyph-name="uni2011" unicode="&#x2011;" horiz-adv-x="455" 
d="M0 387v346h32c6 -24 14.5 -40.833 25.5 -50.5s26.5 -14.5 46.5 -14.5h246c20.667 0 36.334 4.66699 47.001 14s19.334 26.333 26.001 51h32v-346h-32c-6.66699 24 -15.334 40.667 -26.001 50s-26.334 14 -47.001 14h-246c-20 0 -35.5 -4.83301 -46.5 -14.5
s-19.5 -26.167 -25.5 -49.5h-32z" />
    <glyph glyph-name="figuredash" unicode="&#x2012;" horiz-adv-x="455" 
d="M0 387v346h32c6 -24 14.5 -40.833 25.5 -50.5s26.5 -14.5 46.5 -14.5h246c20.667 0 36.334 4.66699 47.001 14s19.334 26.333 26.001 51h32v-346h-32c-6.66699 24 -15.334 40.667 -26.001 50s-26.334 14 -47.001 14h-246c-20 0 -35.5 -4.83301 -46.5 -14.5
s-19.5 -26.167 -25.5 -49.5h-32z" />
    <glyph glyph-name="endash" unicode="&#x2013;" horiz-adv-x="1577" 
d="M87 390v340h32c6.66699 -24 15.334 -40.667 26.001 -50s26.334 -14 47.001 -14h1193c20 0 35.5 4.66699 46.5 14s19.5 26 25.5 50h32v-340h-32c-6 23.333 -14.5 39.833 -25.5 49.5s-26.5 14.5 -46.5 14.5h-1193c-20.667 0 -36.334 -4.66699 -47.001 -14
s-19.334 -26 -26.001 -50h-32z" />
    <glyph glyph-name="emdash" unicode="&#x2014;" horiz-adv-x="1361" 
d="M0 390v340h32c6.66699 -24 15.334 -40.667 26.001 -50s26.334 -14 47.001 -14h1152c20 0 35.333 4.66699 46 14s19.334 26 26.001 50h32v-340h-32c-6.66699 23.333 -15.334 39.833 -26.001 49.5s-26 14.5 -46 14.5h-1152c-20.667 0 -36.334 -4.66699 -47.001 -14
s-19.334 -26 -26.001 -50h-32z" />
    <glyph glyph-name="quoteleft" unicode="&#x2018;" horiz-adv-x="628" 
d="M150 1006c0 146 77.332 273.666 231.999 382.999l48 -64c-54 -36 -93.167 -71 -117.5 -105s-41.166 -78 -50.499 -132c30.667 8 54 12 70 12c44 0 79.333 -15.333 106 -46s40 -70.667 40 -120s-13.5 -88.666 -40.5 -117.999s-62.833 -44 -107.5 -44
c-60 0 -106 24.667 -138 74c-28 44 -42 97.333 -42 160z" />
    <glyph glyph-name="quoteright" unicode="&#x2019;" horiz-adv-x="628" 
d="M150 1227c0 49.333 13.499 88.667 40.499 118s62.833 44 107.5 44c54 0 97.5 -21.5 130.5 -64.5s49.5 -99.5 49.5 -169.5c0 -146 -77.667 -274 -233 -384l-48 65c54.667 35.333 94 70 118 104s41 78.333 51 133c-31.333 -8 -54.666 -12 -69.999 -12
c-44 0 -79.333 15.333 -106 46s-40 70.667 -40 120z" />
    <glyph glyph-name="quotesinglbase" unicode="&#x201a;" horiz-adv-x="628" 
d="M150 142c0 49.333 13.5 88.667 40.5 118s62.833 44 107.5 44c60 0 106 -24.667 138 -74c28 -44.667 42 -98 42 -160c0 -146.667 -77.667 -274.667 -233 -384l-48 64c54.667 36 94 71 118 105s41 78 51 132c-32 -7.33301 -55.333 -11 -70 -11
c-44 0 -79.333 15.333 -106 46s-40 70.667 -40 120z" />
    <glyph glyph-name="quotedblleft" unicode="&#x201c;" horiz-adv-x="1106" 
d="M150 1006c0 146 77.332 273.666 231.999 382.999l48 -64c-54 -36 -93.167 -71 -117.5 -105s-41.166 -78 -50.499 -132c30.667 8 54 12 70 12c44 0 79.333 -15.333 106 -46s40 -70.667 40 -120s-13.5 -88.666 -40.5 -117.999s-62.833 -44 -107.5 -44
c-60 0 -106 24.667 -138 74c-28 44 -42 97.333 -42 160zM627.999 1006c0 146 77.333 273.666 232 382.999l48 -64c-54 -36 -93.167 -71 -117.5 -105s-41.5 -78 -51.5 -132c31.333 8 55 12 71 12c44 0 79.333 -15.167 106 -45.5s40 -70.5 40 -120.5
c0 -49.333 -13.5 -88.666 -40.5 -117.999s-62.833 -44 -107.5 -44c-60 0 -106 24.667 -138 74c-28 44 -42 97.333 -42 160z" />
    <glyph glyph-name="quotedblright" unicode="&#x201d;" horiz-adv-x="1106" 
d="M150 1227c0 49.333 13.499 88.667 40.499 118s62.833 44 107.5 44c54 0 97.5 -21.5 130.5 -64.5s49.5 -99.5 49.5 -169.5c0 -146 -77.667 -274 -233 -384l-48 65c54.667 35.333 94 70 118 104s41 78.333 51 133c-31.333 -8 -54.666 -12 -69.999 -12
c-44 0 -79.333 15.333 -106 46s-40 70.667 -40 120zM627.999 1227c0 49.333 13.499 88.667 40.499 118s62.833 44 107.5 44c54 0 97.5 -21.5 130.5 -64.5s49.5 -99.5 49.5 -169.5c0 -146 -77.667 -274 -233 -384l-48 65c54.667 35.333 94 70 118 104s41 78.333 51 133
c-31.333 -8 -54.666 -12 -69.999 -12c-44 0 -79.333 15.333 -106 46s-40 70.667 -40 120z" />
    <glyph glyph-name="quotedblbase" unicode="&#x201e;" horiz-adv-x="1106" 
d="M150 142c0 49.333 13.5 88.667 40.5 118s62.833 44 107.5 44c60 0 106 -24.667 138 -74c28 -44.667 42 -98 42 -160c0 -146.667 -77.667 -274.667 -233 -384l-48 64c54.667 36 94 71 118 105s41 78 51 132c-32 -7.33301 -55.333 -11 -70 -11
c-44 0 -79.333 15.333 -106 46s-40 70.667 -40 120zM628 142.001c0 49.333 13.5 88.667 40.5 118s62.833 44 107.5 44c60 0 106 -24.667 138 -74c28 -44.667 42 -98 42 -160c0 -146 -77.667 -274 -233 -384l-48 64c54.667 36 94 71 118 105s41 78 51 132
c-32 -7.33301 -55.333 -11 -70 -11c-44 0 -79.333 15.333 -106 46s-40 70.667 -40 120z" />
    <glyph glyph-name="bullet" unicode="&#x2022;" horiz-adv-x="1365" 
d="M401 693c0 80.667 28.0029 148 84.0029 202c56 55.333 124 83 204 83c75.333 0 140.666 -27.667 195.999 -83c56 -55.333 84 -122.333 84 -201s-28 -145.667 -84 -201c-54.667 -55.333 -121.334 -83 -200.001 -83s-145.334 27.667 -200.001 83
c-56 55.333 -84 122 -84 200z" />
    <glyph glyph-name="ellipsis" unicode="&#x2026;" horiz-adv-x="1884" 
d="M150 141c0 44.667 15.833 82.833 47.5 114.5s70.5 47.834 116.5 48.501c46 0 84.833 -16 116.5 -48s47.5 -71 47.5 -117c0 -44.667 -16.167 -83 -48.5 -115s-70.833 -48 -115.5 -48c-45.333 0 -84 16.167 -116 48.5s-48 71.166 -48 116.499zM778 140.999
c0 44.667 15.833 82.833 47.5 114.5s70.5 47.834 116.5 48.501c46 0 84.833 -16 116.5 -48s47.5 -71 47.5 -117c0 -44.667 -16.167 -83 -48.5 -115s-70.833 -48 -115.5 -48c-45.333 0 -84 16.167 -116 48.5s-48 71.166 -48 116.499zM1406 140.998
c0 44.667 15.833 82.833 47.5 114.5s70.5 47.834 116.5 48.501c46 0 84.833 -16 116.5 -48s47.5 -71 47.5 -117c0 -44.667 -16.167 -83 -48.5 -115s-70.833 -48 -115.5 -48c-45.333 0 -84 16.167 -116 48.5s-48 71.166 -48 116.499z" />
    <glyph glyph-name="uni202F" unicode="&#x202f;" horiz-adv-x="362" 
 />
    <glyph glyph-name="guilsinglleft" unicode="&#x2039;" horiz-adv-x="640" 
d="M123 580l194 403h173l-196 -403l196 -403h-173z" />
    <glyph glyph-name="guilsinglright" unicode="&#x203a;" horiz-adv-x="640" 
d="M150 177l196 403l-196 403h173l194 -403l-194 -403h-173z" />
    <glyph glyph-name="uni205F" unicode="&#x205f;" horiz-adv-x="453" 
 />
    <glyph glyph-name="Euro" unicode="&#x20ac;" 
d="M65 352l45.001 265.999h32c4.66699 -43.333 25.334 -65 62.001 -65h22c-6 43.333 -9 86 -9 128c0 30.667 1 57.667 3 81h-39c-37.333 0 -65.333 -21.333 -84 -64h-32l45 266h32c4.66699 -43.333 25.334 -65 62.001 -65h39c37.333 148 108.333 265.667 213 353
c110.667 91.333 245.334 137 404.001 137c113.333 0 220.666 -27.333 321.999 -82c56.667 -30.667 90 -46 100 -46c12 0 27.333 8.66699 46 26l26 -18l-220 -315l-27 18c1.33301 10.667 2 19.667 2 27c0 16.667 -8.33301 35 -25 55
c-56.667 68 -131.334 102.333 -224.001 103c-146.667 1.33301 -248.667 -84.667 -306 -258h344c36.667 0 64 21.667 82 65h33l-45 -266h-32c-4.66699 42.667 -25.667 64 -63 64h-348c-3.33301 -29.333 -5 -56.333 -5 -81c0 -41.333 4 -84 12 -128h306
c36.667 0 64 21.667 82 65h33l-45 -266h-32c-4.66699 42.667 -25.667 64 -63 64h-240c61.333 -140 157 -209.333 287 -208c93.333 0.666992 168.666 35.334 225.999 104.001c16.667 20 25 38 25 54c0 7.33301 -0.666992 16.333 -2 27l27 18l220 -315l-26 -18
c-18.667 17.333 -34 26 -46 26c-10 0 -43.333 -15.333 -100 -46c-101.333 -54.667 -209.333 -82 -324 -82c-150 0 -278.667 40.667 -386 122c-102.667 77.333 -175.334 183.333 -218.001 318h-75c-37.333 0 -65.333 -21.333 -84 -64h-32z" />
    <glyph glyph-name="trademark" unicode="&#x2122;" horiz-adv-x="2083" 
d="M2 1190v211h32c4 -14.667 8.66699 -24.334 14 -29.001s14 -7 26 -7h710c11.333 0 19.666 2.33301 24.999 7s10 14.334 14 29.001h32v-211h-32c-4 14 -8.66699 23.333 -14 28s-13.666 7 -24.999 7h-256v-573c0 -10 2.66699 -17.333 8 -22s16 -9 32 -13v-30h-278v30
c16 4 26.667 8.33301 32 13s8 12 8 22v573h-256c-12 0 -20.667 -2.33301 -26 -7s-10 -14 -14 -28h-32zM926 587l0.000976562 30c16 4 26.667 8.33301 32 13s8 12 8 22v648c0 10 -2.66699 17.5 -8 22.5s-16 9.16699 -32 12.5v30h340v-30c-19.333 -4 -29 -12.333 -29 -25
c0 -6.66699 2.66699 -14.334 8 -23.001l225 -375l227 368c10 16 15 27.333 15 34c0 12.667 -10.333 19.334 -31 20.001v31h333v-30c-16 -3.33301 -26.667 -7.5 -32 -12.5s-8 -12.5 -8 -22.5v-648c0 -10 2.66699 -17.333 8 -22s16 -9 32 -13v-30h-277v30
c15.333 4 25.666 8.33301 30.999 13s8 12 8 22v447l-322 -508l-305 507v-446c0 -10 2.66699 -17.333 8 -22s16 -9 32 -13v-30h-263z" />
    <glyph glyph-name="uni25FC" unicode="&#x25fc;" horiz-adv-x="1120" 
d="M0 0v1120h1120v-1120h-1120z" />
    <glyph glyph-name="glyph1" horiz-adv-x="0" 
 />
    <glyph glyph-name="glyph2" horiz-adv-x="682" 
 />
    </font>
</defs>
</svg>
